G04 #@! TF.GenerationSoftware,KiCad,Pcbnew,6.0.7-1.fc35*
G04 #@! TF.CreationDate,2022-09-05T19:22:16-05:00*
G04 #@! TF.ProjectId,cam-adapter,63616d2d-6164-4617-9074-65722e6b6963,rev?*
G04 #@! TF.SameCoordinates,Original*
G04 #@! TF.FileFunction,Copper,L1,Top*
G04 #@! TF.FilePolarity,Positive*
%FSLAX46Y46*%
G04 Gerber Fmt 4.6, Leading zero omitted, Abs format (unit mm)*
G04 Created by KiCad (PCBNEW 6.0.7-1.fc35) date 2022-09-05 19:22:16*
%MOMM*%
%LPD*%
G01*
G04 APERTURE LIST*
G04 Aperture macros list*
%AMRoundRect*
0 Rectangle with rounded corners*
0 $1 Rounding radius*
0 $2 $3 $4 $5 $6 $7 $8 $9 X,Y pos of 4 corners*
0 Add a 4 corners polygon primitive as box body*
4,1,4,$2,$3,$4,$5,$6,$7,$8,$9,$2,$3,0*
0 Add four circle primitives for the rounded corners*
1,1,$1+$1,$2,$3*
1,1,$1+$1,$4,$5*
1,1,$1+$1,$6,$7*
1,1,$1+$1,$8,$9*
0 Add four rect primitives between the rounded corners*
20,1,$1+$1,$2,$3,$4,$5,0*
20,1,$1+$1,$4,$5,$6,$7,0*
20,1,$1+$1,$6,$7,$8,$9,0*
20,1,$1+$1,$8,$9,$2,$3,0*%
G04 Aperture macros list end*
G04 #@! TA.AperFunction,SMDPad,CuDef*
%ADD10R,0.610000X2.000000*%
G04 #@! TD*
G04 #@! TA.AperFunction,SMDPad,CuDef*
%ADD11R,2.680000X3.600000*%
G04 #@! TD*
G04 #@! TA.AperFunction,SMDPad,CuDef*
%ADD12RoundRect,0.160000X-0.160000X0.197500X-0.160000X-0.197500X0.160000X-0.197500X0.160000X0.197500X0*%
G04 #@! TD*
G04 #@! TA.AperFunction,SMDPad,CuDef*
%ADD13RoundRect,0.155000X0.212500X0.155000X-0.212500X0.155000X-0.212500X-0.155000X0.212500X-0.155000X0*%
G04 #@! TD*
G04 #@! TA.AperFunction,ViaPad*
%ADD14C,0.800000*%
G04 #@! TD*
G04 #@! TA.AperFunction,Conductor*
%ADD15C,0.500000*%
G04 #@! TD*
G04 #@! TA.AperFunction,Conductor*
%ADD16C,0.220000*%
G04 #@! TD*
G04 APERTURE END LIST*
D10*
G04 #@! TO.P,J1,1,1*
G04 #@! TO.N,GND*
X122000000Y-85750000D03*
G04 #@! TO.P,J1,2,2*
G04 #@! TO.N,/CAM1_D0-*
X121000000Y-85750000D03*
G04 #@! TO.P,J1,3,3*
G04 #@! TO.N,/CAM1_D0+*
X120000000Y-85750000D03*
G04 #@! TO.P,J1,4,4*
G04 #@! TO.N,GND*
X119000000Y-85750000D03*
G04 #@! TO.P,J1,5,5*
G04 #@! TO.N,/CAM1_D1-*
X118000000Y-85750000D03*
G04 #@! TO.P,J1,6,6*
G04 #@! TO.N,/CAM1_D1+*
X117000000Y-85750000D03*
G04 #@! TO.P,J1,7,7*
G04 #@! TO.N,GND*
X116000000Y-85750000D03*
G04 #@! TO.P,J1,8,8*
G04 #@! TO.N,/CAM1_CK-*
X115000000Y-85750000D03*
G04 #@! TO.P,J1,9,9*
G04 #@! TO.N,/CAM1_CK+*
X114000000Y-85750000D03*
G04 #@! TO.P,J1,10,10*
G04 #@! TO.N,GND*
X113000000Y-85750000D03*
G04 #@! TO.P,J1,11,11*
G04 #@! TO.N,/CAM_GPIO*
X112000000Y-85750000D03*
G04 #@! TO.P,J1,12,12*
G04 #@! TO.N,/CAM_CLK*
X111000000Y-85750000D03*
G04 #@! TO.P,J1,13,13*
G04 #@! TO.N,SCL0*
X110000000Y-85750000D03*
G04 #@! TO.P,J1,14,14*
G04 #@! TO.N,SDA0*
X109000000Y-85750000D03*
G04 #@! TO.P,J1,15,15*
G04 #@! TO.N,+3.3V*
X108000000Y-85750000D03*
D11*
G04 #@! TO.P,J1,S1,SHIELD*
G04 #@! TO.N,GND*
X124990000Y-82950000D03*
G04 #@! TO.P,J1,S2,SHIELD*
X105010000Y-82950000D03*
G04 #@! TD*
D12*
G04 #@! TO.P,R1,1*
G04 #@! TO.N,+3.3V*
X104750000Y-86152500D03*
G04 #@! TO.P,R1,2*
G04 #@! TO.N,SDA0*
X104750000Y-87347500D03*
G04 #@! TD*
D13*
G04 #@! TO.P,C1,1*
G04 #@! TO.N,+3.3V*
X134567500Y-85750000D03*
G04 #@! TO.P,C1,2*
G04 #@! TO.N,GND*
X133432500Y-85750000D03*
G04 #@! TD*
D12*
G04 #@! TO.P,R2,1*
G04 #@! TO.N,+3.3V*
X106250000Y-86152500D03*
G04 #@! TO.P,R2,2*
G04 #@! TO.N,SCL0*
X106250000Y-87347500D03*
G04 #@! TD*
D14*
G04 #@! TO.N,+3.3V*
X138250000Y-93750000D03*
X137300000Y-93800000D03*
G04 #@! TO.N,GND*
X108250000Y-78000000D03*
X113750000Y-78000000D03*
X119250000Y-78000000D03*
X124250000Y-78000000D03*
X102500000Y-78000000D03*
X121750000Y-81250000D03*
X119000000Y-87750000D03*
X113000000Y-87750000D03*
X122000000Y-87750000D03*
X111250000Y-81250000D03*
X132000000Y-85750000D03*
X116750000Y-81250000D03*
G04 #@! TO.N,/CAM_GPIO*
X116500000Y-97750000D03*
G04 #@! TO.N,/CAM1_D0+*
X120050000Y-83982024D03*
G04 #@! TO.N,/CAM_CLK*
X115500000Y-97750000D03*
G04 #@! TO.N,/CAM1_D0-*
X120950000Y-83982024D03*
G04 #@! TO.N,SCL0*
X114500000Y-97750000D03*
X110000000Y-87500000D03*
X107250000Y-87500000D03*
G04 #@! TO.N,/CAM1_D1+*
X117050000Y-83982024D03*
G04 #@! TO.N,SDA0*
X113500000Y-97750000D03*
G04 #@! TO.N,/CAM1_D1-*
X117950000Y-83982024D03*
G04 #@! TO.N,/CAM1_CK+*
X114050000Y-83982024D03*
G04 #@! TO.N,/CAM1_CK-*
X114950000Y-83982024D03*
G04 #@! TD*
D15*
G04 #@! TO.N,+3.3V*
X131500000Y-79750000D02*
X111500000Y-79750000D01*
D16*
X104750000Y-86152500D02*
X106250000Y-86152500D01*
D15*
X134567500Y-85750000D02*
X134567500Y-82817500D01*
X138250000Y-93750000D02*
X137400000Y-92900000D01*
X137400000Y-92900000D02*
X137400000Y-85750000D01*
D16*
X107597500Y-86152500D02*
X108000000Y-85750000D01*
D15*
X134567500Y-82817500D02*
X131500000Y-79750000D01*
X137300000Y-93800000D02*
X137300000Y-93000000D01*
X138200000Y-93800000D02*
X138250000Y-93750000D01*
X137300000Y-93000000D02*
X137400000Y-92900000D01*
D16*
X106250000Y-86152500D02*
X107597500Y-86152500D01*
D15*
X137300000Y-93800000D02*
X138200000Y-93800000D01*
X108000000Y-83250000D02*
X108000000Y-85750000D01*
X111500000Y-79750000D02*
X108000000Y-83250000D01*
X137400000Y-85750000D02*
X134567500Y-85750000D01*
G04 #@! TO.N,GND*
X116000000Y-82000000D02*
X116750000Y-81250000D01*
X122000000Y-85750000D02*
X122000000Y-81500000D01*
X119000000Y-82500000D02*
X120250000Y-81250000D01*
X119000000Y-85750000D02*
X119000000Y-87750000D01*
X113000000Y-83000000D02*
X111250000Y-81250000D01*
X116000000Y-85750000D02*
X116000000Y-82000000D01*
X133432500Y-85750000D02*
X132000000Y-85750000D01*
X120250000Y-81250000D02*
X121750000Y-81250000D01*
X113000000Y-85750000D02*
X113000000Y-83000000D01*
X122000000Y-85750000D02*
X122000000Y-87750000D01*
X113000000Y-85750000D02*
X113000000Y-87750000D01*
X119000000Y-85750000D02*
X119000000Y-82500000D01*
X122000000Y-81500000D02*
X121750000Y-81250000D01*
D16*
G04 #@! TO.N,/CAM_GPIO*
X112000000Y-93250000D02*
X116500000Y-97750000D01*
X112000000Y-85750000D02*
X112000000Y-93250000D01*
G04 #@! TO.N,/CAM1_D0+*
X120000000Y-85055000D02*
X120340000Y-84715000D01*
X120000000Y-85750000D02*
X120000000Y-85055000D01*
X120340000Y-84715000D02*
X120339999Y-84272023D01*
X120339999Y-84272023D02*
X120050000Y-83982024D01*
G04 #@! TO.N,/CAM_CLK*
X111000000Y-93250000D02*
X111000000Y-85750000D01*
X115500000Y-97750000D02*
X111000000Y-93250000D01*
G04 #@! TO.N,/CAM1_D0-*
X120660000Y-84715000D02*
X120660001Y-84272023D01*
X120660001Y-84272023D02*
X120950000Y-83982024D01*
X121000000Y-85750000D02*
X121000000Y-85055000D01*
X121000000Y-85055000D02*
X120660000Y-84715000D01*
G04 #@! TO.N,SCL0*
X106402500Y-87500000D02*
X106250000Y-87347500D01*
X110000000Y-85750000D02*
X110000000Y-93250000D01*
X110000000Y-93250000D02*
X114500000Y-97750000D01*
X107250000Y-87500000D02*
X106402500Y-87500000D01*
G04 #@! TO.N,/CAM1_D1+*
X117000000Y-85055000D02*
X117340000Y-84715000D01*
X117340000Y-84715000D02*
X117339999Y-84272023D01*
X117000000Y-85750000D02*
X117000000Y-85055000D01*
X117339999Y-84272023D02*
X117050000Y-83982024D01*
G04 #@! TO.N,SDA0*
X106152500Y-88750000D02*
X104750000Y-87347500D01*
X109000000Y-88750000D02*
X109000000Y-85750000D01*
X109000000Y-93250000D02*
X109000000Y-88750000D01*
X113500000Y-97750000D02*
X109000000Y-93250000D01*
X109000000Y-88750000D02*
X106152500Y-88750000D01*
G04 #@! TO.N,/CAM1_D1-*
X117660000Y-84715000D02*
X117660001Y-84272023D01*
X118000000Y-85750000D02*
X118000000Y-85055000D01*
X117660001Y-84272023D02*
X117950000Y-83982024D01*
X118000000Y-85055000D02*
X117660000Y-84715000D01*
G04 #@! TO.N,/CAM1_CK+*
X114000000Y-85750000D02*
X114000000Y-85055000D01*
X114339999Y-84272023D02*
X114050000Y-83982024D01*
X114000000Y-85055000D02*
X114340000Y-84715000D01*
X114340000Y-84715000D02*
X114339999Y-84272023D01*
G04 #@! TO.N,/CAM1_CK-*
X115000000Y-85055000D02*
X114660000Y-84715000D01*
X115000000Y-85750000D02*
X115000000Y-85055000D01*
X114660001Y-84272023D02*
X114950000Y-83982024D01*
X114660000Y-84715000D02*
X114660001Y-84272023D01*
G04 #@! TD*
G04 #@! TA.AperFunction,Conductor*
G04 #@! TO.N,GND*
G36*
X125692121Y-75270002D02*
G01*
X125738614Y-75323658D01*
X125750000Y-75376000D01*
X125750000Y-79073500D01*
X125729998Y-79141621D01*
X125676342Y-79188114D01*
X125624000Y-79199500D01*
X111514993Y-79199500D01*
X111509717Y-79199389D01*
X111505310Y-79199204D01*
X111447706Y-79196790D01*
X111439341Y-79198752D01*
X111405338Y-79206727D01*
X111393667Y-79208890D01*
X111378771Y-79210931D01*
X111350568Y-79214794D01*
X111342684Y-79218206D01*
X111342683Y-79218206D01*
X111336770Y-79220765D01*
X111315501Y-79227799D01*
X111309228Y-79229270D01*
X111309226Y-79229271D01*
X111300864Y-79231232D01*
X111293336Y-79235371D01*
X111293335Y-79235371D01*
X111262735Y-79252194D01*
X111252073Y-79257417D01*
X111220027Y-79271284D01*
X111220026Y-79271285D01*
X111212145Y-79274695D01*
X111205472Y-79280099D01*
X111200459Y-79284158D01*
X111181871Y-79296649D01*
X111168692Y-79303894D01*
X111160578Y-79310898D01*
X111136043Y-79335433D01*
X111126242Y-79344258D01*
X111094930Y-79369614D01*
X111089954Y-79376616D01*
X111089952Y-79376618D01*
X111084032Y-79384949D01*
X111070421Y-79401055D01*
X107621358Y-82850118D01*
X107617549Y-82853771D01*
X107571844Y-82895799D01*
X107548901Y-82932802D01*
X107542200Y-82942552D01*
X107515888Y-82977217D01*
X107510354Y-82991195D01*
X107500293Y-83011199D01*
X107492365Y-83023986D01*
X107489968Y-83032237D01*
X107489967Y-83032239D01*
X107480225Y-83065772D01*
X107476380Y-83077002D01*
X107460364Y-83117453D01*
X107459466Y-83125994D01*
X107459466Y-83125995D01*
X107458792Y-83132408D01*
X107454480Y-83154383D01*
X107450285Y-83168825D01*
X107449500Y-83179515D01*
X107449500Y-83214217D01*
X107448810Y-83227387D01*
X107444599Y-83267454D01*
X107446031Y-83275919D01*
X107446031Y-83275928D01*
X107447735Y-83286000D01*
X107449500Y-83307013D01*
X107449500Y-84374000D01*
X107429498Y-84442121D01*
X107375842Y-84488614D01*
X107323500Y-84500000D01*
X106984000Y-84500000D01*
X106915879Y-84479998D01*
X106869386Y-84426342D01*
X106858000Y-84374000D01*
X106858000Y-83222115D01*
X106853525Y-83206876D01*
X106852135Y-83205671D01*
X106844452Y-83204000D01*
X103180116Y-83204000D01*
X103164877Y-83208475D01*
X103163672Y-83209865D01*
X103162001Y-83217548D01*
X103162001Y-84374000D01*
X103141999Y-84442121D01*
X103088343Y-84488614D01*
X103036001Y-84500000D01*
X101126000Y-84500000D01*
X101057879Y-84479998D01*
X101011386Y-84426342D01*
X101000000Y-84374000D01*
X101000000Y-82677885D01*
X103162000Y-82677885D01*
X103166475Y-82693124D01*
X103167865Y-82694329D01*
X103175548Y-82696000D01*
X104737885Y-82696000D01*
X104753124Y-82691525D01*
X104754329Y-82690135D01*
X104756000Y-82682452D01*
X104756000Y-82677885D01*
X105264000Y-82677885D01*
X105268475Y-82693124D01*
X105269865Y-82694329D01*
X105277548Y-82696000D01*
X106839884Y-82696000D01*
X106855123Y-82691525D01*
X106856328Y-82690135D01*
X106857999Y-82682452D01*
X106857999Y-81105331D01*
X106857629Y-81098510D01*
X106852105Y-81047648D01*
X106848479Y-81032396D01*
X106803324Y-80911946D01*
X106794786Y-80896351D01*
X106718285Y-80794276D01*
X106705724Y-80781715D01*
X106603649Y-80705214D01*
X106588054Y-80696676D01*
X106467606Y-80651522D01*
X106452351Y-80647895D01*
X106401486Y-80642369D01*
X106394672Y-80642000D01*
X105282115Y-80642000D01*
X105266876Y-80646475D01*
X105265671Y-80647865D01*
X105264000Y-80655548D01*
X105264000Y-82677885D01*
X104756000Y-82677885D01*
X104756000Y-80660116D01*
X104751525Y-80644877D01*
X104750135Y-80643672D01*
X104742452Y-80642001D01*
X103625331Y-80642001D01*
X103618510Y-80642371D01*
X103567648Y-80647895D01*
X103552396Y-80651521D01*
X103431946Y-80696676D01*
X103416351Y-80705214D01*
X103314276Y-80781715D01*
X103301715Y-80794276D01*
X103225214Y-80896351D01*
X103216676Y-80911946D01*
X103171522Y-81032394D01*
X103167895Y-81047649D01*
X103162369Y-81098514D01*
X103162000Y-81105328D01*
X103162000Y-82677885D01*
X101000000Y-82677885D01*
X101000000Y-75376000D01*
X101020002Y-75307879D01*
X101073658Y-75261386D01*
X101126000Y-75250000D01*
X125624000Y-75250000D01*
X125692121Y-75270002D01*
G37*
G04 #@! TD.AperFunction*
G04 #@! TA.AperFunction,Conductor*
G36*
X125692121Y-80320502D02*
G01*
X125738614Y-80374158D01*
X125750000Y-80426500D01*
X125750000Y-80516000D01*
X125729998Y-80584121D01*
X125676342Y-80630614D01*
X125624000Y-80642000D01*
X125262115Y-80642000D01*
X125246876Y-80646475D01*
X125245671Y-80647865D01*
X125244000Y-80655548D01*
X125244000Y-83078000D01*
X125223998Y-83146121D01*
X125170342Y-83192614D01*
X125118000Y-83204000D01*
X123160116Y-83204000D01*
X123144877Y-83208475D01*
X123143672Y-83209865D01*
X123142001Y-83217548D01*
X123142001Y-84374000D01*
X123121999Y-84442121D01*
X123068343Y-84488614D01*
X123016001Y-84500000D01*
X122815548Y-84500000D01*
X122747427Y-84479998D01*
X122714721Y-84449564D01*
X122673289Y-84394280D01*
X122660721Y-84381712D01*
X122558649Y-84305214D01*
X122543054Y-84296676D01*
X122422606Y-84251522D01*
X122407351Y-84247895D01*
X122356486Y-84242369D01*
X122349672Y-84242000D01*
X122272115Y-84242000D01*
X122256876Y-84246475D01*
X122255671Y-84247865D01*
X122254000Y-84255548D01*
X122254000Y-84500000D01*
X121746000Y-84500000D01*
X121746000Y-84260116D01*
X121741525Y-84244877D01*
X121740135Y-84243672D01*
X121738419Y-84243299D01*
X121676107Y-84209274D01*
X121642081Y-84146963D01*
X121640458Y-84102425D01*
X121654909Y-84000886D01*
X121654909Y-84000883D01*
X121655490Y-83996802D01*
X121655645Y-83982024D01*
X121653840Y-83967104D01*
X121636188Y-83821244D01*
X121635276Y-83813704D01*
X121575345Y-83655101D01*
X121479312Y-83515373D01*
X121437394Y-83478025D01*
X121358392Y-83407636D01*
X121358388Y-83407634D01*
X121352721Y-83402584D01*
X121202881Y-83323248D01*
X121038441Y-83281943D01*
X121030843Y-83281903D01*
X121030841Y-83281903D01*
X120953668Y-83281499D01*
X120868895Y-83281055D01*
X120861508Y-83282829D01*
X120861504Y-83282829D01*
X120718162Y-83317244D01*
X120704032Y-83320636D01*
X120697288Y-83324117D01*
X120697285Y-83324118D01*
X120556935Y-83396558D01*
X120487227Y-83410027D01*
X120440186Y-83395947D01*
X120414301Y-83382242D01*
X120302881Y-83323248D01*
X120138441Y-83281943D01*
X120130843Y-83281903D01*
X120130841Y-83281903D01*
X120053668Y-83281499D01*
X119968895Y-83281055D01*
X119961508Y-83282829D01*
X119961504Y-83282829D01*
X119818162Y-83317244D01*
X119804032Y-83320636D01*
X119797288Y-83324117D01*
X119797285Y-83324118D01*
X119792089Y-83326800D01*
X119653369Y-83398399D01*
X119647647Y-83403391D01*
X119647645Y-83403392D01*
X119604397Y-83441120D01*
X119525604Y-83509855D01*
X119428113Y-83648571D01*
X119366524Y-83806537D01*
X119344394Y-83974635D01*
X119347292Y-84000886D01*
X119359126Y-84108080D01*
X119346720Y-84177984D01*
X119298490Y-84230084D01*
X119269384Y-84242802D01*
X119256876Y-84246475D01*
X119255671Y-84247865D01*
X119254000Y-84255548D01*
X119254000Y-84500000D01*
X118746000Y-84500000D01*
X118746000Y-84260116D01*
X118741525Y-84244877D01*
X118740135Y-84243672D01*
X118738419Y-84243299D01*
X118676107Y-84209274D01*
X118642081Y-84146963D01*
X118640458Y-84102425D01*
X118654909Y-84000886D01*
X118654909Y-84000883D01*
X118655490Y-83996802D01*
X118655645Y-83982024D01*
X118653840Y-83967104D01*
X118636188Y-83821244D01*
X118635276Y-83813704D01*
X118575345Y-83655101D01*
X118479312Y-83515373D01*
X118437394Y-83478025D01*
X118358392Y-83407636D01*
X118358388Y-83407634D01*
X118352721Y-83402584D01*
X118202881Y-83323248D01*
X118038441Y-83281943D01*
X118030843Y-83281903D01*
X118030841Y-83281903D01*
X117953668Y-83281499D01*
X117868895Y-83281055D01*
X117861508Y-83282829D01*
X117861504Y-83282829D01*
X117718162Y-83317244D01*
X117704032Y-83320636D01*
X117697288Y-83324117D01*
X117697285Y-83324118D01*
X117556935Y-83396558D01*
X117487227Y-83410027D01*
X117440186Y-83395947D01*
X117414301Y-83382242D01*
X117302881Y-83323248D01*
X117138441Y-83281943D01*
X117130843Y-83281903D01*
X117130841Y-83281903D01*
X117053668Y-83281499D01*
X116968895Y-83281055D01*
X116961508Y-83282829D01*
X116961504Y-83282829D01*
X116818162Y-83317244D01*
X116804032Y-83320636D01*
X116797288Y-83324117D01*
X116797285Y-83324118D01*
X116792089Y-83326800D01*
X116653369Y-83398399D01*
X116647647Y-83403391D01*
X116647645Y-83403392D01*
X116604397Y-83441120D01*
X116525604Y-83509855D01*
X116428113Y-83648571D01*
X116366524Y-83806537D01*
X116344394Y-83974635D01*
X116347292Y-84000886D01*
X116359126Y-84108080D01*
X116346720Y-84177984D01*
X116298490Y-84230084D01*
X116269384Y-84242802D01*
X116256876Y-84246475D01*
X116255671Y-84247865D01*
X116254000Y-84255548D01*
X116254000Y-84500000D01*
X115746000Y-84500000D01*
X115746000Y-84260116D01*
X115741525Y-84244877D01*
X115740135Y-84243672D01*
X115738419Y-84243299D01*
X115676107Y-84209274D01*
X115642081Y-84146963D01*
X115640458Y-84102425D01*
X115654909Y-84000886D01*
X115654909Y-84000883D01*
X115655490Y-83996802D01*
X115655645Y-83982024D01*
X115653840Y-83967104D01*
X115636188Y-83821244D01*
X115635276Y-83813704D01*
X115575345Y-83655101D01*
X115479312Y-83515373D01*
X115437394Y-83478025D01*
X115358392Y-83407636D01*
X115358388Y-83407634D01*
X115352721Y-83402584D01*
X115202881Y-83323248D01*
X115038441Y-83281943D01*
X115030843Y-83281903D01*
X115030841Y-83281903D01*
X114953668Y-83281499D01*
X114868895Y-83281055D01*
X114861508Y-83282829D01*
X114861504Y-83282829D01*
X114718162Y-83317244D01*
X114704032Y-83320636D01*
X114697288Y-83324117D01*
X114697285Y-83324118D01*
X114556935Y-83396558D01*
X114487227Y-83410027D01*
X114440186Y-83395947D01*
X114414301Y-83382242D01*
X114302881Y-83323248D01*
X114138441Y-83281943D01*
X114130843Y-83281903D01*
X114130841Y-83281903D01*
X114053668Y-83281499D01*
X113968895Y-83281055D01*
X113961508Y-83282829D01*
X113961504Y-83282829D01*
X113818162Y-83317244D01*
X113804032Y-83320636D01*
X113797288Y-83324117D01*
X113797285Y-83324118D01*
X113792089Y-83326800D01*
X113653369Y-83398399D01*
X113647647Y-83403391D01*
X113647645Y-83403392D01*
X113604397Y-83441120D01*
X113525604Y-83509855D01*
X113428113Y-83648571D01*
X113366524Y-83806537D01*
X113344394Y-83974635D01*
X113347292Y-84000886D01*
X113359126Y-84108080D01*
X113346720Y-84177984D01*
X113298490Y-84230084D01*
X113269384Y-84242802D01*
X113256876Y-84246475D01*
X113255671Y-84247865D01*
X113254000Y-84255548D01*
X113254000Y-84500000D01*
X112746000Y-84500000D01*
X112746000Y-84260116D01*
X112741525Y-84244877D01*
X112740135Y-84243672D01*
X112732452Y-84242001D01*
X112650331Y-84242001D01*
X112643510Y-84242371D01*
X112592648Y-84247895D01*
X112577396Y-84251521D01*
X112456946Y-84296676D01*
X112441351Y-84305214D01*
X112339276Y-84381715D01*
X112326716Y-84394275D01*
X112323127Y-84399064D01*
X112266269Y-84441579D01*
X112222300Y-84449500D01*
X111650354Y-84449500D01*
X111646650Y-84449941D01*
X111646647Y-84449941D01*
X111639254Y-84450821D01*
X111624154Y-84452618D01*
X111551199Y-84485023D01*
X111480825Y-84494395D01*
X111449106Y-84485111D01*
X111383995Y-84456326D01*
X111383994Y-84456326D01*
X111375327Y-84452494D01*
X111349646Y-84449500D01*
X110650354Y-84449500D01*
X110646650Y-84449941D01*
X110646647Y-84449941D01*
X110639254Y-84450821D01*
X110624154Y-84452618D01*
X110551199Y-84485023D01*
X110480825Y-84494395D01*
X110449106Y-84485111D01*
X110383995Y-84456326D01*
X110383994Y-84456326D01*
X110375327Y-84452494D01*
X110349646Y-84449500D01*
X109650354Y-84449500D01*
X109646650Y-84449941D01*
X109646647Y-84449941D01*
X109639254Y-84450821D01*
X109624154Y-84452618D01*
X109551199Y-84485023D01*
X109480825Y-84494395D01*
X109449106Y-84485111D01*
X109383995Y-84456326D01*
X109383994Y-84456326D01*
X109375327Y-84452494D01*
X109349646Y-84449500D01*
X108676500Y-84449500D01*
X108608379Y-84429498D01*
X108561886Y-84375842D01*
X108550500Y-84323500D01*
X108550500Y-83530215D01*
X108570502Y-83462094D01*
X108587405Y-83441120D01*
X109350640Y-82677885D01*
X123142000Y-82677885D01*
X123146475Y-82693124D01*
X123147865Y-82694329D01*
X123155548Y-82696000D01*
X124717885Y-82696000D01*
X124733124Y-82691525D01*
X124734329Y-82690135D01*
X124736000Y-82682452D01*
X124736000Y-80660115D01*
X124731525Y-80644876D01*
X124730135Y-80643671D01*
X124722452Y-80642000D01*
X123605331Y-80642001D01*
X123598510Y-80642371D01*
X123547648Y-80647895D01*
X123532396Y-80651521D01*
X123411946Y-80696676D01*
X123396351Y-80705214D01*
X123294276Y-80781715D01*
X123281715Y-80794276D01*
X123205214Y-80896351D01*
X123196676Y-80911946D01*
X123151522Y-81032394D01*
X123147895Y-81047649D01*
X123142369Y-81098514D01*
X123142000Y-81105328D01*
X123142000Y-82677885D01*
X109350640Y-82677885D01*
X111691120Y-80337405D01*
X111753432Y-80303379D01*
X111780215Y-80300500D01*
X125624000Y-80300500D01*
X125692121Y-80320502D01*
G37*
G04 #@! TD.AperFunction*
G04 #@! TD*
M02*
