G04 #@! TF.GenerationSoftware,KiCad,Pcbnew,6.0.7-1.fc35*
G04 #@! TF.CreationDate,2022-09-05T19:22:16-05:00*
G04 #@! TF.ProjectId,cam-adapter,63616d2d-6164-4617-9074-65722e6b6963,rev?*
G04 #@! TF.SameCoordinates,Original*
G04 #@! TF.FileFunction,Soldermask,Top*
G04 #@! TF.FilePolarity,Negative*
%FSLAX46Y46*%
G04 Gerber Fmt 4.6, Leading zero omitted, Abs format (unit mm)*
G04 Created by KiCad (PCBNEW 6.0.7-1.fc35) date 2022-09-05 19:22:16*
%MOMM*%
%LPD*%
G01*
G04 APERTURE LIST*
G04 Aperture macros list*
%AMRoundRect*
0 Rectangle with rounded corners*
0 $1 Rounding radius*
0 $2 $3 $4 $5 $6 $7 $8 $9 X,Y pos of 4 corners*
0 Add a 4 corners polygon primitive as box body*
4,1,4,$2,$3,$4,$5,$6,$7,$8,$9,$2,$3,0*
0 Add four circle primitives for the rounded corners*
1,1,$1+$1,$2,$3*
1,1,$1+$1,$4,$5*
1,1,$1+$1,$6,$7*
1,1,$1+$1,$8,$9*
0 Add four rect primitives between the rounded corners*
20,1,$1+$1,$2,$3,$4,$5,0*
20,1,$1+$1,$4,$5,$6,$7,0*
20,1,$1+$1,$6,$7,$8,$9,0*
20,1,$1+$1,$8,$9,$2,$3,0*%
G04 Aperture macros list end*
%ADD10C,0.150000*%
%ADD11R,0.610000X2.000000*%
%ADD12R,2.680000X3.600000*%
%ADD13RoundRect,0.160000X-0.160000X0.197500X-0.160000X-0.197500X0.160000X-0.197500X0.160000X0.197500X0*%
%ADD14RoundRect,0.155000X0.212500X0.155000X-0.212500X0.155000X-0.212500X-0.155000X0.212500X-0.155000X0*%
%ADD15C,0.800000*%
%ADD16C,1.200000*%
G04 APERTURE END LIST*
D10*
X138523809Y-73559523D02*
X138285714Y-73273809D01*
X138095238Y-73559523D02*
X138095238Y-72892857D01*
X138380952Y-72892857D01*
X138476190Y-72940476D01*
X138523809Y-73035714D01*
X138523809Y-73130952D01*
X138476190Y-73226190D01*
X138380952Y-73273809D01*
X138095238Y-73273809D01*
X138285714Y-72559523D02*
X138047619Y-72607142D01*
X137809523Y-72750000D01*
X137666666Y-72988095D01*
X137619047Y-73226190D01*
X137666666Y-73464285D01*
X137809523Y-73702380D01*
X138047619Y-73845238D01*
X138285714Y-73892857D01*
X138523809Y-73845238D01*
X138761904Y-73702380D01*
X138904761Y-73464285D01*
X138952380Y-73226190D01*
X138904761Y-72988095D01*
X138761904Y-72750000D01*
X138523809Y-72607142D01*
X138285714Y-72559523D01*
X140190476Y-72940476D02*
X140095238Y-72892857D01*
X139904761Y-72892857D01*
X139809523Y-72940476D01*
X139714285Y-73035714D01*
X139666666Y-73130952D01*
X139666666Y-73321428D01*
X139714285Y-73416666D01*
X139809523Y-73511904D01*
X139904761Y-73559523D01*
X140095238Y-73559523D01*
X140190476Y-73511904D01*
X140000000Y-72559523D02*
X139761904Y-72607142D01*
X139523809Y-72750000D01*
X139380952Y-72988095D01*
X139333333Y-73226190D01*
X139380952Y-73464285D01*
X139523809Y-73702380D01*
X139761904Y-73845238D01*
X140000000Y-73892857D01*
X140238095Y-73845238D01*
X140476190Y-73702380D01*
X140619047Y-73464285D01*
X140666666Y-73226190D01*
X140619047Y-72988095D01*
X140476190Y-72750000D01*
X140238095Y-72607142D01*
X140000000Y-72559523D01*
X141952380Y-73559523D02*
X141714285Y-73273809D01*
X141523809Y-73559523D02*
X141523809Y-72892857D01*
X141809523Y-72892857D01*
X141904761Y-72940476D01*
X141952380Y-73035714D01*
X141952380Y-73130952D01*
X141904761Y-73226190D01*
X141809523Y-73273809D01*
X141523809Y-73273809D01*
X141714285Y-72559523D02*
X141476190Y-72607142D01*
X141238095Y-72750000D01*
X141095238Y-72988095D01*
X141047619Y-73226190D01*
X141095238Y-73464285D01*
X141238095Y-73702380D01*
X141476190Y-73845238D01*
X141714285Y-73892857D01*
X141952380Y-73845238D01*
X142190476Y-73702380D01*
X142333333Y-73464285D01*
X142380952Y-73226190D01*
X142333333Y-72988095D01*
X142190476Y-72750000D01*
X141952380Y-72607142D01*
X141714285Y-72559523D01*
D11*
G04 #@! TO.C,J1*
X122000000Y-85750000D03*
X121000000Y-85750000D03*
X120000000Y-85750000D03*
X119000000Y-85750000D03*
X118000000Y-85750000D03*
X117000000Y-85750000D03*
X116000000Y-85750000D03*
X115000000Y-85750000D03*
X114000000Y-85750000D03*
X113000000Y-85750000D03*
X112000000Y-85750000D03*
X111000000Y-85750000D03*
X110000000Y-85750000D03*
X109000000Y-85750000D03*
X108000000Y-85750000D03*
D12*
X124990000Y-82950000D03*
X105010000Y-82950000D03*
G04 #@! TD*
D13*
G04 #@! TO.C,R1*
X104750000Y-86152500D03*
X104750000Y-87347500D03*
G04 #@! TD*
D14*
G04 #@! TO.C,C1*
X134567500Y-85750000D03*
X133432500Y-85750000D03*
G04 #@! TD*
D13*
G04 #@! TO.C,R2*
X106250000Y-86152500D03*
X106250000Y-87347500D03*
G04 #@! TD*
D15*
G04 #@! TO.C,J2*
X104400000Y-93500000D03*
D16*
X140600000Y-93500000D03*
G04 #@! TD*
M02*
