G04 #@! TF.GenerationSoftware,KiCad,Pcbnew,6.0.7-1.fc35*
G04 #@! TF.CreationDate,2022-09-05T19:22:16-05:00*
G04 #@! TF.ProjectId,cam-adapter,63616d2d-6164-4617-9074-65722e6b6963,rev?*
G04 #@! TF.SameCoordinates,Original*
G04 #@! TF.FileFunction,Copper,L3,Inr*
G04 #@! TF.FilePolarity,Positive*
%FSLAX46Y46*%
G04 Gerber Fmt 4.6, Leading zero omitted, Abs format (unit mm)*
G04 Created by KiCad (PCBNEW 6.0.7-1.fc35) date 2022-09-05 19:22:16*
%MOMM*%
%LPD*%
G01*
G04 APERTURE LIST*
G04 #@! TA.AperFunction,ViaPad*
%ADD10C,0.800000*%
G04 #@! TD*
G04 APERTURE END LIST*
D10*
G04 #@! TO.N,+3.3V*
X138250000Y-93750000D03*
X137300000Y-93800000D03*
G04 #@! TO.N,GND*
X108250000Y-78000000D03*
X113750000Y-78000000D03*
X119250000Y-78000000D03*
X124250000Y-78000000D03*
X102500000Y-78000000D03*
X121750000Y-81250000D03*
X119000000Y-87750000D03*
X113000000Y-87750000D03*
X122000000Y-87750000D03*
X111250000Y-81250000D03*
X132000000Y-85750000D03*
X116750000Y-81250000D03*
G04 #@! TO.N,/CAM_GPIO*
X116500000Y-97750000D03*
G04 #@! TO.N,/CAM1_D0+*
X120050000Y-83982024D03*
G04 #@! TO.N,/CAM_CLK*
X115500000Y-97750000D03*
G04 #@! TO.N,/CAM1_D0-*
X120950000Y-83982024D03*
G04 #@! TO.N,SCL0*
X114500000Y-97750000D03*
X110000000Y-87500000D03*
X107250000Y-87500000D03*
G04 #@! TO.N,/CAM1_D1+*
X117050000Y-83982024D03*
G04 #@! TO.N,SDA0*
X113500000Y-97750000D03*
G04 #@! TO.N,/CAM1_D1-*
X117950000Y-83982024D03*
G04 #@! TO.N,/CAM1_CK+*
X114050000Y-83982024D03*
G04 #@! TO.N,/CAM1_CK-*
X114950000Y-83982024D03*
G04 #@! TD*
G04 #@! TA.AperFunction,Conductor*
G04 #@! TO.N,GND*
G36*
X143942121Y-75270002D02*
G01*
X143988614Y-75323658D01*
X144000000Y-75376000D01*
X144000000Y-97874000D01*
X143979998Y-97942121D01*
X143926342Y-97988614D01*
X143874000Y-98000000D01*
X117527165Y-98000000D01*
X117459044Y-97979998D01*
X117412551Y-97926342D01*
X117401855Y-97860831D01*
X117413504Y-97750000D01*
X117393542Y-97560072D01*
X117334527Y-97378444D01*
X117239040Y-97213056D01*
X117111253Y-97071134D01*
X117004708Y-96993724D01*
X116962094Y-96962763D01*
X116962093Y-96962762D01*
X116956752Y-96958882D01*
X116950724Y-96956198D01*
X116950722Y-96956197D01*
X116788319Y-96883891D01*
X116788318Y-96883891D01*
X116782288Y-96881206D01*
X116688887Y-96861353D01*
X116601944Y-96842872D01*
X116601939Y-96842872D01*
X116595487Y-96841500D01*
X116404513Y-96841500D01*
X116398061Y-96842872D01*
X116398056Y-96842872D01*
X116311113Y-96861353D01*
X116217712Y-96881206D01*
X116051248Y-96955320D01*
X115980882Y-96964754D01*
X115948753Y-96955320D01*
X115782288Y-96881206D01*
X115688887Y-96861353D01*
X115601944Y-96842872D01*
X115601939Y-96842872D01*
X115595487Y-96841500D01*
X115404513Y-96841500D01*
X115398061Y-96842872D01*
X115398056Y-96842872D01*
X115311113Y-96861353D01*
X115217712Y-96881206D01*
X115051248Y-96955320D01*
X114980882Y-96964754D01*
X114948753Y-96955320D01*
X114782288Y-96881206D01*
X114688887Y-96861353D01*
X114601944Y-96842872D01*
X114601939Y-96842872D01*
X114595487Y-96841500D01*
X114404513Y-96841500D01*
X114398061Y-96842872D01*
X114398056Y-96842872D01*
X114311113Y-96861353D01*
X114217712Y-96881206D01*
X114051248Y-96955320D01*
X113980882Y-96964754D01*
X113948753Y-96955320D01*
X113782288Y-96881206D01*
X113688887Y-96861353D01*
X113601944Y-96842872D01*
X113601939Y-96842872D01*
X113595487Y-96841500D01*
X113404513Y-96841500D01*
X113398061Y-96842872D01*
X113398056Y-96842872D01*
X113311113Y-96861353D01*
X113217712Y-96881206D01*
X113211682Y-96883891D01*
X113211681Y-96883891D01*
X113049278Y-96956197D01*
X113049276Y-96956198D01*
X113043248Y-96958882D01*
X113037907Y-96962762D01*
X113037906Y-96962763D01*
X112995292Y-96993724D01*
X112888747Y-97071134D01*
X112760960Y-97213056D01*
X112665473Y-97378444D01*
X112606458Y-97560072D01*
X112586496Y-97750000D01*
X112598145Y-97860831D01*
X112585373Y-97930667D01*
X112536871Y-97982514D01*
X112472835Y-98000000D01*
X101126000Y-98000000D01*
X101057879Y-97979998D01*
X101011386Y-97926342D01*
X101000000Y-97874000D01*
X101000000Y-93595487D01*
X103491500Y-93595487D01*
X103492872Y-93601939D01*
X103492872Y-93601944D01*
X103505792Y-93662725D01*
X103531206Y-93782288D01*
X103533891Y-93788318D01*
X103533891Y-93788319D01*
X103604187Y-93946206D01*
X103608882Y-93956752D01*
X103612762Y-93962093D01*
X103612763Y-93962094D01*
X103632986Y-93989928D01*
X103721134Y-94111253D01*
X103863056Y-94239040D01*
X104028444Y-94334527D01*
X104210072Y-94393542D01*
X104216633Y-94394232D01*
X104216635Y-94394232D01*
X104269889Y-94399829D01*
X104352390Y-94408500D01*
X104447610Y-94408500D01*
X104530111Y-94399829D01*
X104583365Y-94394232D01*
X104583367Y-94394232D01*
X104589928Y-94393542D01*
X104771556Y-94334527D01*
X104936944Y-94239040D01*
X105078866Y-94111253D01*
X105167014Y-93989928D01*
X105187237Y-93962094D01*
X105187238Y-93962093D01*
X105191118Y-93956752D01*
X105195814Y-93946206D01*
X105260908Y-93800000D01*
X136386496Y-93800000D01*
X136387186Y-93806565D01*
X136403533Y-93962094D01*
X136406458Y-93989928D01*
X136465473Y-94171556D01*
X136560960Y-94336944D01*
X136565378Y-94341851D01*
X136565379Y-94341852D01*
X136625389Y-94408500D01*
X136688747Y-94478866D01*
X136774429Y-94541118D01*
X136812580Y-94568836D01*
X136843248Y-94591118D01*
X136849276Y-94593802D01*
X136849278Y-94593803D01*
X136994591Y-94658500D01*
X137017712Y-94668794D01*
X137111113Y-94688647D01*
X137198056Y-94707128D01*
X137198061Y-94707128D01*
X137204513Y-94708500D01*
X137395487Y-94708500D01*
X137401939Y-94707128D01*
X137401944Y-94707128D01*
X137488888Y-94688647D01*
X137582288Y-94668794D01*
X137608491Y-94657128D01*
X137750719Y-94593804D01*
X137750721Y-94593803D01*
X137756752Y-94591118D01*
X137762095Y-94587236D01*
X137765159Y-94585467D01*
X137834154Y-94568729D01*
X137879408Y-94579479D01*
X137961676Y-94616107D01*
X137961679Y-94616108D01*
X137967712Y-94618794D01*
X138009340Y-94627642D01*
X138148056Y-94657128D01*
X138148061Y-94657128D01*
X138154513Y-94658500D01*
X138345487Y-94658500D01*
X138351939Y-94657128D01*
X138351944Y-94657128D01*
X138438887Y-94638647D01*
X138532288Y-94618794D01*
X138557976Y-94607357D01*
X138700722Y-94543803D01*
X138700724Y-94543802D01*
X138706752Y-94541118D01*
X138720453Y-94531164D01*
X138792434Y-94478866D01*
X138861253Y-94428866D01*
X138894896Y-94391502D01*
X138984621Y-94291852D01*
X138984622Y-94291851D01*
X138989040Y-94286944D01*
X139067431Y-94151167D01*
X139081223Y-94127279D01*
X139081224Y-94127278D01*
X139084527Y-94121556D01*
X139143542Y-93939928D01*
X139152290Y-93856701D01*
X139162814Y-93756565D01*
X139163504Y-93750000D01*
X139143542Y-93560072D01*
X139106349Y-93445604D01*
X139487787Y-93445604D01*
X139497567Y-93656899D01*
X139498971Y-93662724D01*
X139498971Y-93662725D01*
X139526230Y-93775831D01*
X139547125Y-93862534D01*
X139549607Y-93867992D01*
X139549608Y-93867996D01*
X139592392Y-93962094D01*
X139634674Y-94055087D01*
X139757054Y-94227611D01*
X139909850Y-94373881D01*
X140087548Y-94488620D01*
X140093114Y-94490863D01*
X140278168Y-94565442D01*
X140278171Y-94565443D01*
X140283737Y-94567686D01*
X140491337Y-94608228D01*
X140496899Y-94608500D01*
X140652846Y-94608500D01*
X140810566Y-94593452D01*
X141013534Y-94533908D01*
X141097111Y-94490863D01*
X141196249Y-94439804D01*
X141196252Y-94439802D01*
X141201580Y-94437058D01*
X141367920Y-94306396D01*
X141371852Y-94301865D01*
X141371855Y-94301862D01*
X141502621Y-94151167D01*
X141506552Y-94146637D01*
X141509552Y-94141451D01*
X141509555Y-94141447D01*
X141609467Y-93968742D01*
X141612473Y-93963546D01*
X141681861Y-93763729D01*
X141703189Y-93616635D01*
X141711352Y-93560336D01*
X141711352Y-93560333D01*
X141712213Y-93554396D01*
X141702433Y-93343101D01*
X141652875Y-93137466D01*
X141647683Y-93126045D01*
X141571677Y-92958882D01*
X141565326Y-92944913D01*
X141442946Y-92772389D01*
X141290150Y-92626119D01*
X141112452Y-92511380D01*
X141052354Y-92487160D01*
X140921832Y-92434558D01*
X140921829Y-92434557D01*
X140916263Y-92432314D01*
X140708663Y-92391772D01*
X140703101Y-92391500D01*
X140547154Y-92391500D01*
X140389434Y-92406548D01*
X140186466Y-92466092D01*
X140181139Y-92468836D01*
X140181138Y-92468836D01*
X140003751Y-92560196D01*
X140003748Y-92560198D01*
X139998420Y-92562942D01*
X139832080Y-92693604D01*
X139828148Y-92698135D01*
X139828145Y-92698138D01*
X139759474Y-92777275D01*
X139693448Y-92853363D01*
X139690448Y-92858549D01*
X139690445Y-92858553D01*
X139630158Y-92962763D01*
X139587527Y-93036454D01*
X139518139Y-93236271D01*
X139517278Y-93242206D01*
X139517278Y-93242208D01*
X139492788Y-93411116D01*
X139487787Y-93445604D01*
X139106349Y-93445604D01*
X139084527Y-93378444D01*
X138989040Y-93213056D01*
X138861253Y-93071134D01*
X138706752Y-92958882D01*
X138700724Y-92956198D01*
X138700722Y-92956197D01*
X138538319Y-92883891D01*
X138538318Y-92883891D01*
X138532288Y-92881206D01*
X138425715Y-92858553D01*
X138351944Y-92842872D01*
X138351939Y-92842872D01*
X138345487Y-92841500D01*
X138154513Y-92841500D01*
X138148061Y-92842872D01*
X138148056Y-92842872D01*
X138074285Y-92858553D01*
X137967712Y-92881206D01*
X137961682Y-92883891D01*
X137961681Y-92883891D01*
X137938769Y-92894092D01*
X137793248Y-92958882D01*
X137787905Y-92962764D01*
X137784841Y-92964533D01*
X137715846Y-92981271D01*
X137670592Y-92970521D01*
X137588324Y-92933893D01*
X137588321Y-92933892D01*
X137582288Y-92931206D01*
X137540660Y-92922358D01*
X137401944Y-92892872D01*
X137401939Y-92892872D01*
X137395487Y-92891500D01*
X137204513Y-92891500D01*
X137198061Y-92892872D01*
X137198056Y-92892872D01*
X137111113Y-92911353D01*
X137017712Y-92931206D01*
X137011682Y-92933891D01*
X137011681Y-92933891D01*
X136849278Y-93006197D01*
X136849276Y-93006198D01*
X136843248Y-93008882D01*
X136837907Y-93012762D01*
X136837906Y-93012763D01*
X136803300Y-93037906D01*
X136688747Y-93121134D01*
X136684326Y-93126044D01*
X136684325Y-93126045D01*
X136579732Y-93242208D01*
X136560960Y-93263056D01*
X136557659Y-93268774D01*
X136479290Y-93404513D01*
X136465473Y-93428444D01*
X136406458Y-93610072D01*
X136386496Y-93800000D01*
X105260908Y-93800000D01*
X105266109Y-93788319D01*
X105266109Y-93788318D01*
X105268794Y-93782288D01*
X105294208Y-93662725D01*
X105307128Y-93601944D01*
X105307128Y-93601939D01*
X105308500Y-93595487D01*
X105308500Y-93404513D01*
X105301743Y-93372721D01*
X105288647Y-93311112D01*
X105268794Y-93217712D01*
X105264536Y-93208148D01*
X105193803Y-93049278D01*
X105193802Y-93049276D01*
X105191118Y-93043248D01*
X105078866Y-92888747D01*
X104936944Y-92760960D01*
X104771556Y-92665473D01*
X104589928Y-92606458D01*
X104583367Y-92605768D01*
X104583365Y-92605768D01*
X104530111Y-92600171D01*
X104447610Y-92591500D01*
X104352390Y-92591500D01*
X104269889Y-92600171D01*
X104216635Y-92605768D01*
X104216633Y-92605768D01*
X104210072Y-92606458D01*
X104028444Y-92665473D01*
X103863056Y-92760960D01*
X103721134Y-92888747D01*
X103608882Y-93043248D01*
X103606198Y-93049276D01*
X103606197Y-93049278D01*
X103535464Y-93208148D01*
X103531206Y-93217712D01*
X103511353Y-93311112D01*
X103498258Y-93372721D01*
X103491500Y-93404513D01*
X103491500Y-93595487D01*
X101000000Y-93595487D01*
X101000000Y-87500000D01*
X106336496Y-87500000D01*
X106356458Y-87689928D01*
X106415473Y-87871556D01*
X106510960Y-88036944D01*
X106638747Y-88178866D01*
X106793248Y-88291118D01*
X106799276Y-88293802D01*
X106799278Y-88293803D01*
X106961681Y-88366109D01*
X106967712Y-88368794D01*
X107061113Y-88388647D01*
X107148056Y-88407128D01*
X107148061Y-88407128D01*
X107154513Y-88408500D01*
X107345487Y-88408500D01*
X107351939Y-88407128D01*
X107351944Y-88407128D01*
X107438887Y-88388647D01*
X107532288Y-88368794D01*
X107538319Y-88366109D01*
X107700722Y-88293803D01*
X107700724Y-88293802D01*
X107706752Y-88291118D01*
X107861253Y-88178866D01*
X107989040Y-88036944D01*
X108084527Y-87871556D01*
X108143542Y-87689928D01*
X108163504Y-87500000D01*
X109086496Y-87500000D01*
X109106458Y-87689928D01*
X109165473Y-87871556D01*
X109260960Y-88036944D01*
X109388747Y-88178866D01*
X109543248Y-88291118D01*
X109549276Y-88293802D01*
X109549278Y-88293803D01*
X109711681Y-88366109D01*
X109717712Y-88368794D01*
X109811113Y-88388647D01*
X109898056Y-88407128D01*
X109898061Y-88407128D01*
X109904513Y-88408500D01*
X110095487Y-88408500D01*
X110101939Y-88407128D01*
X110101944Y-88407128D01*
X110188887Y-88388647D01*
X110282288Y-88368794D01*
X110288319Y-88366109D01*
X110450722Y-88293803D01*
X110450724Y-88293802D01*
X110456752Y-88291118D01*
X110611253Y-88178866D01*
X110739040Y-88036944D01*
X110834527Y-87871556D01*
X110893542Y-87689928D01*
X110913504Y-87500000D01*
X110893542Y-87310072D01*
X110834527Y-87128444D01*
X110739040Y-86963056D01*
X110611253Y-86821134D01*
X110456752Y-86708882D01*
X110450724Y-86706198D01*
X110450722Y-86706197D01*
X110288319Y-86633891D01*
X110288318Y-86633891D01*
X110282288Y-86631206D01*
X110188887Y-86611353D01*
X110101944Y-86592872D01*
X110101939Y-86592872D01*
X110095487Y-86591500D01*
X109904513Y-86591500D01*
X109898061Y-86592872D01*
X109898056Y-86592872D01*
X109811113Y-86611353D01*
X109717712Y-86631206D01*
X109711682Y-86633891D01*
X109711681Y-86633891D01*
X109549278Y-86706197D01*
X109549276Y-86706198D01*
X109543248Y-86708882D01*
X109388747Y-86821134D01*
X109260960Y-86963056D01*
X109165473Y-87128444D01*
X109106458Y-87310072D01*
X109086496Y-87500000D01*
X108163504Y-87500000D01*
X108143542Y-87310072D01*
X108084527Y-87128444D01*
X107989040Y-86963056D01*
X107861253Y-86821134D01*
X107706752Y-86708882D01*
X107700724Y-86706198D01*
X107700722Y-86706197D01*
X107538319Y-86633891D01*
X107538318Y-86633891D01*
X107532288Y-86631206D01*
X107438887Y-86611353D01*
X107351944Y-86592872D01*
X107351939Y-86592872D01*
X107345487Y-86591500D01*
X107154513Y-86591500D01*
X107148061Y-86592872D01*
X107148056Y-86592872D01*
X107061113Y-86611353D01*
X106967712Y-86631206D01*
X106961682Y-86633891D01*
X106961681Y-86633891D01*
X106799278Y-86706197D01*
X106799276Y-86706198D01*
X106793248Y-86708882D01*
X106638747Y-86821134D01*
X106510960Y-86963056D01*
X106415473Y-87128444D01*
X106356458Y-87310072D01*
X106336496Y-87500000D01*
X101000000Y-87500000D01*
X101000000Y-83982024D01*
X113136496Y-83982024D01*
X113156458Y-84171952D01*
X113215473Y-84353580D01*
X113310960Y-84518968D01*
X113438747Y-84660890D01*
X113593248Y-84773142D01*
X113599276Y-84775826D01*
X113599278Y-84775827D01*
X113761681Y-84848133D01*
X113767712Y-84850818D01*
X113861113Y-84870671D01*
X113948056Y-84889152D01*
X113948061Y-84889152D01*
X113954513Y-84890524D01*
X114145487Y-84890524D01*
X114151939Y-84889152D01*
X114151944Y-84889152D01*
X114238887Y-84870671D01*
X114332288Y-84850818D01*
X114448752Y-84798965D01*
X114519118Y-84789531D01*
X114551246Y-84798964D01*
X114667712Y-84850818D01*
X114761113Y-84870671D01*
X114848056Y-84889152D01*
X114848061Y-84889152D01*
X114854513Y-84890524D01*
X115045487Y-84890524D01*
X115051939Y-84889152D01*
X115051944Y-84889152D01*
X115138887Y-84870671D01*
X115232288Y-84850818D01*
X115238319Y-84848133D01*
X115400722Y-84775827D01*
X115400724Y-84775826D01*
X115406752Y-84773142D01*
X115561253Y-84660890D01*
X115689040Y-84518968D01*
X115784527Y-84353580D01*
X115843542Y-84171952D01*
X115863504Y-83982024D01*
X116136496Y-83982024D01*
X116156458Y-84171952D01*
X116215473Y-84353580D01*
X116310960Y-84518968D01*
X116438747Y-84660890D01*
X116593248Y-84773142D01*
X116599276Y-84775826D01*
X116599278Y-84775827D01*
X116761681Y-84848133D01*
X116767712Y-84850818D01*
X116861113Y-84870671D01*
X116948056Y-84889152D01*
X116948061Y-84889152D01*
X116954513Y-84890524D01*
X117145487Y-84890524D01*
X117151939Y-84889152D01*
X117151944Y-84889152D01*
X117238887Y-84870671D01*
X117332288Y-84850818D01*
X117448752Y-84798965D01*
X117519118Y-84789531D01*
X117551246Y-84798964D01*
X117667712Y-84850818D01*
X117761113Y-84870671D01*
X117848056Y-84889152D01*
X117848061Y-84889152D01*
X117854513Y-84890524D01*
X118045487Y-84890524D01*
X118051939Y-84889152D01*
X118051944Y-84889152D01*
X118138887Y-84870671D01*
X118232288Y-84850818D01*
X118238319Y-84848133D01*
X118400722Y-84775827D01*
X118400724Y-84775826D01*
X118406752Y-84773142D01*
X118561253Y-84660890D01*
X118689040Y-84518968D01*
X118784527Y-84353580D01*
X118843542Y-84171952D01*
X118863504Y-83982024D01*
X119136496Y-83982024D01*
X119156458Y-84171952D01*
X119215473Y-84353580D01*
X119310960Y-84518968D01*
X119438747Y-84660890D01*
X119593248Y-84773142D01*
X119599276Y-84775826D01*
X119599278Y-84775827D01*
X119761681Y-84848133D01*
X119767712Y-84850818D01*
X119861113Y-84870671D01*
X119948056Y-84889152D01*
X119948061Y-84889152D01*
X119954513Y-84890524D01*
X120145487Y-84890524D01*
X120151939Y-84889152D01*
X120151944Y-84889152D01*
X120238887Y-84870671D01*
X120332288Y-84850818D01*
X120448752Y-84798965D01*
X120519118Y-84789531D01*
X120551246Y-84798964D01*
X120667712Y-84850818D01*
X120761113Y-84870671D01*
X120848056Y-84889152D01*
X120848061Y-84889152D01*
X120854513Y-84890524D01*
X121045487Y-84890524D01*
X121051939Y-84889152D01*
X121051944Y-84889152D01*
X121138887Y-84870671D01*
X121232288Y-84850818D01*
X121238319Y-84848133D01*
X121400722Y-84775827D01*
X121400724Y-84775826D01*
X121406752Y-84773142D01*
X121561253Y-84660890D01*
X121689040Y-84518968D01*
X121784527Y-84353580D01*
X121843542Y-84171952D01*
X121863504Y-83982024D01*
X121843542Y-83792096D01*
X121784527Y-83610468D01*
X121689040Y-83445080D01*
X121561253Y-83303158D01*
X121406752Y-83190906D01*
X121400724Y-83188222D01*
X121400722Y-83188221D01*
X121238319Y-83115915D01*
X121238318Y-83115915D01*
X121232288Y-83113230D01*
X121138887Y-83093377D01*
X121051944Y-83074896D01*
X121051939Y-83074896D01*
X121045487Y-83073524D01*
X120854513Y-83073524D01*
X120848061Y-83074896D01*
X120848056Y-83074896D01*
X120761113Y-83093377D01*
X120667712Y-83113230D01*
X120551248Y-83165083D01*
X120480882Y-83174517D01*
X120448754Y-83165084D01*
X120332288Y-83113230D01*
X120238887Y-83093377D01*
X120151944Y-83074896D01*
X120151939Y-83074896D01*
X120145487Y-83073524D01*
X119954513Y-83073524D01*
X119948061Y-83074896D01*
X119948056Y-83074896D01*
X119861113Y-83093377D01*
X119767712Y-83113230D01*
X119761682Y-83115915D01*
X119761681Y-83115915D01*
X119599278Y-83188221D01*
X119599276Y-83188222D01*
X119593248Y-83190906D01*
X119438747Y-83303158D01*
X119310960Y-83445080D01*
X119215473Y-83610468D01*
X119156458Y-83792096D01*
X119136496Y-83982024D01*
X118863504Y-83982024D01*
X118843542Y-83792096D01*
X118784527Y-83610468D01*
X118689040Y-83445080D01*
X118561253Y-83303158D01*
X118406752Y-83190906D01*
X118400724Y-83188222D01*
X118400722Y-83188221D01*
X118238319Y-83115915D01*
X118238318Y-83115915D01*
X118232288Y-83113230D01*
X118138887Y-83093377D01*
X118051944Y-83074896D01*
X118051939Y-83074896D01*
X118045487Y-83073524D01*
X117854513Y-83073524D01*
X117848061Y-83074896D01*
X117848056Y-83074896D01*
X117761113Y-83093377D01*
X117667712Y-83113230D01*
X117551248Y-83165083D01*
X117480882Y-83174517D01*
X117448754Y-83165084D01*
X117332288Y-83113230D01*
X117238887Y-83093377D01*
X117151944Y-83074896D01*
X117151939Y-83074896D01*
X117145487Y-83073524D01*
X116954513Y-83073524D01*
X116948061Y-83074896D01*
X116948056Y-83074896D01*
X116861113Y-83093377D01*
X116767712Y-83113230D01*
X116761682Y-83115915D01*
X116761681Y-83115915D01*
X116599278Y-83188221D01*
X116599276Y-83188222D01*
X116593248Y-83190906D01*
X116438747Y-83303158D01*
X116310960Y-83445080D01*
X116215473Y-83610468D01*
X116156458Y-83792096D01*
X116136496Y-83982024D01*
X115863504Y-83982024D01*
X115843542Y-83792096D01*
X115784527Y-83610468D01*
X115689040Y-83445080D01*
X115561253Y-83303158D01*
X115406752Y-83190906D01*
X115400724Y-83188222D01*
X115400722Y-83188221D01*
X115238319Y-83115915D01*
X115238318Y-83115915D01*
X115232288Y-83113230D01*
X115138887Y-83093377D01*
X115051944Y-83074896D01*
X115051939Y-83074896D01*
X115045487Y-83073524D01*
X114854513Y-83073524D01*
X114848061Y-83074896D01*
X114848056Y-83074896D01*
X114761113Y-83093377D01*
X114667712Y-83113230D01*
X114551248Y-83165083D01*
X114480882Y-83174517D01*
X114448754Y-83165084D01*
X114332288Y-83113230D01*
X114238887Y-83093377D01*
X114151944Y-83074896D01*
X114151939Y-83074896D01*
X114145487Y-83073524D01*
X113954513Y-83073524D01*
X113948061Y-83074896D01*
X113948056Y-83074896D01*
X113861113Y-83093377D01*
X113767712Y-83113230D01*
X113761682Y-83115915D01*
X113761681Y-83115915D01*
X113599278Y-83188221D01*
X113599276Y-83188222D01*
X113593248Y-83190906D01*
X113438747Y-83303158D01*
X113310960Y-83445080D01*
X113215473Y-83610468D01*
X113156458Y-83792096D01*
X113136496Y-83982024D01*
X101000000Y-83982024D01*
X101000000Y-75376000D01*
X101020002Y-75307879D01*
X101073658Y-75261386D01*
X101126000Y-75250000D01*
X143874000Y-75250000D01*
X143942121Y-75270002D01*
G37*
G04 #@! TD.AperFunction*
G04 #@! TD*
M02*
