G04 #@! TF.GenerationSoftware,KiCad,Pcbnew,6.0.7-1.fc35*
G04 #@! TF.CreationDate,2022-09-05T19:22:16-05:00*
G04 #@! TF.ProjectId,cam-adapter,63616d2d-6164-4617-9074-65722e6b6963,rev?*
G04 #@! TF.SameCoordinates,Original*
G04 #@! TF.FileFunction,Copper,L4,Bot*
G04 #@! TF.FilePolarity,Positive*
%FSLAX46Y46*%
G04 Gerber Fmt 4.6, Leading zero omitted, Abs format (unit mm)*
G04 Created by KiCad (PCBNEW 6.0.7-1.fc35) date 2022-09-05 19:22:16*
%MOMM*%
%LPD*%
G01*
G04 APERTURE LIST*
G04 #@! TA.AperFunction,SMDPad,CuDef*
%ADD10R,0.500000X2.400000*%
G04 #@! TD*
G04 #@! TA.AperFunction,ViaPad*
%ADD11C,0.800000*%
G04 #@! TD*
G04 #@! TA.AperFunction,Conductor*
%ADD12C,0.200000*%
G04 #@! TD*
G04 #@! TA.AperFunction,Conductor*
%ADD13C,0.500000*%
G04 #@! TD*
G04 #@! TA.AperFunction,Conductor*
%ADD14C,0.220000*%
G04 #@! TD*
G04 APERTURE END LIST*
D10*
G04 #@! TO.P,J2,1,Pin_1*
G04 #@! TO.N,+3.3V*
X138100000Y-95900000D03*
G04 #@! TO.P,J2,2,Pin_2*
G04 #@! TO.N,unconnected-(J2-Pad2)*
X138100000Y-91100000D03*
G04 #@! TO.P,J2,3,Pin_3*
G04 #@! TO.N,+3.3V*
X137300000Y-95900000D03*
G04 #@! TO.P,J2,4,Pin_4*
G04 #@! TO.N,unconnected-(J2-Pad4)*
X137300000Y-91100000D03*
G04 #@! TO.P,J2,5,Pin_5*
G04 #@! TO.N,unconnected-(J2-Pad5)*
X136500000Y-95900000D03*
G04 #@! TO.P,J2,6,Pin_6*
G04 #@! TO.N,unconnected-(J2-Pad6)*
X136500000Y-91100000D03*
G04 #@! TO.P,J2,7,Pin_7*
G04 #@! TO.N,unconnected-(J2-Pad7)*
X135700000Y-95900000D03*
G04 #@! TO.P,J2,8,Pin_8*
G04 #@! TO.N,unconnected-(J2-Pad8)*
X135700000Y-91100000D03*
G04 #@! TO.P,J2,9,Pin_9*
G04 #@! TO.N,unconnected-(J2-Pad9)*
X134900000Y-95900000D03*
G04 #@! TO.P,J2,10,Pin_10*
G04 #@! TO.N,unconnected-(J2-Pad10)*
X134900000Y-91100000D03*
G04 #@! TO.P,J2,11,Pin_11*
G04 #@! TO.N,unconnected-(J2-Pad11)*
X134100000Y-95900000D03*
G04 #@! TO.P,J2,12,Pin_12*
G04 #@! TO.N,unconnected-(J2-Pad12)*
X134100000Y-91100000D03*
G04 #@! TO.P,J2,13,Pin_13*
G04 #@! TO.N,unconnected-(J2-Pad13)*
X133300000Y-95900000D03*
G04 #@! TO.P,J2,14,Pin_14*
G04 #@! TO.N,unconnected-(J2-Pad14)*
X133300000Y-91100000D03*
G04 #@! TO.P,J2,15,Pin_15*
G04 #@! TO.N,unconnected-(J2-Pad15)*
X132500000Y-95900000D03*
G04 #@! TO.P,J2,16,Pin_16*
G04 #@! TO.N,unconnected-(J2-Pad16)*
X132500000Y-91100000D03*
G04 #@! TO.P,J2,17,Pin_17*
G04 #@! TO.N,unconnected-(J2-Pad17)*
X131700000Y-95900000D03*
G04 #@! TO.P,J2,18,Pin_18*
G04 #@! TO.N,unconnected-(J2-Pad18)*
X131700000Y-91100000D03*
G04 #@! TO.P,J2,19,Pin_19*
G04 #@! TO.N,unconnected-(J2-Pad19)*
X130900000Y-95900000D03*
G04 #@! TO.P,J2,20,Pin_20*
G04 #@! TO.N,unconnected-(J2-Pad20)*
X130900000Y-91100000D03*
G04 #@! TO.P,J2,21,Pin_21*
G04 #@! TO.N,unconnected-(J2-Pad21)*
X130100000Y-95900000D03*
G04 #@! TO.P,J2,22,Pin_22*
G04 #@! TO.N,unconnected-(J2-Pad22)*
X130100000Y-91100000D03*
G04 #@! TO.P,J2,23,Pin_23*
G04 #@! TO.N,GND*
X129300000Y-95900000D03*
G04 #@! TO.P,J2,24,Pin_24*
X129300000Y-91100000D03*
G04 #@! TO.P,J2,25,Pin_25*
G04 #@! TO.N,unconnected-(J2-Pad25)*
X128500000Y-95900000D03*
G04 #@! TO.P,J2,26,Pin_26*
G04 #@! TO.N,unconnected-(J2-Pad26)*
X128500000Y-91100000D03*
G04 #@! TO.P,J2,27,Pin_27*
G04 #@! TO.N,unconnected-(J2-Pad27)*
X127700000Y-95900000D03*
G04 #@! TO.P,J2,28,Pin_28*
G04 #@! TO.N,unconnected-(J2-Pad28)*
X127700000Y-91100000D03*
G04 #@! TO.P,J2,29,Pin_29*
G04 #@! TO.N,unconnected-(J2-Pad29)*
X126900000Y-95900000D03*
G04 #@! TO.P,J2,30,Pin_30*
G04 #@! TO.N,unconnected-(J2-Pad30)*
X126900000Y-91100000D03*
G04 #@! TO.P,J2,31,Pin_31*
G04 #@! TO.N,unconnected-(J2-Pad31)*
X126100000Y-95900000D03*
G04 #@! TO.P,J2,32,Pin_32*
G04 #@! TO.N,unconnected-(J2-Pad32)*
X126100000Y-91100000D03*
G04 #@! TO.P,J2,33,Pin_33*
G04 #@! TO.N,GND*
X125300000Y-95900000D03*
G04 #@! TO.P,J2,34,Pin_34*
X125300000Y-91100000D03*
G04 #@! TO.P,J2,35,Pin_35*
G04 #@! TO.N,unconnected-(J2-Pad35)*
X124500000Y-95900000D03*
G04 #@! TO.P,J2,36,Pin_36*
G04 #@! TO.N,unconnected-(J2-Pad36)*
X124500000Y-91100000D03*
G04 #@! TO.P,J2,37,Pin_37*
G04 #@! TO.N,unconnected-(J2-Pad37)*
X123700000Y-95900000D03*
G04 #@! TO.P,J2,38,Pin_38*
G04 #@! TO.N,unconnected-(J2-Pad38)*
X123700000Y-91100000D03*
G04 #@! TO.P,J2,39,Pin_39*
G04 #@! TO.N,unconnected-(J2-Pad39)*
X122900000Y-95900000D03*
G04 #@! TO.P,J2,40,Pin_40*
G04 #@! TO.N,unconnected-(J2-Pad40)*
X122900000Y-91100000D03*
G04 #@! TO.P,J2,41,Pin_41*
G04 #@! TO.N,unconnected-(J2-Pad41)*
X122100000Y-95900000D03*
G04 #@! TO.P,J2,42,Pin_42*
G04 #@! TO.N,unconnected-(J2-Pad42)*
X122100000Y-91100000D03*
G04 #@! TO.P,J2,43,Pin_43*
G04 #@! TO.N,GND*
X121300000Y-95900000D03*
G04 #@! TO.P,J2,44,Pin_44*
X121300000Y-91100000D03*
G04 #@! TO.P,J2,45,Pin_45*
G04 #@! TO.N,unconnected-(J2-Pad45)*
X120500000Y-95900000D03*
G04 #@! TO.P,J2,46,Pin_46*
G04 #@! TO.N,unconnected-(J2-Pad46)*
X120500000Y-91100000D03*
G04 #@! TO.P,J2,47,Pin_47*
G04 #@! TO.N,unconnected-(J2-Pad47)*
X119700000Y-95900000D03*
G04 #@! TO.P,J2,48,Pin_48*
G04 #@! TO.N,unconnected-(J2-Pad48)*
X119700000Y-91100000D03*
G04 #@! TO.P,J2,49,Pin_49*
G04 #@! TO.N,unconnected-(J2-Pad49)*
X118900000Y-95900000D03*
G04 #@! TO.P,J2,50,Pin_50*
G04 #@! TO.N,unconnected-(J2-Pad50)*
X118900000Y-91100000D03*
G04 #@! TO.P,J2,51,Pin_51*
G04 #@! TO.N,unconnected-(J2-Pad51)*
X118100000Y-95900000D03*
G04 #@! TO.P,J2,52,Pin_52*
G04 #@! TO.N,unconnected-(J2-Pad52)*
X118100000Y-91100000D03*
G04 #@! TO.P,J2,53,Pin_53*
G04 #@! TO.N,GND*
X117300000Y-95900000D03*
G04 #@! TO.P,J2,54,Pin_54*
X117300000Y-91100000D03*
G04 #@! TO.P,J2,55,Pin_55*
G04 #@! TO.N,/CAM_GPIO*
X116500000Y-95900000D03*
G04 #@! TO.P,J2,56,Pin_56*
G04 #@! TO.N,/CAM1_D0+*
X116500000Y-91100000D03*
G04 #@! TO.P,J2,57,Pin_57*
G04 #@! TO.N,/CAM_CLK*
X115700000Y-95900000D03*
G04 #@! TO.P,J2,58,Pin_58*
G04 #@! TO.N,/CAM1_D0-*
X115700000Y-91100000D03*
G04 #@! TO.P,J2,59,Pin_59*
G04 #@! TO.N,SCL0*
X114900000Y-95900000D03*
G04 #@! TO.P,J2,60,Pin_60*
G04 #@! TO.N,/CAM1_D1+*
X114900000Y-91100000D03*
G04 #@! TO.P,J2,61,Pin_61*
G04 #@! TO.N,SDA0*
X114100000Y-95900000D03*
G04 #@! TO.P,J2,62,Pin_62*
G04 #@! TO.N,/CAM1_D1-*
X114100000Y-91100000D03*
G04 #@! TO.P,J2,63,Pin_63*
G04 #@! TO.N,GND*
X113300000Y-95900000D03*
G04 #@! TO.P,J2,64,Pin_64*
X113300000Y-91100000D03*
G04 #@! TO.P,J2,65,Pin_65*
G04 #@! TO.N,unconnected-(J2-Pad65)*
X112500000Y-95900000D03*
G04 #@! TO.P,J2,66,Pin_66*
G04 #@! TO.N,unconnected-(J2-Pad66)*
X112500000Y-91100000D03*
G04 #@! TO.P,J2,67,Pin_67*
G04 #@! TO.N,unconnected-(J2-Pad67)*
X111700000Y-95900000D03*
G04 #@! TO.P,J2,68,Pin_68*
G04 #@! TO.N,unconnected-(J2-Pad68)*
X111700000Y-91100000D03*
G04 #@! TO.P,J2,69,Pin_69*
G04 #@! TO.N,unconnected-(J2-Pad69)*
X110900000Y-95900000D03*
G04 #@! TO.P,J2,70,Pin_70*
G04 #@! TO.N,/CAM1_CK+*
X110900000Y-91100000D03*
G04 #@! TO.P,J2,71,Pin_71*
G04 #@! TO.N,unconnected-(J2-Pad71)*
X110100000Y-95900000D03*
G04 #@! TO.P,J2,72,Pin_72*
G04 #@! TO.N,/CAM1_CK-*
X110100000Y-91100000D03*
G04 #@! TO.P,J2,73,Pin_73*
G04 #@! TO.N,GND*
X109300000Y-95900000D03*
G04 #@! TO.P,J2,74,Pin_74*
X109300000Y-91100000D03*
G04 #@! TO.P,J2,75,Pin_75*
G04 #@! TO.N,unconnected-(J2-Pad75)*
X108500000Y-95900000D03*
G04 #@! TO.P,J2,76,Pin_76*
G04 #@! TO.N,unconnected-(J2-Pad76)*
X108500000Y-91100000D03*
G04 #@! TO.P,J2,77,Pin_77*
G04 #@! TO.N,unconnected-(J2-Pad77)*
X107700000Y-95900000D03*
G04 #@! TO.P,J2,78,Pin_78*
G04 #@! TO.N,unconnected-(J2-Pad78)*
X107700000Y-91100000D03*
G04 #@! TO.P,J2,79,Pin_79*
G04 #@! TO.N,GND*
X106900000Y-95900000D03*
G04 #@! TO.P,J2,80,Pin_80*
X106900000Y-91100000D03*
G04 #@! TD*
D11*
G04 #@! TO.N,+3.3V*
X138250000Y-93750000D03*
X137300000Y-93800000D03*
G04 #@! TO.N,GND*
X108250000Y-78000000D03*
X113750000Y-78000000D03*
X119250000Y-78000000D03*
X124250000Y-78000000D03*
X102500000Y-78000000D03*
X121750000Y-81250000D03*
X119000000Y-87750000D03*
X113000000Y-87750000D03*
X122000000Y-87750000D03*
X111250000Y-81250000D03*
X132000000Y-85750000D03*
X116750000Y-81250000D03*
G04 #@! TO.N,/CAM_GPIO*
X116500000Y-97750000D03*
G04 #@! TO.N,/CAM1_D0+*
X120050000Y-83982024D03*
G04 #@! TO.N,/CAM_CLK*
X115500000Y-97750000D03*
G04 #@! TO.N,/CAM1_D0-*
X120950000Y-83982024D03*
G04 #@! TO.N,SCL0*
X114500000Y-97750000D03*
X110000000Y-87500000D03*
X107250000Y-87500000D03*
G04 #@! TO.N,/CAM1_D1+*
X117050000Y-83982024D03*
G04 #@! TO.N,SDA0*
X113500000Y-97750000D03*
G04 #@! TO.N,/CAM1_D1-*
X117950000Y-83982024D03*
G04 #@! TO.N,/CAM1_CK+*
X114050000Y-83982024D03*
G04 #@! TO.N,/CAM1_CK-*
X114950000Y-83982024D03*
G04 #@! TD*
D12*
G04 #@! TO.N,/CAM1_D0-*
X118800000Y-84517156D02*
X118800000Y-84118618D01*
X118650000Y-85767156D02*
X118050000Y-85767156D01*
X115900000Y-89099999D02*
X115900000Y-88817156D01*
X115700000Y-89299999D02*
X115900000Y-89099999D01*
G04 #@! TO.N,/CAM1_D0+*
X119200000Y-82332844D02*
X119582844Y-81950000D01*
X116500000Y-91100000D02*
X116500000Y-89299999D01*
G04 #@! TO.N,/CAM1_D0-*
X115700000Y-91100000D02*
X115700000Y-89299999D01*
G04 #@! TO.N,/CAM1_D0+*
X120300000Y-82332844D02*
X120300000Y-83732024D01*
X119582844Y-81950000D02*
X119917156Y-81950000D01*
X118650000Y-85367156D02*
X118050000Y-85367156D01*
X118650000Y-85367200D02*
G75*
G02*
X119200000Y-85917156I0J-550000D01*
G01*
G04 #@! TO.N,/CAM1_D0-*
X118650000Y-85767200D02*
G75*
G02*
X118800000Y-85917156I0J-150000D01*
G01*
X120700000Y-83732024D02*
X120950000Y-83982024D01*
G04 #@! TO.N,/CAM1_D0+*
X118050000Y-85067200D02*
G75*
G03*
X117900000Y-85217156I0J-150000D01*
G01*
X116500000Y-89299999D02*
X116300000Y-89099999D01*
X120300000Y-83732024D02*
X120050000Y-83982024D01*
G04 #@! TO.N,/CAM1_D0-*
X117500044Y-85217156D02*
G75*
G03*
X118050000Y-85767156I549956J-44D01*
G01*
G04 #@! TO.N,/CAM1_D0+*
X117900044Y-85217156D02*
G75*
G03*
X118050000Y-85367156I149956J-44D01*
G01*
X119199956Y-84517156D02*
G75*
G02*
X118650000Y-85067156I-549956J-44D01*
G01*
X119200000Y-86082844D02*
X119200000Y-85917156D01*
X119917156Y-81950000D02*
X120300000Y-82332844D01*
X116300000Y-89099999D02*
X116300000Y-88982844D01*
X116300000Y-88982844D02*
X119200000Y-86082844D01*
G04 #@! TO.N,/CAM1_D0-*
X118799956Y-84517156D02*
G75*
G02*
X118650000Y-84667156I-149956J-44D01*
G01*
X118050000Y-84667156D02*
X118650000Y-84667156D01*
X115900000Y-88817156D02*
X118800000Y-85917156D01*
X118800000Y-84118618D02*
X118800000Y-82167156D01*
X119417156Y-81550000D02*
X120082844Y-81550000D01*
X118050000Y-84667200D02*
G75*
G03*
X117500000Y-85217156I0J-550000D01*
G01*
G04 #@! TO.N,/CAM1_D0+*
X118050000Y-85067156D02*
X118650000Y-85067156D01*
G04 #@! TO.N,/CAM1_D0-*
X120082844Y-81550000D02*
X120700000Y-82167156D01*
G04 #@! TO.N,/CAM1_D0+*
X119200000Y-84517156D02*
X119200000Y-84118618D01*
X119200000Y-84118618D02*
X119200000Y-82332844D01*
G04 #@! TO.N,/CAM1_D0-*
X118800000Y-82167156D02*
X119417156Y-81550000D01*
X120700000Y-82167156D02*
X120700000Y-83732024D01*
G04 #@! TO.N,/CAM1_D1-*
X117700000Y-83732024D02*
X117700000Y-82667156D01*
G04 #@! TO.N,/CAM1_D1+*
X117050000Y-83982024D02*
X117300000Y-83732024D01*
G04 #@! TO.N,/CAM1_D1-*
X117950000Y-83982024D02*
X117700000Y-83732024D01*
X115800000Y-86800000D02*
G75*
G02*
X116350000Y-86250000I550000J0D01*
G01*
X115650000Y-84850000D02*
G75*
G03*
X115800000Y-84700000I0J150000D01*
G01*
X116771892Y-86249992D02*
G75*
G03*
X116921892Y-86100000I8J149992D01*
G01*
X115228108Y-85949992D02*
G75*
G02*
X114678108Y-85400000I-8J549992D01*
G01*
X114678100Y-85400000D02*
G75*
G02*
X115228108Y-84850000I550000J0D01*
G01*
G04 #@! TO.N,/CAM1_D1+*
X117300000Y-83732024D02*
X117300000Y-82832844D01*
X114700000Y-89099999D02*
X114900000Y-89299999D01*
G04 #@! TO.N,/CAM1_D1-*
X115800000Y-86917156D02*
X114300000Y-88417156D01*
G04 #@! TO.N,/CAM1_D1+*
X114700000Y-88582844D02*
X114700000Y-89099999D01*
X116200000Y-87082844D02*
X114700000Y-88582844D01*
X116200000Y-86800000D02*
X116200000Y-87082844D01*
X117321900Y-86100000D02*
G75*
G03*
X116771892Y-85550000I-550000J0D01*
G01*
G04 #@! TO.N,/CAM1_D1-*
X115800000Y-86800000D02*
X115800000Y-86917156D01*
G04 #@! TO.N,/CAM1_D1+*
X116771892Y-86650000D02*
X116350000Y-86650000D01*
X115650000Y-85550000D02*
X116771892Y-85550000D01*
X115228108Y-85549992D02*
G75*
G02*
X115078108Y-85400000I-8J149992D01*
G01*
X114900000Y-89299999D02*
X114900000Y-91100000D01*
X116200000Y-82832844D02*
X116200000Y-84700000D01*
X115078100Y-85400000D02*
G75*
G02*
X115228108Y-85250000I150000J0D01*
G01*
X117300000Y-82832844D02*
X116917156Y-82450000D01*
G04 #@! TO.N,/CAM1_D1-*
X116921900Y-86100000D02*
G75*
G03*
X116771892Y-85950000I-150000J0D01*
G01*
G04 #@! TO.N,/CAM1_D1+*
X116917156Y-82450000D02*
X116582844Y-82450000D01*
X116582844Y-82450000D02*
X116200000Y-82832844D01*
X116771892Y-86649992D02*
G75*
G03*
X117321892Y-86100000I8J549992D01*
G01*
X115228108Y-85550000D02*
X115650000Y-85550000D01*
G04 #@! TO.N,/CAM1_D1-*
X114100000Y-89299999D02*
X114100000Y-91100000D01*
G04 #@! TO.N,/CAM1_D1+*
X116200000Y-86800000D02*
G75*
G02*
X116350000Y-86650000I150000J0D01*
G01*
X115650000Y-85250000D02*
G75*
G03*
X116200000Y-84700000I0J550000D01*
G01*
X115650000Y-85250000D02*
X115228108Y-85250000D01*
G04 #@! TO.N,/CAM1_D1-*
X117700000Y-82667156D02*
X117082844Y-82050000D01*
X117082844Y-82050000D02*
X116417156Y-82050000D01*
X116771892Y-86250000D02*
X116350000Y-86250000D01*
X116417156Y-82050000D02*
X115800000Y-82667156D01*
X115800000Y-82667156D02*
X115800000Y-84700000D01*
X115650000Y-84850000D02*
X115228108Y-84850000D01*
X115228108Y-85950000D02*
X115650000Y-85950000D01*
X115650000Y-85950000D02*
X116771892Y-85950000D01*
X114300000Y-88417156D02*
X114300000Y-89099999D01*
X114300000Y-89099999D02*
X114100000Y-89299999D01*
G04 #@! TO.N,/CAM1_CK-*
X112413464Y-84899964D02*
G75*
G03*
X112563464Y-84750000I36J149964D01*
G01*
X112563500Y-84750000D02*
G75*
G03*
X112413464Y-84600000I-150000J0D01*
G01*
X114950000Y-83982024D02*
X114700000Y-83732024D01*
X112100000Y-84900000D02*
X111086536Y-84900000D01*
X112100000Y-84600000D02*
G75*
G02*
X111550000Y-84050000I0J550000D01*
G01*
G04 #@! TO.N,/CAM1_CK+*
X111950000Y-86150000D02*
G75*
G03*
X111400000Y-85600000I-550000J0D01*
G01*
G04 #@! TO.N,/CAM1_CK-*
X110536500Y-85450000D02*
G75*
G02*
X111086536Y-84900000I550000J0D01*
G01*
G04 #@! TO.N,/CAM1_CK+*
X110900000Y-90150000D02*
X110900000Y-91100000D01*
X111950000Y-86944696D02*
X111950000Y-88082844D01*
X110700000Y-89950000D02*
X110900000Y-90150000D01*
X112963500Y-84750000D02*
G75*
G03*
X112413464Y-84200000I-550000J0D01*
G01*
X111950000Y-86150000D02*
X111950000Y-86944696D01*
G04 #@! TO.N,/CAM1_CK-*
X111550000Y-86150000D02*
X111550000Y-86944696D01*
X111550000Y-86150000D02*
G75*
G03*
X111400000Y-86000000I-150000J0D01*
G01*
G04 #@! TO.N,/CAM1_CK+*
X111086536Y-85600000D02*
X111400000Y-85600000D01*
X112100000Y-85300000D02*
X111086536Y-85300000D01*
X111950000Y-88082844D02*
X110700000Y-89332844D01*
X112100000Y-84200000D02*
G75*
G02*
X111950000Y-84050000I0J150000D01*
G01*
X110700000Y-89332844D02*
X110700000Y-89950000D01*
G04 #@! TO.N,/CAM1_CK-*
X111550000Y-82917156D02*
X111550000Y-84050000D01*
X111086536Y-85999964D02*
G75*
G02*
X110536536Y-85450000I-36J549964D01*
G01*
G04 #@! TO.N,/CAM1_CK+*
X112413464Y-85299964D02*
G75*
G03*
X112963464Y-84750000I36J549964D01*
G01*
X112100000Y-84200000D02*
X112413464Y-84200000D01*
X110936500Y-85450000D02*
G75*
G02*
X111086536Y-85300000I150000J0D01*
G01*
X114300000Y-83332844D02*
X113667156Y-82700000D01*
X111086536Y-85599964D02*
G75*
G02*
X110936536Y-85450000I-36J149964D01*
G01*
G04 #@! TO.N,/CAM1_CK-*
X111550000Y-87917156D02*
X110300000Y-89167156D01*
G04 #@! TO.N,/CAM1_CK+*
X112413464Y-85300000D02*
X112100000Y-85300000D01*
G04 #@! TO.N,/CAM1_CK-*
X114700000Y-83732024D02*
X114700000Y-83167156D01*
G04 #@! TO.N,/CAM1_CK+*
X114300000Y-83732024D02*
X114300000Y-83332844D01*
G04 #@! TO.N,/CAM1_CK-*
X110300000Y-89950000D02*
X110100000Y-90150000D01*
G04 #@! TO.N,/CAM1_CK+*
X113667156Y-82700000D02*
X112332844Y-82700000D01*
G04 #@! TO.N,/CAM1_CK-*
X112167156Y-82300000D02*
X111550000Y-82917156D01*
G04 #@! TO.N,/CAM1_CK+*
X112332844Y-82700000D02*
X111950000Y-83082844D01*
X114050000Y-83982024D02*
X114300000Y-83732024D01*
X111950000Y-83082844D02*
X111950000Y-84050000D01*
G04 #@! TO.N,/CAM1_CK-*
X111086536Y-86000000D02*
X111400000Y-86000000D01*
X114700000Y-83167156D02*
X113832844Y-82300000D01*
X112413464Y-84900000D02*
X112100000Y-84900000D01*
X113832844Y-82300000D02*
X112167156Y-82300000D01*
X112100000Y-84600000D02*
X112413464Y-84600000D01*
X111550000Y-86944696D02*
X111550000Y-87917156D01*
X110300000Y-89167156D02*
X110300000Y-89950000D01*
X110100000Y-90150000D02*
X110100000Y-91100000D01*
D13*
G04 #@! TO.N,+3.3V*
X138100000Y-93900000D02*
X138250000Y-93750000D01*
X138100000Y-95900000D02*
X138100000Y-93900000D01*
X137300000Y-95900000D02*
X137300000Y-93800000D01*
D14*
G04 #@! TO.N,/CAM_GPIO*
X116500000Y-95900000D02*
X116500000Y-97750000D01*
G04 #@! TO.N,/CAM_CLK*
X115700000Y-97550000D02*
X115500000Y-97750000D01*
X115700000Y-95900000D02*
X115700000Y-97550000D01*
G04 #@! TO.N,SCL0*
X110000000Y-87500000D02*
X107250000Y-87500000D01*
X114500000Y-97750000D02*
X114900000Y-97350000D01*
X114900000Y-97350000D02*
X114900000Y-95900000D01*
G04 #@! TO.N,SDA0*
X114100000Y-97150000D02*
X113500000Y-97750000D01*
X114100000Y-95900000D02*
X114100000Y-97150000D01*
G04 #@! TD*
G04 #@! TA.AperFunction,Conductor*
G04 #@! TO.N,GND*
G36*
X143925500Y-75269962D02*
G01*
X143980038Y-75324500D01*
X144000000Y-75399000D01*
X144000000Y-97851000D01*
X143980038Y-97925500D01*
X143925500Y-97980038D01*
X143851000Y-98000000D01*
X117343721Y-98000000D01*
X117269221Y-97980038D01*
X117214683Y-97925500D01*
X117194721Y-97851000D01*
X117196207Y-97830006D01*
X117204803Y-97769604D01*
X117205490Y-97764778D01*
X117205645Y-97750000D01*
X117185276Y-97581680D01*
X117150038Y-97488425D01*
X117142378Y-97411678D01*
X117145496Y-97397193D01*
X117150000Y-97380384D01*
X117450000Y-97380384D01*
X117454145Y-97395855D01*
X117469616Y-97400000D01*
X117590154Y-97400000D01*
X117598966Y-97399477D01*
X117609621Y-97398210D01*
X117630950Y-97392348D01*
X117638978Y-97388782D01*
X117715167Y-97376785D01*
X117759704Y-97388678D01*
X117768006Y-97392348D01*
X117779673Y-97397506D01*
X117790799Y-97398803D01*
X117790802Y-97398804D01*
X117801070Y-97400001D01*
X117801078Y-97400001D01*
X117805354Y-97400500D01*
X118394646Y-97400500D01*
X118420846Y-97397382D01*
X118439591Y-97389056D01*
X118515778Y-97377057D01*
X118560324Y-97388952D01*
X118560560Y-97389056D01*
X118569422Y-97392974D01*
X118579673Y-97397506D01*
X118594318Y-97399213D01*
X118601070Y-97400001D01*
X118601078Y-97400001D01*
X118605354Y-97400500D01*
X119194646Y-97400500D01*
X119220846Y-97397382D01*
X119239591Y-97389056D01*
X119315778Y-97377057D01*
X119360324Y-97388952D01*
X119360560Y-97389056D01*
X119369422Y-97392974D01*
X119379673Y-97397506D01*
X119394318Y-97399213D01*
X119401070Y-97400001D01*
X119401078Y-97400001D01*
X119405354Y-97400500D01*
X119994646Y-97400500D01*
X120020846Y-97397382D01*
X120039591Y-97389056D01*
X120115778Y-97377057D01*
X120160324Y-97388952D01*
X120160560Y-97389056D01*
X120169422Y-97392974D01*
X120179673Y-97397506D01*
X120194318Y-97399213D01*
X120201070Y-97400001D01*
X120201078Y-97400001D01*
X120205354Y-97400500D01*
X120794646Y-97400500D01*
X120820846Y-97397382D01*
X120839825Y-97388952D01*
X120840208Y-97388782D01*
X120916398Y-97376784D01*
X120960936Y-97388677D01*
X120969539Y-97392480D01*
X120990918Y-97398309D01*
X121001124Y-97399498D01*
X121009754Y-97400000D01*
X121130384Y-97400000D01*
X121145855Y-97395855D01*
X121150000Y-97380384D01*
X121450000Y-97380384D01*
X121454145Y-97395855D01*
X121469616Y-97400000D01*
X121590154Y-97400000D01*
X121598966Y-97399477D01*
X121609621Y-97398210D01*
X121630950Y-97392348D01*
X121638978Y-97388782D01*
X121715167Y-97376785D01*
X121759704Y-97388678D01*
X121768006Y-97392348D01*
X121779673Y-97397506D01*
X121790799Y-97398803D01*
X121790802Y-97398804D01*
X121801070Y-97400001D01*
X121801078Y-97400001D01*
X121805354Y-97400500D01*
X122394646Y-97400500D01*
X122420846Y-97397382D01*
X122439591Y-97389056D01*
X122515778Y-97377057D01*
X122560324Y-97388952D01*
X122560560Y-97389056D01*
X122569422Y-97392974D01*
X122579673Y-97397506D01*
X122594318Y-97399213D01*
X122601070Y-97400001D01*
X122601078Y-97400001D01*
X122605354Y-97400500D01*
X123194646Y-97400500D01*
X123220846Y-97397382D01*
X123239591Y-97389056D01*
X123315778Y-97377057D01*
X123360324Y-97388952D01*
X123360560Y-97389056D01*
X123369422Y-97392974D01*
X123379673Y-97397506D01*
X123394318Y-97399213D01*
X123401070Y-97400001D01*
X123401078Y-97400001D01*
X123405354Y-97400500D01*
X123994646Y-97400500D01*
X124020846Y-97397382D01*
X124039591Y-97389056D01*
X124115778Y-97377057D01*
X124160324Y-97388952D01*
X124160560Y-97389056D01*
X124169422Y-97392974D01*
X124179673Y-97397506D01*
X124194318Y-97399213D01*
X124201070Y-97400001D01*
X124201078Y-97400001D01*
X124205354Y-97400500D01*
X124794646Y-97400500D01*
X124820846Y-97397382D01*
X124839825Y-97388952D01*
X124840208Y-97388782D01*
X124916398Y-97376784D01*
X124960936Y-97388677D01*
X124969539Y-97392480D01*
X124990918Y-97398309D01*
X125001124Y-97399498D01*
X125009754Y-97400000D01*
X125130384Y-97400000D01*
X125145855Y-97395855D01*
X125150000Y-97380384D01*
X125450000Y-97380384D01*
X125454145Y-97395855D01*
X125469616Y-97400000D01*
X125590154Y-97400000D01*
X125598966Y-97399477D01*
X125609621Y-97398210D01*
X125630950Y-97392348D01*
X125638978Y-97388782D01*
X125715167Y-97376785D01*
X125759704Y-97388678D01*
X125768006Y-97392348D01*
X125779673Y-97397506D01*
X125790799Y-97398803D01*
X125790802Y-97398804D01*
X125801070Y-97400001D01*
X125801078Y-97400001D01*
X125805354Y-97400500D01*
X126394646Y-97400500D01*
X126420846Y-97397382D01*
X126439591Y-97389056D01*
X126515778Y-97377057D01*
X126560324Y-97388952D01*
X126560560Y-97389056D01*
X126569422Y-97392974D01*
X126579673Y-97397506D01*
X126594318Y-97399213D01*
X126601070Y-97400001D01*
X126601078Y-97400001D01*
X126605354Y-97400500D01*
X127194646Y-97400500D01*
X127220846Y-97397382D01*
X127239591Y-97389056D01*
X127315778Y-97377057D01*
X127360324Y-97388952D01*
X127360560Y-97389056D01*
X127369422Y-97392974D01*
X127379673Y-97397506D01*
X127394318Y-97399213D01*
X127401070Y-97400001D01*
X127401078Y-97400001D01*
X127405354Y-97400500D01*
X127994646Y-97400500D01*
X128020846Y-97397382D01*
X128039591Y-97389056D01*
X128115778Y-97377057D01*
X128160324Y-97388952D01*
X128160560Y-97389056D01*
X128169422Y-97392974D01*
X128179673Y-97397506D01*
X128194318Y-97399213D01*
X128201070Y-97400001D01*
X128201078Y-97400001D01*
X128205354Y-97400500D01*
X128794646Y-97400500D01*
X128820846Y-97397382D01*
X128839825Y-97388952D01*
X128840208Y-97388782D01*
X128916398Y-97376784D01*
X128960936Y-97388677D01*
X128969539Y-97392480D01*
X128990918Y-97398309D01*
X129001124Y-97399498D01*
X129009754Y-97400000D01*
X129130384Y-97400000D01*
X129145855Y-97395855D01*
X129150000Y-97380384D01*
X129450000Y-97380384D01*
X129454145Y-97395855D01*
X129469616Y-97400000D01*
X129590154Y-97400000D01*
X129598966Y-97399477D01*
X129609621Y-97398210D01*
X129630950Y-97392348D01*
X129638978Y-97388782D01*
X129715167Y-97376785D01*
X129759704Y-97388678D01*
X129768006Y-97392348D01*
X129779673Y-97397506D01*
X129790799Y-97398803D01*
X129790802Y-97398804D01*
X129801070Y-97400001D01*
X129801078Y-97400001D01*
X129805354Y-97400500D01*
X130394646Y-97400500D01*
X130420846Y-97397382D01*
X130439591Y-97389056D01*
X130515778Y-97377057D01*
X130560324Y-97388952D01*
X130560560Y-97389056D01*
X130569422Y-97392974D01*
X130579673Y-97397506D01*
X130594318Y-97399213D01*
X130601070Y-97400001D01*
X130601078Y-97400001D01*
X130605354Y-97400500D01*
X131194646Y-97400500D01*
X131220846Y-97397382D01*
X131239591Y-97389056D01*
X131315778Y-97377057D01*
X131360324Y-97388952D01*
X131360560Y-97389056D01*
X131369422Y-97392974D01*
X131379673Y-97397506D01*
X131394318Y-97399213D01*
X131401070Y-97400001D01*
X131401078Y-97400001D01*
X131405354Y-97400500D01*
X131994646Y-97400500D01*
X132020846Y-97397382D01*
X132039591Y-97389056D01*
X132115778Y-97377057D01*
X132160324Y-97388952D01*
X132160560Y-97389056D01*
X132169422Y-97392974D01*
X132179673Y-97397506D01*
X132194318Y-97399213D01*
X132201070Y-97400001D01*
X132201078Y-97400001D01*
X132205354Y-97400500D01*
X132794646Y-97400500D01*
X132820846Y-97397382D01*
X132839591Y-97389056D01*
X132915778Y-97377057D01*
X132960324Y-97388952D01*
X132960560Y-97389056D01*
X132969422Y-97392974D01*
X132979673Y-97397506D01*
X132994318Y-97399213D01*
X133001070Y-97400001D01*
X133001078Y-97400001D01*
X133005354Y-97400500D01*
X133594646Y-97400500D01*
X133620846Y-97397382D01*
X133639591Y-97389056D01*
X133715778Y-97377057D01*
X133760324Y-97388952D01*
X133760560Y-97389056D01*
X133769422Y-97392974D01*
X133779673Y-97397506D01*
X133794318Y-97399213D01*
X133801070Y-97400001D01*
X133801078Y-97400001D01*
X133805354Y-97400500D01*
X134394646Y-97400500D01*
X134420846Y-97397382D01*
X134439591Y-97389056D01*
X134515778Y-97377057D01*
X134560324Y-97388952D01*
X134560560Y-97389056D01*
X134569422Y-97392974D01*
X134579673Y-97397506D01*
X134594318Y-97399213D01*
X134601070Y-97400001D01*
X134601078Y-97400001D01*
X134605354Y-97400500D01*
X135194646Y-97400500D01*
X135220846Y-97397382D01*
X135239591Y-97389056D01*
X135315778Y-97377057D01*
X135360324Y-97388952D01*
X135360560Y-97389056D01*
X135369422Y-97392974D01*
X135379673Y-97397506D01*
X135394318Y-97399213D01*
X135401070Y-97400001D01*
X135401078Y-97400001D01*
X135405354Y-97400500D01*
X135994646Y-97400500D01*
X136020846Y-97397382D01*
X136039591Y-97389056D01*
X136115778Y-97377057D01*
X136160324Y-97388952D01*
X136160560Y-97389056D01*
X136169422Y-97392974D01*
X136179673Y-97397506D01*
X136194318Y-97399213D01*
X136201070Y-97400001D01*
X136201078Y-97400001D01*
X136205354Y-97400500D01*
X136794646Y-97400500D01*
X136820846Y-97397382D01*
X136839591Y-97389056D01*
X136915778Y-97377057D01*
X136960324Y-97388952D01*
X136960560Y-97389056D01*
X136969422Y-97392974D01*
X136979673Y-97397506D01*
X136994318Y-97399213D01*
X137001070Y-97400001D01*
X137001078Y-97400001D01*
X137005354Y-97400500D01*
X137594646Y-97400500D01*
X137620846Y-97397382D01*
X137639591Y-97389056D01*
X137715778Y-97377057D01*
X137760324Y-97388952D01*
X137760560Y-97389056D01*
X137769422Y-97392974D01*
X137779673Y-97397506D01*
X137794318Y-97399213D01*
X137801070Y-97400001D01*
X137801078Y-97400001D01*
X137805354Y-97400500D01*
X138394646Y-97400500D01*
X138420846Y-97397382D01*
X138523153Y-97351939D01*
X138602241Y-97272713D01*
X138615281Y-97243219D01*
X138642976Y-97180574D01*
X138642976Y-97180573D01*
X138647506Y-97170327D01*
X138649213Y-97155682D01*
X138650001Y-97148930D01*
X138650001Y-97148922D01*
X138650500Y-97144646D01*
X138650500Y-94397894D01*
X138670462Y-94323394D01*
X138702732Y-94284594D01*
X138733920Y-94257956D01*
X138769423Y-94227634D01*
X138801154Y-94183476D01*
X138863124Y-94097236D01*
X138863126Y-94097232D01*
X138868361Y-94089947D01*
X138892636Y-94029561D01*
X138928251Y-93940969D01*
X138928252Y-93940964D01*
X138931601Y-93932634D01*
X138955490Y-93764778D01*
X138955645Y-93750000D01*
X138936845Y-93594646D01*
X139699500Y-93594646D01*
X139701124Y-93602286D01*
X139701124Y-93602287D01*
X139734822Y-93760823D01*
X139738856Y-93779803D01*
X139815849Y-93952730D01*
X139820438Y-93959046D01*
X139915543Y-94089947D01*
X139927112Y-94105871D01*
X139989002Y-94161597D01*
X140061979Y-94227307D01*
X140061984Y-94227311D01*
X140067784Y-94232533D01*
X140074544Y-94236436D01*
X140074547Y-94236438D01*
X140137244Y-94272635D01*
X140231716Y-94327179D01*
X140411744Y-94385674D01*
X140419511Y-94386490D01*
X140419514Y-94386491D01*
X140489116Y-94393806D01*
X140552808Y-94400500D01*
X140647192Y-94400500D01*
X140710884Y-94393806D01*
X140780486Y-94386491D01*
X140780489Y-94386490D01*
X140788256Y-94385674D01*
X140968284Y-94327179D01*
X141062756Y-94272635D01*
X141125453Y-94236438D01*
X141125456Y-94236436D01*
X141132216Y-94232533D01*
X141138016Y-94227311D01*
X141138021Y-94227307D01*
X141210998Y-94161597D01*
X141272888Y-94105871D01*
X141284458Y-94089947D01*
X141379562Y-93959046D01*
X141384151Y-93952730D01*
X141461144Y-93779803D01*
X141465179Y-93760823D01*
X141498876Y-93602287D01*
X141498876Y-93602286D01*
X141500500Y-93594646D01*
X141500500Y-93405354D01*
X141468336Y-93254032D01*
X141462768Y-93227836D01*
X141462767Y-93227833D01*
X141461144Y-93220197D01*
X141384151Y-93047270D01*
X141272888Y-92894129D01*
X141190322Y-92819786D01*
X141138021Y-92772693D01*
X141138016Y-92772689D01*
X141132216Y-92767467D01*
X141125456Y-92763564D01*
X141125453Y-92763562D01*
X141062756Y-92727365D01*
X140968284Y-92672821D01*
X140788256Y-92614326D01*
X140780489Y-92613510D01*
X140780486Y-92613509D01*
X140710884Y-92606194D01*
X140647192Y-92599500D01*
X140552808Y-92599500D01*
X140489116Y-92606194D01*
X140419514Y-92613509D01*
X140419511Y-92613510D01*
X140411744Y-92614326D01*
X140231716Y-92672821D01*
X140137244Y-92727365D01*
X140074547Y-92763562D01*
X140074544Y-92763564D01*
X140067784Y-92767467D01*
X140061984Y-92772689D01*
X140061979Y-92772693D01*
X140009678Y-92819786D01*
X139927112Y-92894129D01*
X139815849Y-93047270D01*
X139738856Y-93220197D01*
X139737233Y-93227833D01*
X139737232Y-93227836D01*
X139731664Y-93254032D01*
X139699500Y-93405354D01*
X139699500Y-93594646D01*
X138936845Y-93594646D01*
X138935276Y-93581680D01*
X138875345Y-93423077D01*
X138779312Y-93283349D01*
X138772604Y-93277372D01*
X138659428Y-93176535D01*
X138659424Y-93176532D01*
X138652721Y-93170560D01*
X138644783Y-93166357D01*
X138644780Y-93166355D01*
X138510823Y-93095429D01*
X138502881Y-93091224D01*
X138494168Y-93089035D01*
X138494167Y-93089035D01*
X138356296Y-93054404D01*
X138338441Y-93049919D01*
X138234002Y-93049372D01*
X138177873Y-93049078D01*
X138168895Y-93049031D01*
X138160164Y-93051127D01*
X138160165Y-93051127D01*
X138012765Y-93086515D01*
X138012762Y-93086516D01*
X138004032Y-93088612D01*
X137996053Y-93092730D01*
X137996051Y-93092731D01*
X137906339Y-93139035D01*
X137853369Y-93166375D01*
X137846599Y-93172281D01*
X137834983Y-93182414D01*
X137765720Y-93216345D01*
X137688770Y-93211098D01*
X137667314Y-93201813D01*
X137560823Y-93145429D01*
X137552881Y-93141224D01*
X137544168Y-93139035D01*
X137544167Y-93139035D01*
X137433961Y-93111353D01*
X137388441Y-93099919D01*
X137284002Y-93099372D01*
X137227873Y-93099078D01*
X137218895Y-93099031D01*
X137193117Y-93105220D01*
X137062765Y-93136515D01*
X137062762Y-93136516D01*
X137054032Y-93138612D01*
X137046053Y-93142730D01*
X137046051Y-93142731D01*
X136969167Y-93182414D01*
X136903369Y-93216375D01*
X136896602Y-93222279D01*
X136896598Y-93222281D01*
X136826595Y-93283349D01*
X136775604Y-93327831D01*
X136678113Y-93466547D01*
X136616524Y-93624513D01*
X136594394Y-93792611D01*
X136612999Y-93961135D01*
X136616087Y-93969572D01*
X136616087Y-93969574D01*
X136639811Y-94034401D01*
X136671266Y-94120356D01*
X136676273Y-94127808D01*
X136676275Y-94127811D01*
X136702876Y-94167397D01*
X136727858Y-94240367D01*
X136713009Y-94316052D01*
X136662306Y-94374173D01*
X136589336Y-94399155D01*
X136579203Y-94399500D01*
X136205354Y-94399500D01*
X136179154Y-94402618D01*
X136160409Y-94410944D01*
X136084222Y-94422943D01*
X136039676Y-94411048D01*
X136031994Y-94407652D01*
X136030574Y-94407024D01*
X136030573Y-94407024D01*
X136020327Y-94402494D01*
X136005682Y-94400787D01*
X135998930Y-94399999D01*
X135998922Y-94399999D01*
X135994646Y-94399500D01*
X135405354Y-94399500D01*
X135379154Y-94402618D01*
X135360409Y-94410944D01*
X135284222Y-94422943D01*
X135239676Y-94411048D01*
X135231994Y-94407652D01*
X135230574Y-94407024D01*
X135230573Y-94407024D01*
X135220327Y-94402494D01*
X135205682Y-94400787D01*
X135198930Y-94399999D01*
X135198922Y-94399999D01*
X135194646Y-94399500D01*
X134605354Y-94399500D01*
X134579154Y-94402618D01*
X134560409Y-94410944D01*
X134484222Y-94422943D01*
X134439676Y-94411048D01*
X134431994Y-94407652D01*
X134430574Y-94407024D01*
X134430573Y-94407024D01*
X134420327Y-94402494D01*
X134405682Y-94400787D01*
X134398930Y-94399999D01*
X134398922Y-94399999D01*
X134394646Y-94399500D01*
X133805354Y-94399500D01*
X133779154Y-94402618D01*
X133760409Y-94410944D01*
X133684222Y-94422943D01*
X133639676Y-94411048D01*
X133631994Y-94407652D01*
X133630574Y-94407024D01*
X133630573Y-94407024D01*
X133620327Y-94402494D01*
X133605682Y-94400787D01*
X133598930Y-94399999D01*
X133598922Y-94399999D01*
X133594646Y-94399500D01*
X133005354Y-94399500D01*
X132979154Y-94402618D01*
X132960409Y-94410944D01*
X132884222Y-94422943D01*
X132839676Y-94411048D01*
X132831994Y-94407652D01*
X132830574Y-94407024D01*
X132830573Y-94407024D01*
X132820327Y-94402494D01*
X132805682Y-94400787D01*
X132798930Y-94399999D01*
X132798922Y-94399999D01*
X132794646Y-94399500D01*
X132205354Y-94399500D01*
X132179154Y-94402618D01*
X132160409Y-94410944D01*
X132084222Y-94422943D01*
X132039676Y-94411048D01*
X132031994Y-94407652D01*
X132030574Y-94407024D01*
X132030573Y-94407024D01*
X132020327Y-94402494D01*
X132005682Y-94400787D01*
X131998930Y-94399999D01*
X131998922Y-94399999D01*
X131994646Y-94399500D01*
X131405354Y-94399500D01*
X131379154Y-94402618D01*
X131360409Y-94410944D01*
X131284222Y-94422943D01*
X131239676Y-94411048D01*
X131231994Y-94407652D01*
X131230574Y-94407024D01*
X131230573Y-94407024D01*
X131220327Y-94402494D01*
X131205682Y-94400787D01*
X131198930Y-94399999D01*
X131198922Y-94399999D01*
X131194646Y-94399500D01*
X130605354Y-94399500D01*
X130579154Y-94402618D01*
X130560409Y-94410944D01*
X130484222Y-94422943D01*
X130439676Y-94411048D01*
X130431994Y-94407652D01*
X130430574Y-94407024D01*
X130430573Y-94407024D01*
X130420327Y-94402494D01*
X130405682Y-94400787D01*
X130398930Y-94399999D01*
X130398922Y-94399999D01*
X130394646Y-94399500D01*
X129805354Y-94399500D01*
X129779154Y-94402618D01*
X129767821Y-94407652D01*
X129759792Y-94411218D01*
X129683602Y-94423216D01*
X129639064Y-94411323D01*
X129630461Y-94407520D01*
X129609082Y-94401691D01*
X129598876Y-94400502D01*
X129590246Y-94400000D01*
X129469616Y-94400000D01*
X129454145Y-94404145D01*
X129450000Y-94419616D01*
X129450000Y-97380384D01*
X129150000Y-97380384D01*
X129150000Y-94419616D01*
X129145855Y-94404145D01*
X129130384Y-94400000D01*
X129009846Y-94400000D01*
X129001034Y-94400523D01*
X128990379Y-94401790D01*
X128969050Y-94407652D01*
X128961022Y-94411218D01*
X128884833Y-94423215D01*
X128840296Y-94411322D01*
X128830578Y-94407026D01*
X128820327Y-94402494D01*
X128809201Y-94401197D01*
X128809198Y-94401196D01*
X128798930Y-94399999D01*
X128798922Y-94399999D01*
X128794646Y-94399500D01*
X128205354Y-94399500D01*
X128179154Y-94402618D01*
X128160409Y-94410944D01*
X128084222Y-94422943D01*
X128039676Y-94411048D01*
X128031994Y-94407652D01*
X128030574Y-94407024D01*
X128030573Y-94407024D01*
X128020327Y-94402494D01*
X128005682Y-94400787D01*
X127998930Y-94399999D01*
X127998922Y-94399999D01*
X127994646Y-94399500D01*
X127405354Y-94399500D01*
X127379154Y-94402618D01*
X127360409Y-94410944D01*
X127284222Y-94422943D01*
X127239676Y-94411048D01*
X127231994Y-94407652D01*
X127230574Y-94407024D01*
X127230573Y-94407024D01*
X127220327Y-94402494D01*
X127205682Y-94400787D01*
X127198930Y-94399999D01*
X127198922Y-94399999D01*
X127194646Y-94399500D01*
X126605354Y-94399500D01*
X126579154Y-94402618D01*
X126560409Y-94410944D01*
X126484222Y-94422943D01*
X126439676Y-94411048D01*
X126431994Y-94407652D01*
X126430574Y-94407024D01*
X126430573Y-94407024D01*
X126420327Y-94402494D01*
X126405682Y-94400787D01*
X126398930Y-94399999D01*
X126398922Y-94399999D01*
X126394646Y-94399500D01*
X125805354Y-94399500D01*
X125779154Y-94402618D01*
X125767821Y-94407652D01*
X125759792Y-94411218D01*
X125683602Y-94423216D01*
X125639064Y-94411323D01*
X125630461Y-94407520D01*
X125609082Y-94401691D01*
X125598876Y-94400502D01*
X125590246Y-94400000D01*
X125469616Y-94400000D01*
X125454145Y-94404145D01*
X125450000Y-94419616D01*
X125450000Y-97380384D01*
X125150000Y-97380384D01*
X125150000Y-94419616D01*
X125145855Y-94404145D01*
X125130384Y-94400000D01*
X125009846Y-94400000D01*
X125001034Y-94400523D01*
X124990379Y-94401790D01*
X124969050Y-94407652D01*
X124961022Y-94411218D01*
X124884833Y-94423215D01*
X124840296Y-94411322D01*
X124830578Y-94407026D01*
X124820327Y-94402494D01*
X124809201Y-94401197D01*
X124809198Y-94401196D01*
X124798930Y-94399999D01*
X124798922Y-94399999D01*
X124794646Y-94399500D01*
X124205354Y-94399500D01*
X124179154Y-94402618D01*
X124160409Y-94410944D01*
X124084222Y-94422943D01*
X124039676Y-94411048D01*
X124031994Y-94407652D01*
X124030574Y-94407024D01*
X124030573Y-94407024D01*
X124020327Y-94402494D01*
X124005682Y-94400787D01*
X123998930Y-94399999D01*
X123998922Y-94399999D01*
X123994646Y-94399500D01*
X123405354Y-94399500D01*
X123379154Y-94402618D01*
X123360409Y-94410944D01*
X123284222Y-94422943D01*
X123239676Y-94411048D01*
X123231994Y-94407652D01*
X123230574Y-94407024D01*
X123230573Y-94407024D01*
X123220327Y-94402494D01*
X123205682Y-94400787D01*
X123198930Y-94399999D01*
X123198922Y-94399999D01*
X123194646Y-94399500D01*
X122605354Y-94399500D01*
X122579154Y-94402618D01*
X122560409Y-94410944D01*
X122484222Y-94422943D01*
X122439676Y-94411048D01*
X122431994Y-94407652D01*
X122430574Y-94407024D01*
X122430573Y-94407024D01*
X122420327Y-94402494D01*
X122405682Y-94400787D01*
X122398930Y-94399999D01*
X122398922Y-94399999D01*
X122394646Y-94399500D01*
X121805354Y-94399500D01*
X121779154Y-94402618D01*
X121767821Y-94407652D01*
X121759792Y-94411218D01*
X121683602Y-94423216D01*
X121639064Y-94411323D01*
X121630461Y-94407520D01*
X121609082Y-94401691D01*
X121598876Y-94400502D01*
X121590246Y-94400000D01*
X121469616Y-94400000D01*
X121454145Y-94404145D01*
X121450000Y-94419616D01*
X121450000Y-97380384D01*
X121150000Y-97380384D01*
X121150000Y-94419616D01*
X121145855Y-94404145D01*
X121130384Y-94400000D01*
X121009846Y-94400000D01*
X121001034Y-94400523D01*
X120990379Y-94401790D01*
X120969050Y-94407652D01*
X120961022Y-94411218D01*
X120884833Y-94423215D01*
X120840296Y-94411322D01*
X120830578Y-94407026D01*
X120820327Y-94402494D01*
X120809201Y-94401197D01*
X120809198Y-94401196D01*
X120798930Y-94399999D01*
X120798922Y-94399999D01*
X120794646Y-94399500D01*
X120205354Y-94399500D01*
X120179154Y-94402618D01*
X120160409Y-94410944D01*
X120084222Y-94422943D01*
X120039676Y-94411048D01*
X120031994Y-94407652D01*
X120030574Y-94407024D01*
X120030573Y-94407024D01*
X120020327Y-94402494D01*
X120005682Y-94400787D01*
X119998930Y-94399999D01*
X119998922Y-94399999D01*
X119994646Y-94399500D01*
X119405354Y-94399500D01*
X119379154Y-94402618D01*
X119360409Y-94410944D01*
X119284222Y-94422943D01*
X119239676Y-94411048D01*
X119231994Y-94407652D01*
X119230574Y-94407024D01*
X119230573Y-94407024D01*
X119220327Y-94402494D01*
X119205682Y-94400787D01*
X119198930Y-94399999D01*
X119198922Y-94399999D01*
X119194646Y-94399500D01*
X118605354Y-94399500D01*
X118579154Y-94402618D01*
X118560409Y-94410944D01*
X118484222Y-94422943D01*
X118439676Y-94411048D01*
X118431994Y-94407652D01*
X118430574Y-94407024D01*
X118430573Y-94407024D01*
X118420327Y-94402494D01*
X118405682Y-94400787D01*
X118398930Y-94399999D01*
X118398922Y-94399999D01*
X118394646Y-94399500D01*
X117805354Y-94399500D01*
X117779154Y-94402618D01*
X117767821Y-94407652D01*
X117759792Y-94411218D01*
X117683602Y-94423216D01*
X117639064Y-94411323D01*
X117630461Y-94407520D01*
X117609082Y-94401691D01*
X117598876Y-94400502D01*
X117590246Y-94400000D01*
X117469616Y-94400000D01*
X117454145Y-94404145D01*
X117450000Y-94419616D01*
X117450000Y-97380384D01*
X117150000Y-97380384D01*
X117150000Y-94419616D01*
X117145855Y-94404145D01*
X117130384Y-94400000D01*
X117009846Y-94400000D01*
X117001034Y-94400523D01*
X116990379Y-94401790D01*
X116969050Y-94407652D01*
X116961022Y-94411218D01*
X116884833Y-94423215D01*
X116840296Y-94411322D01*
X116830578Y-94407026D01*
X116820327Y-94402494D01*
X116809201Y-94401197D01*
X116809198Y-94401196D01*
X116798930Y-94399999D01*
X116798922Y-94399999D01*
X116794646Y-94399500D01*
X116205354Y-94399500D01*
X116179154Y-94402618D01*
X116160409Y-94410944D01*
X116084222Y-94422943D01*
X116039676Y-94411048D01*
X116031994Y-94407652D01*
X116030574Y-94407024D01*
X116030573Y-94407024D01*
X116020327Y-94402494D01*
X116005682Y-94400787D01*
X115998930Y-94399999D01*
X115998922Y-94399999D01*
X115994646Y-94399500D01*
X115405354Y-94399500D01*
X115379154Y-94402618D01*
X115360409Y-94410944D01*
X115284222Y-94422943D01*
X115239676Y-94411048D01*
X115231994Y-94407652D01*
X115230574Y-94407024D01*
X115230573Y-94407024D01*
X115220327Y-94402494D01*
X115205682Y-94400787D01*
X115198930Y-94399999D01*
X115198922Y-94399999D01*
X115194646Y-94399500D01*
X114605354Y-94399500D01*
X114579154Y-94402618D01*
X114560409Y-94410944D01*
X114484222Y-94422943D01*
X114439676Y-94411048D01*
X114431994Y-94407652D01*
X114430574Y-94407024D01*
X114430573Y-94407024D01*
X114420327Y-94402494D01*
X114405682Y-94400787D01*
X114398930Y-94399999D01*
X114398922Y-94399999D01*
X114394646Y-94399500D01*
X113805354Y-94399500D01*
X113779154Y-94402618D01*
X113767821Y-94407652D01*
X113759792Y-94411218D01*
X113683602Y-94423216D01*
X113639064Y-94411323D01*
X113630461Y-94407520D01*
X113609082Y-94401691D01*
X113598876Y-94400502D01*
X113590246Y-94400000D01*
X113469616Y-94400000D01*
X113454145Y-94404145D01*
X113450000Y-94419616D01*
X113450000Y-95901000D01*
X113430038Y-95975500D01*
X113375500Y-96030038D01*
X113301000Y-96050000D01*
X113299000Y-96050000D01*
X113224500Y-96030038D01*
X113169962Y-95975500D01*
X113150000Y-95901000D01*
X113150000Y-94419616D01*
X113145855Y-94404145D01*
X113130384Y-94400000D01*
X113009846Y-94400000D01*
X113001034Y-94400523D01*
X112990379Y-94401790D01*
X112969050Y-94407652D01*
X112961022Y-94411218D01*
X112884833Y-94423215D01*
X112840296Y-94411322D01*
X112830578Y-94407026D01*
X112820327Y-94402494D01*
X112809201Y-94401197D01*
X112809198Y-94401196D01*
X112798930Y-94399999D01*
X112798922Y-94399999D01*
X112794646Y-94399500D01*
X112205354Y-94399500D01*
X112179154Y-94402618D01*
X112160409Y-94410944D01*
X112084222Y-94422943D01*
X112039676Y-94411048D01*
X112031994Y-94407652D01*
X112030574Y-94407024D01*
X112030573Y-94407024D01*
X112020327Y-94402494D01*
X112005682Y-94400787D01*
X111998930Y-94399999D01*
X111998922Y-94399999D01*
X111994646Y-94399500D01*
X111405354Y-94399500D01*
X111379154Y-94402618D01*
X111360409Y-94410944D01*
X111284222Y-94422943D01*
X111239676Y-94411048D01*
X111231994Y-94407652D01*
X111230574Y-94407024D01*
X111230573Y-94407024D01*
X111220327Y-94402494D01*
X111205682Y-94400787D01*
X111198930Y-94399999D01*
X111198922Y-94399999D01*
X111194646Y-94399500D01*
X110605354Y-94399500D01*
X110579154Y-94402618D01*
X110560409Y-94410944D01*
X110484222Y-94422943D01*
X110439676Y-94411048D01*
X110431994Y-94407652D01*
X110430574Y-94407024D01*
X110430573Y-94407024D01*
X110420327Y-94402494D01*
X110405682Y-94400787D01*
X110398930Y-94399999D01*
X110398922Y-94399999D01*
X110394646Y-94399500D01*
X109805354Y-94399500D01*
X109779154Y-94402618D01*
X109767821Y-94407652D01*
X109759792Y-94411218D01*
X109683602Y-94423216D01*
X109639064Y-94411323D01*
X109630461Y-94407520D01*
X109609082Y-94401691D01*
X109598876Y-94400502D01*
X109590246Y-94400000D01*
X109469616Y-94400000D01*
X109454145Y-94404145D01*
X109450000Y-94419616D01*
X109450000Y-97380384D01*
X109454145Y-97395855D01*
X109469616Y-97400000D01*
X109590154Y-97400000D01*
X109598966Y-97399477D01*
X109609621Y-97398210D01*
X109630950Y-97392348D01*
X109638978Y-97388782D01*
X109715167Y-97376785D01*
X109759704Y-97388678D01*
X109768006Y-97392348D01*
X109779673Y-97397506D01*
X109790799Y-97398803D01*
X109790802Y-97398804D01*
X109801070Y-97400001D01*
X109801078Y-97400001D01*
X109805354Y-97400500D01*
X110394646Y-97400500D01*
X110420846Y-97397382D01*
X110439591Y-97389056D01*
X110515778Y-97377057D01*
X110560324Y-97388952D01*
X110560560Y-97389056D01*
X110569422Y-97392974D01*
X110579673Y-97397506D01*
X110594318Y-97399213D01*
X110601070Y-97400001D01*
X110601078Y-97400001D01*
X110605354Y-97400500D01*
X111194646Y-97400500D01*
X111220846Y-97397382D01*
X111239591Y-97389056D01*
X111315778Y-97377057D01*
X111360324Y-97388952D01*
X111360560Y-97389056D01*
X111369422Y-97392974D01*
X111379673Y-97397506D01*
X111394318Y-97399213D01*
X111401070Y-97400001D01*
X111401078Y-97400001D01*
X111405354Y-97400500D01*
X111994646Y-97400500D01*
X112020846Y-97397382D01*
X112039591Y-97389056D01*
X112115778Y-97377057D01*
X112160324Y-97388952D01*
X112160560Y-97389056D01*
X112169422Y-97392974D01*
X112179673Y-97397506D01*
X112194318Y-97399213D01*
X112201070Y-97400001D01*
X112201078Y-97400001D01*
X112205354Y-97400500D01*
X112670228Y-97400500D01*
X112744728Y-97420462D01*
X112799266Y-97475000D01*
X112819228Y-97549500D01*
X112816075Y-97574454D01*
X112816524Y-97574513D01*
X112794394Y-97742611D01*
X112795380Y-97751542D01*
X112795380Y-97751543D01*
X112804555Y-97834650D01*
X112792889Y-97910891D01*
X112744665Y-97971084D01*
X112672805Y-97999100D01*
X112656455Y-98000000D01*
X101149000Y-98000000D01*
X101074500Y-97980038D01*
X101019962Y-97925500D01*
X101000000Y-97851000D01*
X101000000Y-97140154D01*
X106350000Y-97140154D01*
X106350523Y-97148966D01*
X106351791Y-97159623D01*
X106357652Y-97180949D01*
X106392895Y-97260293D01*
X106408214Y-97282583D01*
X106467839Y-97342104D01*
X106490155Y-97357384D01*
X106569545Y-97392482D01*
X106590918Y-97398309D01*
X106601124Y-97399498D01*
X106609754Y-97400000D01*
X106730384Y-97400000D01*
X106745855Y-97395855D01*
X106750000Y-97380384D01*
X107050000Y-97380384D01*
X107054145Y-97395855D01*
X107069616Y-97400000D01*
X107190154Y-97400000D01*
X107198966Y-97399477D01*
X107209621Y-97398210D01*
X107230950Y-97392348D01*
X107238978Y-97388782D01*
X107315167Y-97376785D01*
X107359704Y-97388678D01*
X107368006Y-97392348D01*
X107379673Y-97397506D01*
X107390799Y-97398803D01*
X107390802Y-97398804D01*
X107401070Y-97400001D01*
X107401078Y-97400001D01*
X107405354Y-97400500D01*
X107994646Y-97400500D01*
X108020846Y-97397382D01*
X108039591Y-97389056D01*
X108115778Y-97377057D01*
X108160324Y-97388952D01*
X108160560Y-97389056D01*
X108169422Y-97392974D01*
X108179673Y-97397506D01*
X108194318Y-97399213D01*
X108201070Y-97400001D01*
X108201078Y-97400001D01*
X108205354Y-97400500D01*
X108794646Y-97400500D01*
X108820846Y-97397382D01*
X108839825Y-97388952D01*
X108840208Y-97388782D01*
X108916398Y-97376784D01*
X108960936Y-97388677D01*
X108969539Y-97392480D01*
X108990918Y-97398309D01*
X109001124Y-97399498D01*
X109009754Y-97400000D01*
X109130384Y-97400000D01*
X109145855Y-97395855D01*
X109150000Y-97380384D01*
X109150000Y-94419616D01*
X109145855Y-94404145D01*
X109130384Y-94400000D01*
X109009846Y-94400000D01*
X109001034Y-94400523D01*
X108990379Y-94401790D01*
X108969050Y-94407652D01*
X108961022Y-94411218D01*
X108884833Y-94423215D01*
X108840296Y-94411322D01*
X108830578Y-94407026D01*
X108820327Y-94402494D01*
X108809201Y-94401197D01*
X108809198Y-94401196D01*
X108798930Y-94399999D01*
X108798922Y-94399999D01*
X108794646Y-94399500D01*
X108205354Y-94399500D01*
X108179154Y-94402618D01*
X108160409Y-94410944D01*
X108084222Y-94422943D01*
X108039676Y-94411048D01*
X108031994Y-94407652D01*
X108030574Y-94407024D01*
X108030573Y-94407024D01*
X108020327Y-94402494D01*
X108005682Y-94400787D01*
X107998930Y-94399999D01*
X107998922Y-94399999D01*
X107994646Y-94399500D01*
X107405354Y-94399500D01*
X107379154Y-94402618D01*
X107367821Y-94407652D01*
X107359792Y-94411218D01*
X107283602Y-94423216D01*
X107239064Y-94411323D01*
X107230461Y-94407520D01*
X107209082Y-94401691D01*
X107198876Y-94400502D01*
X107190246Y-94400000D01*
X107069616Y-94400000D01*
X107054145Y-94404145D01*
X107050000Y-94419616D01*
X107050000Y-97380384D01*
X106750000Y-97380384D01*
X106750000Y-96069616D01*
X106745855Y-96054145D01*
X106730384Y-96050000D01*
X106369616Y-96050000D01*
X106354145Y-96054145D01*
X106350000Y-96069616D01*
X106350000Y-97140154D01*
X101000000Y-97140154D01*
X101000000Y-95730384D01*
X106350000Y-95730384D01*
X106354145Y-95745855D01*
X106369616Y-95750000D01*
X106730384Y-95750000D01*
X106745855Y-95745855D01*
X106750000Y-95730384D01*
X106750000Y-94419616D01*
X106745855Y-94404145D01*
X106730384Y-94400000D01*
X106609846Y-94400000D01*
X106601034Y-94400523D01*
X106590377Y-94401791D01*
X106569051Y-94407652D01*
X106489707Y-94442895D01*
X106467417Y-94458214D01*
X106407896Y-94517839D01*
X106392616Y-94540155D01*
X106357518Y-94619545D01*
X106351691Y-94640918D01*
X106350502Y-94651124D01*
X106350000Y-94659754D01*
X106350000Y-95730384D01*
X101000000Y-95730384D01*
X101000000Y-93581105D01*
X103699031Y-93581105D01*
X103701127Y-93589835D01*
X103711591Y-93633418D01*
X103738612Y-93745968D01*
X103742730Y-93753947D01*
X103742731Y-93753949D01*
X103758087Y-93783701D01*
X103816375Y-93896631D01*
X103822279Y-93903398D01*
X103822281Y-93903402D01*
X103872645Y-93961135D01*
X103927831Y-94024396D01*
X104066547Y-94121887D01*
X104224513Y-94183476D01*
X104283280Y-94191213D01*
X104348984Y-94199863D01*
X104348991Y-94199863D01*
X104353826Y-94200500D01*
X104442516Y-94200500D01*
X104568320Y-94185276D01*
X104726923Y-94125345D01*
X104866651Y-94029312D01*
X104927395Y-93961135D01*
X104973465Y-93909428D01*
X104973468Y-93909424D01*
X104979440Y-93902721D01*
X105058776Y-93752881D01*
X105100081Y-93588441D01*
X105100969Y-93418895D01*
X105077688Y-93321926D01*
X105063485Y-93262765D01*
X105063484Y-93262762D01*
X105061388Y-93254032D01*
X105047868Y-93227836D01*
X104987746Y-93111353D01*
X104987745Y-93111352D01*
X104983625Y-93103369D01*
X104977721Y-93096602D01*
X104977719Y-93096598D01*
X104878074Y-92982373D01*
X104872169Y-92975604D01*
X104733453Y-92878113D01*
X104575487Y-92816524D01*
X104516720Y-92808787D01*
X104451016Y-92800137D01*
X104451009Y-92800137D01*
X104446174Y-92799500D01*
X104357484Y-92799500D01*
X104231680Y-92814724D01*
X104073077Y-92874655D01*
X103933349Y-92970688D01*
X103927374Y-92977395D01*
X103927372Y-92977396D01*
X103826535Y-93090572D01*
X103826532Y-93090576D01*
X103820560Y-93097279D01*
X103816357Y-93105217D01*
X103816355Y-93105220D01*
X103778596Y-93176535D01*
X103741224Y-93247119D01*
X103739035Y-93255832D01*
X103739035Y-93255833D01*
X103722434Y-93321926D01*
X103699919Y-93411559D01*
X103699031Y-93581105D01*
X101000000Y-93581105D01*
X101000000Y-92340154D01*
X106350000Y-92340154D01*
X106350523Y-92348966D01*
X106351791Y-92359623D01*
X106357652Y-92380949D01*
X106392895Y-92460293D01*
X106408214Y-92482583D01*
X106467839Y-92542104D01*
X106490155Y-92557384D01*
X106569545Y-92592482D01*
X106590918Y-92598309D01*
X106601124Y-92599498D01*
X106609754Y-92600000D01*
X106730384Y-92600000D01*
X106745855Y-92595855D01*
X106750000Y-92580384D01*
X107050000Y-92580384D01*
X107054145Y-92595855D01*
X107069616Y-92600000D01*
X107190154Y-92600000D01*
X107198966Y-92599477D01*
X107209621Y-92598210D01*
X107230950Y-92592348D01*
X107238978Y-92588782D01*
X107315167Y-92576785D01*
X107359704Y-92588678D01*
X107368006Y-92592348D01*
X107379673Y-92597506D01*
X107390799Y-92598803D01*
X107390802Y-92598804D01*
X107401070Y-92600001D01*
X107401078Y-92600001D01*
X107405354Y-92600500D01*
X107994646Y-92600500D01*
X108020846Y-92597382D01*
X108039591Y-92589056D01*
X108115778Y-92577057D01*
X108160324Y-92588952D01*
X108160560Y-92589056D01*
X108169422Y-92592974D01*
X108179673Y-92597506D01*
X108194318Y-92599213D01*
X108201070Y-92600001D01*
X108201078Y-92600001D01*
X108205354Y-92600500D01*
X108794646Y-92600500D01*
X108820846Y-92597382D01*
X108839825Y-92588952D01*
X108840208Y-92588782D01*
X108916398Y-92576784D01*
X108960936Y-92588677D01*
X108969539Y-92592480D01*
X108990918Y-92598309D01*
X109001124Y-92599498D01*
X109009754Y-92600000D01*
X109130384Y-92600000D01*
X109145855Y-92595855D01*
X109150000Y-92580384D01*
X109450000Y-92580384D01*
X109454145Y-92595855D01*
X109469616Y-92600000D01*
X109590154Y-92600000D01*
X109598966Y-92599477D01*
X109609621Y-92598210D01*
X109630950Y-92592348D01*
X109638978Y-92588782D01*
X109715167Y-92576785D01*
X109759704Y-92588678D01*
X109768006Y-92592348D01*
X109779673Y-92597506D01*
X109790799Y-92598803D01*
X109790802Y-92598804D01*
X109801070Y-92600001D01*
X109801078Y-92600001D01*
X109805354Y-92600500D01*
X110394646Y-92600500D01*
X110420846Y-92597382D01*
X110439591Y-92589056D01*
X110515778Y-92577057D01*
X110560324Y-92588952D01*
X110560560Y-92589056D01*
X110569422Y-92592974D01*
X110579673Y-92597506D01*
X110594318Y-92599213D01*
X110601070Y-92600001D01*
X110601078Y-92600001D01*
X110605354Y-92600500D01*
X111194646Y-92600500D01*
X111220846Y-92597382D01*
X111239591Y-92589056D01*
X111315778Y-92577057D01*
X111360324Y-92588952D01*
X111360560Y-92589056D01*
X111369422Y-92592974D01*
X111379673Y-92597506D01*
X111394318Y-92599213D01*
X111401070Y-92600001D01*
X111401078Y-92600001D01*
X111405354Y-92600500D01*
X111994646Y-92600500D01*
X112020846Y-92597382D01*
X112039591Y-92589056D01*
X112115778Y-92577057D01*
X112160324Y-92588952D01*
X112160560Y-92589056D01*
X112169422Y-92592974D01*
X112179673Y-92597506D01*
X112194318Y-92599213D01*
X112201070Y-92600001D01*
X112201078Y-92600001D01*
X112205354Y-92600500D01*
X112794646Y-92600500D01*
X112820846Y-92597382D01*
X112839825Y-92588952D01*
X112840208Y-92588782D01*
X112916398Y-92576784D01*
X112960936Y-92588677D01*
X112969539Y-92592480D01*
X112990918Y-92598309D01*
X113001124Y-92599498D01*
X113009754Y-92600000D01*
X113130384Y-92600000D01*
X113145855Y-92595855D01*
X113150000Y-92580384D01*
X113150000Y-89619616D01*
X113145855Y-89604145D01*
X113130384Y-89600000D01*
X113009846Y-89600000D01*
X113001034Y-89600523D01*
X112990379Y-89601790D01*
X112969050Y-89607652D01*
X112961022Y-89611218D01*
X112884833Y-89623215D01*
X112840296Y-89611322D01*
X112830578Y-89607026D01*
X112820327Y-89602494D01*
X112809201Y-89601197D01*
X112809198Y-89601196D01*
X112798930Y-89599999D01*
X112798922Y-89599999D01*
X112794646Y-89599500D01*
X112205354Y-89599500D01*
X112179154Y-89602618D01*
X112160409Y-89610944D01*
X112084222Y-89622943D01*
X112039676Y-89611048D01*
X112031994Y-89607652D01*
X112030574Y-89607024D01*
X112030573Y-89607024D01*
X112020327Y-89602494D01*
X112005682Y-89600787D01*
X111998930Y-89599999D01*
X111998922Y-89599999D01*
X111994646Y-89599500D01*
X111405354Y-89599500D01*
X111379154Y-89602618D01*
X111378937Y-89600791D01*
X111315284Y-89601200D01*
X111248243Y-89563066D01*
X111209251Y-89496520D01*
X111208755Y-89419393D01*
X111247564Y-89351673D01*
X112255484Y-88343753D01*
X112255487Y-88343749D01*
X112278050Y-88321186D01*
X112283373Y-88310739D01*
X112283375Y-88310736D01*
X112287215Y-88303200D01*
X112299430Y-88283267D01*
X112304403Y-88276423D01*
X112304406Y-88276417D01*
X112311296Y-88266934D01*
X112317533Y-88247739D01*
X112326482Y-88226133D01*
X112330321Y-88218599D01*
X112330321Y-88218598D01*
X112335646Y-88208148D01*
X112338803Y-88188213D01*
X112344260Y-88165480D01*
X112350500Y-88146277D01*
X112350500Y-86193247D01*
X112352334Y-86169938D01*
X112353658Y-86161579D01*
X112355492Y-86150000D01*
X112353658Y-86138416D01*
X112353266Y-86135940D01*
X112351999Y-86125624D01*
X112346546Y-86063302D01*
X112339636Y-85984317D01*
X112313920Y-85888344D01*
X112313920Y-85811217D01*
X112352484Y-85744422D01*
X112419278Y-85705858D01*
X112444867Y-85701347D01*
X112572636Y-85690177D01*
X112579122Y-85689610D01*
X112739774Y-85646573D01*
X112745662Y-85643828D01*
X112745664Y-85643827D01*
X112884617Y-85579039D01*
X112890511Y-85576291D01*
X113026754Y-85480901D01*
X113119244Y-85388417D01*
X113139755Y-85367908D01*
X113144361Y-85363302D01*
X113148097Y-85357967D01*
X113236026Y-85232399D01*
X113236028Y-85232396D01*
X113239760Y-85227066D01*
X113242508Y-85221173D01*
X113242511Y-85221168D01*
X113307302Y-85082228D01*
X113310051Y-85076333D01*
X113353099Y-84915684D01*
X113360414Y-84832074D01*
X113365462Y-84774379D01*
X113366729Y-84764058D01*
X113368956Y-84750000D01*
X113366808Y-84736438D01*
X113365543Y-84726130D01*
X113363545Y-84703297D01*
X113358862Y-84649780D01*
X113372254Y-84573825D01*
X113421830Y-84514741D01*
X113494306Y-84488360D01*
X113570263Y-84501752D01*
X113607573Y-84526587D01*
X113641233Y-84557215D01*
X113649128Y-84561502D01*
X113649130Y-84561503D01*
X113782344Y-84633832D01*
X113782347Y-84633833D01*
X113790235Y-84638116D01*
X113872234Y-84659628D01*
X113945549Y-84678862D01*
X113945551Y-84678862D01*
X113954233Y-84681140D01*
X113963209Y-84681281D01*
X114114781Y-84683662D01*
X114123760Y-84683803D01*
X114264604Y-84651546D01*
X114276948Y-84648719D01*
X114354025Y-84651546D01*
X114419361Y-84692532D01*
X114455452Y-84760695D01*
X114452625Y-84837772D01*
X114432266Y-84879422D01*
X114401801Y-84922930D01*
X114331511Y-85073665D01*
X114329828Y-85079947D01*
X114329827Y-85079949D01*
X114318116Y-85123655D01*
X114288465Y-85234315D01*
X114287899Y-85240788D01*
X114287898Y-85240792D01*
X114276093Y-85375726D01*
X114274825Y-85386051D01*
X114274450Y-85388417D01*
X114274450Y-85388420D01*
X114272616Y-85400000D01*
X114274451Y-85411582D01*
X114274842Y-85414052D01*
X114276110Y-85424377D01*
X114279897Y-85467656D01*
X114288473Y-85565683D01*
X114296892Y-85597104D01*
X114310148Y-85646573D01*
X114331519Y-85726332D01*
X114401808Y-85877066D01*
X114405538Y-85882394D01*
X114405541Y-85882398D01*
X114437965Y-85928703D01*
X114497203Y-86013303D01*
X114614807Y-86130906D01*
X114751047Y-86226299D01*
X114901781Y-86296586D01*
X114908062Y-86298269D01*
X114908065Y-86298270D01*
X114954610Y-86310741D01*
X115062430Y-86339630D01*
X115150241Y-86347311D01*
X115203621Y-86351981D01*
X115213937Y-86353247D01*
X115216531Y-86353658D01*
X115216532Y-86353658D01*
X115228114Y-86355492D01*
X115248046Y-86352335D01*
X115271355Y-86350500D01*
X115292232Y-86350500D01*
X115366732Y-86370462D01*
X115421270Y-86425000D01*
X115441232Y-86499500D01*
X115436155Y-86538064D01*
X115410364Y-86634317D01*
X115409798Y-86640788D01*
X115409797Y-86640793D01*
X115404920Y-86696545D01*
X115378541Y-86769021D01*
X115361846Y-86788918D01*
X113994516Y-88156247D01*
X113994513Y-88156251D01*
X113971950Y-88178814D01*
X113966627Y-88189261D01*
X113966625Y-88189264D01*
X113962785Y-88196800D01*
X113950570Y-88216733D01*
X113945597Y-88223577D01*
X113945594Y-88223583D01*
X113938704Y-88233066D01*
X113935081Y-88244215D01*
X113935080Y-88244218D01*
X113932468Y-88252259D01*
X113923518Y-88273866D01*
X113914354Y-88291852D01*
X113912519Y-88303436D01*
X113912519Y-88303437D01*
X113911197Y-88311786D01*
X113905740Y-88334520D01*
X113899500Y-88353723D01*
X113899500Y-88872388D01*
X113879538Y-88946888D01*
X113855859Y-88977747D01*
X113794516Y-89039090D01*
X113794513Y-89039094D01*
X113771950Y-89061657D01*
X113766627Y-89072104D01*
X113766625Y-89072107D01*
X113762785Y-89079643D01*
X113750570Y-89099576D01*
X113745597Y-89106420D01*
X113745594Y-89106426D01*
X113738704Y-89115909D01*
X113732469Y-89135100D01*
X113732468Y-89135102D01*
X113723519Y-89156708D01*
X113714354Y-89174695D01*
X113712519Y-89186279D01*
X113712519Y-89186280D01*
X113711197Y-89194629D01*
X113705740Y-89217363D01*
X113699500Y-89236566D01*
X113699500Y-89451000D01*
X113679538Y-89525500D01*
X113625000Y-89580038D01*
X113550500Y-89600000D01*
X113469616Y-89600000D01*
X113454145Y-89604145D01*
X113450000Y-89619616D01*
X113450000Y-92580384D01*
X113454145Y-92595855D01*
X113469616Y-92600000D01*
X113590154Y-92600000D01*
X113598966Y-92599477D01*
X113609621Y-92598210D01*
X113630950Y-92592348D01*
X113638978Y-92588782D01*
X113715167Y-92576785D01*
X113759704Y-92588678D01*
X113768006Y-92592348D01*
X113779673Y-92597506D01*
X113790799Y-92598803D01*
X113790802Y-92598804D01*
X113801070Y-92600001D01*
X113801078Y-92600001D01*
X113805354Y-92600500D01*
X114394646Y-92600500D01*
X114420846Y-92597382D01*
X114439591Y-92589056D01*
X114515778Y-92577057D01*
X114560324Y-92588952D01*
X114560560Y-92589056D01*
X114569422Y-92592974D01*
X114579673Y-92597506D01*
X114594318Y-92599213D01*
X114601070Y-92600001D01*
X114601078Y-92600001D01*
X114605354Y-92600500D01*
X115194646Y-92600500D01*
X115220846Y-92597382D01*
X115239591Y-92589056D01*
X115315778Y-92577057D01*
X115360324Y-92588952D01*
X115360560Y-92589056D01*
X115369422Y-92592974D01*
X115379673Y-92597506D01*
X115394318Y-92599213D01*
X115401070Y-92600001D01*
X115401078Y-92600001D01*
X115405354Y-92600500D01*
X115994646Y-92600500D01*
X116020846Y-92597382D01*
X116039591Y-92589056D01*
X116115778Y-92577057D01*
X116160324Y-92588952D01*
X116160560Y-92589056D01*
X116169422Y-92592974D01*
X116179673Y-92597506D01*
X116194318Y-92599213D01*
X116201070Y-92600001D01*
X116201078Y-92600001D01*
X116205354Y-92600500D01*
X116794646Y-92600500D01*
X116820846Y-92597382D01*
X116839825Y-92588952D01*
X116840208Y-92588782D01*
X116916398Y-92576784D01*
X116960936Y-92588677D01*
X116969539Y-92592480D01*
X116990918Y-92598309D01*
X117001124Y-92599498D01*
X117009754Y-92600000D01*
X117130384Y-92600000D01*
X117145855Y-92595855D01*
X117150000Y-92580384D01*
X117450000Y-92580384D01*
X117454145Y-92595855D01*
X117469616Y-92600000D01*
X117590154Y-92600000D01*
X117598966Y-92599477D01*
X117609621Y-92598210D01*
X117630950Y-92592348D01*
X117638978Y-92588782D01*
X117715167Y-92576785D01*
X117759704Y-92588678D01*
X117768006Y-92592348D01*
X117779673Y-92597506D01*
X117790799Y-92598803D01*
X117790802Y-92598804D01*
X117801070Y-92600001D01*
X117801078Y-92600001D01*
X117805354Y-92600500D01*
X118394646Y-92600500D01*
X118420846Y-92597382D01*
X118439591Y-92589056D01*
X118515778Y-92577057D01*
X118560324Y-92588952D01*
X118560560Y-92589056D01*
X118569422Y-92592974D01*
X118579673Y-92597506D01*
X118594318Y-92599213D01*
X118601070Y-92600001D01*
X118601078Y-92600001D01*
X118605354Y-92600500D01*
X119194646Y-92600500D01*
X119220846Y-92597382D01*
X119239591Y-92589056D01*
X119315778Y-92577057D01*
X119360324Y-92588952D01*
X119360560Y-92589056D01*
X119369422Y-92592974D01*
X119379673Y-92597506D01*
X119394318Y-92599213D01*
X119401070Y-92600001D01*
X119401078Y-92600001D01*
X119405354Y-92600500D01*
X119994646Y-92600500D01*
X120020846Y-92597382D01*
X120039591Y-92589056D01*
X120115778Y-92577057D01*
X120160324Y-92588952D01*
X120160560Y-92589056D01*
X120169422Y-92592974D01*
X120179673Y-92597506D01*
X120194318Y-92599213D01*
X120201070Y-92600001D01*
X120201078Y-92600001D01*
X120205354Y-92600500D01*
X120794646Y-92600500D01*
X120820846Y-92597382D01*
X120839825Y-92588952D01*
X120840208Y-92588782D01*
X120916398Y-92576784D01*
X120960936Y-92588677D01*
X120969539Y-92592480D01*
X120990918Y-92598309D01*
X121001124Y-92599498D01*
X121009754Y-92600000D01*
X121130384Y-92600000D01*
X121145855Y-92595855D01*
X121150000Y-92580384D01*
X121450000Y-92580384D01*
X121454145Y-92595855D01*
X121469616Y-92600000D01*
X121590154Y-92600000D01*
X121598966Y-92599477D01*
X121609621Y-92598210D01*
X121630950Y-92592348D01*
X121638978Y-92588782D01*
X121715167Y-92576785D01*
X121759704Y-92588678D01*
X121768006Y-92592348D01*
X121779673Y-92597506D01*
X121790799Y-92598803D01*
X121790802Y-92598804D01*
X121801070Y-92600001D01*
X121801078Y-92600001D01*
X121805354Y-92600500D01*
X122394646Y-92600500D01*
X122420846Y-92597382D01*
X122439591Y-92589056D01*
X122515778Y-92577057D01*
X122560324Y-92588952D01*
X122560560Y-92589056D01*
X122569422Y-92592974D01*
X122579673Y-92597506D01*
X122594318Y-92599213D01*
X122601070Y-92600001D01*
X122601078Y-92600001D01*
X122605354Y-92600500D01*
X123194646Y-92600500D01*
X123220846Y-92597382D01*
X123239591Y-92589056D01*
X123315778Y-92577057D01*
X123360324Y-92588952D01*
X123360560Y-92589056D01*
X123369422Y-92592974D01*
X123379673Y-92597506D01*
X123394318Y-92599213D01*
X123401070Y-92600001D01*
X123401078Y-92600001D01*
X123405354Y-92600500D01*
X123994646Y-92600500D01*
X124020846Y-92597382D01*
X124039591Y-92589056D01*
X124115778Y-92577057D01*
X124160324Y-92588952D01*
X124160560Y-92589056D01*
X124169422Y-92592974D01*
X124179673Y-92597506D01*
X124194318Y-92599213D01*
X124201070Y-92600001D01*
X124201078Y-92600001D01*
X124205354Y-92600500D01*
X124794646Y-92600500D01*
X124820846Y-92597382D01*
X124839825Y-92588952D01*
X124840208Y-92588782D01*
X124916398Y-92576784D01*
X124960936Y-92588677D01*
X124969539Y-92592480D01*
X124990918Y-92598309D01*
X125001124Y-92599498D01*
X125009754Y-92600000D01*
X125130384Y-92600000D01*
X125145855Y-92595855D01*
X125150000Y-92580384D01*
X125450000Y-92580384D01*
X125454145Y-92595855D01*
X125469616Y-92600000D01*
X125590154Y-92600000D01*
X125598966Y-92599477D01*
X125609621Y-92598210D01*
X125630950Y-92592348D01*
X125638978Y-92588782D01*
X125715167Y-92576785D01*
X125759704Y-92588678D01*
X125768006Y-92592348D01*
X125779673Y-92597506D01*
X125790799Y-92598803D01*
X125790802Y-92598804D01*
X125801070Y-92600001D01*
X125801078Y-92600001D01*
X125805354Y-92600500D01*
X126394646Y-92600500D01*
X126420846Y-92597382D01*
X126439591Y-92589056D01*
X126515778Y-92577057D01*
X126560324Y-92588952D01*
X126560560Y-92589056D01*
X126569422Y-92592974D01*
X126579673Y-92597506D01*
X126594318Y-92599213D01*
X126601070Y-92600001D01*
X126601078Y-92600001D01*
X126605354Y-92600500D01*
X127194646Y-92600500D01*
X127220846Y-92597382D01*
X127239591Y-92589056D01*
X127315778Y-92577057D01*
X127360324Y-92588952D01*
X127360560Y-92589056D01*
X127369422Y-92592974D01*
X127379673Y-92597506D01*
X127394318Y-92599213D01*
X127401070Y-92600001D01*
X127401078Y-92600001D01*
X127405354Y-92600500D01*
X127994646Y-92600500D01*
X128020846Y-92597382D01*
X128039591Y-92589056D01*
X128115778Y-92577057D01*
X128160324Y-92588952D01*
X128160560Y-92589056D01*
X128169422Y-92592974D01*
X128179673Y-92597506D01*
X128194318Y-92599213D01*
X128201070Y-92600001D01*
X128201078Y-92600001D01*
X128205354Y-92600500D01*
X128794646Y-92600500D01*
X128820846Y-92597382D01*
X128839825Y-92588952D01*
X128840208Y-92588782D01*
X128916398Y-92576784D01*
X128960936Y-92588677D01*
X128969539Y-92592480D01*
X128990918Y-92598309D01*
X129001124Y-92599498D01*
X129009754Y-92600000D01*
X129130384Y-92600000D01*
X129145855Y-92595855D01*
X129150000Y-92580384D01*
X129450000Y-92580384D01*
X129454145Y-92595855D01*
X129469616Y-92600000D01*
X129590154Y-92600000D01*
X129598966Y-92599477D01*
X129609621Y-92598210D01*
X129630950Y-92592348D01*
X129638978Y-92588782D01*
X129715167Y-92576785D01*
X129759704Y-92588678D01*
X129768006Y-92592348D01*
X129779673Y-92597506D01*
X129790799Y-92598803D01*
X129790802Y-92598804D01*
X129801070Y-92600001D01*
X129801078Y-92600001D01*
X129805354Y-92600500D01*
X130394646Y-92600500D01*
X130420846Y-92597382D01*
X130439591Y-92589056D01*
X130515778Y-92577057D01*
X130560324Y-92588952D01*
X130560560Y-92589056D01*
X130569422Y-92592974D01*
X130579673Y-92597506D01*
X130594318Y-92599213D01*
X130601070Y-92600001D01*
X130601078Y-92600001D01*
X130605354Y-92600500D01*
X131194646Y-92600500D01*
X131220846Y-92597382D01*
X131239591Y-92589056D01*
X131315778Y-92577057D01*
X131360324Y-92588952D01*
X131360560Y-92589056D01*
X131369422Y-92592974D01*
X131379673Y-92597506D01*
X131394318Y-92599213D01*
X131401070Y-92600001D01*
X131401078Y-92600001D01*
X131405354Y-92600500D01*
X131994646Y-92600500D01*
X132020846Y-92597382D01*
X132039591Y-92589056D01*
X132115778Y-92577057D01*
X132160324Y-92588952D01*
X132160560Y-92589056D01*
X132169422Y-92592974D01*
X132179673Y-92597506D01*
X132194318Y-92599213D01*
X132201070Y-92600001D01*
X132201078Y-92600001D01*
X132205354Y-92600500D01*
X132794646Y-92600500D01*
X132820846Y-92597382D01*
X132839591Y-92589056D01*
X132915778Y-92577057D01*
X132960324Y-92588952D01*
X132960560Y-92589056D01*
X132969422Y-92592974D01*
X132979673Y-92597506D01*
X132994318Y-92599213D01*
X133001070Y-92600001D01*
X133001078Y-92600001D01*
X133005354Y-92600500D01*
X133594646Y-92600500D01*
X133620846Y-92597382D01*
X133639591Y-92589056D01*
X133715778Y-92577057D01*
X133760324Y-92588952D01*
X133760560Y-92589056D01*
X133769422Y-92592974D01*
X133779673Y-92597506D01*
X133794318Y-92599213D01*
X133801070Y-92600001D01*
X133801078Y-92600001D01*
X133805354Y-92600500D01*
X134394646Y-92600500D01*
X134420846Y-92597382D01*
X134439591Y-92589056D01*
X134515778Y-92577057D01*
X134560324Y-92588952D01*
X134560560Y-92589056D01*
X134569422Y-92592974D01*
X134579673Y-92597506D01*
X134594318Y-92599213D01*
X134601070Y-92600001D01*
X134601078Y-92600001D01*
X134605354Y-92600500D01*
X135194646Y-92600500D01*
X135220846Y-92597382D01*
X135239591Y-92589056D01*
X135315778Y-92577057D01*
X135360324Y-92588952D01*
X135360560Y-92589056D01*
X135369422Y-92592974D01*
X135379673Y-92597506D01*
X135394318Y-92599213D01*
X135401070Y-92600001D01*
X135401078Y-92600001D01*
X135405354Y-92600500D01*
X135994646Y-92600500D01*
X136020846Y-92597382D01*
X136039591Y-92589056D01*
X136115778Y-92577057D01*
X136160324Y-92588952D01*
X136160560Y-92589056D01*
X136169422Y-92592974D01*
X136179673Y-92597506D01*
X136194318Y-92599213D01*
X136201070Y-92600001D01*
X136201078Y-92600001D01*
X136205354Y-92600500D01*
X136794646Y-92600500D01*
X136820846Y-92597382D01*
X136839591Y-92589056D01*
X136915778Y-92577057D01*
X136960324Y-92588952D01*
X136960560Y-92589056D01*
X136969422Y-92592974D01*
X136979673Y-92597506D01*
X136994318Y-92599213D01*
X137001070Y-92600001D01*
X137001078Y-92600001D01*
X137005354Y-92600500D01*
X137594646Y-92600500D01*
X137620846Y-92597382D01*
X137639591Y-92589056D01*
X137715778Y-92577057D01*
X137760324Y-92588952D01*
X137760560Y-92589056D01*
X137769422Y-92592974D01*
X137779673Y-92597506D01*
X137794318Y-92599213D01*
X137801070Y-92600001D01*
X137801078Y-92600001D01*
X137805354Y-92600500D01*
X138394646Y-92600500D01*
X138420846Y-92597382D01*
X138523153Y-92551939D01*
X138602241Y-92472713D01*
X138647506Y-92370327D01*
X138649213Y-92355682D01*
X138650001Y-92348930D01*
X138650001Y-92348922D01*
X138650500Y-92344646D01*
X138650500Y-89855354D01*
X138647382Y-89829154D01*
X138601939Y-89726847D01*
X138522713Y-89647759D01*
X138510133Y-89642197D01*
X138510131Y-89642196D01*
X138430574Y-89607024D01*
X138430573Y-89607024D01*
X138420327Y-89602494D01*
X138405682Y-89600787D01*
X138398930Y-89599999D01*
X138398922Y-89599999D01*
X138394646Y-89599500D01*
X137805354Y-89599500D01*
X137779154Y-89602618D01*
X137760409Y-89610944D01*
X137684222Y-89622943D01*
X137639676Y-89611048D01*
X137631994Y-89607652D01*
X137630574Y-89607024D01*
X137630573Y-89607024D01*
X137620327Y-89602494D01*
X137605682Y-89600787D01*
X137598930Y-89599999D01*
X137598922Y-89599999D01*
X137594646Y-89599500D01*
X137005354Y-89599500D01*
X136979154Y-89602618D01*
X136960409Y-89610944D01*
X136884222Y-89622943D01*
X136839676Y-89611048D01*
X136831994Y-89607652D01*
X136830574Y-89607024D01*
X136830573Y-89607024D01*
X136820327Y-89602494D01*
X136805682Y-89600787D01*
X136798930Y-89599999D01*
X136798922Y-89599999D01*
X136794646Y-89599500D01*
X136205354Y-89599500D01*
X136179154Y-89602618D01*
X136160409Y-89610944D01*
X136084222Y-89622943D01*
X136039676Y-89611048D01*
X136031994Y-89607652D01*
X136030574Y-89607024D01*
X136030573Y-89607024D01*
X136020327Y-89602494D01*
X136005682Y-89600787D01*
X135998930Y-89599999D01*
X135998922Y-89599999D01*
X135994646Y-89599500D01*
X135405354Y-89599500D01*
X135379154Y-89602618D01*
X135360409Y-89610944D01*
X135284222Y-89622943D01*
X135239676Y-89611048D01*
X135231994Y-89607652D01*
X135230574Y-89607024D01*
X135230573Y-89607024D01*
X135220327Y-89602494D01*
X135205682Y-89600787D01*
X135198930Y-89599999D01*
X135198922Y-89599999D01*
X135194646Y-89599500D01*
X134605354Y-89599500D01*
X134579154Y-89602618D01*
X134560409Y-89610944D01*
X134484222Y-89622943D01*
X134439676Y-89611048D01*
X134431994Y-89607652D01*
X134430574Y-89607024D01*
X134430573Y-89607024D01*
X134420327Y-89602494D01*
X134405682Y-89600787D01*
X134398930Y-89599999D01*
X134398922Y-89599999D01*
X134394646Y-89599500D01*
X133805354Y-89599500D01*
X133779154Y-89602618D01*
X133760409Y-89610944D01*
X133684222Y-89622943D01*
X133639676Y-89611048D01*
X133631994Y-89607652D01*
X133630574Y-89607024D01*
X133630573Y-89607024D01*
X133620327Y-89602494D01*
X133605682Y-89600787D01*
X133598930Y-89599999D01*
X133598922Y-89599999D01*
X133594646Y-89599500D01*
X133005354Y-89599500D01*
X132979154Y-89602618D01*
X132960409Y-89610944D01*
X132884222Y-89622943D01*
X132839676Y-89611048D01*
X132831994Y-89607652D01*
X132830574Y-89607024D01*
X132830573Y-89607024D01*
X132820327Y-89602494D01*
X132805682Y-89600787D01*
X132798930Y-89599999D01*
X132798922Y-89599999D01*
X132794646Y-89599500D01*
X132205354Y-89599500D01*
X132179154Y-89602618D01*
X132160409Y-89610944D01*
X132084222Y-89622943D01*
X132039676Y-89611048D01*
X132031994Y-89607652D01*
X132030574Y-89607024D01*
X132030573Y-89607024D01*
X132020327Y-89602494D01*
X132005682Y-89600787D01*
X131998930Y-89599999D01*
X131998922Y-89599999D01*
X131994646Y-89599500D01*
X131405354Y-89599500D01*
X131379154Y-89602618D01*
X131360409Y-89610944D01*
X131284222Y-89622943D01*
X131239676Y-89611048D01*
X131231994Y-89607652D01*
X131230574Y-89607024D01*
X131230573Y-89607024D01*
X131220327Y-89602494D01*
X131205682Y-89600787D01*
X131198930Y-89599999D01*
X131198922Y-89599999D01*
X131194646Y-89599500D01*
X130605354Y-89599500D01*
X130579154Y-89602618D01*
X130560409Y-89610944D01*
X130484222Y-89622943D01*
X130439676Y-89611048D01*
X130431994Y-89607652D01*
X130430574Y-89607024D01*
X130430573Y-89607024D01*
X130420327Y-89602494D01*
X130405682Y-89600787D01*
X130398930Y-89599999D01*
X130398922Y-89599999D01*
X130394646Y-89599500D01*
X129805354Y-89599500D01*
X129779154Y-89602618D01*
X129767821Y-89607652D01*
X129759792Y-89611218D01*
X129683602Y-89623216D01*
X129639064Y-89611323D01*
X129630461Y-89607520D01*
X129609082Y-89601691D01*
X129598876Y-89600502D01*
X129590246Y-89600000D01*
X129469616Y-89600000D01*
X129454145Y-89604145D01*
X129450000Y-89619616D01*
X129450000Y-92580384D01*
X129150000Y-92580384D01*
X129150000Y-89619616D01*
X129145855Y-89604145D01*
X129130384Y-89600000D01*
X129009846Y-89600000D01*
X129001034Y-89600523D01*
X128990379Y-89601790D01*
X128969050Y-89607652D01*
X128961022Y-89611218D01*
X128884833Y-89623215D01*
X128840296Y-89611322D01*
X128830578Y-89607026D01*
X128820327Y-89602494D01*
X128809201Y-89601197D01*
X128809198Y-89601196D01*
X128798930Y-89599999D01*
X128798922Y-89599999D01*
X128794646Y-89599500D01*
X128205354Y-89599500D01*
X128179154Y-89602618D01*
X128160409Y-89610944D01*
X128084222Y-89622943D01*
X128039676Y-89611048D01*
X128031994Y-89607652D01*
X128030574Y-89607024D01*
X128030573Y-89607024D01*
X128020327Y-89602494D01*
X128005682Y-89600787D01*
X127998930Y-89599999D01*
X127998922Y-89599999D01*
X127994646Y-89599500D01*
X127405354Y-89599500D01*
X127379154Y-89602618D01*
X127360409Y-89610944D01*
X127284222Y-89622943D01*
X127239676Y-89611048D01*
X127231994Y-89607652D01*
X127230574Y-89607024D01*
X127230573Y-89607024D01*
X127220327Y-89602494D01*
X127205682Y-89600787D01*
X127198930Y-89599999D01*
X127198922Y-89599999D01*
X127194646Y-89599500D01*
X126605354Y-89599500D01*
X126579154Y-89602618D01*
X126560409Y-89610944D01*
X126484222Y-89622943D01*
X126439676Y-89611048D01*
X126431994Y-89607652D01*
X126430574Y-89607024D01*
X126430573Y-89607024D01*
X126420327Y-89602494D01*
X126405682Y-89600787D01*
X126398930Y-89599999D01*
X126398922Y-89599999D01*
X126394646Y-89599500D01*
X125805354Y-89599500D01*
X125779154Y-89602618D01*
X125767821Y-89607652D01*
X125759792Y-89611218D01*
X125683602Y-89623216D01*
X125639064Y-89611323D01*
X125630461Y-89607520D01*
X125609082Y-89601691D01*
X125598876Y-89600502D01*
X125590246Y-89600000D01*
X125469616Y-89600000D01*
X125454145Y-89604145D01*
X125450000Y-89619616D01*
X125450000Y-92580384D01*
X125150000Y-92580384D01*
X125150000Y-89619616D01*
X125145855Y-89604145D01*
X125130384Y-89600000D01*
X125009846Y-89600000D01*
X125001034Y-89600523D01*
X124990379Y-89601790D01*
X124969050Y-89607652D01*
X124961022Y-89611218D01*
X124884833Y-89623215D01*
X124840296Y-89611322D01*
X124830578Y-89607026D01*
X124820327Y-89602494D01*
X124809201Y-89601197D01*
X124809198Y-89601196D01*
X124798930Y-89599999D01*
X124798922Y-89599999D01*
X124794646Y-89599500D01*
X124205354Y-89599500D01*
X124179154Y-89602618D01*
X124160409Y-89610944D01*
X124084222Y-89622943D01*
X124039676Y-89611048D01*
X124031994Y-89607652D01*
X124030574Y-89607024D01*
X124030573Y-89607024D01*
X124020327Y-89602494D01*
X124005682Y-89600787D01*
X123998930Y-89599999D01*
X123998922Y-89599999D01*
X123994646Y-89599500D01*
X123405354Y-89599500D01*
X123379154Y-89602618D01*
X123360409Y-89610944D01*
X123284222Y-89622943D01*
X123239676Y-89611048D01*
X123231994Y-89607652D01*
X123230574Y-89607024D01*
X123230573Y-89607024D01*
X123220327Y-89602494D01*
X123205682Y-89600787D01*
X123198930Y-89599999D01*
X123198922Y-89599999D01*
X123194646Y-89599500D01*
X122605354Y-89599500D01*
X122579154Y-89602618D01*
X122560409Y-89610944D01*
X122484222Y-89622943D01*
X122439676Y-89611048D01*
X122431994Y-89607652D01*
X122430574Y-89607024D01*
X122430573Y-89607024D01*
X122420327Y-89602494D01*
X122405682Y-89600787D01*
X122398930Y-89599999D01*
X122398922Y-89599999D01*
X122394646Y-89599500D01*
X121805354Y-89599500D01*
X121779154Y-89602618D01*
X121767821Y-89607652D01*
X121759792Y-89611218D01*
X121683602Y-89623216D01*
X121639064Y-89611323D01*
X121630461Y-89607520D01*
X121609082Y-89601691D01*
X121598876Y-89600502D01*
X121590246Y-89600000D01*
X121469616Y-89600000D01*
X121454145Y-89604145D01*
X121450000Y-89619616D01*
X121450000Y-92580384D01*
X121150000Y-92580384D01*
X121150000Y-89619616D01*
X121145855Y-89604145D01*
X121130384Y-89600000D01*
X121009846Y-89600000D01*
X121001034Y-89600523D01*
X120990379Y-89601790D01*
X120969050Y-89607652D01*
X120961022Y-89611218D01*
X120884833Y-89623215D01*
X120840296Y-89611322D01*
X120830578Y-89607026D01*
X120820327Y-89602494D01*
X120809201Y-89601197D01*
X120809198Y-89601196D01*
X120798930Y-89599999D01*
X120798922Y-89599999D01*
X120794646Y-89599500D01*
X120205354Y-89599500D01*
X120179154Y-89602618D01*
X120160409Y-89610944D01*
X120084222Y-89622943D01*
X120039676Y-89611048D01*
X120031994Y-89607652D01*
X120030574Y-89607024D01*
X120030573Y-89607024D01*
X120020327Y-89602494D01*
X120005682Y-89600787D01*
X119998930Y-89599999D01*
X119998922Y-89599999D01*
X119994646Y-89599500D01*
X119405354Y-89599500D01*
X119379154Y-89602618D01*
X119360409Y-89610944D01*
X119284222Y-89622943D01*
X119239676Y-89611048D01*
X119231994Y-89607652D01*
X119230574Y-89607024D01*
X119230573Y-89607024D01*
X119220327Y-89602494D01*
X119205682Y-89600787D01*
X119198930Y-89599999D01*
X119198922Y-89599999D01*
X119194646Y-89599500D01*
X118605354Y-89599500D01*
X118579154Y-89602618D01*
X118560409Y-89610944D01*
X118484222Y-89622943D01*
X118439676Y-89611048D01*
X118431994Y-89607652D01*
X118430574Y-89607024D01*
X118430573Y-89607024D01*
X118420327Y-89602494D01*
X118405682Y-89600787D01*
X118398930Y-89599999D01*
X118398922Y-89599999D01*
X118394646Y-89599500D01*
X117805354Y-89599500D01*
X117779154Y-89602618D01*
X117767821Y-89607652D01*
X117759792Y-89611218D01*
X117683602Y-89623216D01*
X117639064Y-89611323D01*
X117630461Y-89607520D01*
X117609082Y-89601691D01*
X117598876Y-89600502D01*
X117590246Y-89600000D01*
X117469616Y-89600000D01*
X117454145Y-89604145D01*
X117450000Y-89619616D01*
X117450000Y-92580384D01*
X117150000Y-92580384D01*
X117150000Y-89619616D01*
X117145855Y-89604145D01*
X117130384Y-89600000D01*
X117049500Y-89600000D01*
X116975000Y-89580038D01*
X116920462Y-89525500D01*
X116900500Y-89451000D01*
X116900500Y-89236566D01*
X116894260Y-89217363D01*
X116888803Y-89194629D01*
X116887481Y-89186280D01*
X116887481Y-89186279D01*
X116885646Y-89174695D01*
X116876481Y-89156707D01*
X116867536Y-89135114D01*
X116861296Y-89115910D01*
X116861294Y-89115906D01*
X116862993Y-89115354D01*
X116849848Y-89053513D01*
X116873682Y-88980160D01*
X116893285Y-88955952D01*
X119505483Y-86343753D01*
X119528050Y-86321186D01*
X119537216Y-86303197D01*
X119549433Y-86283262D01*
X119554401Y-86276424D01*
X119561296Y-86266934D01*
X119567534Y-86247736D01*
X119576480Y-86226138D01*
X119580322Y-86218598D01*
X119580323Y-86218595D01*
X119585646Y-86208148D01*
X119588806Y-86188196D01*
X119594261Y-86165475D01*
X119595527Y-86161579D01*
X119600499Y-86146277D01*
X119600499Y-86114369D01*
X119600500Y-86114363D01*
X119600500Y-85960377D01*
X119602331Y-85937091D01*
X119605492Y-85917124D01*
X119603657Y-85905545D01*
X119603657Y-85905540D01*
X119603263Y-85903055D01*
X119601996Y-85892738D01*
X119590191Y-85757930D01*
X119589624Y-85751450D01*
X119546570Y-85590812D01*
X119543820Y-85584916D01*
X119543818Y-85584910D01*
X119479026Y-85445986D01*
X119479025Y-85445984D01*
X119476276Y-85440090D01*
X119472546Y-85434764D01*
X119472544Y-85434760D01*
X119380879Y-85303864D01*
X119382871Y-85302469D01*
X119355159Y-85243032D01*
X119361884Y-85166198D01*
X119382063Y-85131258D01*
X119380900Y-85130443D01*
X119381534Y-85129538D01*
X119476289Y-84994199D01*
X119483466Y-84978807D01*
X119543821Y-84849355D01*
X119546569Y-84843461D01*
X119549241Y-84833489D01*
X119568740Y-84760695D01*
X119576672Y-84731083D01*
X119615232Y-84664286D01*
X119682024Y-84625718D01*
X119759152Y-84625712D01*
X119775448Y-84631101D01*
X119782342Y-84633830D01*
X119790235Y-84638116D01*
X119880254Y-84661732D01*
X119945549Y-84678862D01*
X119945551Y-84678862D01*
X119954233Y-84681140D01*
X119963209Y-84681281D01*
X120114781Y-84683662D01*
X120123760Y-84683803D01*
X120289029Y-84645952D01*
X120303403Y-84638723D01*
X120411590Y-84584310D01*
X120435207Y-84572432D01*
X120510733Y-84556791D01*
X120573252Y-84574600D01*
X120682344Y-84633832D01*
X120682347Y-84633833D01*
X120690235Y-84638116D01*
X120772234Y-84659628D01*
X120845549Y-84678862D01*
X120845551Y-84678862D01*
X120854233Y-84681140D01*
X120863209Y-84681281D01*
X121014781Y-84683662D01*
X121023760Y-84683803D01*
X121189029Y-84645952D01*
X121203403Y-84638723D01*
X121311590Y-84584310D01*
X121340498Y-84569771D01*
X121399578Y-84519312D01*
X121462594Y-84465491D01*
X121462596Y-84465489D01*
X121469423Y-84459658D01*
X121529299Y-84376332D01*
X121563124Y-84329260D01*
X121563126Y-84329256D01*
X121568361Y-84321971D01*
X121613692Y-84209208D01*
X121628251Y-84172993D01*
X121628252Y-84172988D01*
X121631601Y-84164658D01*
X121655490Y-83996802D01*
X121655645Y-83982024D01*
X121635276Y-83813704D01*
X121575345Y-83655101D01*
X121479312Y-83515373D01*
X121399788Y-83444519D01*
X121359428Y-83408559D01*
X121359424Y-83408556D01*
X121352721Y-83402584D01*
X121344783Y-83398381D01*
X121344780Y-83398379D01*
X121210823Y-83327453D01*
X121202881Y-83323248D01*
X121195560Y-83321409D01*
X121133702Y-83276462D01*
X121102334Y-83206001D01*
X121100500Y-83182698D01*
X121100500Y-82135637D01*
X121100499Y-82135631D01*
X121100499Y-82103723D01*
X121094260Y-82084520D01*
X121088806Y-82061804D01*
X121085646Y-82041852D01*
X121080323Y-82031405D01*
X121080322Y-82031402D01*
X121076480Y-82023862D01*
X121067534Y-82002264D01*
X121064921Y-81994222D01*
X121064919Y-81994218D01*
X121061296Y-81983066D01*
X121049433Y-81966738D01*
X121037216Y-81946803D01*
X121033372Y-81939259D01*
X121028050Y-81928814D01*
X120938342Y-81839106D01*
X120343753Y-81244516D01*
X120343749Y-81244513D01*
X120321186Y-81221950D01*
X120310739Y-81216627D01*
X120310736Y-81216625D01*
X120303200Y-81212785D01*
X120283267Y-81200570D01*
X120276423Y-81195597D01*
X120276417Y-81195594D01*
X120266934Y-81188704D01*
X120255785Y-81185081D01*
X120255782Y-81185080D01*
X120250160Y-81183254D01*
X120247739Y-81182467D01*
X120226133Y-81173518D01*
X120218599Y-81169679D01*
X120218598Y-81169679D01*
X120208148Y-81164354D01*
X120196564Y-81162519D01*
X120196563Y-81162519D01*
X120188214Y-81161197D01*
X120165480Y-81155740D01*
X120146277Y-81149500D01*
X119385637Y-81149500D01*
X119385633Y-81149501D01*
X119353723Y-81149501D01*
X119334520Y-81155740D01*
X119311804Y-81161194D01*
X119291852Y-81164354D01*
X119281405Y-81169677D01*
X119281402Y-81169678D01*
X119273862Y-81173520D01*
X119252264Y-81182466D01*
X119244222Y-81185079D01*
X119244220Y-81185080D01*
X119233066Y-81188704D01*
X119223576Y-81195599D01*
X119216738Y-81200567D01*
X119196803Y-81212784D01*
X119178814Y-81221950D01*
X119156247Y-81244517D01*
X118494516Y-81906247D01*
X118494513Y-81906251D01*
X118471950Y-81928814D01*
X118466627Y-81939261D01*
X118466625Y-81939264D01*
X118462785Y-81946800D01*
X118450570Y-81966733D01*
X118445597Y-81973577D01*
X118445594Y-81973583D01*
X118438704Y-81983066D01*
X118435081Y-81994215D01*
X118435080Y-81994218D01*
X118432468Y-82002259D01*
X118423520Y-82023862D01*
X118414354Y-82041852D01*
X118412519Y-82053436D01*
X118412519Y-82053437D01*
X118411197Y-82061786D01*
X118405740Y-82084520D01*
X118399500Y-82103723D01*
X118399500Y-83183082D01*
X118379538Y-83257582D01*
X118325000Y-83312120D01*
X118250500Y-83332082D01*
X118202896Y-83323256D01*
X118202881Y-83323248D01*
X118195554Y-83321407D01*
X118133694Y-83276453D01*
X118102332Y-83205989D01*
X118100500Y-83182698D01*
X118100500Y-82635637D01*
X118100499Y-82635631D01*
X118100499Y-82603723D01*
X118094260Y-82584520D01*
X118088806Y-82561804D01*
X118085646Y-82541852D01*
X118080323Y-82531405D01*
X118080322Y-82531402D01*
X118076480Y-82523862D01*
X118067534Y-82502264D01*
X118064921Y-82494222D01*
X118064919Y-82494218D01*
X118061296Y-82483066D01*
X118049433Y-82466738D01*
X118037216Y-82446803D01*
X118033372Y-82439259D01*
X118028050Y-82428814D01*
X117938342Y-82339106D01*
X117343753Y-81744516D01*
X117343749Y-81744513D01*
X117321186Y-81721950D01*
X117310739Y-81716627D01*
X117310736Y-81716625D01*
X117303200Y-81712785D01*
X117283267Y-81700570D01*
X117276423Y-81695597D01*
X117276417Y-81695594D01*
X117266934Y-81688704D01*
X117255785Y-81685081D01*
X117255782Y-81685080D01*
X117250160Y-81683254D01*
X117247739Y-81682467D01*
X117226133Y-81673518D01*
X117218599Y-81669679D01*
X117218598Y-81669679D01*
X117208148Y-81664354D01*
X117196564Y-81662519D01*
X117196563Y-81662519D01*
X117188214Y-81661197D01*
X117165480Y-81655740D01*
X117146277Y-81649500D01*
X116385637Y-81649500D01*
X116385633Y-81649501D01*
X116353723Y-81649501D01*
X116334520Y-81655740D01*
X116311804Y-81661194D01*
X116291852Y-81664354D01*
X116281405Y-81669677D01*
X116281402Y-81669678D01*
X116273862Y-81673520D01*
X116252264Y-81682466D01*
X116244222Y-81685079D01*
X116244220Y-81685080D01*
X116233066Y-81688704D01*
X116223576Y-81695599D01*
X116216738Y-81700567D01*
X116196803Y-81712784D01*
X116178814Y-81721950D01*
X116156247Y-81744517D01*
X115494516Y-82406247D01*
X115494513Y-82406251D01*
X115471950Y-82428814D01*
X115466627Y-82439261D01*
X115466625Y-82439264D01*
X115462785Y-82446800D01*
X115450570Y-82466733D01*
X115445597Y-82473577D01*
X115445594Y-82473583D01*
X115438704Y-82483066D01*
X115435081Y-82494215D01*
X115435080Y-82494218D01*
X115432468Y-82502259D01*
X115423520Y-82523862D01*
X115414354Y-82541852D01*
X115412519Y-82553436D01*
X115412519Y-82553437D01*
X115411197Y-82561786D01*
X115405740Y-82584520D01*
X115399500Y-82603723D01*
X115399500Y-83183082D01*
X115379538Y-83257582D01*
X115325000Y-83312120D01*
X115250500Y-83332082D01*
X115202896Y-83323256D01*
X115202881Y-83323248D01*
X115195554Y-83321407D01*
X115133694Y-83276453D01*
X115102332Y-83205989D01*
X115100500Y-83182698D01*
X115100500Y-83103723D01*
X115094260Y-83084520D01*
X115088803Y-83061786D01*
X115087481Y-83053437D01*
X115087481Y-83053436D01*
X115085646Y-83041852D01*
X115076481Y-83023864D01*
X115067536Y-83002271D01*
X115061296Y-82983067D01*
X115049433Y-82966739D01*
X115037217Y-82946805D01*
X115033373Y-82939262D01*
X115028050Y-82928814D01*
X115005487Y-82906251D01*
X115005484Y-82906247D01*
X114093753Y-81994516D01*
X114093749Y-81994513D01*
X114071186Y-81971950D01*
X114060739Y-81966627D01*
X114060736Y-81966625D01*
X114053200Y-81962785D01*
X114033267Y-81950570D01*
X114026423Y-81945597D01*
X114026417Y-81945594D01*
X114016934Y-81938704D01*
X114005785Y-81935081D01*
X114005782Y-81935080D01*
X114000160Y-81933254D01*
X113997739Y-81932467D01*
X113976133Y-81923518D01*
X113968599Y-81919679D01*
X113968598Y-81919679D01*
X113958148Y-81914354D01*
X113946564Y-81912519D01*
X113946563Y-81912519D01*
X113938214Y-81911197D01*
X113915480Y-81905740D01*
X113896277Y-81899500D01*
X112135637Y-81899500D01*
X112135633Y-81899501D01*
X112103723Y-81899501D01*
X112084520Y-81905740D01*
X112061804Y-81911194D01*
X112041852Y-81914354D01*
X112031405Y-81919677D01*
X112031402Y-81919678D01*
X112023862Y-81923520D01*
X112002264Y-81932466D01*
X111994222Y-81935079D01*
X111994220Y-81935080D01*
X111983066Y-81938704D01*
X111973576Y-81945599D01*
X111966738Y-81950567D01*
X111946803Y-81962784D01*
X111928814Y-81971950D01*
X111906247Y-81994517D01*
X111244516Y-82656247D01*
X111244513Y-82656251D01*
X111221950Y-82678814D01*
X111216627Y-82689261D01*
X111216625Y-82689264D01*
X111212785Y-82696800D01*
X111200570Y-82716733D01*
X111195597Y-82723577D01*
X111195594Y-82723583D01*
X111188704Y-82733066D01*
X111185081Y-82744215D01*
X111185080Y-82744218D01*
X111182468Y-82752259D01*
X111173518Y-82773866D01*
X111164354Y-82791852D01*
X111162519Y-82803436D01*
X111162519Y-82803437D01*
X111161197Y-82811786D01*
X111155740Y-82834520D01*
X111149500Y-82853723D01*
X111149500Y-84006753D01*
X111147666Y-84030059D01*
X111144508Y-84050000D01*
X111146342Y-84061581D01*
X111146342Y-84061584D01*
X111146734Y-84064060D01*
X111148001Y-84074376D01*
X111150123Y-84098628D01*
X111160364Y-84215683D01*
X111162045Y-84221957D01*
X111162046Y-84221962D01*
X111186070Y-84311619D01*
X111186070Y-84388747D01*
X111147506Y-84455542D01*
X111080711Y-84494106D01*
X111055125Y-84498617D01*
X110982024Y-84505008D01*
X110920872Y-84510355D01*
X110914596Y-84512036D01*
X110914592Y-84512037D01*
X110766502Y-84551709D01*
X110766497Y-84551711D01*
X110760214Y-84553394D01*
X110609471Y-84623677D01*
X110473223Y-84719071D01*
X110355611Y-84836675D01*
X110351884Y-84841997D01*
X110351881Y-84842001D01*
X110317702Y-84890812D01*
X110260209Y-84972916D01*
X110189915Y-85123655D01*
X110146866Y-85284310D01*
X110139551Y-85367908D01*
X110134457Y-85426129D01*
X110133192Y-85436438D01*
X110131044Y-85450000D01*
X110132879Y-85461581D01*
X110133270Y-85464050D01*
X110134537Y-85474369D01*
X110146901Y-85615684D01*
X110189949Y-85776333D01*
X110192698Y-85782228D01*
X110257489Y-85921168D01*
X110257492Y-85921173D01*
X110260240Y-85927066D01*
X110355639Y-86063302D01*
X110473246Y-86180901D01*
X110478571Y-86184629D01*
X110478573Y-86184631D01*
X110512162Y-86208148D01*
X110609489Y-86276291D01*
X110615383Y-86279039D01*
X110754336Y-86343827D01*
X110754338Y-86343828D01*
X110760226Y-86346573D01*
X110920878Y-86389610D01*
X111013477Y-86397705D01*
X111085955Y-86424080D01*
X111135536Y-86483160D01*
X111149500Y-86546139D01*
X111149500Y-87689545D01*
X111129538Y-87764045D01*
X111105859Y-87794904D01*
X110783983Y-88116780D01*
X110717188Y-88155344D01*
X110641629Y-88155344D01*
X110645641Y-88163755D01*
X110639590Y-88240646D01*
X110604495Y-88296268D01*
X109994516Y-88906247D01*
X109994513Y-88906251D01*
X109971950Y-88928814D01*
X109966627Y-88939261D01*
X109966625Y-88939264D01*
X109962785Y-88946800D01*
X109950570Y-88966733D01*
X109945597Y-88973577D01*
X109945594Y-88973583D01*
X109938704Y-88983066D01*
X109935081Y-88994215D01*
X109935080Y-88994218D01*
X109932468Y-89002259D01*
X109923518Y-89023866D01*
X109914354Y-89041852D01*
X109912519Y-89053436D01*
X109912519Y-89053437D01*
X109911197Y-89061786D01*
X109905740Y-89084520D01*
X109899500Y-89103723D01*
X109899500Y-89457698D01*
X109879538Y-89532198D01*
X109825000Y-89586736D01*
X109790128Y-89601312D01*
X109779154Y-89602618D01*
X109767821Y-89607652D01*
X109759792Y-89611218D01*
X109683602Y-89623216D01*
X109639064Y-89611323D01*
X109630461Y-89607520D01*
X109609082Y-89601691D01*
X109598876Y-89600502D01*
X109590246Y-89600000D01*
X109469616Y-89600000D01*
X109454145Y-89604145D01*
X109450000Y-89619616D01*
X109450000Y-92580384D01*
X109150000Y-92580384D01*
X109150000Y-89619616D01*
X109145855Y-89604145D01*
X109130384Y-89600000D01*
X109009846Y-89600000D01*
X109001034Y-89600523D01*
X108990379Y-89601790D01*
X108969050Y-89607652D01*
X108961022Y-89611218D01*
X108884833Y-89623215D01*
X108840296Y-89611322D01*
X108830578Y-89607026D01*
X108820327Y-89602494D01*
X108809201Y-89601197D01*
X108809198Y-89601196D01*
X108798930Y-89599999D01*
X108798922Y-89599999D01*
X108794646Y-89599500D01*
X108205354Y-89599500D01*
X108179154Y-89602618D01*
X108160409Y-89610944D01*
X108084222Y-89622943D01*
X108039676Y-89611048D01*
X108031994Y-89607652D01*
X108030574Y-89607024D01*
X108030573Y-89607024D01*
X108020327Y-89602494D01*
X108005682Y-89600787D01*
X107998930Y-89599999D01*
X107998922Y-89599999D01*
X107994646Y-89599500D01*
X107405354Y-89599500D01*
X107379154Y-89602618D01*
X107367821Y-89607652D01*
X107359792Y-89611218D01*
X107283602Y-89623216D01*
X107239064Y-89611323D01*
X107230461Y-89607520D01*
X107209082Y-89601691D01*
X107198876Y-89600502D01*
X107190246Y-89600000D01*
X107069616Y-89600000D01*
X107054145Y-89604145D01*
X107050000Y-89619616D01*
X107050000Y-92580384D01*
X106750000Y-92580384D01*
X106750000Y-91269616D01*
X106745855Y-91254145D01*
X106730384Y-91250000D01*
X106369616Y-91250000D01*
X106354145Y-91254145D01*
X106350000Y-91269616D01*
X106350000Y-92340154D01*
X101000000Y-92340154D01*
X101000000Y-90930384D01*
X106350000Y-90930384D01*
X106354145Y-90945855D01*
X106369616Y-90950000D01*
X106730384Y-90950000D01*
X106745855Y-90945855D01*
X106750000Y-90930384D01*
X106750000Y-89619616D01*
X106745855Y-89604145D01*
X106730384Y-89600000D01*
X106609846Y-89600000D01*
X106601034Y-89600523D01*
X106590377Y-89601791D01*
X106569051Y-89607652D01*
X106489707Y-89642895D01*
X106467417Y-89658214D01*
X106407896Y-89717839D01*
X106392616Y-89740155D01*
X106357518Y-89819545D01*
X106351691Y-89840918D01*
X106350502Y-89851124D01*
X106350000Y-89859754D01*
X106350000Y-90930384D01*
X101000000Y-90930384D01*
X101000000Y-87492611D01*
X106544394Y-87492611D01*
X106562999Y-87661135D01*
X106566087Y-87669572D01*
X106566087Y-87669574D01*
X106573917Y-87690969D01*
X106621266Y-87820356D01*
X106626275Y-87827811D01*
X106626276Y-87827812D01*
X106695254Y-87930462D01*
X106715830Y-87961083D01*
X106722472Y-87967126D01*
X106722473Y-87967128D01*
X106807399Y-88044404D01*
X106841233Y-88075191D01*
X106849128Y-88079478D01*
X106849130Y-88079479D01*
X106982344Y-88151808D01*
X106982347Y-88151809D01*
X106990235Y-88156092D01*
X107027743Y-88165932D01*
X107145549Y-88196838D01*
X107145551Y-88196838D01*
X107154233Y-88199116D01*
X107163209Y-88199257D01*
X107314781Y-88201638D01*
X107323760Y-88201779D01*
X107489029Y-88163928D01*
X107506097Y-88155344D01*
X107632471Y-88091784D01*
X107640498Y-88087747D01*
X107691246Y-88044404D01*
X107762592Y-87983469D01*
X107762595Y-87983466D01*
X107769423Y-87977634D01*
X107774664Y-87970340D01*
X107780745Y-87963727D01*
X107782210Y-87965074D01*
X107832763Y-87923699D01*
X107894075Y-87910500D01*
X109355376Y-87910500D01*
X109429876Y-87930462D01*
X109464503Y-87959108D01*
X109465830Y-87961083D01*
X109472472Y-87967127D01*
X109472474Y-87967129D01*
X109562823Y-88049340D01*
X109591233Y-88075191D01*
X109599128Y-88079478D01*
X109599130Y-88079479D01*
X109732344Y-88151808D01*
X109732347Y-88151809D01*
X109740235Y-88156092D01*
X109777743Y-88165932D01*
X109895549Y-88196838D01*
X109895551Y-88196838D01*
X109904233Y-88199116D01*
X109913209Y-88199257D01*
X110064781Y-88201638D01*
X110073760Y-88201779D01*
X110239029Y-88163928D01*
X110256097Y-88155344D01*
X110382471Y-88091784D01*
X110390498Y-88087747D01*
X110402368Y-88077609D01*
X110471982Y-88044404D01*
X110534701Y-88049340D01*
X110534701Y-87972857D01*
X110557623Y-87924473D01*
X110613124Y-87847236D01*
X110613126Y-87847232D01*
X110618361Y-87839947D01*
X110654012Y-87751263D01*
X110678251Y-87690969D01*
X110678252Y-87690964D01*
X110681601Y-87682634D01*
X110705490Y-87514778D01*
X110705645Y-87500000D01*
X110685276Y-87331680D01*
X110625345Y-87173077D01*
X110529312Y-87033349D01*
X110522604Y-87027372D01*
X110409428Y-86926535D01*
X110409424Y-86926532D01*
X110402721Y-86920560D01*
X110394783Y-86916357D01*
X110394780Y-86916355D01*
X110260823Y-86845429D01*
X110252881Y-86841224D01*
X110244168Y-86839035D01*
X110244167Y-86839035D01*
X110171691Y-86820830D01*
X110088441Y-86799919D01*
X109984002Y-86799372D01*
X109927873Y-86799078D01*
X109918895Y-86799031D01*
X109910164Y-86801127D01*
X109910165Y-86801127D01*
X109762765Y-86836515D01*
X109762762Y-86836516D01*
X109754032Y-86838612D01*
X109746053Y-86842730D01*
X109746051Y-86842731D01*
X109740824Y-86845429D01*
X109603369Y-86916375D01*
X109596602Y-86922279D01*
X109596598Y-86922281D01*
X109511421Y-86996586D01*
X109475604Y-87027831D01*
X109470439Y-87035180D01*
X109465919Y-87040200D01*
X109401234Y-87082207D01*
X109355190Y-87089500D01*
X107894653Y-87089500D01*
X107820153Y-87069538D01*
X107783649Y-87039659D01*
X107779312Y-87033349D01*
X107772604Y-87027372D01*
X107659428Y-86926535D01*
X107659424Y-86926532D01*
X107652721Y-86920560D01*
X107644783Y-86916357D01*
X107644780Y-86916355D01*
X107510823Y-86845429D01*
X107502881Y-86841224D01*
X107494168Y-86839035D01*
X107494167Y-86839035D01*
X107421691Y-86820830D01*
X107338441Y-86799919D01*
X107234002Y-86799372D01*
X107177873Y-86799078D01*
X107168895Y-86799031D01*
X107160164Y-86801127D01*
X107160165Y-86801127D01*
X107012765Y-86836515D01*
X107012762Y-86836516D01*
X107004032Y-86838612D01*
X106996053Y-86842730D01*
X106996051Y-86842731D01*
X106990824Y-86845429D01*
X106853369Y-86916375D01*
X106846602Y-86922279D01*
X106846598Y-86922281D01*
X106761421Y-86996586D01*
X106725604Y-87027831D01*
X106720439Y-87035180D01*
X106716911Y-87040200D01*
X106628113Y-87166547D01*
X106566524Y-87324513D01*
X106544394Y-87492611D01*
X101000000Y-87492611D01*
X101000000Y-75399000D01*
X101019962Y-75324500D01*
X101074500Y-75269962D01*
X101149000Y-75250000D01*
X143851000Y-75250000D01*
X143925500Y-75269962D01*
G37*
G04 #@! TD.AperFunction*
G04 #@! TD*
M02*
