M48
; DRILL file {KiCad 6.0.7-1.fc35} date Mon 05 Sep 2022 07:22:13 PM CDT
; FORMAT={-:-/ absolute / inch / decimal}
; #@! TF.CreationDate,2022-09-05T19:22:13-05:00
; #@! TF.GenerationSoftware,Kicad,Pcbnew,6.0.7-1.fc35
; #@! TF.FileFunction,MixedPlating,1,4
FMAT,2
INCH
; #@! TA.AperFunction,Plated,PTH,ViaDrill
T1C0.0157
; #@! TA.AperFunction,NonPlated,NPTH,ComponentDrill
T2C0.0315
; #@! TA.AperFunction,NonPlated,NPTH,ComponentDrill
T3C0.0472
%
G90
G05
T1
X4.0354Y-3.0709
X4.2224Y-3.4449
X4.2618Y-3.0709
X4.3307Y-3.4449
X4.3799Y-3.1988
X4.4488Y-3.4547
X4.4685Y-3.8484
X4.4783Y-3.0709
X4.4902Y-3.3064
X4.5079Y-3.8484
X4.5256Y-3.3064
X4.5472Y-3.8484
X4.5866Y-3.8484
X4.5965Y-3.1988
X4.6083Y-3.3064
X4.6437Y-3.3064
X4.685Y-3.4547
X4.6949Y-3.0709
X4.7264Y-3.3064
X4.7618Y-3.3064
X4.7933Y-3.1988
X4.8031Y-3.4547
X4.8917Y-3.0709
X5.1969Y-3.376
X5.4055Y-3.6929
X5.4429Y-3.6909
T2
X4.1102Y-3.6811
T3
X5.5354Y-3.6811
T0
M30
