G04 #@! TF.GenerationSoftware,KiCad,Pcbnew,6.0.7-1.fc35*
G04 #@! TF.CreationDate,2022-09-05T19:22:16-05:00*
G04 #@! TF.ProjectId,cam-adapter,63616d2d-6164-4617-9074-65722e6b6963,rev?*
G04 #@! TF.SameCoordinates,Original*
G04 #@! TF.FileFunction,Legend,Top*
G04 #@! TF.FilePolarity,Positive*
%FSLAX46Y46*%
G04 Gerber Fmt 4.6, Leading zero omitted, Abs format (unit mm)*
G04 Created by KiCad (PCBNEW 6.0.7-1.fc35) date 2022-09-05 19:22:16*
%MOMM*%
%LPD*%
G01*
G04 APERTURE LIST*
%ADD10C,0.300000*%
%ADD11C,0.150000*%
%ADD12C,0.127000*%
%ADD13C,0.200000*%
%ADD14C,0.120000*%
G04 APERTURE END LIST*
D10*
X102928571Y-73928571D02*
X102071428Y-73928571D01*
X102500000Y-73928571D02*
X102500000Y-72428571D01*
X102357142Y-72642857D01*
X102214285Y-72785714D01*
X102071428Y-72857142D01*
X104285714Y-72428571D02*
X103571428Y-72428571D01*
X103500000Y-73142857D01*
X103571428Y-73071428D01*
X103714285Y-73000000D01*
X104071428Y-73000000D01*
X104214285Y-73071428D01*
X104285714Y-73142857D01*
X104357142Y-73285714D01*
X104357142Y-73642857D01*
X104285714Y-73785714D01*
X104214285Y-73857142D01*
X104071428Y-73928571D01*
X103714285Y-73928571D01*
X103571428Y-73857142D01*
X103500000Y-73785714D01*
X105000000Y-73357142D02*
X106142857Y-73357142D01*
X106857142Y-73928571D02*
X106857142Y-72428571D01*
X107428571Y-72428571D01*
X107571428Y-72500000D01*
X107642857Y-72571428D01*
X107714285Y-72714285D01*
X107714285Y-72928571D01*
X107642857Y-73071428D01*
X107571428Y-73142857D01*
X107428571Y-73214285D01*
X106857142Y-73214285D01*
X108357142Y-73928571D02*
X108357142Y-72928571D01*
X108357142Y-72428571D02*
X108285714Y-72500000D01*
X108357142Y-72571428D01*
X108428571Y-72500000D01*
X108357142Y-72428571D01*
X108357142Y-72571428D01*
X109071428Y-72928571D02*
X109071428Y-73928571D01*
X109071428Y-73071428D02*
X109142857Y-73000000D01*
X109285714Y-72928571D01*
X109500000Y-72928571D01*
X109642857Y-73000000D01*
X109714285Y-73142857D01*
X109714285Y-73928571D01*
X112428571Y-73785714D02*
X112357142Y-73857142D01*
X112142857Y-73928571D01*
X112000000Y-73928571D01*
X111785714Y-73857142D01*
X111642857Y-73714285D01*
X111571428Y-73571428D01*
X111500000Y-73285714D01*
X111500000Y-73071428D01*
X111571428Y-72785714D01*
X111642857Y-72642857D01*
X111785714Y-72500000D01*
X112000000Y-72428571D01*
X112142857Y-72428571D01*
X112357142Y-72500000D01*
X112428571Y-72571428D01*
X113714285Y-73928571D02*
X113714285Y-73142857D01*
X113642857Y-73000000D01*
X113500000Y-72928571D01*
X113214285Y-72928571D01*
X113071428Y-73000000D01*
X113714285Y-73857142D02*
X113571428Y-73928571D01*
X113214285Y-73928571D01*
X113071428Y-73857142D01*
X113000000Y-73714285D01*
X113000000Y-73571428D01*
X113071428Y-73428571D01*
X113214285Y-73357142D01*
X113571428Y-73357142D01*
X113714285Y-73285714D01*
X114428571Y-73928571D02*
X114428571Y-72928571D01*
X114428571Y-73071428D02*
X114500000Y-73000000D01*
X114642857Y-72928571D01*
X114857142Y-72928571D01*
X115000000Y-73000000D01*
X115071428Y-73142857D01*
X115071428Y-73928571D01*
X115071428Y-73142857D02*
X115142857Y-73000000D01*
X115285714Y-72928571D01*
X115500000Y-72928571D01*
X115642857Y-73000000D01*
X115714285Y-73142857D01*
X115714285Y-73928571D01*
X117000000Y-73857142D02*
X116857142Y-73928571D01*
X116571428Y-73928571D01*
X116428571Y-73857142D01*
X116357142Y-73714285D01*
X116357142Y-73142857D01*
X116428571Y-73000000D01*
X116571428Y-72928571D01*
X116857142Y-72928571D01*
X117000000Y-73000000D01*
X117071428Y-73142857D01*
X117071428Y-73285714D01*
X116357142Y-73428571D01*
X117714285Y-73928571D02*
X117714285Y-72928571D01*
X117714285Y-73214285D02*
X117785714Y-73071428D01*
X117857142Y-73000000D01*
X118000000Y-72928571D01*
X118142857Y-72928571D01*
X119285714Y-73928571D02*
X119285714Y-73142857D01*
X119214285Y-73000000D01*
X119071428Y-72928571D01*
X118785714Y-72928571D01*
X118642857Y-73000000D01*
X119285714Y-73857142D02*
X119142857Y-73928571D01*
X118785714Y-73928571D01*
X118642857Y-73857142D01*
X118571428Y-73714285D01*
X118571428Y-73571428D01*
X118642857Y-73428571D01*
X118785714Y-73357142D01*
X119142857Y-73357142D01*
X119285714Y-73285714D01*
X121071428Y-73500000D02*
X121785714Y-73500000D01*
X120928571Y-73928571D02*
X121428571Y-72428571D01*
X121928571Y-73928571D01*
X123071428Y-73928571D02*
X123071428Y-72428571D01*
X123071428Y-73857142D02*
X122928571Y-73928571D01*
X122642857Y-73928571D01*
X122500000Y-73857142D01*
X122428571Y-73785714D01*
X122357142Y-73642857D01*
X122357142Y-73214285D01*
X122428571Y-73071428D01*
X122500000Y-73000000D01*
X122642857Y-72928571D01*
X122928571Y-72928571D01*
X123071428Y-73000000D01*
X124428571Y-73928571D02*
X124428571Y-73142857D01*
X124357142Y-73000000D01*
X124214285Y-72928571D01*
X123928571Y-72928571D01*
X123785714Y-73000000D01*
X124428571Y-73857142D02*
X124285714Y-73928571D01*
X123928571Y-73928571D01*
X123785714Y-73857142D01*
X123714285Y-73714285D01*
X123714285Y-73571428D01*
X123785714Y-73428571D01*
X123928571Y-73357142D01*
X124285714Y-73357142D01*
X124428571Y-73285714D01*
X125142857Y-72928571D02*
X125142857Y-74428571D01*
X125142857Y-73000000D02*
X125285714Y-72928571D01*
X125571428Y-72928571D01*
X125714285Y-73000000D01*
X125785714Y-73071428D01*
X125857142Y-73214285D01*
X125857142Y-73642857D01*
X125785714Y-73785714D01*
X125714285Y-73857142D01*
X125571428Y-73928571D01*
X125285714Y-73928571D01*
X125142857Y-73857142D01*
X126285714Y-72928571D02*
X126857142Y-72928571D01*
X126500000Y-72428571D02*
X126500000Y-73714285D01*
X126571428Y-73857142D01*
X126714285Y-73928571D01*
X126857142Y-73928571D01*
X127928571Y-73857142D02*
X127785714Y-73928571D01*
X127500000Y-73928571D01*
X127357142Y-73857142D01*
X127285714Y-73714285D01*
X127285714Y-73142857D01*
X127357142Y-73000000D01*
X127500000Y-72928571D01*
X127785714Y-72928571D01*
X127928571Y-73000000D01*
X128000000Y-73142857D01*
X128000000Y-73285714D01*
X127285714Y-73428571D01*
X128642857Y-73928571D02*
X128642857Y-72928571D01*
X128642857Y-73214285D02*
X128714285Y-73071428D01*
X128785714Y-73000000D01*
X128928571Y-72928571D01*
X129071428Y-72928571D01*
D11*
G04 #@! TO.C,J1*
X122991666Y-87587380D02*
X122991666Y-88301666D01*
X122944047Y-88444523D01*
X122848809Y-88539761D01*
X122705952Y-88587380D01*
X122610714Y-88587380D01*
X123991666Y-88587380D02*
X123420238Y-88587380D01*
X123705952Y-88587380D02*
X123705952Y-87587380D01*
X123610714Y-87730238D01*
X123515476Y-87825476D01*
X123420238Y-87873095D01*
G04 #@! TO.C,R1*
X105202380Y-88916666D02*
X104726190Y-89250000D01*
X105202380Y-89488095D02*
X104202380Y-89488095D01*
X104202380Y-89107142D01*
X104250000Y-89011904D01*
X104297619Y-88964285D01*
X104392857Y-88916666D01*
X104535714Y-88916666D01*
X104630952Y-88964285D01*
X104678571Y-89011904D01*
X104726190Y-89107142D01*
X104726190Y-89488095D01*
X105202380Y-87964285D02*
X105202380Y-88535714D01*
X105202380Y-88250000D02*
X104202380Y-88250000D01*
X104345238Y-88345238D01*
X104440476Y-88440476D01*
X104488095Y-88535714D01*
G04 #@! TO.C,C1*
X133833333Y-87267142D02*
X133785714Y-87314761D01*
X133642857Y-87362380D01*
X133547619Y-87362380D01*
X133404761Y-87314761D01*
X133309523Y-87219523D01*
X133261904Y-87124285D01*
X133214285Y-86933809D01*
X133214285Y-86790952D01*
X133261904Y-86600476D01*
X133309523Y-86505238D01*
X133404761Y-86410000D01*
X133547619Y-86362380D01*
X133642857Y-86362380D01*
X133785714Y-86410000D01*
X133833333Y-86457619D01*
X134785714Y-87362380D02*
X134214285Y-87362380D01*
X134500000Y-87362380D02*
X134500000Y-86362380D01*
X134404761Y-86505238D01*
X134309523Y-86600476D01*
X134214285Y-86648095D01*
G04 #@! TO.C,R2*
X106702380Y-88916666D02*
X106226190Y-89250000D01*
X106702380Y-89488095D02*
X105702380Y-89488095D01*
X105702380Y-89107142D01*
X105750000Y-89011904D01*
X105797619Y-88964285D01*
X105892857Y-88916666D01*
X106035714Y-88916666D01*
X106130952Y-88964285D01*
X106178571Y-89011904D01*
X106226190Y-89107142D01*
X106226190Y-89488095D01*
X105797619Y-88535714D02*
X105750000Y-88488095D01*
X105702380Y-88392857D01*
X105702380Y-88154761D01*
X105750000Y-88059523D01*
X105797619Y-88011904D01*
X105892857Y-87964285D01*
X105988095Y-87964285D01*
X106130952Y-88011904D01*
X106702380Y-88583333D01*
X106702380Y-87964285D01*
D12*
G04 #@! TO.C,J1*
X104325000Y-80750000D02*
X104325000Y-80240000D01*
X107360000Y-84750000D02*
X106800000Y-84750000D01*
X103540000Y-79350000D02*
X126460000Y-79350000D01*
X125675000Y-80750000D02*
X125675000Y-80240000D01*
X125675000Y-80240000D02*
X126460000Y-80240000D01*
X103540000Y-80240000D02*
X104325000Y-80240000D01*
X126460000Y-79350000D02*
X126460000Y-80240000D01*
X103540000Y-80240000D02*
X103540000Y-79350000D01*
X123200000Y-84750000D02*
X122640000Y-84750000D01*
D13*
X123100000Y-85920000D02*
G75*
G03*
X123100000Y-85920000I-100000J0D01*
G01*
D14*
G04 #@! TO.C,R1*
X104370000Y-86582379D02*
X104370000Y-86917621D01*
X105130000Y-86582379D02*
X105130000Y-86917621D01*
G04 #@! TO.C,C1*
X134115835Y-85390000D02*
X133884165Y-85390000D01*
X134115835Y-86110000D02*
X133884165Y-86110000D01*
G04 #@! TO.C,R2*
X106630000Y-86582379D02*
X106630000Y-86917621D01*
X105870000Y-86582379D02*
X105870000Y-86917621D01*
G04 #@! TD*
M02*
