G04 #@! TF.GenerationSoftware,KiCad,Pcbnew,6.0.7-1.fc35*
G04 #@! TF.CreationDate,2022-09-05T19:08:22-05:00*
G04 #@! TF.ProjectId,rpi-adapter,7270692d-6164-4617-9074-65722e6b6963,rev?*
G04 #@! TF.SameCoordinates,Original*
G04 #@! TF.FileFunction,Legend,Bot*
G04 #@! TF.FilePolarity,Positive*
%FSLAX46Y46*%
G04 Gerber Fmt 4.6, Leading zero omitted, Abs format (unit mm)*
G04 Created by KiCad (PCBNEW 6.0.7-1.fc35) date 2022-09-05 19:08:22*
%MOMM*%
%LPD*%
G01*
G04 APERTURE LIST*
%ADD10C,0.150000*%
%ADD11C,0.127000*%
%ADD12C,0.120000*%
%ADD13C,0.200000*%
G04 APERTURE END LIST*
D10*
G04 #@! TO.C,D3*
X97461177Y-79896205D02*
X97461177Y-79108803D01*
X97273701Y-79108803D01*
X97161215Y-79146299D01*
X97086224Y-79221289D01*
X97048729Y-79296280D01*
X97011233Y-79446261D01*
X97011233Y-79558747D01*
X97048729Y-79708729D01*
X97086224Y-79783719D01*
X97161215Y-79858710D01*
X97273701Y-79896205D01*
X97461177Y-79896205D01*
X96748766Y-79108803D02*
X96261327Y-79108803D01*
X96523794Y-79408766D01*
X96411308Y-79408766D01*
X96336317Y-79446261D01*
X96298822Y-79483757D01*
X96261327Y-79558747D01*
X96261327Y-79746224D01*
X96298822Y-79821215D01*
X96336317Y-79858710D01*
X96411308Y-79896205D01*
X96636280Y-79896205D01*
X96711271Y-79858710D01*
X96748766Y-79821215D01*
G04 #@! TO.C,RN3*
X116190476Y-86952380D02*
X116523809Y-86476190D01*
X116761904Y-86952380D02*
X116761904Y-85952380D01*
X116380952Y-85952380D01*
X116285714Y-86000000D01*
X116238095Y-86047619D01*
X116190476Y-86142857D01*
X116190476Y-86285714D01*
X116238095Y-86380952D01*
X116285714Y-86428571D01*
X116380952Y-86476190D01*
X116761904Y-86476190D01*
X115761904Y-86952380D02*
X115761904Y-85952380D01*
X115190476Y-86952380D01*
X115190476Y-85952380D01*
X114809523Y-85952380D02*
X114190476Y-85952380D01*
X114523809Y-86333333D01*
X114380952Y-86333333D01*
X114285714Y-86380952D01*
X114238095Y-86428571D01*
X114190476Y-86523809D01*
X114190476Y-86761904D01*
X114238095Y-86857142D01*
X114285714Y-86904761D01*
X114380952Y-86952380D01*
X114666666Y-86952380D01*
X114761904Y-86904761D01*
X114809523Y-86857142D01*
G04 #@! TO.C,D2*
X115961177Y-79896205D02*
X115961177Y-79108803D01*
X115773701Y-79108803D01*
X115661215Y-79146299D01*
X115586224Y-79221289D01*
X115548729Y-79296280D01*
X115511233Y-79446261D01*
X115511233Y-79558747D01*
X115548729Y-79708729D01*
X115586224Y-79783719D01*
X115661215Y-79858710D01*
X115773701Y-79896205D01*
X115961177Y-79896205D01*
X115211271Y-79183794D02*
X115173775Y-79146299D01*
X115098785Y-79108803D01*
X114911308Y-79108803D01*
X114836317Y-79146299D01*
X114798822Y-79183794D01*
X114761327Y-79258785D01*
X114761327Y-79333775D01*
X114798822Y-79446261D01*
X115248766Y-79896205D01*
X114761327Y-79896205D01*
G04 #@! TO.C,RN4*
X112190476Y-86952380D02*
X112523809Y-86476190D01*
X112761904Y-86952380D02*
X112761904Y-85952380D01*
X112380952Y-85952380D01*
X112285714Y-86000000D01*
X112238095Y-86047619D01*
X112190476Y-86142857D01*
X112190476Y-86285714D01*
X112238095Y-86380952D01*
X112285714Y-86428571D01*
X112380952Y-86476190D01*
X112761904Y-86476190D01*
X111761904Y-86952380D02*
X111761904Y-85952380D01*
X111190476Y-86952380D01*
X111190476Y-85952380D01*
X110285714Y-86285714D02*
X110285714Y-86952380D01*
X110523809Y-85904761D02*
X110761904Y-86619047D01*
X110142857Y-86619047D01*
G04 #@! TO.C,D1*
X123961177Y-79896205D02*
X123961177Y-79108803D01*
X123773701Y-79108803D01*
X123661215Y-79146299D01*
X123586224Y-79221289D01*
X123548729Y-79296280D01*
X123511233Y-79446261D01*
X123511233Y-79558747D01*
X123548729Y-79708729D01*
X123586224Y-79783719D01*
X123661215Y-79858710D01*
X123773701Y-79896205D01*
X123961177Y-79896205D01*
X122761327Y-79896205D02*
X123211271Y-79896205D01*
X122986299Y-79896205D02*
X122986299Y-79108803D01*
X123061289Y-79221289D01*
X123136280Y-79296280D01*
X123211271Y-79333775D01*
G04 #@! TO.C,D4*
X88461177Y-79896205D02*
X88461177Y-79108803D01*
X88273701Y-79108803D01*
X88161215Y-79146299D01*
X88086224Y-79221289D01*
X88048729Y-79296280D01*
X88011233Y-79446261D01*
X88011233Y-79558747D01*
X88048729Y-79708729D01*
X88086224Y-79783719D01*
X88161215Y-79858710D01*
X88273701Y-79896205D01*
X88461177Y-79896205D01*
X87336317Y-79371271D02*
X87336317Y-79896205D01*
X87523794Y-79071308D02*
X87711271Y-79633738D01*
X87223831Y-79633738D01*
G04 #@! TO.C,J5*
X143467152Y-89732535D02*
X143467152Y-90733576D01*
X143533888Y-90933784D01*
X143667360Y-91067256D01*
X143867568Y-91133992D01*
X144001040Y-91133992D01*
X142132431Y-89732535D02*
X142799791Y-89732535D01*
X142866527Y-90399895D01*
X142799791Y-90333159D01*
X142666319Y-90266423D01*
X142332639Y-90266423D01*
X142199167Y-90333159D01*
X142132431Y-90399895D01*
X142065695Y-90533368D01*
X142065695Y-90867048D01*
X142132431Y-91000520D01*
X142199167Y-91067256D01*
X142332639Y-91133992D01*
X142666319Y-91133992D01*
X142799791Y-91067256D01*
X142866527Y-91000520D01*
G04 #@! TO.C,C5*
X139666666Y-81157142D02*
X139714285Y-81204761D01*
X139857142Y-81252380D01*
X139952380Y-81252380D01*
X140095238Y-81204761D01*
X140190476Y-81109523D01*
X140238095Y-81014285D01*
X140285714Y-80823809D01*
X140285714Y-80680952D01*
X140238095Y-80490476D01*
X140190476Y-80395238D01*
X140095238Y-80300000D01*
X139952380Y-80252380D01*
X139857142Y-80252380D01*
X139714285Y-80300000D01*
X139666666Y-80347619D01*
X138761904Y-80252380D02*
X139238095Y-80252380D01*
X139285714Y-80728571D01*
X139238095Y-80680952D01*
X139142857Y-80633333D01*
X138904761Y-80633333D01*
X138809523Y-80680952D01*
X138761904Y-80728571D01*
X138714285Y-80823809D01*
X138714285Y-81061904D01*
X138761904Y-81157142D01*
X138809523Y-81204761D01*
X138904761Y-81252380D01*
X139142857Y-81252380D01*
X139238095Y-81204761D01*
X139285714Y-81157142D01*
G04 #@! TO.C,RN1*
X124190476Y-86952380D02*
X124523809Y-86476190D01*
X124761904Y-86952380D02*
X124761904Y-85952380D01*
X124380952Y-85952380D01*
X124285714Y-86000000D01*
X124238095Y-86047619D01*
X124190476Y-86142857D01*
X124190476Y-86285714D01*
X124238095Y-86380952D01*
X124285714Y-86428571D01*
X124380952Y-86476190D01*
X124761904Y-86476190D01*
X123761904Y-86952380D02*
X123761904Y-85952380D01*
X123190476Y-86952380D01*
X123190476Y-85952380D01*
X122190476Y-86952380D02*
X122761904Y-86952380D01*
X122476190Y-86952380D02*
X122476190Y-85952380D01*
X122571428Y-86095238D01*
X122666666Y-86190476D01*
X122761904Y-86238095D01*
G04 #@! TO.C,RN2*
X120190476Y-86952380D02*
X120523809Y-86476190D01*
X120761904Y-86952380D02*
X120761904Y-85952380D01*
X120380952Y-85952380D01*
X120285714Y-86000000D01*
X120238095Y-86047619D01*
X120190476Y-86142857D01*
X120190476Y-86285714D01*
X120238095Y-86380952D01*
X120285714Y-86428571D01*
X120380952Y-86476190D01*
X120761904Y-86476190D01*
X119761904Y-86952380D02*
X119761904Y-85952380D01*
X119190476Y-86952380D01*
X119190476Y-85952380D01*
X118761904Y-86047619D02*
X118714285Y-86000000D01*
X118619047Y-85952380D01*
X118380952Y-85952380D01*
X118285714Y-86000000D01*
X118238095Y-86047619D01*
X118190476Y-86142857D01*
X118190476Y-86238095D01*
X118238095Y-86380952D01*
X118809523Y-86952380D01*
X118190476Y-86952380D01*
D11*
G04 #@! TO.C,D3*
X98130000Y-79040000D02*
X98130000Y-80040000D01*
X100630000Y-80040000D02*
X100630000Y-79040000D01*
D12*
G04 #@! TO.C,RN3*
X114320000Y-88750000D02*
X114320000Y-88250000D01*
X116680000Y-88750000D02*
X116680000Y-88250000D01*
D11*
G04 #@! TO.C,D2*
X114130000Y-80040000D02*
X114130000Y-79040000D01*
X111630000Y-79040000D02*
X111630000Y-80040000D01*
D12*
G04 #@! TO.C,RN4*
X112680000Y-88750000D02*
X112680000Y-88250000D01*
X110320000Y-88750000D02*
X110320000Y-88250000D01*
D11*
G04 #@! TO.C,D1*
X127130000Y-80040000D02*
X127130000Y-79040000D01*
X124630000Y-79040000D02*
X124630000Y-80040000D01*
G04 #@! TO.C,D4*
X91630000Y-80040000D02*
X91630000Y-79040000D01*
X89130000Y-79040000D02*
X89130000Y-80040000D01*
G04 #@! TO.C,J5*
X141400000Y-96900000D02*
X139600000Y-96900000D01*
X103600000Y-96900000D02*
X105400000Y-96900000D01*
X141400000Y-96900000D02*
X141400000Y-94900000D01*
X103600000Y-90100000D02*
X105400000Y-90100000D01*
X141400000Y-90100000D02*
X139600000Y-90100000D01*
X141400000Y-92100000D02*
X141400000Y-90100000D01*
X103600000Y-96900000D02*
X103600000Y-94900000D01*
X103600000Y-92100000D02*
X103600000Y-90100000D01*
D13*
X138207000Y-97615000D02*
G75*
G03*
X138207000Y-97615000I-100000J0D01*
G01*
D12*
G04 #@! TO.C,C5*
X136740000Y-81740000D02*
X136740000Y-83440000D01*
X142260000Y-82804437D02*
X142260000Y-83440000D01*
X143125000Y-82815000D02*
X142500000Y-82815000D01*
X141195563Y-87260000D02*
X136740000Y-87260000D01*
X142260000Y-86195563D02*
X142260000Y-85560000D01*
X136740000Y-87260000D02*
X136740000Y-85560000D01*
X142260000Y-86195563D02*
X141195563Y-87260000D01*
X142260000Y-82804437D02*
X141195563Y-81740000D01*
X142812500Y-82502500D02*
X142812500Y-83127500D01*
X141195563Y-81740000D02*
X136740000Y-81740000D01*
G04 #@! TO.C,RN1*
X124680000Y-88750000D02*
X124680000Y-88250000D01*
X122320000Y-88750000D02*
X122320000Y-88250000D01*
G04 #@! TO.C,RN2*
X118320000Y-88750000D02*
X118320000Y-88250000D01*
X120680000Y-88750000D02*
X120680000Y-88250000D01*
G04 #@! TD*
M02*
