G04 #@! TF.GenerationSoftware,KiCad,Pcbnew,6.0.7-1.fc35*
G04 #@! TF.CreationDate,2022-09-05T19:08:22-05:00*
G04 #@! TF.ProjectId,rpi-adapter,7270692d-6164-4617-9074-65722e6b6963,rev?*
G04 #@! TF.SameCoordinates,Original*
G04 #@! TF.FileFunction,Soldermask,Bot*
G04 #@! TF.FilePolarity,Negative*
%FSLAX46Y46*%
G04 Gerber Fmt 4.6, Leading zero omitted, Abs format (unit mm)*
G04 Created by KiCad (PCBNEW 6.0.7-1.fc35) date 2022-09-05 19:08:22*
%MOMM*%
%LPD*%
G01*
G04 APERTURE LIST*
G04 Aperture macros list*
%AMRoundRect*
0 Rectangle with rounded corners*
0 $1 Rounding radius*
0 $2 $3 $4 $5 $6 $7 $8 $9 X,Y pos of 4 corners*
0 Add a 4 corners polygon primitive as box body*
4,1,4,$2,$3,$4,$5,$6,$7,$8,$9,$2,$3,0*
0 Add four circle primitives for the rounded corners*
1,1,$1+$1,$2,$3*
1,1,$1+$1,$4,$5*
1,1,$1+$1,$6,$7*
1,1,$1+$1,$8,$9*
0 Add four rect primitives between the rounded corners*
20,1,$1+$1,$2,$3,$4,$5,0*
20,1,$1+$1,$4,$5,$6,$7,0*
20,1,$1+$1,$6,$7,$8,$9,0*
20,1,$1+$1,$8,$9,$2,$3,0*%
G04 Aperture macros list end*
%ADD10C,0.010000*%
%ADD11C,2.050000*%
%ADD12C,2.250000*%
%ADD13R,1.700000X1.700000*%
%ADD14O,1.700000X1.700000*%
%ADD15R,0.400000X0.500000*%
%ADD16R,0.300000X0.500000*%
%ADD17C,1.200000*%
%ADD18C,0.800000*%
%ADD19R,0.500000X2.400000*%
%ADD20RoundRect,0.250000X1.250000X0.550000X-1.250000X0.550000X-1.250000X-0.550000X1.250000X-0.550000X0*%
G04 APERTURE END LIST*
G04 #@! TO.C,D3*
G36*
X99530000Y-79440000D02*
G01*
X99230000Y-79440000D01*
X99230000Y-78865000D01*
X99530000Y-78865000D01*
X99530000Y-79440000D01*
G37*
D10*
X99530000Y-79440000D02*
X99230000Y-79440000D01*
X99230000Y-78865000D01*
X99530000Y-78865000D01*
X99530000Y-79440000D01*
G36*
X98530000Y-80215000D02*
G01*
X98230000Y-80215000D01*
X98230000Y-79640000D01*
X98530000Y-79640000D01*
X98530000Y-80215000D01*
G37*
X98530000Y-80215000D02*
X98230000Y-80215000D01*
X98230000Y-79640000D01*
X98530000Y-79640000D01*
X98530000Y-80215000D01*
G36*
X99030000Y-80215000D02*
G01*
X98730000Y-80215000D01*
X98730000Y-79640000D01*
X99030000Y-79640000D01*
X99030000Y-80215000D01*
G37*
X99030000Y-80215000D02*
X98730000Y-80215000D01*
X98730000Y-79640000D01*
X99030000Y-79640000D01*
X99030000Y-80215000D01*
G36*
X100530000Y-80215000D02*
G01*
X100230000Y-80215000D01*
X100230000Y-79640000D01*
X100530000Y-79640000D01*
X100530000Y-80215000D01*
G37*
X100530000Y-80215000D02*
X100230000Y-80215000D01*
X100230000Y-79640000D01*
X100530000Y-79640000D01*
X100530000Y-80215000D01*
G36*
X100530000Y-79440000D02*
G01*
X100230000Y-79440000D01*
X100230000Y-78865000D01*
X100530000Y-78865000D01*
X100530000Y-79440000D01*
G37*
X100530000Y-79440000D02*
X100230000Y-79440000D01*
X100230000Y-78865000D01*
X100530000Y-78865000D01*
X100530000Y-79440000D01*
G36*
X99530000Y-80215000D02*
G01*
X99230000Y-80215000D01*
X99230000Y-79640000D01*
X99530000Y-79640000D01*
X99530000Y-80215000D01*
G37*
X99530000Y-80215000D02*
X99230000Y-80215000D01*
X99230000Y-79640000D01*
X99530000Y-79640000D01*
X99530000Y-80215000D01*
G36*
X100030000Y-80215000D02*
G01*
X99730000Y-80215000D01*
X99730000Y-79640000D01*
X100030000Y-79640000D01*
X100030000Y-80215000D01*
G37*
X100030000Y-80215000D02*
X99730000Y-80215000D01*
X99730000Y-79640000D01*
X100030000Y-79640000D01*
X100030000Y-80215000D01*
G36*
X98530000Y-79440000D02*
G01*
X98230000Y-79440000D01*
X98230000Y-78865000D01*
X98530000Y-78865000D01*
X98530000Y-79440000D01*
G37*
X98530000Y-79440000D02*
X98230000Y-79440000D01*
X98230000Y-78865000D01*
X98530000Y-78865000D01*
X98530000Y-79440000D01*
G36*
X100030000Y-79440000D02*
G01*
X99730000Y-79440000D01*
X99730000Y-78865000D01*
X100030000Y-78865000D01*
X100030000Y-79440000D01*
G37*
X100030000Y-79440000D02*
X99730000Y-79440000D01*
X99730000Y-78865000D01*
X100030000Y-78865000D01*
X100030000Y-79440000D01*
G36*
X99030000Y-79440000D02*
G01*
X98730000Y-79440000D01*
X98730000Y-78865000D01*
X99030000Y-78865000D01*
X99030000Y-79440000D01*
G37*
X99030000Y-79440000D02*
X98730000Y-79440000D01*
X98730000Y-78865000D01*
X99030000Y-78865000D01*
X99030000Y-79440000D01*
G04 #@! TO.C,D2*
G36*
X113030000Y-80215000D02*
G01*
X112730000Y-80215000D01*
X112730000Y-79640000D01*
X113030000Y-79640000D01*
X113030000Y-80215000D01*
G37*
X113030000Y-80215000D02*
X112730000Y-80215000D01*
X112730000Y-79640000D01*
X113030000Y-79640000D01*
X113030000Y-80215000D01*
G36*
X112030000Y-80215000D02*
G01*
X111730000Y-80215000D01*
X111730000Y-79640000D01*
X112030000Y-79640000D01*
X112030000Y-80215000D01*
G37*
X112030000Y-80215000D02*
X111730000Y-80215000D01*
X111730000Y-79640000D01*
X112030000Y-79640000D01*
X112030000Y-80215000D01*
G36*
X114030000Y-80215000D02*
G01*
X113730000Y-80215000D01*
X113730000Y-79640000D01*
X114030000Y-79640000D01*
X114030000Y-80215000D01*
G37*
X114030000Y-80215000D02*
X113730000Y-80215000D01*
X113730000Y-79640000D01*
X114030000Y-79640000D01*
X114030000Y-80215000D01*
G36*
X114030000Y-79440000D02*
G01*
X113730000Y-79440000D01*
X113730000Y-78865000D01*
X114030000Y-78865000D01*
X114030000Y-79440000D01*
G37*
X114030000Y-79440000D02*
X113730000Y-79440000D01*
X113730000Y-78865000D01*
X114030000Y-78865000D01*
X114030000Y-79440000D01*
G36*
X112530000Y-79440000D02*
G01*
X112230000Y-79440000D01*
X112230000Y-78865000D01*
X112530000Y-78865000D01*
X112530000Y-79440000D01*
G37*
X112530000Y-79440000D02*
X112230000Y-79440000D01*
X112230000Y-78865000D01*
X112530000Y-78865000D01*
X112530000Y-79440000D01*
G36*
X113530000Y-79440000D02*
G01*
X113230000Y-79440000D01*
X113230000Y-78865000D01*
X113530000Y-78865000D01*
X113530000Y-79440000D01*
G37*
X113530000Y-79440000D02*
X113230000Y-79440000D01*
X113230000Y-78865000D01*
X113530000Y-78865000D01*
X113530000Y-79440000D01*
G36*
X112530000Y-80215000D02*
G01*
X112230000Y-80215000D01*
X112230000Y-79640000D01*
X112530000Y-79640000D01*
X112530000Y-80215000D01*
G37*
X112530000Y-80215000D02*
X112230000Y-80215000D01*
X112230000Y-79640000D01*
X112530000Y-79640000D01*
X112530000Y-80215000D01*
G36*
X113530000Y-80215000D02*
G01*
X113230000Y-80215000D01*
X113230000Y-79640000D01*
X113530000Y-79640000D01*
X113530000Y-80215000D01*
G37*
X113530000Y-80215000D02*
X113230000Y-80215000D01*
X113230000Y-79640000D01*
X113530000Y-79640000D01*
X113530000Y-80215000D01*
G36*
X112030000Y-79440000D02*
G01*
X111730000Y-79440000D01*
X111730000Y-78865000D01*
X112030000Y-78865000D01*
X112030000Y-79440000D01*
G37*
X112030000Y-79440000D02*
X111730000Y-79440000D01*
X111730000Y-78865000D01*
X112030000Y-78865000D01*
X112030000Y-79440000D01*
G36*
X113030000Y-79440000D02*
G01*
X112730000Y-79440000D01*
X112730000Y-78865000D01*
X113030000Y-78865000D01*
X113030000Y-79440000D01*
G37*
X113030000Y-79440000D02*
X112730000Y-79440000D01*
X112730000Y-78865000D01*
X113030000Y-78865000D01*
X113030000Y-79440000D01*
G04 #@! TO.C,D1*
G36*
X125030000Y-80215000D02*
G01*
X124730000Y-80215000D01*
X124730000Y-79640000D01*
X125030000Y-79640000D01*
X125030000Y-80215000D01*
G37*
X125030000Y-80215000D02*
X124730000Y-80215000D01*
X124730000Y-79640000D01*
X125030000Y-79640000D01*
X125030000Y-80215000D01*
G36*
X126030000Y-79440000D02*
G01*
X125730000Y-79440000D01*
X125730000Y-78865000D01*
X126030000Y-78865000D01*
X126030000Y-79440000D01*
G37*
X126030000Y-79440000D02*
X125730000Y-79440000D01*
X125730000Y-78865000D01*
X126030000Y-78865000D01*
X126030000Y-79440000D01*
G36*
X126530000Y-80215000D02*
G01*
X126230000Y-80215000D01*
X126230000Y-79640000D01*
X126530000Y-79640000D01*
X126530000Y-80215000D01*
G37*
X126530000Y-80215000D02*
X126230000Y-80215000D01*
X126230000Y-79640000D01*
X126530000Y-79640000D01*
X126530000Y-80215000D01*
G36*
X125530000Y-80215000D02*
G01*
X125230000Y-80215000D01*
X125230000Y-79640000D01*
X125530000Y-79640000D01*
X125530000Y-80215000D01*
G37*
X125530000Y-80215000D02*
X125230000Y-80215000D01*
X125230000Y-79640000D01*
X125530000Y-79640000D01*
X125530000Y-80215000D01*
G36*
X127030000Y-80215000D02*
G01*
X126730000Y-80215000D01*
X126730000Y-79640000D01*
X127030000Y-79640000D01*
X127030000Y-80215000D01*
G37*
X127030000Y-80215000D02*
X126730000Y-80215000D01*
X126730000Y-79640000D01*
X127030000Y-79640000D01*
X127030000Y-80215000D01*
G36*
X126030000Y-80215000D02*
G01*
X125730000Y-80215000D01*
X125730000Y-79640000D01*
X126030000Y-79640000D01*
X126030000Y-80215000D01*
G37*
X126030000Y-80215000D02*
X125730000Y-80215000D01*
X125730000Y-79640000D01*
X126030000Y-79640000D01*
X126030000Y-80215000D01*
G36*
X125030000Y-79440000D02*
G01*
X124730000Y-79440000D01*
X124730000Y-78865000D01*
X125030000Y-78865000D01*
X125030000Y-79440000D01*
G37*
X125030000Y-79440000D02*
X124730000Y-79440000D01*
X124730000Y-78865000D01*
X125030000Y-78865000D01*
X125030000Y-79440000D01*
G36*
X125530000Y-79440000D02*
G01*
X125230000Y-79440000D01*
X125230000Y-78865000D01*
X125530000Y-78865000D01*
X125530000Y-79440000D01*
G37*
X125530000Y-79440000D02*
X125230000Y-79440000D01*
X125230000Y-78865000D01*
X125530000Y-78865000D01*
X125530000Y-79440000D01*
G36*
X126530000Y-79440000D02*
G01*
X126230000Y-79440000D01*
X126230000Y-78865000D01*
X126530000Y-78865000D01*
X126530000Y-79440000D01*
G37*
X126530000Y-79440000D02*
X126230000Y-79440000D01*
X126230000Y-78865000D01*
X126530000Y-78865000D01*
X126530000Y-79440000D01*
G36*
X127030000Y-79440000D02*
G01*
X126730000Y-79440000D01*
X126730000Y-78865000D01*
X127030000Y-78865000D01*
X127030000Y-79440000D01*
G37*
X127030000Y-79440000D02*
X126730000Y-79440000D01*
X126730000Y-78865000D01*
X127030000Y-78865000D01*
X127030000Y-79440000D01*
G04 #@! TO.C,D4*
G36*
X90030000Y-79440000D02*
G01*
X89730000Y-79440000D01*
X89730000Y-78865000D01*
X90030000Y-78865000D01*
X90030000Y-79440000D01*
G37*
X90030000Y-79440000D02*
X89730000Y-79440000D01*
X89730000Y-78865000D01*
X90030000Y-78865000D01*
X90030000Y-79440000D01*
G36*
X89530000Y-80215000D02*
G01*
X89230000Y-80215000D01*
X89230000Y-79640000D01*
X89530000Y-79640000D01*
X89530000Y-80215000D01*
G37*
X89530000Y-80215000D02*
X89230000Y-80215000D01*
X89230000Y-79640000D01*
X89530000Y-79640000D01*
X89530000Y-80215000D01*
G36*
X91530000Y-80215000D02*
G01*
X91230000Y-80215000D01*
X91230000Y-79640000D01*
X91530000Y-79640000D01*
X91530000Y-80215000D01*
G37*
X91530000Y-80215000D02*
X91230000Y-80215000D01*
X91230000Y-79640000D01*
X91530000Y-79640000D01*
X91530000Y-80215000D01*
G36*
X90530000Y-79440000D02*
G01*
X90230000Y-79440000D01*
X90230000Y-78865000D01*
X90530000Y-78865000D01*
X90530000Y-79440000D01*
G37*
X90530000Y-79440000D02*
X90230000Y-79440000D01*
X90230000Y-78865000D01*
X90530000Y-78865000D01*
X90530000Y-79440000D01*
G36*
X91530000Y-79440000D02*
G01*
X91230000Y-79440000D01*
X91230000Y-78865000D01*
X91530000Y-78865000D01*
X91530000Y-79440000D01*
G37*
X91530000Y-79440000D02*
X91230000Y-79440000D01*
X91230000Y-78865000D01*
X91530000Y-78865000D01*
X91530000Y-79440000D01*
G36*
X91030000Y-79440000D02*
G01*
X90730000Y-79440000D01*
X90730000Y-78865000D01*
X91030000Y-78865000D01*
X91030000Y-79440000D01*
G37*
X91030000Y-79440000D02*
X90730000Y-79440000D01*
X90730000Y-78865000D01*
X91030000Y-78865000D01*
X91030000Y-79440000D01*
G36*
X91030000Y-80215000D02*
G01*
X90730000Y-80215000D01*
X90730000Y-79640000D01*
X91030000Y-79640000D01*
X91030000Y-80215000D01*
G37*
X91030000Y-80215000D02*
X90730000Y-80215000D01*
X90730000Y-79640000D01*
X91030000Y-79640000D01*
X91030000Y-80215000D01*
G36*
X89530000Y-79440000D02*
G01*
X89230000Y-79440000D01*
X89230000Y-78865000D01*
X89530000Y-78865000D01*
X89530000Y-79440000D01*
G37*
X89530000Y-79440000D02*
X89230000Y-79440000D01*
X89230000Y-78865000D01*
X89530000Y-78865000D01*
X89530000Y-79440000D01*
G36*
X90030000Y-80215000D02*
G01*
X89730000Y-80215000D01*
X89730000Y-79640000D01*
X90030000Y-79640000D01*
X90030000Y-80215000D01*
G37*
X90030000Y-80215000D02*
X89730000Y-80215000D01*
X89730000Y-79640000D01*
X90030000Y-79640000D01*
X90030000Y-80215000D01*
G36*
X90530000Y-80215000D02*
G01*
X90230000Y-80215000D01*
X90230000Y-79640000D01*
X90530000Y-79640000D01*
X90530000Y-80215000D01*
G37*
X90530000Y-80215000D02*
X90230000Y-80215000D01*
X90230000Y-79640000D01*
X90530000Y-79640000D01*
X90530000Y-80215000D01*
G04 #@! TD*
D11*
G04 #@! TO.C,J2*
X79500000Y-72250000D03*
D12*
X76960000Y-69710000D03*
X82040000Y-69710000D03*
X76960000Y-74790000D03*
X82040000Y-74790000D03*
G04 #@! TD*
D13*
G04 #@! TO.C,J1*
X138500000Y-73500000D03*
D14*
X138500000Y-76040000D03*
X135960000Y-73500000D03*
X135960000Y-76040000D03*
X133420000Y-73500000D03*
X133420000Y-76040000D03*
X130880000Y-73500000D03*
X130880000Y-76040000D03*
X128340000Y-73500000D03*
X128340000Y-76040000D03*
X125800000Y-73500000D03*
X125800000Y-76040000D03*
X123260000Y-73500000D03*
X123260000Y-76040000D03*
X120720000Y-73500000D03*
X120720000Y-76040000D03*
X118180000Y-73500000D03*
X118180000Y-76040000D03*
X115640000Y-73500000D03*
X115640000Y-76040000D03*
X113100000Y-73500000D03*
X113100000Y-76040000D03*
X110560000Y-73500000D03*
X110560000Y-76040000D03*
X108020000Y-73500000D03*
X108020000Y-76040000D03*
X105480000Y-73500000D03*
X105480000Y-76040000D03*
X102940000Y-73500000D03*
X102940000Y-76040000D03*
X100400000Y-73500000D03*
X100400000Y-76040000D03*
X97860000Y-73500000D03*
X97860000Y-76040000D03*
X95320000Y-73500000D03*
X95320000Y-76040000D03*
X92780000Y-73500000D03*
X92780000Y-76040000D03*
X90240000Y-73500000D03*
X90240000Y-76040000D03*
G04 #@! TD*
D11*
G04 #@! TO.C,J3*
X79500000Y-81750000D03*
D12*
X82040000Y-79210000D03*
X76960000Y-79210000D03*
X76960000Y-84290000D03*
X82040000Y-84290000D03*
G04 #@! TD*
D15*
G04 #@! TO.C,RN3*
X114750000Y-88000000D03*
D16*
X115250000Y-88000000D03*
X115750000Y-88000000D03*
D15*
X116250000Y-88000000D03*
X116250000Y-89000000D03*
D16*
X115750000Y-89000000D03*
X115250000Y-89000000D03*
D15*
X114750000Y-89000000D03*
G04 #@! TD*
G04 #@! TO.C,RN4*
X110750000Y-88000000D03*
D16*
X111250000Y-88000000D03*
X111750000Y-88000000D03*
D15*
X112250000Y-88000000D03*
X112250000Y-89000000D03*
D16*
X111750000Y-89000000D03*
X111250000Y-89000000D03*
D15*
X110750000Y-89000000D03*
G04 #@! TD*
D17*
G04 #@! TO.C,J5*
X140600000Y-93500000D03*
D18*
X104400000Y-93500000D03*
D19*
X138100000Y-95900000D03*
X138100000Y-91100000D03*
X137300000Y-95900000D03*
X137300000Y-91100000D03*
X136500000Y-95900000D03*
X136500000Y-91100000D03*
X135700000Y-95900000D03*
X135700000Y-91100000D03*
X134900000Y-95900000D03*
X134900000Y-91100000D03*
X134100000Y-95900000D03*
X134100000Y-91100000D03*
X133300000Y-95900000D03*
X133300000Y-91100000D03*
X132500000Y-95900000D03*
X132500000Y-91100000D03*
X131700000Y-95900000D03*
X131700000Y-91100000D03*
X130900000Y-95900000D03*
X130900000Y-91100000D03*
X130100000Y-95900000D03*
X130100000Y-91100000D03*
X129300000Y-95900000D03*
X129300000Y-91100000D03*
X128500000Y-95900000D03*
X128500000Y-91100000D03*
X127700000Y-95900000D03*
X127700000Y-91100000D03*
X126900000Y-95900000D03*
X126900000Y-91100000D03*
X126100000Y-95900000D03*
X126100000Y-91100000D03*
X125300000Y-95900000D03*
X125300000Y-91100000D03*
X124500000Y-95900000D03*
X124500000Y-91100000D03*
X123700000Y-95900000D03*
X123700000Y-91100000D03*
X122900000Y-95900000D03*
X122900000Y-91100000D03*
X122100000Y-95900000D03*
X122100000Y-91100000D03*
X121300000Y-95900000D03*
X121300000Y-91100000D03*
X120500000Y-95900000D03*
X120500000Y-91100000D03*
X119700000Y-95900000D03*
X119700000Y-91100000D03*
X118900000Y-95900000D03*
X118900000Y-91100000D03*
X118100000Y-95900000D03*
X118100000Y-91100000D03*
X117300000Y-95900000D03*
X117300000Y-91100000D03*
X116500000Y-95900000D03*
X116500000Y-91100000D03*
X115700000Y-95900000D03*
X115700000Y-91100000D03*
X114900000Y-95900000D03*
X114900000Y-91100000D03*
X114100000Y-95900000D03*
X114100000Y-91100000D03*
X113300000Y-95900000D03*
X113300000Y-91100000D03*
X112500000Y-95900000D03*
X112500000Y-91100000D03*
X111700000Y-95900000D03*
X111700000Y-91100000D03*
X110900000Y-95900000D03*
X110900000Y-91100000D03*
X110100000Y-95900000D03*
X110100000Y-91100000D03*
X109300000Y-95900000D03*
X109300000Y-91100000D03*
X108500000Y-95900000D03*
X108500000Y-91100000D03*
X107700000Y-95900000D03*
X107700000Y-91100000D03*
X106900000Y-95900000D03*
X106900000Y-91100000D03*
G04 #@! TD*
D20*
G04 #@! TO.C,C5*
X141700000Y-84500000D03*
X137300000Y-84500000D03*
G04 #@! TD*
D15*
G04 #@! TO.C,RN1*
X122750000Y-88000000D03*
D16*
X123250000Y-88000000D03*
X123750000Y-88000000D03*
D15*
X124250000Y-88000000D03*
X124250000Y-89000000D03*
D16*
X123750000Y-89000000D03*
X123250000Y-89000000D03*
D15*
X122750000Y-89000000D03*
G04 #@! TD*
G04 #@! TO.C,RN2*
X118750000Y-88000000D03*
D16*
X119250000Y-88000000D03*
X119750000Y-88000000D03*
D15*
X120250000Y-88000000D03*
X120250000Y-89000000D03*
D16*
X119750000Y-89000000D03*
X119250000Y-89000000D03*
D15*
X118750000Y-89000000D03*
G04 #@! TD*
M02*
