G04 #@! TF.GenerationSoftware,KiCad,Pcbnew,6.0.7-1.fc35*
G04 #@! TF.CreationDate,2022-09-05T19:08:22-05:00*
G04 #@! TF.ProjectId,rpi-adapter,7270692d-6164-4617-9074-65722e6b6963,rev?*
G04 #@! TF.SameCoordinates,Original*
G04 #@! TF.FileFunction,Soldermask,Top*
G04 #@! TF.FilePolarity,Negative*
%FSLAX46Y46*%
G04 Gerber Fmt 4.6, Leading zero omitted, Abs format (unit mm)*
G04 Created by KiCad (PCBNEW 6.0.7-1.fc35) date 2022-09-05 19:08:22*
%MOMM*%
%LPD*%
G01*
G04 APERTURE LIST*
G04 Aperture macros list*
%AMRoundRect*
0 Rectangle with rounded corners*
0 $1 Rounding radius*
0 $2 $3 $4 $5 $6 $7 $8 $9 X,Y pos of 4 corners*
0 Add a 4 corners polygon primitive as box body*
4,1,4,$2,$3,$4,$5,$6,$7,$8,$9,$2,$3,0*
0 Add four circle primitives for the rounded corners*
1,1,$1+$1,$2,$3*
1,1,$1+$1,$4,$5*
1,1,$1+$1,$6,$7*
1,1,$1+$1,$8,$9*
0 Add four rect primitives between the rounded corners*
20,1,$1+$1,$2,$3,$4,$5,0*
20,1,$1+$1,$4,$5,$6,$7,0*
20,1,$1+$1,$6,$7,$8,$9,0*
20,1,$1+$1,$8,$9,$2,$3,0*%
G04 Aperture macros list end*
%ADD10C,0.150000*%
%ADD11C,0.010000*%
%ADD12C,2.050000*%
%ADD13C,2.250000*%
%ADD14R,1.700000X1.700000*%
%ADD15O,1.700000X1.700000*%
%ADD16R,0.400000X0.500000*%
%ADD17R,0.300000X0.500000*%
%ADD18RoundRect,0.250000X-0.650000X0.325000X-0.650000X-0.325000X0.650000X-0.325000X0.650000X0.325000X0*%
%ADD19R,0.300000X0.750000*%
%ADD20R,1.500000X1.300000*%
%ADD21R,0.800000X2.700000*%
%ADD22C,1.200000*%
%ADD23C,0.800000*%
G04 APERTURE END LIST*
D10*
X138523809Y-70059523D02*
X138285714Y-69773809D01*
X138095238Y-70059523D02*
X138095238Y-69392857D01*
X138380952Y-69392857D01*
X138476190Y-69440476D01*
X138523809Y-69535714D01*
X138523809Y-69630952D01*
X138476190Y-69726190D01*
X138380952Y-69773809D01*
X138095238Y-69773809D01*
X138285714Y-69059523D02*
X138047619Y-69107142D01*
X137809523Y-69250000D01*
X137666666Y-69488095D01*
X137619047Y-69726190D01*
X137666666Y-69964285D01*
X137809523Y-70202380D01*
X138047619Y-70345238D01*
X138285714Y-70392857D01*
X138523809Y-70345238D01*
X138761904Y-70202380D01*
X138904761Y-69964285D01*
X138952380Y-69726190D01*
X138904761Y-69488095D01*
X138761904Y-69250000D01*
X138523809Y-69107142D01*
X138285714Y-69059523D01*
X140190476Y-69440476D02*
X140095238Y-69392857D01*
X139904761Y-69392857D01*
X139809523Y-69440476D01*
X139714285Y-69535714D01*
X139666666Y-69630952D01*
X139666666Y-69821428D01*
X139714285Y-69916666D01*
X139809523Y-70011904D01*
X139904761Y-70059523D01*
X140095238Y-70059523D01*
X140190476Y-70011904D01*
X140000000Y-69059523D02*
X139761904Y-69107142D01*
X139523809Y-69250000D01*
X139380952Y-69488095D01*
X139333333Y-69726190D01*
X139380952Y-69964285D01*
X139523809Y-70202380D01*
X139761904Y-70345238D01*
X140000000Y-70392857D01*
X140238095Y-70345238D01*
X140476190Y-70202380D01*
X140619047Y-69964285D01*
X140666666Y-69726190D01*
X140619047Y-69488095D01*
X140476190Y-69250000D01*
X140238095Y-69107142D01*
X140000000Y-69059523D01*
X141952380Y-70059523D02*
X141714285Y-69773809D01*
X141523809Y-70059523D02*
X141523809Y-69392857D01*
X141809523Y-69392857D01*
X141904761Y-69440476D01*
X141952380Y-69535714D01*
X141952380Y-69630952D01*
X141904761Y-69726190D01*
X141809523Y-69773809D01*
X141523809Y-69773809D01*
X141714285Y-69059523D02*
X141476190Y-69107142D01*
X141238095Y-69250000D01*
X141095238Y-69488095D01*
X141047619Y-69726190D01*
X141095238Y-69964285D01*
X141238095Y-70202380D01*
X141476190Y-70345238D01*
X141714285Y-70392857D01*
X141952380Y-70345238D01*
X142190476Y-70202380D01*
X142333333Y-69964285D01*
X142380952Y-69726190D01*
X142333333Y-69488095D01*
X142190476Y-69250000D01*
X141952380Y-69107142D01*
X141714285Y-69059523D01*
G04 #@! TO.C,D6*
G36*
X117530000Y-79552500D02*
G01*
X117230000Y-79552500D01*
X117230000Y-78977500D01*
X117530000Y-78977500D01*
X117530000Y-79552500D01*
G37*
D11*
X117530000Y-79552500D02*
X117230000Y-79552500D01*
X117230000Y-78977500D01*
X117530000Y-78977500D01*
X117530000Y-79552500D01*
G36*
X119030000Y-80327500D02*
G01*
X118730000Y-80327500D01*
X118730000Y-79752500D01*
X119030000Y-79752500D01*
X119030000Y-80327500D01*
G37*
X119030000Y-80327500D02*
X118730000Y-80327500D01*
X118730000Y-79752500D01*
X119030000Y-79752500D01*
X119030000Y-80327500D01*
G36*
X117030000Y-80327500D02*
G01*
X116730000Y-80327500D01*
X116730000Y-79752500D01*
X117030000Y-79752500D01*
X117030000Y-80327500D01*
G37*
X117030000Y-80327500D02*
X116730000Y-80327500D01*
X116730000Y-79752500D01*
X117030000Y-79752500D01*
X117030000Y-80327500D01*
G36*
X119030000Y-79552500D02*
G01*
X118730000Y-79552500D01*
X118730000Y-78977500D01*
X119030000Y-78977500D01*
X119030000Y-79552500D01*
G37*
X119030000Y-79552500D02*
X118730000Y-79552500D01*
X118730000Y-78977500D01*
X119030000Y-78977500D01*
X119030000Y-79552500D01*
G36*
X118530000Y-80327500D02*
G01*
X118230000Y-80327500D01*
X118230000Y-79752500D01*
X118530000Y-79752500D01*
X118530000Y-80327500D01*
G37*
X118530000Y-80327500D02*
X118230000Y-80327500D01*
X118230000Y-79752500D01*
X118530000Y-79752500D01*
X118530000Y-80327500D01*
G36*
X118030000Y-79552500D02*
G01*
X117730000Y-79552500D01*
X117730000Y-78977500D01*
X118030000Y-78977500D01*
X118030000Y-79552500D01*
G37*
X118030000Y-79552500D02*
X117730000Y-79552500D01*
X117730000Y-78977500D01*
X118030000Y-78977500D01*
X118030000Y-79552500D01*
G36*
X118530000Y-79552500D02*
G01*
X118230000Y-79552500D01*
X118230000Y-78977500D01*
X118530000Y-78977500D01*
X118530000Y-79552500D01*
G37*
X118530000Y-79552500D02*
X118230000Y-79552500D01*
X118230000Y-78977500D01*
X118530000Y-78977500D01*
X118530000Y-79552500D01*
G36*
X117530000Y-80327500D02*
G01*
X117230000Y-80327500D01*
X117230000Y-79752500D01*
X117530000Y-79752500D01*
X117530000Y-80327500D01*
G37*
X117530000Y-80327500D02*
X117230000Y-80327500D01*
X117230000Y-79752500D01*
X117530000Y-79752500D01*
X117530000Y-80327500D01*
G36*
X118030000Y-80327500D02*
G01*
X117730000Y-80327500D01*
X117730000Y-79752500D01*
X118030000Y-79752500D01*
X118030000Y-80327500D01*
G37*
X118030000Y-80327500D02*
X117730000Y-80327500D01*
X117730000Y-79752500D01*
X118030000Y-79752500D01*
X118030000Y-80327500D01*
G36*
X117030000Y-79552500D02*
G01*
X116730000Y-79552500D01*
X116730000Y-78977500D01*
X117030000Y-78977500D01*
X117030000Y-79552500D01*
G37*
X117030000Y-79552500D02*
X116730000Y-79552500D01*
X116730000Y-78977500D01*
X117030000Y-78977500D01*
X117030000Y-79552500D01*
G04 #@! TO.C,D7*
G36*
X105530000Y-80215000D02*
G01*
X105230000Y-80215000D01*
X105230000Y-79640000D01*
X105530000Y-79640000D01*
X105530000Y-80215000D01*
G37*
X105530000Y-80215000D02*
X105230000Y-80215000D01*
X105230000Y-79640000D01*
X105530000Y-79640000D01*
X105530000Y-80215000D01*
G36*
X104530000Y-79440000D02*
G01*
X104230000Y-79440000D01*
X104230000Y-78865000D01*
X104530000Y-78865000D01*
X104530000Y-79440000D01*
G37*
X104530000Y-79440000D02*
X104230000Y-79440000D01*
X104230000Y-78865000D01*
X104530000Y-78865000D01*
X104530000Y-79440000D01*
G36*
X106030000Y-79440000D02*
G01*
X105730000Y-79440000D01*
X105730000Y-78865000D01*
X106030000Y-78865000D01*
X106030000Y-79440000D01*
G37*
X106030000Y-79440000D02*
X105730000Y-79440000D01*
X105730000Y-78865000D01*
X106030000Y-78865000D01*
X106030000Y-79440000D01*
G36*
X105530000Y-79440000D02*
G01*
X105230000Y-79440000D01*
X105230000Y-78865000D01*
X105530000Y-78865000D01*
X105530000Y-79440000D01*
G37*
X105530000Y-79440000D02*
X105230000Y-79440000D01*
X105230000Y-78865000D01*
X105530000Y-78865000D01*
X105530000Y-79440000D01*
G36*
X105030000Y-80215000D02*
G01*
X104730000Y-80215000D01*
X104730000Y-79640000D01*
X105030000Y-79640000D01*
X105030000Y-80215000D01*
G37*
X105030000Y-80215000D02*
X104730000Y-80215000D01*
X104730000Y-79640000D01*
X105030000Y-79640000D01*
X105030000Y-80215000D01*
G36*
X105030000Y-79440000D02*
G01*
X104730000Y-79440000D01*
X104730000Y-78865000D01*
X105030000Y-78865000D01*
X105030000Y-79440000D01*
G37*
X105030000Y-79440000D02*
X104730000Y-79440000D01*
X104730000Y-78865000D01*
X105030000Y-78865000D01*
X105030000Y-79440000D01*
G36*
X104030000Y-79440000D02*
G01*
X103730000Y-79440000D01*
X103730000Y-78865000D01*
X104030000Y-78865000D01*
X104030000Y-79440000D01*
G37*
X104030000Y-79440000D02*
X103730000Y-79440000D01*
X103730000Y-78865000D01*
X104030000Y-78865000D01*
X104030000Y-79440000D01*
G36*
X104530000Y-80215000D02*
G01*
X104230000Y-80215000D01*
X104230000Y-79640000D01*
X104530000Y-79640000D01*
X104530000Y-80215000D01*
G37*
X104530000Y-80215000D02*
X104230000Y-80215000D01*
X104230000Y-79640000D01*
X104530000Y-79640000D01*
X104530000Y-80215000D01*
G36*
X106030000Y-80215000D02*
G01*
X105730000Y-80215000D01*
X105730000Y-79640000D01*
X106030000Y-79640000D01*
X106030000Y-80215000D01*
G37*
X106030000Y-80215000D02*
X105730000Y-80215000D01*
X105730000Y-79640000D01*
X106030000Y-79640000D01*
X106030000Y-80215000D01*
G36*
X104030000Y-80215000D02*
G01*
X103730000Y-80215000D01*
X103730000Y-79640000D01*
X104030000Y-79640000D01*
X104030000Y-80215000D01*
G37*
X104030000Y-80215000D02*
X103730000Y-80215000D01*
X103730000Y-79640000D01*
X104030000Y-79640000D01*
X104030000Y-80215000D01*
G04 #@! TO.C,D5*
G36*
X132530000Y-79552500D02*
G01*
X132230000Y-79552500D01*
X132230000Y-78977500D01*
X132530000Y-78977500D01*
X132530000Y-79552500D01*
G37*
X132530000Y-79552500D02*
X132230000Y-79552500D01*
X132230000Y-78977500D01*
X132530000Y-78977500D01*
X132530000Y-79552500D01*
G36*
X132030000Y-79552500D02*
G01*
X131730000Y-79552500D01*
X131730000Y-78977500D01*
X132030000Y-78977500D01*
X132030000Y-79552500D01*
G37*
X132030000Y-79552500D02*
X131730000Y-79552500D01*
X131730000Y-78977500D01*
X132030000Y-78977500D01*
X132030000Y-79552500D01*
G36*
X133030000Y-79552500D02*
G01*
X132730000Y-79552500D01*
X132730000Y-78977500D01*
X133030000Y-78977500D01*
X133030000Y-79552500D01*
G37*
X133030000Y-79552500D02*
X132730000Y-79552500D01*
X132730000Y-78977500D01*
X133030000Y-78977500D01*
X133030000Y-79552500D01*
G36*
X131030000Y-79552500D02*
G01*
X130730000Y-79552500D01*
X130730000Y-78977500D01*
X131030000Y-78977500D01*
X131030000Y-79552500D01*
G37*
X131030000Y-79552500D02*
X130730000Y-79552500D01*
X130730000Y-78977500D01*
X131030000Y-78977500D01*
X131030000Y-79552500D01*
G36*
X131530000Y-79552500D02*
G01*
X131230000Y-79552500D01*
X131230000Y-78977500D01*
X131530000Y-78977500D01*
X131530000Y-79552500D01*
G37*
X131530000Y-79552500D02*
X131230000Y-79552500D01*
X131230000Y-78977500D01*
X131530000Y-78977500D01*
X131530000Y-79552500D01*
G36*
X131030000Y-80327500D02*
G01*
X130730000Y-80327500D01*
X130730000Y-79752500D01*
X131030000Y-79752500D01*
X131030000Y-80327500D01*
G37*
X131030000Y-80327500D02*
X130730000Y-80327500D01*
X130730000Y-79752500D01*
X131030000Y-79752500D01*
X131030000Y-80327500D01*
G36*
X132530000Y-80327500D02*
G01*
X132230000Y-80327500D01*
X132230000Y-79752500D01*
X132530000Y-79752500D01*
X132530000Y-80327500D01*
G37*
X132530000Y-80327500D02*
X132230000Y-80327500D01*
X132230000Y-79752500D01*
X132530000Y-79752500D01*
X132530000Y-80327500D01*
G36*
X132030000Y-80327500D02*
G01*
X131730000Y-80327500D01*
X131730000Y-79752500D01*
X132030000Y-79752500D01*
X132030000Y-80327500D01*
G37*
X132030000Y-80327500D02*
X131730000Y-80327500D01*
X131730000Y-79752500D01*
X132030000Y-79752500D01*
X132030000Y-80327500D01*
G36*
X133030000Y-80327500D02*
G01*
X132730000Y-80327500D01*
X132730000Y-79752500D01*
X133030000Y-79752500D01*
X133030000Y-80327500D01*
G37*
X133030000Y-80327500D02*
X132730000Y-80327500D01*
X132730000Y-79752500D01*
X133030000Y-79752500D01*
X133030000Y-80327500D01*
G36*
X131530000Y-80327500D02*
G01*
X131230000Y-80327500D01*
X131230000Y-79752500D01*
X131530000Y-79752500D01*
X131530000Y-80327500D01*
G37*
X131530000Y-80327500D02*
X131230000Y-80327500D01*
X131230000Y-79752500D01*
X131530000Y-79752500D01*
X131530000Y-80327500D01*
G04 #@! TO.C,D8*
G36*
X96530000Y-80215000D02*
G01*
X96230000Y-80215000D01*
X96230000Y-79640000D01*
X96530000Y-79640000D01*
X96530000Y-80215000D01*
G37*
X96530000Y-80215000D02*
X96230000Y-80215000D01*
X96230000Y-79640000D01*
X96530000Y-79640000D01*
X96530000Y-80215000D01*
G36*
X95030000Y-80215000D02*
G01*
X94730000Y-80215000D01*
X94730000Y-79640000D01*
X95030000Y-79640000D01*
X95030000Y-80215000D01*
G37*
X95030000Y-80215000D02*
X94730000Y-80215000D01*
X94730000Y-79640000D01*
X95030000Y-79640000D01*
X95030000Y-80215000D01*
G36*
X95530000Y-79440000D02*
G01*
X95230000Y-79440000D01*
X95230000Y-78865000D01*
X95530000Y-78865000D01*
X95530000Y-79440000D01*
G37*
X95530000Y-79440000D02*
X95230000Y-79440000D01*
X95230000Y-78865000D01*
X95530000Y-78865000D01*
X95530000Y-79440000D01*
G36*
X94530000Y-80215000D02*
G01*
X94230000Y-80215000D01*
X94230000Y-79640000D01*
X94530000Y-79640000D01*
X94530000Y-80215000D01*
G37*
X94530000Y-80215000D02*
X94230000Y-80215000D01*
X94230000Y-79640000D01*
X94530000Y-79640000D01*
X94530000Y-80215000D01*
G36*
X96030000Y-80215000D02*
G01*
X95730000Y-80215000D01*
X95730000Y-79640000D01*
X96030000Y-79640000D01*
X96030000Y-80215000D01*
G37*
X96030000Y-80215000D02*
X95730000Y-80215000D01*
X95730000Y-79640000D01*
X96030000Y-79640000D01*
X96030000Y-80215000D01*
G36*
X96030000Y-79440000D02*
G01*
X95730000Y-79440000D01*
X95730000Y-78865000D01*
X96030000Y-78865000D01*
X96030000Y-79440000D01*
G37*
X96030000Y-79440000D02*
X95730000Y-79440000D01*
X95730000Y-78865000D01*
X96030000Y-78865000D01*
X96030000Y-79440000D01*
G36*
X95530000Y-80215000D02*
G01*
X95230000Y-80215000D01*
X95230000Y-79640000D01*
X95530000Y-79640000D01*
X95530000Y-80215000D01*
G37*
X95530000Y-80215000D02*
X95230000Y-80215000D01*
X95230000Y-79640000D01*
X95530000Y-79640000D01*
X95530000Y-80215000D01*
G36*
X94530000Y-79440000D02*
G01*
X94230000Y-79440000D01*
X94230000Y-78865000D01*
X94530000Y-78865000D01*
X94530000Y-79440000D01*
G37*
X94530000Y-79440000D02*
X94230000Y-79440000D01*
X94230000Y-78865000D01*
X94530000Y-78865000D01*
X94530000Y-79440000D01*
G36*
X96530000Y-79440000D02*
G01*
X96230000Y-79440000D01*
X96230000Y-78865000D01*
X96530000Y-78865000D01*
X96530000Y-79440000D01*
G37*
X96530000Y-79440000D02*
X96230000Y-79440000D01*
X96230000Y-78865000D01*
X96530000Y-78865000D01*
X96530000Y-79440000D01*
G36*
X95030000Y-79440000D02*
G01*
X94730000Y-79440000D01*
X94730000Y-78865000D01*
X95030000Y-78865000D01*
X95030000Y-79440000D01*
G37*
X95030000Y-79440000D02*
X94730000Y-79440000D01*
X94730000Y-78865000D01*
X95030000Y-78865000D01*
X95030000Y-79440000D01*
G04 #@! TD*
D12*
G04 #@! TO.C,J2*
X79500000Y-72250000D03*
D13*
X76960000Y-69710000D03*
X82040000Y-69710000D03*
X76960000Y-74790000D03*
X82040000Y-74790000D03*
G04 #@! TD*
D14*
G04 #@! TO.C,J1*
X138500000Y-73500000D03*
D15*
X138500000Y-76040000D03*
X135960000Y-73500000D03*
X135960000Y-76040000D03*
X133420000Y-73500000D03*
X133420000Y-76040000D03*
X130880000Y-73500000D03*
X130880000Y-76040000D03*
X128340000Y-73500000D03*
X128340000Y-76040000D03*
X125800000Y-73500000D03*
X125800000Y-76040000D03*
X123260000Y-73500000D03*
X123260000Y-76040000D03*
X120720000Y-73500000D03*
X120720000Y-76040000D03*
X118180000Y-73500000D03*
X118180000Y-76040000D03*
X115640000Y-73500000D03*
X115640000Y-76040000D03*
X113100000Y-73500000D03*
X113100000Y-76040000D03*
X110560000Y-73500000D03*
X110560000Y-76040000D03*
X108020000Y-73500000D03*
X108020000Y-76040000D03*
X105480000Y-73500000D03*
X105480000Y-76040000D03*
X102940000Y-73500000D03*
X102940000Y-76040000D03*
X100400000Y-73500000D03*
X100400000Y-76040000D03*
X97860000Y-73500000D03*
X97860000Y-76040000D03*
X95320000Y-73500000D03*
X95320000Y-76040000D03*
X92780000Y-73500000D03*
X92780000Y-76040000D03*
X90240000Y-73500000D03*
X90240000Y-76040000D03*
G04 #@! TD*
D16*
G04 #@! TO.C,RN8*
X114750000Y-97000000D03*
D17*
X115250000Y-97000000D03*
X115750000Y-97000000D03*
D16*
X116250000Y-97000000D03*
X116250000Y-96000000D03*
D17*
X115750000Y-96000000D03*
X115250000Y-96000000D03*
D16*
X114750000Y-96000000D03*
G04 #@! TD*
D12*
G04 #@! TO.C,J3*
X79500000Y-81750000D03*
D13*
X82040000Y-79210000D03*
X76960000Y-79210000D03*
X76960000Y-84290000D03*
X82040000Y-84290000D03*
G04 #@! TD*
D16*
G04 #@! TO.C,RN7*
X118750000Y-97000000D03*
D17*
X119250000Y-97000000D03*
X119750000Y-97000000D03*
D16*
X120250000Y-97000000D03*
X120250000Y-96000000D03*
D17*
X119750000Y-96000000D03*
X119250000Y-96000000D03*
D16*
X118750000Y-96000000D03*
G04 #@! TD*
D18*
G04 #@! TO.C,C2*
X136500000Y-80525000D03*
X136500000Y-83475000D03*
G04 #@! TD*
D16*
G04 #@! TO.C,RN6*
X122750000Y-97000000D03*
D17*
X123250000Y-97000000D03*
X123750000Y-97000000D03*
D16*
X124250000Y-97000000D03*
X124250000Y-96000000D03*
D17*
X123750000Y-96000000D03*
X123250000Y-96000000D03*
D16*
X122750000Y-96000000D03*
G04 #@! TD*
D18*
G04 #@! TO.C,C1*
X142500000Y-80525000D03*
X142500000Y-83475000D03*
G04 #@! TD*
D16*
G04 #@! TO.C,RN5*
X126750000Y-97000000D03*
D17*
X127250000Y-97000000D03*
X127750000Y-97000000D03*
D16*
X128250000Y-97000000D03*
X128250000Y-96000000D03*
D17*
X127750000Y-96000000D03*
X127250000Y-96000000D03*
D16*
X126750000Y-96000000D03*
G04 #@! TD*
D19*
G04 #@! TO.C,U1*
X138750000Y-83450000D03*
X139250000Y-83450000D03*
X139750000Y-83450000D03*
X140250000Y-83450000D03*
X140250000Y-80550000D03*
X139750000Y-80550000D03*
X139250000Y-80550000D03*
X138750000Y-80550000D03*
D20*
X139500000Y-82000000D03*
G04 #@! TD*
D21*
G04 #@! TO.C,L1*
X140600000Y-86500000D03*
X138400000Y-86500000D03*
G04 #@! TD*
D22*
G04 #@! TO.C,J5*
X140600000Y-93500000D03*
D23*
X104400000Y-93500000D03*
G04 #@! TD*
M02*
