M48
; DRILL file {KiCad 6.0.7-1.fc35} date Mon 05 Sep 2022 07:08:19 PM CDT
; FORMAT={-:-/ absolute / inch / decimal}
; #@! TF.CreationDate,2022-09-05T19:08:19-05:00
; #@! TF.GenerationSoftware,Kicad,Pcbnew,6.0.7-1.fc35
; #@! TF.FileFunction,MixedPlating,1,4
FMAT,2
INCH
; #@! TA.AperFunction,Plated,PTH,ViaDrill
T1C0.0157
; #@! TA.AperFunction,Plated,PTH,ComponentDrill
T2C0.0394
; #@! TA.AperFunction,Plated,PTH,ComponentDrill
T3C0.0591
; #@! TA.AperFunction,Plated,PTH,ComponentDrill
T4C0.0669
; #@! TA.AperFunction,NonPlated,NPTH,ComponentDrill
T5C0.0315
; #@! TA.AperFunction,NonPlated,NPTH,ComponentDrill
T6C0.0472
%
G90
G05
T1
X3.5536Y-3.0903
X3.75Y-3.0807
X3.9075Y-3.0709
X4.0256Y-3.6811
X4.1334Y-3.0762
X4.2028Y-3.6811
X4.2815Y-3.6811
X4.3701Y-3.6811
X4.4398Y-3.0729
X4.4882Y-3.8583
X4.5276Y-3.8583
X4.5571Y-3.6811
X4.5669Y-3.8583
X4.6063Y-3.8583
X4.6457Y-3.061
X4.6457Y-3.8583
X4.685Y-3.8583
X4.7244Y-3.8583
X4.7638Y-3.8583
X4.7736Y-3.6811
X4.8031Y-3.8583
X4.8425Y-3.8583
X4.8819Y-3.859
X4.9212Y-3.8577
X4.9311Y-3.6811
X4.9602Y-3.0762
X4.9606Y-3.8583
X5.0Y-3.8583
X5.0394Y-3.8583
X5.0787Y-3.8583
X5.128Y-3.6811
X5.187Y-3.0807
X5.2067Y-3.6811
X5.2756Y-3.6811
X5.315Y-3.3957
X5.315Y-3.435
X5.315Y-3.4744
X5.3445Y-3.6811
X5.4134Y-3.4843
X5.4528Y-3.4843
X5.4921Y-3.2283
X5.4921Y-3.3268
X5.4921Y-3.4843
X5.5787Y-2.9803
X5.5787Y-3.0236
X5.5787Y-3.063
X5.5787Y-3.1024
T2
X3.5528Y-2.8937
X3.5528Y-2.9937
X3.6528Y-2.8937
X3.6528Y-2.9937
X3.7528Y-2.8937
X3.7528Y-2.9937
X3.8528Y-2.8937
X3.8528Y-2.9937
X3.9528Y-2.8937
X3.9528Y-2.9937
X4.0528Y-2.8937
X4.0528Y-2.9937
X4.1528Y-2.8937
X4.1528Y-2.9937
X4.2528Y-2.8937
X4.2528Y-2.9937
X4.3528Y-2.8937
X4.3528Y-2.9937
X4.4528Y-2.8937
X4.4528Y-2.9937
X4.5528Y-2.8937
X4.5528Y-2.9937
X4.6528Y-2.8937
X4.6528Y-2.9937
X4.7528Y-2.8937
X4.7528Y-2.9937
X4.8528Y-2.8937
X4.8528Y-2.9937
X4.9528Y-2.8937
X4.9528Y-2.9937
X5.0528Y-2.8937
X5.0528Y-2.9937
X5.1528Y-2.8937
X5.1528Y-2.9937
X5.2528Y-2.8937
X5.2528Y-2.9937
X5.3528Y-2.8937
X5.3528Y-2.9937
X5.4528Y-2.8937
X5.4528Y-2.9937
T3
X3.1299Y-2.8445
X3.1299Y-3.2185
T4
X3.0299Y-2.7445
X3.0299Y-2.9445
X3.0299Y-3.1185
X3.0299Y-3.3185
X3.2299Y-2.7445
X3.2299Y-2.9445
X3.2299Y-3.1185
X3.2299Y-3.3185
T5
X4.1102Y-3.6811
T6
X5.5354Y-3.6811
T0
M30
