G04 #@! TF.GenerationSoftware,KiCad,Pcbnew,6.0.7-1.fc35*
G04 #@! TF.CreationDate,2022-09-05T19:08:22-05:00*
G04 #@! TF.ProjectId,rpi-adapter,7270692d-6164-4617-9074-65722e6b6963,rev?*
G04 #@! TF.SameCoordinates,Original*
G04 #@! TF.FileFunction,Paste,Bot*
G04 #@! TF.FilePolarity,Positive*
%FSLAX46Y46*%
G04 Gerber Fmt 4.6, Leading zero omitted, Abs format (unit mm)*
G04 Created by KiCad (PCBNEW 6.0.7-1.fc35) date 2022-09-05 19:08:22*
%MOMM*%
%LPD*%
G01*
G04 APERTURE LIST*
G04 Aperture macros list*
%AMRoundRect*
0 Rectangle with rounded corners*
0 $1 Rounding radius*
0 $2 $3 $4 $5 $6 $7 $8 $9 X,Y pos of 4 corners*
0 Add a 4 corners polygon primitive as box body*
4,1,4,$2,$3,$4,$5,$6,$7,$8,$9,$2,$3,0*
0 Add four circle primitives for the rounded corners*
1,1,$1+$1,$2,$3*
1,1,$1+$1,$4,$5*
1,1,$1+$1,$6,$7*
1,1,$1+$1,$8,$9*
0 Add four rect primitives between the rounded corners*
20,1,$1+$1,$2,$3,$4,$5,0*
20,1,$1+$1,$4,$5,$6,$7,0*
20,1,$1+$1,$6,$7,$8,$9,0*
20,1,$1+$1,$8,$9,$2,$3,0*%
G04 Aperture macros list end*
%ADD10R,0.200000X0.475000*%
%ADD11R,0.400000X0.500000*%
%ADD12R,0.300000X0.500000*%
%ADD13R,0.500000X2.400000*%
%ADD14RoundRect,0.250000X1.250000X0.550000X-1.250000X0.550000X-1.250000X-0.550000X1.250000X-0.550000X0*%
G04 APERTURE END LIST*
D10*
G04 #@! TO.C,D3*
X98380000Y-79927500D03*
X98380000Y-79152500D03*
X99380000Y-79152500D03*
X98880000Y-79927500D03*
X98880000Y-79152500D03*
X99880000Y-79152500D03*
X99880000Y-79927500D03*
X99380000Y-79927500D03*
X100380000Y-79927500D03*
X100380000Y-79152500D03*
G04 #@! TD*
D11*
G04 #@! TO.C,RN3*
X114750000Y-88000000D03*
D12*
X115250000Y-88000000D03*
X115750000Y-88000000D03*
D11*
X116250000Y-88000000D03*
X116250000Y-89000000D03*
D12*
X115750000Y-89000000D03*
X115250000Y-89000000D03*
D11*
X114750000Y-89000000D03*
G04 #@! TD*
D10*
G04 #@! TO.C,D2*
X111880000Y-79927500D03*
X111880000Y-79152500D03*
X112880000Y-79152500D03*
X112380000Y-79152500D03*
X112380000Y-79927500D03*
X113380000Y-79927500D03*
X113380000Y-79152500D03*
X112880000Y-79927500D03*
X113880000Y-79152500D03*
X113880000Y-79927500D03*
G04 #@! TD*
D11*
G04 #@! TO.C,RN4*
X110750000Y-88000000D03*
D12*
X111250000Y-88000000D03*
X111750000Y-88000000D03*
D11*
X112250000Y-88000000D03*
X112250000Y-89000000D03*
D12*
X111750000Y-89000000D03*
X111250000Y-89000000D03*
D11*
X110750000Y-89000000D03*
G04 #@! TD*
D10*
G04 #@! TO.C,D1*
X124880000Y-79927500D03*
X124880000Y-79152500D03*
X125880000Y-79152500D03*
X125380000Y-79152500D03*
X125380000Y-79927500D03*
X126380000Y-79927500D03*
X126380000Y-79152500D03*
X125880000Y-79927500D03*
X126880000Y-79152500D03*
X126880000Y-79927500D03*
G04 #@! TD*
G04 #@! TO.C,D4*
X89380000Y-79152500D03*
X89380000Y-79927500D03*
X90380000Y-79152500D03*
X89880000Y-79927500D03*
X89880000Y-79152500D03*
X90880000Y-79927500D03*
X90880000Y-79152500D03*
X90380000Y-79927500D03*
X91380000Y-79152500D03*
X91380000Y-79927500D03*
G04 #@! TD*
D13*
G04 #@! TO.C,J5*
X138100000Y-95900000D03*
X138100000Y-91100000D03*
X137300000Y-95900000D03*
X137300000Y-91100000D03*
X136500000Y-95900000D03*
X136500000Y-91100000D03*
X135700000Y-95900000D03*
X135700000Y-91100000D03*
X134900000Y-95900000D03*
X134900000Y-91100000D03*
X134100000Y-95900000D03*
X134100000Y-91100000D03*
X133300000Y-95900000D03*
X133300000Y-91100000D03*
X132500000Y-95900000D03*
X132500000Y-91100000D03*
X131700000Y-95900000D03*
X131700000Y-91100000D03*
X130900000Y-95900000D03*
X130900000Y-91100000D03*
X130100000Y-95900000D03*
X130100000Y-91100000D03*
X129300000Y-95900000D03*
X129300000Y-91100000D03*
X128500000Y-95900000D03*
X128500000Y-91100000D03*
X127700000Y-95900000D03*
X127700000Y-91100000D03*
X126900000Y-95900000D03*
X126900000Y-91100000D03*
X126100000Y-95900000D03*
X126100000Y-91100000D03*
X125300000Y-95900000D03*
X125300000Y-91100000D03*
X124500000Y-95900000D03*
X124500000Y-91100000D03*
X123700000Y-95900000D03*
X123700000Y-91100000D03*
X122900000Y-95900000D03*
X122900000Y-91100000D03*
X122100000Y-95900000D03*
X122100000Y-91100000D03*
X121300000Y-95900000D03*
X121300000Y-91100000D03*
X120500000Y-95900000D03*
X120500000Y-91100000D03*
X119700000Y-95900000D03*
X119700000Y-91100000D03*
X118900000Y-95900000D03*
X118900000Y-91100000D03*
X118100000Y-95900000D03*
X118100000Y-91100000D03*
X117300000Y-95900000D03*
X117300000Y-91100000D03*
X116500000Y-95900000D03*
X116500000Y-91100000D03*
X115700000Y-95900000D03*
X115700000Y-91100000D03*
X114900000Y-95900000D03*
X114900000Y-91100000D03*
X114100000Y-95900000D03*
X114100000Y-91100000D03*
X113300000Y-95900000D03*
X113300000Y-91100000D03*
X112500000Y-95900000D03*
X112500000Y-91100000D03*
X111700000Y-95900000D03*
X111700000Y-91100000D03*
X110900000Y-95900000D03*
X110900000Y-91100000D03*
X110100000Y-95900000D03*
X110100000Y-91100000D03*
X109300000Y-95900000D03*
X109300000Y-91100000D03*
X108500000Y-95900000D03*
X108500000Y-91100000D03*
X107700000Y-95900000D03*
X107700000Y-91100000D03*
X106900000Y-95900000D03*
X106900000Y-91100000D03*
G04 #@! TD*
D14*
G04 #@! TO.C,C5*
X141700000Y-84500000D03*
X137300000Y-84500000D03*
G04 #@! TD*
D11*
G04 #@! TO.C,RN1*
X122750000Y-88000000D03*
D12*
X123250000Y-88000000D03*
X123750000Y-88000000D03*
D11*
X124250000Y-88000000D03*
X124250000Y-89000000D03*
D12*
X123750000Y-89000000D03*
X123250000Y-89000000D03*
D11*
X122750000Y-89000000D03*
G04 #@! TD*
G04 #@! TO.C,RN2*
X118750000Y-88000000D03*
D12*
X119250000Y-88000000D03*
X119750000Y-88000000D03*
D11*
X120250000Y-88000000D03*
X120250000Y-89000000D03*
D12*
X119750000Y-89000000D03*
X119250000Y-89000000D03*
D11*
X118750000Y-89000000D03*
G04 #@! TD*
M02*
