G04 #@! TF.GenerationSoftware,KiCad,Pcbnew,6.0.7-1.fc35*
G04 #@! TF.CreationDate,2022-09-05T19:08:22-05:00*
G04 #@! TF.ProjectId,rpi-adapter,7270692d-6164-4617-9074-65722e6b6963,rev?*
G04 #@! TF.SameCoordinates,Original*
G04 #@! TF.FileFunction,Legend,Top*
G04 #@! TF.FilePolarity,Positive*
%FSLAX46Y46*%
G04 Gerber Fmt 4.6, Leading zero omitted, Abs format (unit mm)*
G04 Created by KiCad (PCBNEW 6.0.7-1.fc35) date 2022-09-05 19:08:22*
%MOMM*%
%LPD*%
G01*
G04 APERTURE LIST*
%ADD10C,0.150000*%
%ADD11C,0.300000*%
%ADD12C,0.120000*%
%ADD13C,0.127000*%
G04 APERTURE END LIST*
D10*
X77666666Y-77452380D02*
X77666666Y-76452380D01*
X78000000Y-77166666D01*
X78333333Y-76452380D01*
X78333333Y-77452380D01*
X79380952Y-77452380D02*
X79047619Y-76976190D01*
X78809523Y-77452380D02*
X78809523Y-76452380D01*
X79190476Y-76452380D01*
X79285714Y-76500000D01*
X79333333Y-76547619D01*
X79380952Y-76642857D01*
X79380952Y-76785714D01*
X79333333Y-76880952D01*
X79285714Y-76928571D01*
X79190476Y-76976190D01*
X78809523Y-76976190D01*
X80380952Y-77357142D02*
X80333333Y-77404761D01*
X80190476Y-77452380D01*
X80095238Y-77452380D01*
X79952380Y-77404761D01*
X79857142Y-77309523D01*
X79809523Y-77214285D01*
X79761904Y-77023809D01*
X79761904Y-76880952D01*
X79809523Y-76690476D01*
X79857142Y-76595238D01*
X79952380Y-76500000D01*
X80095238Y-76452380D01*
X80190476Y-76452380D01*
X80333333Y-76500000D01*
X80380952Y-76547619D01*
X81380952Y-77357142D02*
X81333333Y-77404761D01*
X81190476Y-77452380D01*
X81095238Y-77452380D01*
X80952380Y-77404761D01*
X80857142Y-77309523D01*
X80809523Y-77214285D01*
X80761904Y-77023809D01*
X80761904Y-76880952D01*
X80809523Y-76690476D01*
X80857142Y-76595238D01*
X80952380Y-76500000D01*
X81095238Y-76452380D01*
X81190476Y-76452380D01*
X81333333Y-76500000D01*
X81380952Y-76547619D01*
D11*
X102964285Y-70678571D02*
X102464285Y-69964285D01*
X102107142Y-70678571D02*
X102107142Y-69178571D01*
X102678571Y-69178571D01*
X102821428Y-69250000D01*
X102892857Y-69321428D01*
X102964285Y-69464285D01*
X102964285Y-69678571D01*
X102892857Y-69821428D01*
X102821428Y-69892857D01*
X102678571Y-69964285D01*
X102107142Y-69964285D01*
X104250000Y-70678571D02*
X104250000Y-69892857D01*
X104178571Y-69750000D01*
X104035714Y-69678571D01*
X103750000Y-69678571D01*
X103607142Y-69750000D01*
X104250000Y-70607142D02*
X104107142Y-70678571D01*
X103750000Y-70678571D01*
X103607142Y-70607142D01*
X103535714Y-70464285D01*
X103535714Y-70321428D01*
X103607142Y-70178571D01*
X103750000Y-70107142D01*
X104107142Y-70107142D01*
X104250000Y-70035714D01*
X104892857Y-70607142D02*
X105035714Y-70678571D01*
X105321428Y-70678571D01*
X105464285Y-70607142D01*
X105535714Y-70464285D01*
X105535714Y-70392857D01*
X105464285Y-70250000D01*
X105321428Y-70178571D01*
X105107142Y-70178571D01*
X104964285Y-70107142D01*
X104892857Y-69964285D01*
X104892857Y-69892857D01*
X104964285Y-69750000D01*
X105107142Y-69678571D01*
X105321428Y-69678571D01*
X105464285Y-69750000D01*
X106178571Y-69678571D02*
X106178571Y-71178571D01*
X106178571Y-69750000D02*
X106321428Y-69678571D01*
X106607142Y-69678571D01*
X106750000Y-69750000D01*
X106821428Y-69821428D01*
X106892857Y-69964285D01*
X106892857Y-70392857D01*
X106821428Y-70535714D01*
X106750000Y-70607142D01*
X106607142Y-70678571D01*
X106321428Y-70678571D01*
X106178571Y-70607142D01*
X107535714Y-70678571D02*
X107535714Y-69178571D01*
X107535714Y-69750000D02*
X107678571Y-69678571D01*
X107964285Y-69678571D01*
X108107142Y-69750000D01*
X108178571Y-69821428D01*
X108250000Y-69964285D01*
X108250000Y-70392857D01*
X108178571Y-70535714D01*
X108107142Y-70607142D01*
X107964285Y-70678571D01*
X107678571Y-70678571D01*
X107535714Y-70607142D01*
X109464285Y-70607142D02*
X109321428Y-70678571D01*
X109035714Y-70678571D01*
X108892857Y-70607142D01*
X108821428Y-70464285D01*
X108821428Y-69892857D01*
X108892857Y-69750000D01*
X109035714Y-69678571D01*
X109321428Y-69678571D01*
X109464285Y-69750000D01*
X109535714Y-69892857D01*
X109535714Y-70035714D01*
X108821428Y-70178571D01*
X110178571Y-70678571D02*
X110178571Y-69678571D01*
X110178571Y-69964285D02*
X110250000Y-69821428D01*
X110321428Y-69750000D01*
X110464285Y-69678571D01*
X110607142Y-69678571D01*
X111107142Y-70678571D02*
X111107142Y-69678571D01*
X111107142Y-69964285D02*
X111178571Y-69821428D01*
X111250000Y-69750000D01*
X111392857Y-69678571D01*
X111535714Y-69678571D01*
X111892857Y-69678571D02*
X112250000Y-70678571D01*
X112607142Y-69678571D02*
X112250000Y-70678571D01*
X112107142Y-71035714D01*
X112035714Y-71107142D01*
X111892857Y-71178571D01*
X114321428Y-70678571D02*
X114321428Y-69178571D01*
X114892857Y-69178571D01*
X115035714Y-69250000D01*
X115107142Y-69321428D01*
X115178571Y-69464285D01*
X115178571Y-69678571D01*
X115107142Y-69821428D01*
X115035714Y-69892857D01*
X114892857Y-69964285D01*
X114321428Y-69964285D01*
X115821428Y-70678571D02*
X115821428Y-69678571D01*
X115821428Y-69178571D02*
X115750000Y-69250000D01*
X115821428Y-69321428D01*
X115892857Y-69250000D01*
X115821428Y-69178571D01*
X115821428Y-69321428D01*
X117607142Y-70250000D02*
X118321428Y-70250000D01*
X117464285Y-70678571D02*
X117964285Y-69178571D01*
X118464285Y-70678571D01*
X119607142Y-70678571D02*
X119607142Y-69178571D01*
X119607142Y-70607142D02*
X119464285Y-70678571D01*
X119178571Y-70678571D01*
X119035714Y-70607142D01*
X118964285Y-70535714D01*
X118892857Y-70392857D01*
X118892857Y-69964285D01*
X118964285Y-69821428D01*
X119035714Y-69750000D01*
X119178571Y-69678571D01*
X119464285Y-69678571D01*
X119607142Y-69750000D01*
X120964285Y-70678571D02*
X120964285Y-69892857D01*
X120892857Y-69750000D01*
X120750000Y-69678571D01*
X120464285Y-69678571D01*
X120321428Y-69750000D01*
X120964285Y-70607142D02*
X120821428Y-70678571D01*
X120464285Y-70678571D01*
X120321428Y-70607142D01*
X120250000Y-70464285D01*
X120250000Y-70321428D01*
X120321428Y-70178571D01*
X120464285Y-70107142D01*
X120821428Y-70107142D01*
X120964285Y-70035714D01*
X121678571Y-69678571D02*
X121678571Y-71178571D01*
X121678571Y-69750000D02*
X121821428Y-69678571D01*
X122107142Y-69678571D01*
X122250000Y-69750000D01*
X122321428Y-69821428D01*
X122392857Y-69964285D01*
X122392857Y-70392857D01*
X122321428Y-70535714D01*
X122250000Y-70607142D01*
X122107142Y-70678571D01*
X121821428Y-70678571D01*
X121678571Y-70607142D01*
X122821428Y-69678571D02*
X123392857Y-69678571D01*
X123035714Y-69178571D02*
X123035714Y-70464285D01*
X123107142Y-70607142D01*
X123250000Y-70678571D01*
X123392857Y-70678571D01*
X124464285Y-70607142D02*
X124321428Y-70678571D01*
X124035714Y-70678571D01*
X123892857Y-70607142D01*
X123821428Y-70464285D01*
X123821428Y-69892857D01*
X123892857Y-69750000D01*
X124035714Y-69678571D01*
X124321428Y-69678571D01*
X124464285Y-69750000D01*
X124535714Y-69892857D01*
X124535714Y-70035714D01*
X123821428Y-70178571D01*
X125178571Y-70678571D02*
X125178571Y-69678571D01*
X125178571Y-69964285D02*
X125250000Y-69821428D01*
X125321428Y-69750000D01*
X125464285Y-69678571D01*
X125607142Y-69678571D01*
D10*
G04 #@! TO.C,J2*
X84857142Y-73464285D02*
X84904761Y-73511904D01*
X84952380Y-73654761D01*
X84952380Y-73750000D01*
X84904761Y-73892857D01*
X84809523Y-73988095D01*
X84714285Y-74035714D01*
X84523809Y-74083333D01*
X84380952Y-74083333D01*
X84190476Y-74035714D01*
X84095238Y-73988095D01*
X84000000Y-73892857D01*
X83952380Y-73750000D01*
X83952380Y-73654761D01*
X84000000Y-73511904D01*
X84047619Y-73464285D01*
X84952380Y-72559523D02*
X84952380Y-73035714D01*
X83952380Y-73035714D01*
X84952380Y-72226190D02*
X83952380Y-72226190D01*
X84952380Y-71654761D02*
X84380952Y-72083333D01*
X83952380Y-71654761D02*
X84523809Y-72226190D01*
X84571428Y-71226190D02*
X84571428Y-70464285D01*
X84952380Y-70845238D02*
X84190476Y-70845238D01*
G04 #@! TO.C,J1*
X140282380Y-75103333D02*
X140996666Y-75103333D01*
X141139523Y-75150952D01*
X141234761Y-75246190D01*
X141282380Y-75389047D01*
X141282380Y-75484285D01*
X141282380Y-74103333D02*
X141282380Y-74674761D01*
X141282380Y-74389047D02*
X140282380Y-74389047D01*
X140425238Y-74484285D01*
X140520476Y-74579523D01*
X140568095Y-74674761D01*
G04 #@! TO.C,RN8*
X114809523Y-94952380D02*
X114476190Y-94476190D01*
X114238095Y-94952380D02*
X114238095Y-93952380D01*
X114619047Y-93952380D01*
X114714285Y-94000000D01*
X114761904Y-94047619D01*
X114809523Y-94142857D01*
X114809523Y-94285714D01*
X114761904Y-94380952D01*
X114714285Y-94428571D01*
X114619047Y-94476190D01*
X114238095Y-94476190D01*
X115238095Y-94952380D02*
X115238095Y-93952380D01*
X115809523Y-94952380D01*
X115809523Y-93952380D01*
X116428571Y-94380952D02*
X116333333Y-94333333D01*
X116285714Y-94285714D01*
X116238095Y-94190476D01*
X116238095Y-94142857D01*
X116285714Y-94047619D01*
X116333333Y-94000000D01*
X116428571Y-93952380D01*
X116619047Y-93952380D01*
X116714285Y-94000000D01*
X116761904Y-94047619D01*
X116809523Y-94142857D01*
X116809523Y-94190476D01*
X116761904Y-94285714D01*
X116714285Y-94333333D01*
X116619047Y-94380952D01*
X116428571Y-94380952D01*
X116333333Y-94428571D01*
X116285714Y-94476190D01*
X116238095Y-94571428D01*
X116238095Y-94761904D01*
X116285714Y-94857142D01*
X116333333Y-94904761D01*
X116428571Y-94952380D01*
X116619047Y-94952380D01*
X116714285Y-94904761D01*
X116761904Y-94857142D01*
X116809523Y-94761904D01*
X116809523Y-94571428D01*
X116761904Y-94476190D01*
X116714285Y-94428571D01*
X116619047Y-94380952D01*
G04 #@! TO.C,J3*
X84857142Y-82964285D02*
X84904761Y-83011904D01*
X84952380Y-83154761D01*
X84952380Y-83250000D01*
X84904761Y-83392857D01*
X84809523Y-83488095D01*
X84714285Y-83535714D01*
X84523809Y-83583333D01*
X84380952Y-83583333D01*
X84190476Y-83535714D01*
X84095238Y-83488095D01*
X84000000Y-83392857D01*
X83952380Y-83250000D01*
X83952380Y-83154761D01*
X84000000Y-83011904D01*
X84047619Y-82964285D01*
X84952380Y-82059523D02*
X84952380Y-82535714D01*
X83952380Y-82535714D01*
X84952380Y-81726190D02*
X83952380Y-81726190D01*
X84952380Y-81154761D02*
X84380952Y-81583333D01*
X83952380Y-81154761D02*
X84523809Y-81726190D01*
X84571428Y-80726190D02*
X84571428Y-79964285D01*
G04 #@! TO.C,D6*
X114798822Y-80008705D02*
X114798822Y-79221303D01*
X114986299Y-79221303D01*
X115098785Y-79258799D01*
X115173775Y-79333789D01*
X115211271Y-79408780D01*
X115248766Y-79558761D01*
X115248766Y-79671247D01*
X115211271Y-79821229D01*
X115173775Y-79896219D01*
X115098785Y-79971210D01*
X114986299Y-80008705D01*
X114798822Y-80008705D01*
X115923682Y-79221303D02*
X115773701Y-79221303D01*
X115698710Y-79258799D01*
X115661215Y-79296294D01*
X115586224Y-79408780D01*
X115548729Y-79558761D01*
X115548729Y-79858724D01*
X115586224Y-79933715D01*
X115623719Y-79971210D01*
X115698710Y-80008705D01*
X115848691Y-80008705D01*
X115923682Y-79971210D01*
X115961177Y-79933715D01*
X115998673Y-79858724D01*
X115998673Y-79671247D01*
X115961177Y-79596257D01*
X115923682Y-79558761D01*
X115848691Y-79521266D01*
X115698710Y-79521266D01*
X115623719Y-79558761D01*
X115586224Y-79596257D01*
X115548729Y-79671247D01*
G04 #@! TO.C,RN7*
X118809523Y-94952380D02*
X118476190Y-94476190D01*
X118238095Y-94952380D02*
X118238095Y-93952380D01*
X118619047Y-93952380D01*
X118714285Y-94000000D01*
X118761904Y-94047619D01*
X118809523Y-94142857D01*
X118809523Y-94285714D01*
X118761904Y-94380952D01*
X118714285Y-94428571D01*
X118619047Y-94476190D01*
X118238095Y-94476190D01*
X119238095Y-94952380D02*
X119238095Y-93952380D01*
X119809523Y-94952380D01*
X119809523Y-93952380D01*
X120190476Y-93952380D02*
X120857142Y-93952380D01*
X120428571Y-94952380D01*
G04 #@! TO.C,D7*
X106798822Y-79896205D02*
X106798822Y-79108803D01*
X106986299Y-79108803D01*
X107098785Y-79146299D01*
X107173775Y-79221289D01*
X107211271Y-79296280D01*
X107248766Y-79446261D01*
X107248766Y-79558747D01*
X107211271Y-79708729D01*
X107173775Y-79783719D01*
X107098785Y-79858710D01*
X106986299Y-79896205D01*
X106798822Y-79896205D01*
X107511233Y-79108803D02*
X108036168Y-79108803D01*
X107698710Y-79896205D01*
G04 #@! TO.C,C2*
X136857142Y-85666666D02*
X136904761Y-85714285D01*
X136952380Y-85857142D01*
X136952380Y-85952380D01*
X136904761Y-86095238D01*
X136809523Y-86190476D01*
X136714285Y-86238095D01*
X136523809Y-86285714D01*
X136380952Y-86285714D01*
X136190476Y-86238095D01*
X136095238Y-86190476D01*
X136000000Y-86095238D01*
X135952380Y-85952380D01*
X135952380Y-85857142D01*
X136000000Y-85714285D01*
X136047619Y-85666666D01*
X136047619Y-85285714D02*
X136000000Y-85238095D01*
X135952380Y-85142857D01*
X135952380Y-84904761D01*
X136000000Y-84809523D01*
X136047619Y-84761904D01*
X136142857Y-84714285D01*
X136238095Y-84714285D01*
X136380952Y-84761904D01*
X136952380Y-85333333D01*
X136952380Y-84714285D01*
G04 #@! TO.C,RN6*
X122809523Y-94952380D02*
X122476190Y-94476190D01*
X122238095Y-94952380D02*
X122238095Y-93952380D01*
X122619047Y-93952380D01*
X122714285Y-94000000D01*
X122761904Y-94047619D01*
X122809523Y-94142857D01*
X122809523Y-94285714D01*
X122761904Y-94380952D01*
X122714285Y-94428571D01*
X122619047Y-94476190D01*
X122238095Y-94476190D01*
X123238095Y-94952380D02*
X123238095Y-93952380D01*
X123809523Y-94952380D01*
X123809523Y-93952380D01*
X124714285Y-93952380D02*
X124523809Y-93952380D01*
X124428571Y-94000000D01*
X124380952Y-94047619D01*
X124285714Y-94190476D01*
X124238095Y-94380952D01*
X124238095Y-94761904D01*
X124285714Y-94857142D01*
X124333333Y-94904761D01*
X124428571Y-94952380D01*
X124619047Y-94952380D01*
X124714285Y-94904761D01*
X124761904Y-94857142D01*
X124809523Y-94761904D01*
X124809523Y-94523809D01*
X124761904Y-94428571D01*
X124714285Y-94380952D01*
X124619047Y-94333333D01*
X124428571Y-94333333D01*
X124333333Y-94380952D01*
X124285714Y-94428571D01*
X124238095Y-94523809D01*
G04 #@! TO.C,C1*
X142857142Y-85666666D02*
X142904761Y-85714285D01*
X142952380Y-85857142D01*
X142952380Y-85952380D01*
X142904761Y-86095238D01*
X142809523Y-86190476D01*
X142714285Y-86238095D01*
X142523809Y-86285714D01*
X142380952Y-86285714D01*
X142190476Y-86238095D01*
X142095238Y-86190476D01*
X142000000Y-86095238D01*
X141952380Y-85952380D01*
X141952380Y-85857142D01*
X142000000Y-85714285D01*
X142047619Y-85666666D01*
X142952380Y-84714285D02*
X142952380Y-85285714D01*
X142952380Y-85000000D02*
X141952380Y-85000000D01*
X142095238Y-85095238D01*
X142190476Y-85190476D01*
X142238095Y-85285714D01*
G04 #@! TO.C,D5*
X133798822Y-80121205D02*
X133798822Y-79333803D01*
X133986299Y-79333803D01*
X134098785Y-79371299D01*
X134173775Y-79446289D01*
X134211271Y-79521280D01*
X134248766Y-79671261D01*
X134248766Y-79783747D01*
X134211271Y-79933729D01*
X134173775Y-80008719D01*
X134098785Y-80083710D01*
X133986299Y-80121205D01*
X133798822Y-80121205D01*
X134961177Y-79333803D02*
X134586224Y-79333803D01*
X134548729Y-79708757D01*
X134586224Y-79671261D01*
X134661215Y-79633766D01*
X134848691Y-79633766D01*
X134923682Y-79671261D01*
X134961177Y-79708757D01*
X134998673Y-79783747D01*
X134998673Y-79971224D01*
X134961177Y-80046215D01*
X134923682Y-80083710D01*
X134848691Y-80121205D01*
X134661215Y-80121205D01*
X134586224Y-80083710D01*
X134548729Y-80046215D01*
G04 #@! TO.C,RN5*
X126809523Y-94952380D02*
X126476190Y-94476190D01*
X126238095Y-94952380D02*
X126238095Y-93952380D01*
X126619047Y-93952380D01*
X126714285Y-94000000D01*
X126761904Y-94047619D01*
X126809523Y-94142857D01*
X126809523Y-94285714D01*
X126761904Y-94380952D01*
X126714285Y-94428571D01*
X126619047Y-94476190D01*
X126238095Y-94476190D01*
X127238095Y-94952380D02*
X127238095Y-93952380D01*
X127809523Y-94952380D01*
X127809523Y-93952380D01*
X128761904Y-93952380D02*
X128285714Y-93952380D01*
X128238095Y-94428571D01*
X128285714Y-94380952D01*
X128380952Y-94333333D01*
X128619047Y-94333333D01*
X128714285Y-94380952D01*
X128761904Y-94428571D01*
X128809523Y-94523809D01*
X128809523Y-94761904D01*
X128761904Y-94857142D01*
X128714285Y-94904761D01*
X128619047Y-94952380D01*
X128380952Y-94952380D01*
X128285714Y-94904761D01*
X128238095Y-94857142D01*
G04 #@! TO.C,D8*
X92298822Y-79896205D02*
X92298822Y-79108803D01*
X92486299Y-79108803D01*
X92598785Y-79146299D01*
X92673775Y-79221289D01*
X92711271Y-79296280D01*
X92748766Y-79446261D01*
X92748766Y-79558747D01*
X92711271Y-79708729D01*
X92673775Y-79783719D01*
X92598785Y-79858710D01*
X92486299Y-79896205D01*
X92298822Y-79896205D01*
X93198710Y-79446261D02*
X93123719Y-79408766D01*
X93086224Y-79371271D01*
X93048729Y-79296280D01*
X93048729Y-79258785D01*
X93086224Y-79183794D01*
X93123719Y-79146299D01*
X93198710Y-79108803D01*
X93348691Y-79108803D01*
X93423682Y-79146299D01*
X93461177Y-79183794D01*
X93498673Y-79258785D01*
X93498673Y-79296280D01*
X93461177Y-79371271D01*
X93423682Y-79408766D01*
X93348691Y-79446261D01*
X93198710Y-79446261D01*
X93123719Y-79483757D01*
X93086224Y-79521252D01*
X93048729Y-79596243D01*
X93048729Y-79746224D01*
X93086224Y-79821215D01*
X93123719Y-79858710D01*
X93198710Y-79896205D01*
X93348691Y-79896205D01*
X93423682Y-79858710D01*
X93461177Y-79821215D01*
X93498673Y-79746224D01*
X93498673Y-79596243D01*
X93461177Y-79521252D01*
X93423682Y-79483757D01*
X93348691Y-79446261D01*
G04 #@! TO.C,U1*
X138738095Y-78452380D02*
X138738095Y-79261904D01*
X138785714Y-79357142D01*
X138833333Y-79404761D01*
X138928571Y-79452380D01*
X139119047Y-79452380D01*
X139214285Y-79404761D01*
X139261904Y-79357142D01*
X139309523Y-79261904D01*
X139309523Y-78452380D01*
X140309523Y-79452380D02*
X139738095Y-79452380D01*
X140023809Y-79452380D02*
X140023809Y-78452380D01*
X139928571Y-78595238D01*
X139833333Y-78690476D01*
X139738095Y-78738095D01*
G04 #@! TO.C,L1*
X139333333Y-89952380D02*
X138857142Y-89952380D01*
X138857142Y-88952380D01*
X140190476Y-89952380D02*
X139619047Y-89952380D01*
X139904761Y-89952380D02*
X139904761Y-88952380D01*
X139809523Y-89095238D01*
X139714285Y-89190476D01*
X139619047Y-89238095D01*
D12*
G04 #@! TO.C,J2*
X83180000Y-74050000D02*
X83180000Y-70450000D01*
X77700000Y-75930000D02*
X81300000Y-75930000D01*
X75820000Y-74050000D02*
X75820000Y-70450000D01*
X77700000Y-68570000D02*
X81300000Y-68570000D01*
G04 #@! TO.C,J1*
X138500000Y-72170000D02*
X139830000Y-72170000D01*
X139830000Y-77370000D02*
X88910000Y-77370000D01*
X139830000Y-74770000D02*
X139830000Y-77370000D01*
X88910000Y-72170000D02*
X88910000Y-77370000D01*
X137230000Y-74770000D02*
X139830000Y-74770000D01*
X139830000Y-72170000D02*
X139830000Y-73500000D01*
X137230000Y-72170000D02*
X88910000Y-72170000D01*
X137230000Y-72170000D02*
X137230000Y-74770000D01*
G04 #@! TO.C,RN8*
X116680000Y-96250000D02*
X116680000Y-96750000D01*
X114320000Y-96250000D02*
X114320000Y-96750000D01*
G04 #@! TO.C,J3*
X77700000Y-78070000D02*
X81300000Y-78070000D01*
X77700000Y-85430000D02*
X81300000Y-85430000D01*
X75820000Y-83550000D02*
X75820000Y-79950000D01*
X83180000Y-83550000D02*
X83180000Y-79950000D01*
D13*
G04 #@! TO.C,D6*
X116630000Y-80152500D02*
X116630000Y-79152500D01*
X119130000Y-79152500D02*
X119130000Y-80152500D01*
D12*
G04 #@! TO.C,RN7*
X120680000Y-96250000D02*
X120680000Y-96750000D01*
X118320000Y-96250000D02*
X118320000Y-96750000D01*
D13*
G04 #@! TO.C,D7*
X106130000Y-79040000D02*
X106130000Y-80040000D01*
X103630000Y-80040000D02*
X103630000Y-79040000D01*
D12*
G04 #@! TO.C,C2*
X137410000Y-81288748D02*
X137410000Y-82711252D01*
X135590000Y-81288748D02*
X135590000Y-82711252D01*
G04 #@! TO.C,RN6*
X122320000Y-96250000D02*
X122320000Y-96750000D01*
X124680000Y-96250000D02*
X124680000Y-96750000D01*
G04 #@! TO.C,C1*
X141590000Y-81288748D02*
X141590000Y-82711252D01*
X143410000Y-81288748D02*
X143410000Y-82711252D01*
D13*
G04 #@! TO.C,D5*
X130630000Y-80152500D02*
X130630000Y-79152500D01*
X133130000Y-79152500D02*
X133130000Y-80152500D01*
D12*
G04 #@! TO.C,RN5*
X128680000Y-96250000D02*
X128680000Y-96750000D01*
X126320000Y-96250000D02*
X126320000Y-96750000D01*
D13*
G04 #@! TO.C,D8*
X94130000Y-80040000D02*
X94130000Y-79040000D01*
X96630000Y-79040000D02*
X96630000Y-80040000D01*
D10*
G04 #@! TO.C,U1*
X138375000Y-82000000D02*
X138375000Y-80500000D01*
X140625000Y-83500000D02*
X140625000Y-80500000D01*
D12*
G04 #@! TO.C,L1*
X141000000Y-84900000D02*
X138000000Y-84900000D01*
X141000000Y-88100000D02*
X138000000Y-88100000D01*
G04 #@! TD*
M02*
