G04 #@! TF.GenerationSoftware,KiCad,Pcbnew,6.0.7-1.fc35*
G04 #@! TF.CreationDate,2022-09-05T19:11:37-05:00*
G04 #@! TF.ProjectId,pmod-adapter,706d6f64-2d61-4646-9170-7465722e6b69,rev?*
G04 #@! TF.SameCoordinates,Original*
G04 #@! TF.FileFunction,Legend,Bot*
G04 #@! TF.FilePolarity,Positive*
%FSLAX46Y46*%
G04 Gerber Fmt 4.6, Leading zero omitted, Abs format (unit mm)*
G04 Created by KiCad (PCBNEW 6.0.7-1.fc35) date 2022-09-05 19:11:37*
%MOMM*%
%LPD*%
G01*
G04 APERTURE LIST*
%ADD10C,0.150000*%
%ADD11C,0.127000*%
%ADD12C,0.120000*%
%ADD13C,0.200000*%
G04 APERTURE END LIST*
D10*
G04 #@! TO.C,D3*
X129081177Y-67081205D02*
X129081177Y-66293803D01*
X128893701Y-66293803D01*
X128781215Y-66331299D01*
X128706224Y-66406289D01*
X128668729Y-66481280D01*
X128631233Y-66631261D01*
X128631233Y-66743747D01*
X128668729Y-66893729D01*
X128706224Y-66968719D01*
X128781215Y-67043710D01*
X128893701Y-67081205D01*
X129081177Y-67081205D01*
X128368766Y-66293803D02*
X127881327Y-66293803D01*
X128143794Y-66593766D01*
X128031308Y-66593766D01*
X127956317Y-66631261D01*
X127918822Y-66668757D01*
X127881327Y-66743747D01*
X127881327Y-66931224D01*
X127918822Y-67006215D01*
X127956317Y-67043710D01*
X128031308Y-67081205D01*
X128256280Y-67081205D01*
X128331271Y-67043710D01*
X128368766Y-67006215D01*
G04 #@! TO.C,RN3*
X116190476Y-89452380D02*
X116523809Y-88976190D01*
X116761904Y-89452380D02*
X116761904Y-88452380D01*
X116380952Y-88452380D01*
X116285714Y-88500000D01*
X116238095Y-88547619D01*
X116190476Y-88642857D01*
X116190476Y-88785714D01*
X116238095Y-88880952D01*
X116285714Y-88928571D01*
X116380952Y-88976190D01*
X116761904Y-88976190D01*
X115761904Y-89452380D02*
X115761904Y-88452380D01*
X115190476Y-89452380D01*
X115190476Y-88452380D01*
X114809523Y-88452380D02*
X114190476Y-88452380D01*
X114523809Y-88833333D01*
X114380952Y-88833333D01*
X114285714Y-88880952D01*
X114238095Y-88928571D01*
X114190476Y-89023809D01*
X114190476Y-89261904D01*
X114238095Y-89357142D01*
X114285714Y-89404761D01*
X114380952Y-89452380D01*
X114666666Y-89452380D01*
X114761904Y-89404761D01*
X114809523Y-89357142D01*
G04 #@! TO.C,D7*
X101743705Y-81418822D02*
X100956303Y-81418822D01*
X100956303Y-81606299D01*
X100993799Y-81718785D01*
X101068789Y-81793775D01*
X101143780Y-81831271D01*
X101293761Y-81868766D01*
X101406247Y-81868766D01*
X101556229Y-81831271D01*
X101631219Y-81793775D01*
X101706210Y-81718785D01*
X101743705Y-81606299D01*
X101743705Y-81418822D01*
X100956303Y-82131233D02*
X100956303Y-82656168D01*
X101743705Y-82318710D01*
G04 #@! TO.C,RN4*
X112190476Y-89452380D02*
X112523809Y-88976190D01*
X112761904Y-89452380D02*
X112761904Y-88452380D01*
X112380952Y-88452380D01*
X112285714Y-88500000D01*
X112238095Y-88547619D01*
X112190476Y-88642857D01*
X112190476Y-88785714D01*
X112238095Y-88880952D01*
X112285714Y-88928571D01*
X112380952Y-88976190D01*
X112761904Y-88976190D01*
X111761904Y-89452380D02*
X111761904Y-88452380D01*
X111190476Y-89452380D01*
X111190476Y-88452380D01*
X110285714Y-88785714D02*
X110285714Y-89452380D01*
X110523809Y-88404761D02*
X110761904Y-89119047D01*
X110142857Y-89119047D01*
G04 #@! TO.C,D1*
X143099956Y-70918822D02*
X142312554Y-70918822D01*
X142312554Y-71106299D01*
X142350050Y-71218785D01*
X142425040Y-71293775D01*
X142500031Y-71331271D01*
X142650012Y-71368766D01*
X142762498Y-71368766D01*
X142912480Y-71331271D01*
X142987470Y-71293775D01*
X143062461Y-71218785D01*
X143099956Y-71106299D01*
X143099956Y-70918822D01*
X143099956Y-72118673D02*
X143099956Y-71668729D01*
X143099956Y-71893701D02*
X142312554Y-71893701D01*
X142425040Y-71818710D01*
X142500031Y-71743719D01*
X142537526Y-71668729D01*
G04 #@! TO.C,J5*
X143467152Y-92232535D02*
X143467152Y-93233576D01*
X143533888Y-93433784D01*
X143667360Y-93567256D01*
X143867568Y-93633992D01*
X144001040Y-93633992D01*
X142132431Y-92232535D02*
X142799791Y-92232535D01*
X142866527Y-92899895D01*
X142799791Y-92833159D01*
X142666319Y-92766423D01*
X142332639Y-92766423D01*
X142199167Y-92833159D01*
X142132431Y-92899895D01*
X142065695Y-93033368D01*
X142065695Y-93367048D01*
X142132431Y-93500520D01*
X142199167Y-93567256D01*
X142332639Y-93633992D01*
X142666319Y-93633992D01*
X142799791Y-93567256D01*
X142866527Y-93500520D01*
G04 #@! TO.C,D5*
X106581177Y-66968705D02*
X106581177Y-66181303D01*
X106393701Y-66181303D01*
X106281215Y-66218799D01*
X106206224Y-66293789D01*
X106168729Y-66368780D01*
X106131233Y-66518761D01*
X106131233Y-66631247D01*
X106168729Y-66781229D01*
X106206224Y-66856219D01*
X106281215Y-66931210D01*
X106393701Y-66968705D01*
X106581177Y-66968705D01*
X105418822Y-66181303D02*
X105793775Y-66181303D01*
X105831271Y-66556257D01*
X105793775Y-66518761D01*
X105718785Y-66481266D01*
X105531308Y-66481266D01*
X105456317Y-66518761D01*
X105418822Y-66556257D01*
X105381327Y-66631247D01*
X105381327Y-66818724D01*
X105418822Y-66893715D01*
X105456317Y-66931210D01*
X105531308Y-66968705D01*
X105718785Y-66968705D01*
X105793775Y-66931210D01*
X105831271Y-66893715D01*
G04 #@! TO.C,C5*
X139666666Y-83657142D02*
X139714285Y-83704761D01*
X139857142Y-83752380D01*
X139952380Y-83752380D01*
X140095238Y-83704761D01*
X140190476Y-83609523D01*
X140238095Y-83514285D01*
X140285714Y-83323809D01*
X140285714Y-83180952D01*
X140238095Y-82990476D01*
X140190476Y-82895238D01*
X140095238Y-82800000D01*
X139952380Y-82752380D01*
X139857142Y-82752380D01*
X139714285Y-82800000D01*
X139666666Y-82847619D01*
X138761904Y-82752380D02*
X139238095Y-82752380D01*
X139285714Y-83228571D01*
X139238095Y-83180952D01*
X139142857Y-83133333D01*
X138904761Y-83133333D01*
X138809523Y-83180952D01*
X138761904Y-83228571D01*
X138714285Y-83323809D01*
X138714285Y-83561904D01*
X138761904Y-83657142D01*
X138809523Y-83704761D01*
X138904761Y-83752380D01*
X139142857Y-83752380D01*
X139238095Y-83704761D01*
X139285714Y-83657142D01*
G04 #@! TO.C,RN1*
X124190476Y-89452380D02*
X124523809Y-88976190D01*
X124761904Y-89452380D02*
X124761904Y-88452380D01*
X124380952Y-88452380D01*
X124285714Y-88500000D01*
X124238095Y-88547619D01*
X124190476Y-88642857D01*
X124190476Y-88785714D01*
X124238095Y-88880952D01*
X124285714Y-88928571D01*
X124380952Y-88976190D01*
X124761904Y-88976190D01*
X123761904Y-89452380D02*
X123761904Y-88452380D01*
X123190476Y-89452380D01*
X123190476Y-88452380D01*
X122190476Y-89452380D02*
X122761904Y-89452380D01*
X122476190Y-89452380D02*
X122476190Y-88452380D01*
X122571428Y-88595238D01*
X122666666Y-88690476D01*
X122761904Y-88738095D01*
G04 #@! TO.C,RN2*
X120190476Y-89452380D02*
X120523809Y-88976190D01*
X120761904Y-89452380D02*
X120761904Y-88452380D01*
X120380952Y-88452380D01*
X120285714Y-88500000D01*
X120238095Y-88547619D01*
X120190476Y-88642857D01*
X120190476Y-88785714D01*
X120238095Y-88880952D01*
X120285714Y-88928571D01*
X120380952Y-88976190D01*
X120761904Y-88976190D01*
X119761904Y-89452380D02*
X119761904Y-88452380D01*
X119190476Y-89452380D01*
X119190476Y-88452380D01*
X118761904Y-88547619D02*
X118714285Y-88500000D01*
X118619047Y-88452380D01*
X118380952Y-88452380D01*
X118285714Y-88500000D01*
X118238095Y-88547619D01*
X118190476Y-88642857D01*
X118190476Y-88738095D01*
X118238095Y-88880952D01*
X118809523Y-89452380D01*
X118190476Y-89452380D01*
D11*
G04 #@! TO.C,D3*
X132250000Y-67112500D02*
X132250000Y-66112500D01*
X129750000Y-66112500D02*
X129750000Y-67112500D01*
D12*
G04 #@! TO.C,RN3*
X114320000Y-91250000D02*
X114320000Y-90750000D01*
X116680000Y-91250000D02*
X116680000Y-90750000D01*
D11*
G04 #@! TO.C,D7*
X101000000Y-80750000D02*
X102000000Y-80750000D01*
X102000000Y-78250000D02*
X101000000Y-78250000D01*
D12*
G04 #@! TO.C,RN4*
X112680000Y-91250000D02*
X112680000Y-90750000D01*
X110320000Y-91250000D02*
X110320000Y-90750000D01*
D11*
G04 #@! TO.C,D1*
X143243751Y-72750000D02*
X142243751Y-72750000D01*
X142243751Y-75250000D02*
X143243751Y-75250000D01*
G04 #@! TO.C,J5*
X141400000Y-99400000D02*
X139600000Y-99400000D01*
X103600000Y-99400000D02*
X105400000Y-99400000D01*
X141400000Y-99400000D02*
X141400000Y-97400000D01*
X103600000Y-92600000D02*
X105400000Y-92600000D01*
X141400000Y-92600000D02*
X139600000Y-92600000D01*
X141400000Y-94600000D02*
X141400000Y-92600000D01*
X103600000Y-99400000D02*
X103600000Y-97400000D01*
X103600000Y-94600000D02*
X103600000Y-92600000D01*
D13*
X138207000Y-100115000D02*
G75*
G03*
X138207000Y-100115000I-100000J0D01*
G01*
D11*
G04 #@! TO.C,D5*
X109750000Y-67000000D02*
X109750000Y-66000000D01*
X107250000Y-66000000D02*
X107250000Y-67000000D01*
D12*
G04 #@! TO.C,C5*
X136740000Y-84240000D02*
X136740000Y-85940000D01*
X142260000Y-85304437D02*
X142260000Y-85940000D01*
X143125000Y-85315000D02*
X142500000Y-85315000D01*
X141195563Y-89760000D02*
X136740000Y-89760000D01*
X142260000Y-88695563D02*
X142260000Y-88060000D01*
X136740000Y-89760000D02*
X136740000Y-88060000D01*
X142260000Y-88695563D02*
X141195563Y-89760000D01*
X142260000Y-85304437D02*
X141195563Y-84240000D01*
X142812500Y-85002500D02*
X142812500Y-85627500D01*
X141195563Y-84240000D02*
X136740000Y-84240000D01*
G04 #@! TO.C,RN1*
X124680000Y-91250000D02*
X124680000Y-90750000D01*
X122320000Y-91250000D02*
X122320000Y-90750000D01*
G04 #@! TO.C,RN2*
X118320000Y-91250000D02*
X118320000Y-90750000D01*
X120680000Y-91250000D02*
X120680000Y-90750000D01*
G04 #@! TD*
M02*
