G04 #@! TF.GenerationSoftware,KiCad,Pcbnew,6.0.7-1.fc35*
G04 #@! TF.CreationDate,2022-09-05T19:11:37-05:00*
G04 #@! TF.ProjectId,pmod-adapter,706d6f64-2d61-4646-9170-7465722e6b69,rev?*
G04 #@! TF.SameCoordinates,Original*
G04 #@! TF.FileFunction,Paste,Top*
G04 #@! TF.FilePolarity,Positive*
%FSLAX46Y46*%
G04 Gerber Fmt 4.6, Leading zero omitted, Abs format (unit mm)*
G04 Created by KiCad (PCBNEW 6.0.7-1.fc35) date 2022-09-05 19:11:37*
%MOMM*%
%LPD*%
G01*
G04 APERTURE LIST*
G04 Aperture macros list*
%AMRoundRect*
0 Rectangle with rounded corners*
0 $1 Rounding radius*
0 $2 $3 $4 $5 $6 $7 $8 $9 X,Y pos of 4 corners*
0 Add a 4 corners polygon primitive as box body*
4,1,4,$2,$3,$4,$5,$6,$7,$8,$9,$2,$3,0*
0 Add four circle primitives for the rounded corners*
1,1,$1+$1,$2,$3*
1,1,$1+$1,$4,$5*
1,1,$1+$1,$6,$7*
1,1,$1+$1,$8,$9*
0 Add four rect primitives between the rounded corners*
20,1,$1+$1,$2,$3,$4,$5,0*
20,1,$1+$1,$4,$5,$6,$7,0*
20,1,$1+$1,$6,$7,$8,$9,0*
20,1,$1+$1,$8,$9,$2,$3,0*%
G04 Aperture macros list end*
%ADD10C,0.150000*%
%ADD11R,0.400000X0.500000*%
%ADD12R,0.300000X0.500000*%
%ADD13R,0.200000X0.475000*%
%ADD14R,0.475000X0.200000*%
%ADD15RoundRect,0.225000X0.225000X0.250000X-0.225000X0.250000X-0.225000X-0.250000X0.225000X-0.250000X0*%
%ADD16RoundRect,0.225000X-0.250000X0.225000X-0.250000X-0.225000X0.250000X-0.225000X0.250000X0.225000X0*%
%ADD17RoundRect,0.225000X0.250000X-0.225000X0.250000X0.225000X-0.250000X0.225000X-0.250000X-0.225000X0*%
G04 APERTURE END LIST*
D10*
X120773809Y-63059523D02*
X120535714Y-62773809D01*
X120345238Y-63059523D02*
X120345238Y-62392857D01*
X120630952Y-62392857D01*
X120726190Y-62440476D01*
X120773809Y-62535714D01*
X120773809Y-62630952D01*
X120726190Y-62726190D01*
X120630952Y-62773809D01*
X120345238Y-62773809D01*
X120535714Y-62059523D02*
X120297619Y-62107142D01*
X120059523Y-62250000D01*
X119916666Y-62488095D01*
X119869047Y-62726190D01*
X119916666Y-62964285D01*
X120059523Y-63202380D01*
X120297619Y-63345238D01*
X120535714Y-63392857D01*
X120773809Y-63345238D01*
X121011904Y-63202380D01*
X121154761Y-62964285D01*
X121202380Y-62726190D01*
X121154761Y-62488095D01*
X121011904Y-62250000D01*
X120773809Y-62107142D01*
X120535714Y-62059523D01*
X122440476Y-62440476D02*
X122345238Y-62392857D01*
X122154761Y-62392857D01*
X122059523Y-62440476D01*
X121964285Y-62535714D01*
X121916666Y-62630952D01*
X121916666Y-62821428D01*
X121964285Y-62916666D01*
X122059523Y-63011904D01*
X122154761Y-63059523D01*
X122345238Y-63059523D01*
X122440476Y-63011904D01*
X122250000Y-62059523D02*
X122011904Y-62107142D01*
X121773809Y-62250000D01*
X121630952Y-62488095D01*
X121583333Y-62726190D01*
X121630952Y-62964285D01*
X121773809Y-63202380D01*
X122011904Y-63345238D01*
X122250000Y-63392857D01*
X122488095Y-63345238D01*
X122726190Y-63202380D01*
X122869047Y-62964285D01*
X122916666Y-62726190D01*
X122869047Y-62488095D01*
X122726190Y-62250000D01*
X122488095Y-62107142D01*
X122250000Y-62059523D01*
X124202380Y-63059523D02*
X123964285Y-62773809D01*
X123773809Y-63059523D02*
X123773809Y-62392857D01*
X124059523Y-62392857D01*
X124154761Y-62440476D01*
X124202380Y-62535714D01*
X124202380Y-62630952D01*
X124154761Y-62726190D01*
X124059523Y-62773809D01*
X123773809Y-62773809D01*
X123964285Y-62059523D02*
X123726190Y-62107142D01*
X123488095Y-62250000D01*
X123345238Y-62488095D01*
X123297619Y-62726190D01*
X123345238Y-62964285D01*
X123488095Y-63202380D01*
X123726190Y-63345238D01*
X123964285Y-63392857D01*
X124202380Y-63345238D01*
X124440476Y-63202380D01*
X124583333Y-62964285D01*
X124630952Y-62726190D01*
X124583333Y-62488095D01*
X124440476Y-62250000D01*
X124202380Y-62107142D01*
X123964285Y-62059523D01*
D11*
G04 #@! TO.C,RN8*
X114750000Y-101500000D03*
D12*
X115250000Y-101500000D03*
X115750000Y-101500000D03*
D11*
X116250000Y-101500000D03*
X116250000Y-100500000D03*
D12*
X115750000Y-100500000D03*
X115250000Y-100500000D03*
D11*
X114750000Y-100500000D03*
G04 #@! TD*
D13*
G04 #@! TO.C,D6*
X109500000Y-66887500D03*
X109500000Y-66112500D03*
X108500000Y-66112500D03*
X109000000Y-66112500D03*
X109000000Y-66887500D03*
X108000000Y-66887500D03*
X108000000Y-66112500D03*
X108500000Y-66887500D03*
X107500000Y-66887500D03*
X107500000Y-66112500D03*
G04 #@! TD*
D11*
G04 #@! TO.C,RN7*
X118750000Y-101500000D03*
D12*
X119250000Y-101500000D03*
X119750000Y-101500000D03*
D11*
X120250000Y-101500000D03*
X120250000Y-100500000D03*
D12*
X119750000Y-100500000D03*
X119250000Y-100500000D03*
D11*
X118750000Y-100500000D03*
G04 #@! TD*
D14*
G04 #@! TO.C,D2*
X142356251Y-75000000D03*
X143131251Y-75000000D03*
X143131251Y-74000000D03*
X143131251Y-74500000D03*
X142356251Y-74500000D03*
X142356251Y-73500000D03*
X143131251Y-73500000D03*
X142356251Y-74000000D03*
X143131251Y-73000000D03*
X142356251Y-73000000D03*
G04 #@! TD*
D15*
G04 #@! TO.C,C3*
X116775000Y-66000000D03*
X115225000Y-66000000D03*
G04 #@! TD*
G04 #@! TO.C,C2*
X139775000Y-66000000D03*
X138225000Y-66000000D03*
G04 #@! TD*
D16*
G04 #@! TO.C,C4*
X101000000Y-71225000D03*
X101000000Y-72775000D03*
G04 #@! TD*
D13*
G04 #@! TO.C,D4*
X132000000Y-66225000D03*
X132000000Y-67000000D03*
X131000000Y-66225000D03*
X131500000Y-67000000D03*
X131500000Y-66225000D03*
X130500000Y-67000000D03*
X130500000Y-66225000D03*
X131000000Y-67000000D03*
X130000000Y-66225000D03*
X130000000Y-67000000D03*
G04 #@! TD*
D11*
G04 #@! TO.C,RN6*
X122750000Y-101500000D03*
D12*
X123250000Y-101500000D03*
X123750000Y-101500000D03*
D11*
X124250000Y-101500000D03*
X124250000Y-100500000D03*
D12*
X123750000Y-100500000D03*
X123250000Y-100500000D03*
D11*
X122750000Y-100500000D03*
G04 #@! TD*
D17*
G04 #@! TO.C,C1*
X144000000Y-82775000D03*
X144000000Y-81225000D03*
G04 #@! TD*
D11*
G04 #@! TO.C,RN5*
X126750000Y-101500000D03*
D12*
X127250000Y-101500000D03*
X127750000Y-101500000D03*
D11*
X128250000Y-101500000D03*
X128250000Y-100500000D03*
D12*
X127750000Y-100500000D03*
X127250000Y-100500000D03*
D11*
X126750000Y-100500000D03*
G04 #@! TD*
D14*
G04 #@! TO.C,D8*
X101112500Y-78500000D03*
X101887500Y-78500000D03*
X101112500Y-79500000D03*
X101112500Y-79000000D03*
X101887500Y-79000000D03*
X101112500Y-80000000D03*
X101887500Y-80000000D03*
X101887500Y-79500000D03*
X101887500Y-80500000D03*
X101112500Y-80500000D03*
G04 #@! TD*
M02*
