G04 #@! TF.GenerationSoftware,KiCad,Pcbnew,6.0.7-1.fc35*
G04 #@! TF.CreationDate,2022-09-05T19:11:37-05:00*
G04 #@! TF.ProjectId,pmod-adapter,706d6f64-2d61-4646-9170-7465722e6b69,rev?*
G04 #@! TF.SameCoordinates,Original*
G04 #@! TF.FileFunction,Copper,L1,Top*
G04 #@! TF.FilePolarity,Positive*
%FSLAX46Y46*%
G04 Gerber Fmt 4.6, Leading zero omitted, Abs format (unit mm)*
G04 Created by KiCad (PCBNEW 6.0.7-1.fc35) date 2022-09-05 19:11:37*
%MOMM*%
%LPD*%
G01*
G04 APERTURE LIST*
G04 Aperture macros list*
%AMRoundRect*
0 Rectangle with rounded corners*
0 $1 Rounding radius*
0 $2 $3 $4 $5 $6 $7 $8 $9 X,Y pos of 4 corners*
0 Add a 4 corners polygon primitive as box body*
4,1,4,$2,$3,$4,$5,$6,$7,$8,$9,$2,$3,0*
0 Add four circle primitives for the rounded corners*
1,1,$1+$1,$2,$3*
1,1,$1+$1,$4,$5*
1,1,$1+$1,$6,$7*
1,1,$1+$1,$8,$9*
0 Add four rect primitives between the rounded corners*
20,1,$1+$1,$2,$3,$4,$5,0*
20,1,$1+$1,$4,$5,$6,$7,0*
20,1,$1+$1,$6,$7,$8,$9,0*
20,1,$1+$1,$8,$9,$2,$3,0*%
G04 Aperture macros list end*
G04 #@! TA.AperFunction,SMDPad,CuDef*
%ADD10R,0.400000X0.500000*%
G04 #@! TD*
G04 #@! TA.AperFunction,SMDPad,CuDef*
%ADD11R,0.300000X0.500000*%
G04 #@! TD*
G04 #@! TA.AperFunction,SMDPad,CuDef*
%ADD12R,0.200000X0.475000*%
G04 #@! TD*
G04 #@! TA.AperFunction,ComponentPad*
%ADD13R,1.700000X1.700000*%
G04 #@! TD*
G04 #@! TA.AperFunction,ComponentPad*
%ADD14O,1.700000X1.700000*%
G04 #@! TD*
G04 #@! TA.AperFunction,SMDPad,CuDef*
%ADD15R,0.475000X0.200000*%
G04 #@! TD*
G04 #@! TA.AperFunction,SMDPad,CuDef*
%ADD16RoundRect,0.225000X0.225000X0.250000X-0.225000X0.250000X-0.225000X-0.250000X0.225000X-0.250000X0*%
G04 #@! TD*
G04 #@! TA.AperFunction,SMDPad,CuDef*
%ADD17RoundRect,0.225000X-0.250000X0.225000X-0.250000X-0.225000X0.250000X-0.225000X0.250000X0.225000X0*%
G04 #@! TD*
G04 #@! TA.AperFunction,SMDPad,CuDef*
%ADD18RoundRect,0.225000X0.250000X-0.225000X0.250000X0.225000X-0.250000X0.225000X-0.250000X-0.225000X0*%
G04 #@! TD*
G04 #@! TA.AperFunction,ViaPad*
%ADD19C,0.800000*%
G04 #@! TD*
G04 #@! TA.AperFunction,Conductor*
%ADD20C,0.500000*%
G04 #@! TD*
G04 #@! TA.AperFunction,Conductor*
%ADD21C,0.150000*%
G04 #@! TD*
G04 #@! TA.AperFunction,Conductor*
%ADD22C,0.220000*%
G04 #@! TD*
G04 #@! TA.AperFunction,Conductor*
%ADD23C,0.200000*%
G04 #@! TD*
G04 APERTURE END LIST*
D10*
G04 #@! TO.P,RN8,1,R1.1*
G04 #@! TO.N,Net-(J5-Pad61)*
X114750000Y-101500000D03*
D11*
G04 #@! TO.P,RN8,2,R2.1*
G04 #@! TO.N,Net-(J5-Pad59)*
X115250000Y-101500000D03*
G04 #@! TO.P,RN8,3,R3.1*
G04 #@! TO.N,Net-(J5-Pad57)*
X115750000Y-101500000D03*
D10*
G04 #@! TO.P,RN8,4,R4.1*
G04 #@! TO.N,Net-(J5-Pad55)*
X116250000Y-101500000D03*
G04 #@! TO.P,RN8,5,R4.2*
G04 #@! TO.N,/PIN_D26 P*
X116250000Y-100500000D03*
D11*
G04 #@! TO.P,RN8,6,R3.2*
G04 #@! TO.N,/PIN_D26 N*
X115750000Y-100500000D03*
G04 #@! TO.P,RN8,7,R2.2*
G04 #@! TO.N,/PIN_A23 P*
X115250000Y-100500000D03*
D10*
G04 #@! TO.P,RN8,8,R1.2*
G04 #@! TO.N,/PIN_A23 N*
X114750000Y-100500000D03*
G04 #@! TD*
D12*
G04 #@! TO.P,D6,1,K1*
G04 #@! TO.N,/PIN_G25 P*
X109500000Y-66887500D03*
X109500000Y-66112500D03*
G04 #@! TO.P,D6,2,A*
G04 #@! TO.N,GND*
X108500000Y-66112500D03*
G04 #@! TO.P,D6,3,K2*
G04 #@! TO.N,/PIN_G25 N*
X109000000Y-66112500D03*
X109000000Y-66887500D03*
G04 #@! TO.P,D6,4,K3*
G04 #@! TO.N,/PIN_F25 P*
X108000000Y-66887500D03*
X108000000Y-66112500D03*
G04 #@! TO.P,D6,5,A*
G04 #@! TO.N,GND*
X108500000Y-66887500D03*
G04 #@! TO.P,D6,6,K4*
G04 #@! TO.N,/PIN_F25 N*
X107500000Y-66887500D03*
X107500000Y-66112500D03*
G04 #@! TD*
D13*
G04 #@! TO.P,J1,1,Pin_1*
G04 #@! TO.N,/PIN_N19 N*
X147000000Y-70300000D03*
D14*
G04 #@! TO.P,J1,2,Pin_2*
G04 #@! TO.N,/PIN_N19 P*
X147000000Y-72840000D03*
G04 #@! TO.P,J1,3,Pin_3*
G04 #@! TO.N,/PIN_L22 N*
X147000000Y-75380000D03*
G04 #@! TO.P,J1,4,Pin_4*
G04 #@! TO.N,/PIN_L22 P*
X147000000Y-77920000D03*
G04 #@! TO.P,J1,5,Pin_5*
G04 #@! TO.N,GND*
X147000000Y-80460000D03*
G04 #@! TO.P,J1,6,Pin_6*
G04 #@! TO.N,+3.3V*
X147000000Y-83000000D03*
G04 #@! TO.P,J1,7,Pin_7*
G04 #@! TO.N,/PIN_J24 N*
X149540000Y-70300000D03*
G04 #@! TO.P,J1,8,Pin_8*
G04 #@! TO.N,/PIN_J24 P*
X149540000Y-72840000D03*
G04 #@! TO.P,J1,9,Pin_9*
G04 #@! TO.N,/PIN_M24 N*
X149540000Y-75380000D03*
G04 #@! TO.P,J1,10,Pin_10*
G04 #@! TO.N,/PIN_M24 P*
X149540000Y-77920000D03*
G04 #@! TO.P,J1,11,Pin_11*
G04 #@! TO.N,GND*
X149540000Y-80460000D03*
G04 #@! TO.P,J1,12,Pin_12*
G04 #@! TO.N,+3.3V*
X149540000Y-83000000D03*
G04 #@! TD*
D10*
G04 #@! TO.P,RN7,1,R1.1*
G04 #@! TO.N,Net-(J5-Pad51)*
X118750000Y-101500000D03*
D11*
G04 #@! TO.P,RN7,2,R2.1*
G04 #@! TO.N,Net-(J5-Pad49)*
X119250000Y-101500000D03*
G04 #@! TO.P,RN7,3,R3.1*
G04 #@! TO.N,Net-(J5-Pad47)*
X119750000Y-101500000D03*
D10*
G04 #@! TO.P,RN7,4,R4.1*
G04 #@! TO.N,Net-(J5-Pad45)*
X120250000Y-101500000D03*
G04 #@! TO.P,RN7,5,R4.2*
G04 #@! TO.N,/PIN_G25 P*
X120250000Y-100500000D03*
D11*
G04 #@! TO.P,RN7,6,R3.2*
G04 #@! TO.N,/PIN_G25 N*
X119750000Y-100500000D03*
G04 #@! TO.P,RN7,7,R2.2*
G04 #@! TO.N,/PIN_F25 P*
X119250000Y-100500000D03*
D10*
G04 #@! TO.P,RN7,8,R1.2*
G04 #@! TO.N,/PIN_F25 N*
X118750000Y-100500000D03*
G04 #@! TD*
D13*
G04 #@! TO.P,J2,1,Pin_1*
G04 #@! TO.N,/PIN_J26 N*
X127430000Y-63000000D03*
D14*
G04 #@! TO.P,J2,2,Pin_2*
G04 #@! TO.N,/PIN_J26 P*
X129970000Y-63000000D03*
G04 #@! TO.P,J2,3,Pin_3*
G04 #@! TO.N,/PIN_J21 N*
X132510000Y-63000000D03*
G04 #@! TO.P,J2,4,Pin_4*
G04 #@! TO.N,/PIN_J21 P*
X135050000Y-63000000D03*
G04 #@! TO.P,J2,5,Pin_5*
G04 #@! TO.N,GND*
X137590000Y-63000000D03*
G04 #@! TO.P,J2,6,Pin_6*
G04 #@! TO.N,+3.3V*
X140130000Y-63000000D03*
G04 #@! TO.P,J2,7,Pin_7*
G04 #@! TO.N,/PIN_E21 N*
X127430000Y-60460000D03*
G04 #@! TO.P,J2,8,Pin_8*
G04 #@! TO.N,/PIN_E21 P*
X129970000Y-60460000D03*
G04 #@! TO.P,J2,9,Pin_9*
G04 #@! TO.N,/PIN_H21 N*
X132510000Y-60460000D03*
G04 #@! TO.P,J2,10,Pin_10*
G04 #@! TO.N,/PIN_H21 P*
X135050000Y-60460000D03*
G04 #@! TO.P,J2,11,Pin_11*
G04 #@! TO.N,GND*
X137590000Y-60460000D03*
G04 #@! TO.P,J2,12,Pin_12*
G04 #@! TO.N,+3.3V*
X140130000Y-60460000D03*
G04 #@! TD*
D15*
G04 #@! TO.P,D2,1,K1*
G04 #@! TO.N,/PIN_L22 P*
X142356251Y-75000000D03*
X143131251Y-75000000D03*
G04 #@! TO.P,D2,2,A*
G04 #@! TO.N,GND*
X143131251Y-74000000D03*
G04 #@! TO.P,D2,3,K2*
G04 #@! TO.N,/PIN_L22 N*
X143131251Y-74500000D03*
X142356251Y-74500000D03*
G04 #@! TO.P,D2,4,K3*
G04 #@! TO.N,/PIN_N19 P*
X142356251Y-73500000D03*
X143131251Y-73500000D03*
G04 #@! TO.P,D2,5,A*
G04 #@! TO.N,GND*
X142356251Y-74000000D03*
G04 #@! TO.P,D2,6,K4*
G04 #@! TO.N,/PIN_N19 N*
X143131251Y-73000000D03*
X142356251Y-73000000D03*
G04 #@! TD*
D13*
G04 #@! TO.P,J3,1,Pin_1*
G04 #@! TO.N,/PIN_F25 N*
X104570000Y-63000000D03*
D14*
G04 #@! TO.P,J3,2,Pin_2*
G04 #@! TO.N,/PIN_F25 P*
X107110000Y-63000000D03*
G04 #@! TO.P,J3,3,Pin_3*
G04 #@! TO.N,/PIN_G25 N*
X109650000Y-63000000D03*
G04 #@! TO.P,J3,4,Pin_4*
G04 #@! TO.N,/PIN_G25 P*
X112190000Y-63000000D03*
G04 #@! TO.P,J3,5,Pin_5*
G04 #@! TO.N,GND*
X114730000Y-63000000D03*
G04 #@! TO.P,J3,6,Pin_6*
G04 #@! TO.N,+3.3V*
X117270000Y-63000000D03*
G04 #@! TO.P,J3,7,Pin_7*
G04 #@! TO.N,/PIN_E25 N*
X104570000Y-60460000D03*
G04 #@! TO.P,J3,8,Pin_8*
G04 #@! TO.N,/PIN_E25 P*
X107110000Y-60460000D03*
G04 #@! TO.P,J3,9,Pin_9*
G04 #@! TO.N,/PIN_G22 N*
X109650000Y-60460000D03*
G04 #@! TO.P,J3,10,Pin_10*
G04 #@! TO.N,/PIN_G22 P*
X112190000Y-60460000D03*
G04 #@! TO.P,J3,11,Pin_11*
G04 #@! TO.N,GND*
X114730000Y-60460000D03*
G04 #@! TO.P,J3,12,Pin_12*
G04 #@! TO.N,+3.3V*
X117270000Y-60460000D03*
G04 #@! TD*
D16*
G04 #@! TO.P,C3,1*
G04 #@! TO.N,+3.3V*
X116775000Y-66000000D03*
G04 #@! TO.P,C3,2*
G04 #@! TO.N,GND*
X115225000Y-66000000D03*
G04 #@! TD*
G04 #@! TO.P,C2,1*
G04 #@! TO.N,+3.3V*
X139775000Y-66000000D03*
G04 #@! TO.P,C2,2*
G04 #@! TO.N,GND*
X138225000Y-66000000D03*
G04 #@! TD*
D17*
G04 #@! TO.P,C4,1*
G04 #@! TO.N,+3.3V*
X101000000Y-71225000D03*
G04 #@! TO.P,C4,2*
G04 #@! TO.N,GND*
X101000000Y-72775000D03*
G04 #@! TD*
D13*
G04 #@! TO.P,J4,1,Pin_1*
G04 #@! TO.N,/PIN_A23 N*
X98150000Y-83350000D03*
D14*
G04 #@! TO.P,J4,2,Pin_2*
G04 #@! TO.N,/PIN_A23 P*
X98150000Y-80810000D03*
G04 #@! TO.P,J4,3,Pin_3*
G04 #@! TO.N,/PIN_D26 N*
X98150000Y-78270000D03*
G04 #@! TO.P,J4,4,Pin_4*
G04 #@! TO.N,/PIN_D26 P*
X98150000Y-75730000D03*
G04 #@! TO.P,J4,5,Pin_5*
G04 #@! TO.N,GND*
X98150000Y-73190000D03*
G04 #@! TO.P,J4,6,Pin_6*
G04 #@! TO.N,+3.3V*
X98150000Y-70650000D03*
G04 #@! TO.P,J4,7,Pin_7*
G04 #@! TO.N,/PIN_F22 N*
X95610000Y-83350000D03*
G04 #@! TO.P,J4,8,Pin_8*
G04 #@! TO.N,/PIN_F22 P*
X95610000Y-80810000D03*
G04 #@! TO.P,J4,9,Pin_9*
G04 #@! TO.N,/PIN_D23 N*
X95610000Y-78270000D03*
G04 #@! TO.P,J4,10,Pin_10*
G04 #@! TO.N,/PIN_D23 P*
X95610000Y-75730000D03*
G04 #@! TO.P,J4,11,Pin_11*
G04 #@! TO.N,GND*
X95610000Y-73190000D03*
G04 #@! TO.P,J4,12,Pin_12*
G04 #@! TO.N,+3.3V*
X95610000Y-70650000D03*
G04 #@! TD*
D12*
G04 #@! TO.P,D4,1,K1*
G04 #@! TO.N,/PIN_J21 P*
X132000000Y-66225000D03*
X132000000Y-67000000D03*
G04 #@! TO.P,D4,2,A*
G04 #@! TO.N,GND*
X131000000Y-66225000D03*
G04 #@! TO.P,D4,3,K2*
G04 #@! TO.N,/PIN_J21 N*
X131500000Y-67000000D03*
X131500000Y-66225000D03*
G04 #@! TO.P,D4,4,K3*
G04 #@! TO.N,/PIN_J26 P*
X130500000Y-67000000D03*
X130500000Y-66225000D03*
G04 #@! TO.P,D4,5,A*
G04 #@! TO.N,GND*
X131000000Y-67000000D03*
G04 #@! TO.P,D4,6,K4*
G04 #@! TO.N,/PIN_J26 N*
X130000000Y-66225000D03*
X130000000Y-67000000D03*
G04 #@! TD*
D10*
G04 #@! TO.P,RN6,1,R1.1*
G04 #@! TO.N,Net-(J5-Pad41)*
X122750000Y-101500000D03*
D11*
G04 #@! TO.P,RN6,2,R2.1*
G04 #@! TO.N,Net-(J5-Pad39)*
X123250000Y-101500000D03*
G04 #@! TO.P,RN6,3,R3.1*
G04 #@! TO.N,Net-(J5-Pad37)*
X123750000Y-101500000D03*
D10*
G04 #@! TO.P,RN6,4,R4.1*
G04 #@! TO.N,Net-(J5-Pad35)*
X124250000Y-101500000D03*
G04 #@! TO.P,RN6,5,R4.2*
G04 #@! TO.N,/PIN_J21 P*
X124250000Y-100500000D03*
D11*
G04 #@! TO.P,RN6,6,R3.2*
G04 #@! TO.N,/PIN_J21 N*
X123750000Y-100500000D03*
G04 #@! TO.P,RN6,7,R2.2*
G04 #@! TO.N,/PIN_J26 P*
X123250000Y-100500000D03*
D10*
G04 #@! TO.P,RN6,8,R1.2*
G04 #@! TO.N,/PIN_J26 N*
X122750000Y-100500000D03*
G04 #@! TD*
D18*
G04 #@! TO.P,C1,1*
G04 #@! TO.N,+3.3V*
X144000000Y-82775000D03*
G04 #@! TO.P,C1,2*
G04 #@! TO.N,GND*
X144000000Y-81225000D03*
G04 #@! TD*
D10*
G04 #@! TO.P,RN5,1,R1.1*
G04 #@! TO.N,Net-(J5-Pad31)*
X126750000Y-101500000D03*
D11*
G04 #@! TO.P,RN5,2,R2.1*
G04 #@! TO.N,Net-(J5-Pad29)*
X127250000Y-101500000D03*
G04 #@! TO.P,RN5,3,R3.1*
G04 #@! TO.N,Net-(J5-Pad27)*
X127750000Y-101500000D03*
D10*
G04 #@! TO.P,RN5,4,R4.1*
G04 #@! TO.N,Net-(J5-Pad25)*
X128250000Y-101500000D03*
G04 #@! TO.P,RN5,5,R4.2*
G04 #@! TO.N,/PIN_L22 P*
X128250000Y-100500000D03*
D11*
G04 #@! TO.P,RN5,6,R3.2*
G04 #@! TO.N,/PIN_L22 N*
X127750000Y-100500000D03*
G04 #@! TO.P,RN5,7,R2.2*
G04 #@! TO.N,/PIN_N19 P*
X127250000Y-100500000D03*
D10*
G04 #@! TO.P,RN5,8,R1.2*
G04 #@! TO.N,/PIN_N19 N*
X126750000Y-100500000D03*
G04 #@! TD*
D15*
G04 #@! TO.P,D8,1,K1*
G04 #@! TO.N,/PIN_D26 P*
X101112500Y-78500000D03*
X101887500Y-78500000D03*
G04 #@! TO.P,D8,2,A*
G04 #@! TO.N,GND*
X101112500Y-79500000D03*
G04 #@! TO.P,D8,3,K2*
G04 #@! TO.N,/PIN_D26 N*
X101112500Y-79000000D03*
X101887500Y-79000000D03*
G04 #@! TO.P,D8,4,K3*
G04 #@! TO.N,/PIN_A23 P*
X101112500Y-80000000D03*
X101887500Y-80000000D03*
G04 #@! TO.P,D8,5,A*
G04 #@! TO.N,GND*
X101887500Y-79500000D03*
G04 #@! TO.P,D8,6,K4*
G04 #@! TO.N,/PIN_A23 N*
X101887500Y-80500000D03*
X101112500Y-80500000D03*
G04 #@! TD*
D19*
G04 #@! TO.N,GND*
X137500000Y-89000000D03*
X100126928Y-79472519D03*
X136500000Y-89000000D03*
X135500000Y-91000000D03*
X129300000Y-95700000D03*
X125300000Y-95800000D03*
X135500000Y-89000000D03*
X104500000Y-94000000D03*
X138500000Y-89000000D03*
X121300000Y-95800000D03*
X109300000Y-95800000D03*
X108500000Y-65000000D03*
X106900000Y-95900000D03*
X116924500Y-96276944D03*
X131000000Y-65000000D03*
X135500000Y-90000000D03*
X144750000Y-74000000D03*
X112960806Y-95664694D03*
X104500000Y-98000000D03*
G04 #@! TO.N,Net-(J5-Pad61)*
X114000000Y-102500000D03*
G04 #@! TO.N,Net-(J5-Pad59)*
X115000000Y-102500000D03*
G04 #@! TO.N,Net-(J5-Pad57)*
X116000000Y-102500000D03*
G04 #@! TO.N,Net-(J5-Pad55)*
X117000000Y-102500000D03*
G04 #@! TO.N,Net-(J5-Pad51)*
X118000000Y-102500000D03*
G04 #@! TO.N,Net-(J5-Pad49)*
X119000000Y-102500000D03*
G04 #@! TO.N,Net-(J5-Pad47)*
X120000000Y-102500000D03*
G04 #@! TO.N,Net-(J5-Pad45)*
X121000000Y-102500000D03*
G04 #@! TO.N,Net-(J5-Pad41)*
X122000000Y-102500000D03*
G04 #@! TO.N,Net-(J5-Pad39)*
X123000000Y-102500000D03*
G04 #@! TO.N,Net-(J5-Pad37)*
X123999317Y-102519245D03*
G04 #@! TO.N,Net-(J5-Pad35)*
X124998289Y-102486691D03*
G04 #@! TO.N,Net-(J5-Pad31)*
X126000000Y-102500000D03*
G04 #@! TO.N,Net-(J5-Pad29)*
X127000000Y-102500000D03*
G04 #@! TO.N,Net-(J5-Pad27)*
X128000000Y-102500000D03*
G04 #@! TO.N,Net-(J5-Pad25)*
X129000000Y-102500000D03*
G04 #@! TD*
D20*
G04 #@! TO.N,+3.3V*
X139775000Y-63355000D02*
X140130000Y-63000000D01*
X116775000Y-66000000D02*
X116775000Y-63495000D01*
X98725000Y-71225000D02*
X98150000Y-70650000D01*
X101000000Y-71225000D02*
X98725000Y-71225000D01*
X146775000Y-82775000D02*
X147000000Y-83000000D01*
X139775000Y-66000000D02*
X139775000Y-63355000D01*
X116775000Y-63495000D02*
X117270000Y-63000000D01*
X144000000Y-82775000D02*
X146775000Y-82775000D01*
G04 #@! TO.N,GND*
X101000000Y-72775000D02*
X98565000Y-72775000D01*
D21*
X101112500Y-79500000D02*
X100154409Y-79500000D01*
D20*
X138225000Y-63635000D02*
X137590000Y-63000000D01*
D21*
X101112500Y-79500000D02*
X101887500Y-79500000D01*
D20*
X98565000Y-72775000D02*
X98150000Y-73190000D01*
D21*
X108500000Y-66112500D02*
X108500000Y-65000000D01*
D22*
X142356251Y-74000000D02*
X143131251Y-74000000D01*
D21*
X100154409Y-79500000D02*
X100126928Y-79472519D01*
D20*
X138225000Y-66000000D02*
X138225000Y-63635000D01*
X115225000Y-63495000D02*
X114730000Y-63000000D01*
D21*
X131000000Y-66225000D02*
X131000000Y-65000000D01*
D20*
X144000000Y-81225000D02*
X146235000Y-81225000D01*
D21*
X131000000Y-67000000D02*
X131000000Y-66225000D01*
D22*
X143131251Y-74000000D02*
X144750000Y-74000000D01*
D20*
X115225000Y-66000000D02*
X115225000Y-63495000D01*
D21*
X108500000Y-66887500D02*
X108500000Y-66112500D01*
D20*
X146235000Y-81225000D02*
X147000000Y-80460000D01*
D23*
G04 #@! TO.N,/PIN_N19 P*
X135620696Y-75256370D02*
X135620697Y-75256369D01*
X144565186Y-73300500D02*
X145025686Y-72840000D01*
X136747848Y-74407841D02*
X136747847Y-74407840D01*
X134909371Y-76529163D02*
X134767948Y-76387740D01*
X136747847Y-74407840D02*
X136889269Y-74549262D01*
X134622308Y-77660534D02*
X127200000Y-85082844D01*
X143131251Y-73500000D02*
X142993751Y-73500000D01*
X127250000Y-100124999D02*
X127250000Y-100500000D01*
X127200000Y-85082844D02*
X127200000Y-100074999D01*
X135620697Y-75256369D02*
X135616476Y-75260589D01*
X136040742Y-75397792D02*
X135899319Y-75256369D01*
X134489325Y-76387741D02*
X134489326Y-76387740D01*
X134485106Y-76670583D02*
X134485105Y-76670582D01*
X136752067Y-74124999D02*
X136752068Y-74124998D01*
X135757898Y-76524941D02*
X135753679Y-76529163D01*
X145025686Y-72840000D02*
X147000000Y-72840000D01*
X142000000Y-73500000D02*
X141950000Y-73450000D01*
X137172113Y-74266421D02*
X137030690Y-74124998D01*
X134489326Y-76387740D02*
X134485105Y-76391960D01*
X136752068Y-74124998D02*
X136747847Y-74129218D01*
X142993751Y-73500000D02*
X142943751Y-73450000D01*
X136889269Y-75393570D02*
X136885050Y-75397792D01*
X142356251Y-73500000D02*
X142000000Y-73500000D01*
X135616477Y-75539212D02*
X135616476Y-75539211D01*
X142762502Y-73450000D02*
X142712502Y-73500000D01*
X134485105Y-76670582D02*
X134626527Y-76812004D01*
X143131251Y-73500000D02*
X144260757Y-73500000D01*
X144460257Y-73300500D02*
X144565186Y-73300500D01*
X142943751Y-73450000D02*
X142762502Y-73450000D01*
X144260757Y-73500000D02*
X144460257Y-73300500D01*
X138832844Y-73450000D02*
X138016421Y-74266421D01*
X135616476Y-75539211D02*
X135757898Y-75680633D01*
X142712502Y-73500000D02*
X142356251Y-73500000D01*
X127200000Y-100074999D02*
X127250000Y-100124999D01*
X134626527Y-77656312D02*
X134622308Y-77660534D01*
X141950000Y-73450000D02*
X138832844Y-73450000D01*
X135616477Y-75539212D02*
G75*
G02*
X135616476Y-75260589I139323J139312D01*
G01*
X136040743Y-75397791D02*
G75*
G03*
X136885049Y-75397791I422153J422153D01*
G01*
X137172114Y-74266420D02*
G75*
G03*
X138016420Y-74266420I422153J422153D01*
G01*
X134626569Y-77656354D02*
G75*
G03*
X134626527Y-76812004I-422169J422154D01*
G01*
X136747877Y-74407812D02*
G75*
G02*
X136747847Y-74129218I139323J139312D01*
G01*
X136889253Y-75393554D02*
G75*
G03*
X136889269Y-74549262I-422153J422154D01*
G01*
X135757911Y-76524954D02*
G75*
G03*
X135757898Y-75680633I-422211J422154D01*
G01*
X136752088Y-74125020D02*
G75*
G02*
X137030690Y-74124998I139312J-139280D01*
G01*
X135620688Y-75256362D02*
G75*
G02*
X135899319Y-75256369I139312J-139338D01*
G01*
X134909372Y-76529162D02*
G75*
G03*
X135753678Y-76529162I422153J422153D01*
G01*
X134485077Y-76670612D02*
G75*
G02*
X134485105Y-76391960I139323J139312D01*
G01*
X134489288Y-76387704D02*
G75*
G02*
X134767948Y-76387740I139312J-139396D01*
G01*
G04 #@! TO.N,/PIN_L22 N*
X134714468Y-78502692D02*
X134714466Y-78502692D01*
X136037209Y-78694065D02*
X136037210Y-78694064D01*
X143131251Y-74500000D02*
X143487502Y-74500000D01*
X142712502Y-74500000D02*
X142356251Y-74500000D01*
X138667156Y-74550000D02*
X138108579Y-75108579D01*
X135754368Y-78694064D02*
X135562996Y-78502692D01*
X142993751Y-74500000D02*
X142943751Y-74550000D01*
X136977210Y-76239950D02*
X136977208Y-76239950D01*
X127800000Y-100074999D02*
X127750000Y-100124999D01*
X127750000Y-100124999D02*
X127750000Y-100500000D01*
X127800000Y-85417156D02*
X127800000Y-100074999D01*
X138017110Y-76431322D02*
X137825738Y-76239950D01*
X134622997Y-79825435D02*
X134431625Y-79634063D01*
X135845839Y-77371321D02*
X135845837Y-77371321D01*
X136885739Y-77562693D02*
X136694367Y-77371321D01*
X136977208Y-77088478D02*
X137168581Y-77279851D01*
X137168580Y-77562694D02*
X137168581Y-77562693D01*
X141950000Y-74550000D02*
X138667156Y-74550000D01*
X144195686Y-74550000D02*
X145025686Y-75380000D01*
X143131251Y-74500000D02*
X142993751Y-74500000D01*
X145025686Y-75380000D02*
X147000000Y-75380000D01*
X138299951Y-76431323D02*
X138299952Y-76431322D01*
X134714466Y-79351220D02*
X134905839Y-79542593D01*
X135845837Y-78219849D02*
X136037210Y-78411222D01*
X143487502Y-74500000D02*
X143537502Y-74550000D01*
X138108579Y-75957107D02*
X138299952Y-76148480D01*
X142943751Y-74550000D02*
X142762502Y-74550000D01*
X133583097Y-79634063D02*
X133583095Y-79634063D01*
X133583095Y-79634063D02*
X127800000Y-85417156D01*
X142000000Y-74500000D02*
X141950000Y-74550000D01*
X143537502Y-74550000D02*
X144195686Y-74550000D01*
X142762502Y-74550000D02*
X142712502Y-74500000D01*
X134905838Y-79825436D02*
X134905839Y-79825435D01*
X142356251Y-74500000D02*
X142000000Y-74500000D01*
X135754368Y-78694064D02*
G75*
G03*
X136037210Y-78694064I141421J141419D01*
G01*
X136037166Y-78694022D02*
G75*
G03*
X136037210Y-78411222I-141366J141422D01*
G01*
X133583098Y-79634064D02*
G75*
G02*
X134431624Y-79634064I424263J-424263D01*
G01*
X138017110Y-76431322D02*
G75*
G03*
X138299952Y-76431322I141421J141419D01*
G01*
X138299949Y-76431321D02*
G75*
G03*
X138299951Y-76148481I-141449J141421D01*
G01*
X134714423Y-79351263D02*
G75*
G02*
X134714467Y-78502693I424277J424263D01*
G01*
X138108622Y-75957064D02*
G75*
G02*
X138108579Y-75108579I424178J424264D01*
G01*
X134622997Y-79825435D02*
G75*
G03*
X134905839Y-79825435I141421J141419D01*
G01*
X134714469Y-78502693D02*
G75*
G02*
X135562995Y-78502693I424263J-424263D01*
G01*
X135845840Y-77371322D02*
G75*
G02*
X136694366Y-77371322I424263J-424263D01*
G01*
X136977211Y-76239951D02*
G75*
G02*
X137825737Y-76239951I424263J-424263D01*
G01*
X136977223Y-77088463D02*
G75*
G02*
X136977209Y-76239951I424277J424263D01*
G01*
X134905824Y-79825422D02*
G75*
G03*
X134905839Y-79542593I-141424J141422D01*
G01*
X137168608Y-77562722D02*
G75*
G03*
X137168581Y-77279851I-141408J141422D01*
G01*
X136885739Y-77562693D02*
G75*
G03*
X137168581Y-77562693I141421J141419D01*
G01*
X135845823Y-78219863D02*
G75*
G02*
X135845838Y-77371322I424277J424263D01*
G01*
G04 #@! TO.N,/PIN_G25 P*
X109450000Y-65925000D02*
X109450000Y-65740000D01*
X120200000Y-100074999D02*
X120250000Y-100124999D01*
X109450000Y-67293751D02*
X109450000Y-69550000D01*
X108832863Y-70367137D02*
X109032863Y-70367137D01*
X109450000Y-66700000D02*
X109450000Y-66518751D01*
X109450000Y-72116003D02*
X109450000Y-80417156D01*
X109250000Y-70367137D02*
X109250000Y-70400000D01*
X109032863Y-70367137D02*
X109250000Y-70367137D01*
X109450000Y-66518751D02*
X109500000Y-66468751D01*
X109500000Y-66887500D02*
X109500000Y-66750000D01*
X109450000Y-80417156D02*
X120200000Y-91167156D01*
X109450000Y-71617137D02*
X109450000Y-72116003D01*
X120250000Y-100124999D02*
X120250000Y-100500000D01*
X109032863Y-69967137D02*
X108832863Y-69967137D01*
X109500000Y-66887500D02*
X109500000Y-67243751D01*
X109500000Y-66750000D02*
X109450000Y-66700000D01*
X109500000Y-66112500D02*
X109500000Y-65975000D01*
X120200000Y-91167156D02*
X120200000Y-100074999D01*
X109500000Y-67243751D02*
X109450000Y-67293751D01*
X108815726Y-69984274D02*
X108815726Y-70350000D01*
X109500000Y-66468751D02*
X109500000Y-66112500D01*
X109500000Y-65975000D02*
X109450000Y-65925000D01*
X109667137Y-71600000D02*
X109467137Y-71600000D01*
X110084274Y-70817137D02*
X110084274Y-71182863D01*
X109250000Y-70400000D02*
X109667137Y-70400000D01*
X109450000Y-65740000D02*
X112190000Y-63000000D01*
X110084200Y-70817137D02*
G75*
G03*
X109667137Y-70400000I-417100J37D01*
G01*
X108815737Y-69984274D02*
G75*
G02*
X108832863Y-69967137I17163J-26D01*
G01*
X109667137Y-71600074D02*
G75*
G03*
X110084274Y-71182863I-37J417174D01*
G01*
X109450000Y-71617137D02*
G75*
G02*
X109467137Y-71600000I17100J37D01*
G01*
X108832863Y-70367174D02*
G75*
G02*
X108815726Y-70350000I37J17174D01*
G01*
X109032863Y-69967100D02*
G75*
G03*
X109450000Y-69550000I37J417100D01*
G01*
G04 #@! TO.N,/PIN_A23 P*
X107033843Y-85135747D02*
X107033842Y-85135747D01*
X105902473Y-84004377D02*
X105902472Y-84004377D01*
X107285530Y-83752688D02*
X107285532Y-83752689D01*
X108165213Y-86267117D02*
X108165212Y-86267117D01*
X108448054Y-86267117D02*
X108699742Y-86015428D01*
X111842164Y-89661227D02*
X112093852Y-89409538D01*
X107316684Y-85135747D02*
X107568372Y-84884058D01*
X111811011Y-89126696D02*
X111559322Y-89378384D01*
X100746102Y-80050000D02*
X99986102Y-80810000D01*
X103639733Y-81741637D02*
X103639732Y-81741637D01*
X106185315Y-84004376D02*
X106185314Y-84004377D01*
X109548272Y-86015429D02*
X109548271Y-86015428D01*
X104771103Y-82873007D02*
X104771102Y-82873007D01*
X105053944Y-82873007D02*
X105305632Y-82621318D01*
X109579424Y-87398487D02*
X109831112Y-87146798D01*
X101062500Y-80050000D02*
X100746102Y-80050000D01*
X110679640Y-87146798D02*
X110679642Y-87146799D01*
X110427953Y-88529857D02*
X110427952Y-88529857D01*
X102243751Y-80000000D02*
X102293751Y-80050000D01*
X111811012Y-88278169D02*
X111811011Y-88278168D01*
X109548270Y-86015428D02*
X109548272Y-86015429D01*
X101468751Y-80000000D02*
X101112500Y-80000000D01*
X103891421Y-81207106D02*
X103639732Y-81458794D01*
X108416900Y-84884058D02*
X108416902Y-84884059D01*
X115200000Y-100074999D02*
X115250000Y-100124999D01*
X101887500Y-80000000D02*
X101750000Y-80000000D01*
X110710794Y-88529857D02*
X110962482Y-88278168D01*
X106154160Y-82621318D02*
X106154162Y-82621319D01*
X109548271Y-86863956D02*
X109296582Y-87115644D01*
X101750000Y-80000000D02*
X101700000Y-80050000D01*
X108448055Y-86267116D02*
X108448054Y-86267117D01*
X101887500Y-80000000D02*
X102243751Y-80000000D01*
X111811010Y-88278168D02*
X111811012Y-88278169D01*
X103582844Y-80050000D02*
X103891421Y-80358578D01*
X105022792Y-81489949D02*
X105022791Y-81489948D01*
X101518751Y-80050000D02*
X101468751Y-80000000D01*
X109579425Y-87398486D02*
X109579424Y-87398487D01*
X115250000Y-100124999D02*
X115250000Y-100500000D01*
X108416901Y-85732586D02*
X108165212Y-85984274D01*
X106185314Y-84004377D02*
X106437002Y-83752688D01*
X111559323Y-89661227D02*
X111559322Y-89661227D01*
X105053945Y-82873006D02*
X105053944Y-82873007D01*
X110679641Y-87995326D02*
X110427952Y-88247014D01*
X101700000Y-80050000D02*
X101518751Y-80050000D01*
X99986102Y-80810000D02*
X98150000Y-80810000D01*
X109296583Y-87398487D02*
X109296582Y-87398487D01*
X103922575Y-81741636D02*
X103922574Y-81741637D01*
X108416902Y-84884059D02*
X108416901Y-84884058D01*
X115200000Y-91667156D02*
X115200000Y-100074999D01*
X106154161Y-83469846D02*
X105902472Y-83721534D01*
X101112500Y-80000000D02*
X101062500Y-80050000D01*
X105022790Y-81489948D02*
X105022792Y-81489949D01*
X112942380Y-89409538D02*
X112942382Y-89409539D01*
X106154162Y-82621319D02*
X106154161Y-82621318D01*
X102293751Y-80050000D02*
X103582844Y-80050000D01*
X110679642Y-87146799D02*
X110679641Y-87146798D01*
X112942382Y-89409539D02*
X115200000Y-91667156D01*
X107316685Y-85135746D02*
X107316684Y-85135747D01*
X110710795Y-88529856D02*
X110710794Y-88529857D01*
X103922574Y-81741637D02*
X104174262Y-81489948D01*
X107285532Y-83752689D02*
X107285531Y-83752688D01*
X111842165Y-89661226D02*
X111842164Y-89661227D01*
X105022791Y-82338476D02*
X104771102Y-82590164D01*
X107285531Y-84601216D02*
X107033842Y-84852904D01*
X107285579Y-84601264D02*
G75*
G03*
X107285531Y-83752688I-424279J424264D01*
G01*
X105053922Y-82872983D02*
G75*
G02*
X104771102Y-82873007I-141422J141383D01*
G01*
X105022789Y-81489949D02*
G75*
G03*
X104174263Y-81489949I-424263J-424263D01*
G01*
X108416899Y-84884059D02*
G75*
G03*
X107568373Y-84884059I-424263J-424263D01*
G01*
X108165208Y-86267122D02*
G75*
G02*
X108165212Y-85984274I141392J141422D01*
G01*
X110679679Y-87995364D02*
G75*
G03*
X110679641Y-87146798I-424279J424264D01*
G01*
X109548269Y-86015429D02*
G75*
G03*
X108699743Y-86015429I-424263J-424263D01*
G01*
X109548279Y-86863964D02*
G75*
G03*
X109548271Y-86015428I-424279J424264D01*
G01*
X107316722Y-85135783D02*
G75*
G02*
X107033842Y-85135747I-141422J141483D01*
G01*
X105022779Y-82338464D02*
G75*
G03*
X105022791Y-81489948I-424279J424264D01*
G01*
X110679639Y-87146799D02*
G75*
G03*
X109831113Y-87146799I-424263J-424263D01*
G01*
X103639748Y-81741622D02*
G75*
G02*
X103639732Y-81458794I141452J141422D01*
G01*
X109296548Y-87398522D02*
G75*
G02*
X109296582Y-87115644I141452J141422D01*
G01*
X111559328Y-89661222D02*
G75*
G02*
X111559322Y-89378384I141372J141422D01*
G01*
X107285529Y-83752689D02*
G75*
G03*
X106437003Y-83752689I-424263J-424263D01*
G01*
X112942379Y-89409539D02*
G75*
G03*
X112093853Y-89409539I-424263J-424263D01*
G01*
X108448022Y-86267083D02*
G75*
G02*
X108165212Y-86267117I-141422J141383D01*
G01*
X111810979Y-89126664D02*
G75*
G03*
X111811011Y-88278168I-424279J424264D01*
G01*
X111842122Y-89661183D02*
G75*
G02*
X111559322Y-89661227I-141422J141383D01*
G01*
X106154179Y-83469864D02*
G75*
G03*
X106154161Y-82621318I-424279J424264D01*
G01*
X110427989Y-88529821D02*
G75*
G02*
X110427953Y-88247015I141411J141421D01*
G01*
X104771089Y-82873021D02*
G75*
G02*
X104771103Y-82590165I141411J141421D01*
G01*
X103922622Y-81741683D02*
G75*
G02*
X103639732Y-81741637I-141422J141483D01*
G01*
X111811009Y-88278169D02*
G75*
G03*
X110962483Y-88278169I-424263J-424263D01*
G01*
X107033869Y-85135721D02*
G75*
G02*
X107033843Y-84852905I141431J141421D01*
G01*
X106154159Y-82621319D02*
G75*
G03*
X105305633Y-82621319I-424263J-424263D01*
G01*
X108416879Y-85732564D02*
G75*
G03*
X108416901Y-84884058I-424279J424264D01*
G01*
X103891378Y-81207063D02*
G75*
G03*
X103891420Y-80358579I-424178J424263D01*
G01*
X110710822Y-88529883D02*
G75*
G02*
X110427952Y-88529857I-141422J141483D01*
G01*
X105902428Y-84004422D02*
G75*
G02*
X105902472Y-83721534I141472J141422D01*
G01*
X106185322Y-84004383D02*
G75*
G02*
X105902472Y-84004377I-141422J141383D01*
G01*
X109579422Y-87398483D02*
G75*
G02*
X109296582Y-87398487I-141422J141383D01*
G01*
G04 #@! TO.N,/PIN_N19 N*
X144294778Y-72900999D02*
X144399001Y-72900999D01*
X136323584Y-75114949D02*
X136182161Y-74973526D01*
X135192214Y-76246320D02*
X135192213Y-76246320D01*
X135333632Y-75822054D02*
X135475054Y-75963476D01*
X141950000Y-73050000D02*
X138667156Y-73050000D01*
X137454956Y-73983578D02*
X137454955Y-73983578D01*
X134202262Y-76953426D02*
X134202261Y-76953425D01*
X134202261Y-76953425D02*
X134343683Y-77094847D01*
X142762502Y-73050000D02*
X142712502Y-73000000D01*
X135337853Y-74973526D02*
X135333632Y-74977746D01*
X142993751Y-73000000D02*
X142943751Y-73050000D01*
X137454955Y-73983578D02*
X137313532Y-73842155D01*
X144399001Y-72900999D02*
X147000000Y-70300000D01*
X142712502Y-73000000D02*
X142356251Y-73000000D01*
X135333633Y-75822055D02*
X135333632Y-75822054D01*
X136606425Y-75110727D02*
X136602207Y-75114949D01*
X142943751Y-73050000D02*
X142762502Y-73050000D01*
X135475054Y-76242098D02*
X135470836Y-76246320D01*
X136606424Y-75110728D02*
X136606425Y-75110727D01*
X136323585Y-75114949D02*
X136323584Y-75114949D01*
X143131251Y-73000000D02*
X144195777Y-73000000D01*
X136469224Y-73842155D02*
X136465003Y-73846375D01*
X134339465Y-77377691D02*
X126800000Y-84917156D01*
X126800000Y-84917156D02*
X126800000Y-100074999D01*
X134206482Y-76104897D02*
X134202261Y-76109117D01*
X142000000Y-73000000D02*
X141950000Y-73050000D01*
X135192213Y-76246320D02*
X135050790Y-76104897D01*
X142356251Y-73000000D02*
X142000000Y-73000000D01*
X138667156Y-73050000D02*
X137733578Y-73983578D01*
X126750000Y-100124999D02*
X126750000Y-100500000D01*
X134343682Y-77373470D02*
X134343683Y-77373469D01*
X144195777Y-73000000D02*
X144294778Y-72900999D01*
X134343683Y-77373469D02*
X134339465Y-77377691D01*
X143131251Y-73000000D02*
X142993751Y-73000000D01*
X135475053Y-76242099D02*
X135475054Y-76242098D01*
X126800000Y-100074999D02*
X126750000Y-100124999D01*
X136465003Y-74690683D02*
X136606425Y-74832105D01*
X136465004Y-74690684D02*
X136465003Y-74690683D01*
X135475066Y-76242112D02*
G75*
G03*
X135475054Y-75963476I-139366J139312D01*
G01*
X135337854Y-74973527D02*
G75*
G02*
X136182160Y-74973527I422153J-422153D01*
G01*
X134206483Y-76104898D02*
G75*
G02*
X135050789Y-76104898I422153J-422153D01*
G01*
X136465034Y-74690654D02*
G75*
G02*
X136465004Y-73846376I422166J422154D01*
G01*
X134202234Y-76953454D02*
G75*
G02*
X134202262Y-76109118I422166J422154D01*
G01*
X134343724Y-77373512D02*
G75*
G03*
X134343683Y-77094847I-139324J139312D01*
G01*
X136606408Y-75110712D02*
G75*
G03*
X136606425Y-74832105I-139308J139312D01*
G01*
X135333634Y-75822054D02*
G75*
G02*
X135333633Y-74977747I422166J422154D01*
G01*
X137454956Y-73983578D02*
G75*
G03*
X137733578Y-73983578I139311J139309D01*
G01*
X136469225Y-73842156D02*
G75*
G02*
X137313531Y-73842156I422153J-422153D01*
G01*
X136323585Y-75114949D02*
G75*
G03*
X136602207Y-75114949I139311J139309D01*
G01*
X135192214Y-76246320D02*
G75*
G03*
X135470836Y-76246320I139311J139309D01*
G01*
G04 #@! TO.N,/PIN_D26 P*
X104424264Y-79108578D02*
X104739082Y-78793761D01*
X106404162Y-81371318D02*
X106404163Y-81371320D01*
X106718980Y-80773661D02*
X106718981Y-80773660D01*
X105587610Y-79642289D02*
X105272791Y-79957105D01*
X112163703Y-86603910D02*
X112022279Y-86745331D01*
X110890908Y-85858066D02*
X110929648Y-85896805D01*
X105272792Y-80239949D02*
X105272791Y-80239948D01*
X109798277Y-84765434D02*
X109798275Y-84765432D01*
X108911012Y-83634063D02*
X109052433Y-83492639D01*
X112305125Y-87028176D02*
X112446546Y-86886752D01*
X101112500Y-78500000D02*
X101062500Y-78550000D01*
X108628166Y-83595324D02*
X108666906Y-83634063D01*
X113295074Y-87735281D02*
X113153650Y-87876702D01*
X113256337Y-86886753D02*
X113256338Y-86886753D01*
X109900962Y-84341167D02*
X109900961Y-84341168D01*
X112124967Y-85755382D02*
X112163703Y-85794118D01*
X102293751Y-78550000D02*
X103582844Y-78550000D01*
X106648270Y-81371321D02*
X106789691Y-81229897D01*
X101887500Y-78500000D02*
X102243751Y-78500000D01*
X109862224Y-83492640D02*
X109862225Y-83492640D01*
X109759537Y-84726695D02*
X109798277Y-84765434D01*
X101887500Y-78500000D02*
X101750000Y-78500000D01*
X113153650Y-88120808D02*
X113192390Y-88159547D01*
X109900961Y-84341168D02*
X109759537Y-84482589D01*
X110042383Y-84765434D02*
X110183804Y-84624010D01*
X101750000Y-78500000D02*
X101700000Y-78550000D01*
X105555635Y-80239950D02*
X105555635Y-80239949D01*
X116200000Y-91167156D02*
X116200000Y-100074999D01*
X101062500Y-78550000D02*
X100970000Y-78550000D01*
X106718981Y-80773660D02*
X106404162Y-81088476D01*
X113295075Y-87735280D02*
X113295074Y-87735281D01*
X116250000Y-100124999D02*
X116250000Y-100500000D01*
X107638219Y-82078426D02*
X107496795Y-82219847D01*
X107638220Y-82078425D02*
X107638219Y-82078426D01*
X110993595Y-84624011D02*
X110993596Y-84624011D01*
X113192390Y-88159547D02*
X116200000Y-91167156D01*
X112124966Y-85755382D02*
X112124967Y-85755382D01*
X104424264Y-79108579D02*
X104424264Y-79108578D01*
X111032333Y-85472538D02*
X111032332Y-85472539D01*
X108769591Y-83209796D02*
X108769590Y-83209797D01*
X101700000Y-78550000D02*
X101518751Y-78550000D01*
X110929648Y-85896805D02*
X110929646Y-85896803D01*
X111032332Y-85472539D02*
X110890908Y-85613960D01*
X103582844Y-78550000D02*
X104141420Y-79108577D01*
X111173754Y-85896805D02*
X111315175Y-85755381D01*
X107496795Y-82463953D02*
X107535535Y-82502692D01*
X102243751Y-78500000D02*
X102293751Y-78550000D01*
X106404163Y-81371320D02*
X106404162Y-81371319D01*
X108730854Y-82361269D02*
X108769590Y-82400005D01*
X112022279Y-86989437D02*
X112061019Y-87028176D01*
X108769590Y-83209797D02*
X108628166Y-83351218D01*
X107535535Y-82502692D02*
X107535533Y-82502690D01*
X101518751Y-78550000D02*
X101468751Y-78500000D01*
X112061019Y-87028176D02*
X112061017Y-87028174D01*
X109862225Y-83492640D02*
X109900961Y-83531376D01*
X107779641Y-82502692D02*
X107921062Y-82361268D01*
X105555635Y-80239949D02*
X105870453Y-79925132D01*
X107599483Y-81229898D02*
X107638219Y-81268634D01*
X108730853Y-82361269D02*
X108730854Y-82361269D01*
X105587609Y-79642290D02*
X105587610Y-79642289D01*
X108666906Y-83634063D02*
X108666904Y-83634061D01*
X113256338Y-86886753D02*
X113295074Y-86925489D01*
X112163704Y-86603909D02*
X112163703Y-86603910D01*
X110993596Y-84624011D02*
X111032332Y-84662747D01*
X107599482Y-81229898D02*
X107599483Y-81229898D01*
X105272791Y-80239947D02*
X105272792Y-80239949D01*
X100970000Y-78550000D02*
X98150000Y-75730000D01*
X116200000Y-100074999D02*
X116250000Y-100124999D01*
X101468751Y-78500000D02*
X101112500Y-78500000D01*
X105587609Y-78793762D02*
G75*
G03*
X104739083Y-78793762I-424263J-424263D01*
G01*
X112305153Y-87028204D02*
G75*
G02*
X112061017Y-87028174I-122053J122104D01*
G01*
X106648253Y-81371304D02*
G75*
G02*
X106404162Y-81371319I-122053J122004D01*
G01*
X107599496Y-81229884D02*
G75*
G03*
X106789691Y-81229897I-404896J-404916D01*
G01*
X110042353Y-84765404D02*
G75*
G02*
X109798275Y-84765432I-122053J122004D01*
G01*
X107496796Y-82463952D02*
G75*
G02*
X107496796Y-82219848I122104J122052D01*
G01*
X113295090Y-87735295D02*
G75*
G03*
X113295074Y-86925489I-404890J404895D01*
G01*
X109900990Y-84341195D02*
G75*
G03*
X109900961Y-83531376I-404890J404895D01*
G01*
X108911053Y-83634104D02*
G75*
G02*
X108666904Y-83634061I-122053J122104D01*
G01*
X106718983Y-80773664D02*
G75*
G03*
X106718980Y-79925133I-424283J424264D01*
G01*
X111173753Y-85896804D02*
G75*
G02*
X110929646Y-85896803I-122053J122104D01*
G01*
X112022263Y-86989453D02*
G75*
G02*
X112022279Y-86745331I122037J122053D01*
G01*
X112163690Y-86603895D02*
G75*
G03*
X112163703Y-85794118I-404890J404895D01*
G01*
X110890921Y-85858053D02*
G75*
G02*
X110890908Y-85613960I122079J122053D01*
G01*
X108730896Y-82361226D02*
G75*
G03*
X107921062Y-82361268I-404896J-404974D01*
G01*
X108628137Y-83595353D02*
G75*
G02*
X108628166Y-83351218I122063J122053D01*
G01*
X113256296Y-86886794D02*
G75*
G03*
X112446546Y-86886752I-404896J-404906D01*
G01*
X107638190Y-82078395D02*
G75*
G03*
X107638219Y-81268634I-404890J404895D01*
G01*
X106718980Y-79925133D02*
G75*
G03*
X105870454Y-79925133I-424263J-424263D01*
G01*
X105272817Y-80239921D02*
G75*
G02*
X105272791Y-79957105I141383J141421D01*
G01*
X109759579Y-84726653D02*
G75*
G02*
X109759537Y-84482589I122021J122053D01*
G01*
X111032290Y-85472495D02*
G75*
G03*
X111032332Y-84662747I-404890J404895D01*
G01*
X109862196Y-83492668D02*
G75*
G03*
X109052433Y-83492639I-404896J-404832D01*
G01*
X105587583Y-79642264D02*
G75*
G03*
X105587609Y-78793762I-424283J424264D01*
G01*
X104424221Y-79108536D02*
G75*
G02*
X104141420Y-79108577I-141421J141336D01*
G01*
X110993596Y-84624010D02*
G75*
G03*
X110183804Y-84624010I-404896J-404890D01*
G01*
X113153605Y-88120852D02*
G75*
G02*
X113153651Y-87876703I122095J122052D01*
G01*
X107779653Y-82502704D02*
G75*
G02*
X107535533Y-82502690I-122053J122104D01*
G01*
X108769590Y-83209795D02*
G75*
G03*
X108769590Y-82400005I-404890J404895D01*
G01*
X105555621Y-80239936D02*
G75*
G02*
X105272791Y-80239948I-141421J141436D01*
G01*
X106404159Y-81371321D02*
G75*
G02*
X106404162Y-81088476I141441J141421D01*
G01*
X112124996Y-85755352D02*
G75*
G03*
X111315175Y-85755381I-404896J-404948D01*
G01*
G04 #@! TO.N,/PIN_J21 N*
X131550000Y-74667156D02*
X123800000Y-82417156D01*
X131500000Y-66862500D02*
X131550000Y-66812500D01*
X131550000Y-71859349D02*
X131550000Y-74667156D01*
X123800000Y-100074999D02*
X123750000Y-100124999D01*
X131500000Y-67000000D02*
X131500000Y-67356251D01*
X132505471Y-69050000D02*
X132150000Y-69050000D01*
X131796814Y-65687500D02*
X132510000Y-64974314D01*
X132150000Y-70250000D02*
X132505471Y-70250000D01*
X131600000Y-65884314D02*
X131600000Y-65687500D01*
X132505471Y-70650000D02*
X132150000Y-70650000D01*
X123750000Y-100124999D02*
X123750000Y-100500000D01*
X131500000Y-67000000D02*
X131500000Y-66862500D01*
X131550000Y-65934314D02*
X131600000Y-65884314D01*
X131550000Y-71250000D02*
X131550000Y-71859349D01*
X132510000Y-64974314D02*
X132510000Y-63000000D01*
X131550000Y-66631251D02*
X131500000Y-66581251D01*
X131500000Y-67356251D02*
X131550000Y-67406251D01*
X131500000Y-66581251D02*
X131500000Y-66225000D01*
X131550000Y-66175000D02*
X131550000Y-65934314D01*
X123800000Y-82417156D02*
X123800000Y-100074999D01*
X131600000Y-65687500D02*
X131796814Y-65687500D01*
X131550000Y-67406251D02*
X131550000Y-68050000D01*
X131500000Y-66225000D02*
X131550000Y-66175000D01*
X131550000Y-66812500D02*
X131550000Y-66631251D01*
X132150000Y-68650000D02*
X132505471Y-68650000D01*
X131550000Y-71250000D02*
G75*
G02*
X132150000Y-70650000I600000J0D01*
G01*
X132150000Y-70250000D02*
G75*
G02*
X131550000Y-69650000I0J600000D01*
G01*
X131550000Y-69650000D02*
G75*
G02*
X132150000Y-69050000I600000J0D01*
G01*
X132505471Y-69049971D02*
G75*
G03*
X132705471Y-68850000I29J199971D01*
G01*
X132150000Y-68650000D02*
G75*
G02*
X131550000Y-68050000I0J600000D01*
G01*
X132705500Y-70450000D02*
G75*
G03*
X132505471Y-70250000I-200000J0D01*
G01*
X132505471Y-70649971D02*
G75*
G03*
X132705471Y-70450000I29J199971D01*
G01*
X132705500Y-68850000D02*
G75*
G03*
X132505471Y-68650000I-200000J0D01*
G01*
G04 #@! TO.N,/PIN_J26 N*
X122750000Y-100124999D02*
X122750000Y-100500000D01*
X129949410Y-69750590D02*
X130250000Y-69750590D01*
X130050000Y-66631251D02*
X130000000Y-66581251D01*
X122800000Y-81667156D02*
X122800000Y-100074999D01*
X130050000Y-66812500D02*
X130050000Y-66631251D01*
X130050000Y-65620000D02*
X127430000Y-63000000D01*
X130000000Y-66225000D02*
X130000000Y-65868749D01*
X130050000Y-74417156D02*
X122800000Y-81667156D01*
X129248819Y-70675590D02*
X129248819Y-70874410D01*
X130000000Y-66862500D02*
X130050000Y-66812500D01*
X129749409Y-69750590D02*
X129949410Y-69750590D01*
X130701181Y-69800590D02*
X130701181Y-70149410D01*
X130000000Y-65868749D02*
X130050000Y-65818749D01*
X130050000Y-73798514D02*
X130050000Y-74417156D01*
X130050000Y-71475590D02*
X130050000Y-73798514D01*
X130000000Y-67000000D02*
X130000000Y-67356251D01*
X129749409Y-71375000D02*
X129949410Y-71375000D01*
X130050000Y-67406251D02*
X130050000Y-68450000D01*
X130050000Y-65818749D02*
X130050000Y-65620000D01*
X130450000Y-70175000D02*
X129749409Y-70175000D01*
X130000000Y-67356251D02*
X130050000Y-67406251D01*
X130675591Y-70175000D02*
X130450000Y-70175000D01*
X129248819Y-69051180D02*
X129248819Y-69250000D01*
X130000000Y-66581251D02*
X130000000Y-66225000D01*
X130250000Y-69775000D02*
X130675591Y-69775000D01*
X122800000Y-100074999D02*
X122750000Y-100124999D01*
X130000000Y-67000000D02*
X130000000Y-66862500D01*
X130250000Y-69750590D02*
X130250000Y-69775000D01*
X129949410Y-68550590D02*
X129749409Y-68550590D01*
X129749409Y-69750581D02*
G75*
G02*
X129248819Y-69250000I-9J500581D01*
G01*
X129949410Y-68550600D02*
G75*
G03*
X130050000Y-68450000I-10J100600D01*
G01*
X130701200Y-69800590D02*
G75*
G03*
X130675591Y-69775000I-25600J-10D01*
G01*
X129248790Y-69051180D02*
G75*
G02*
X129749409Y-68550590I500610J-20D01*
G01*
X130050000Y-71475590D02*
G75*
G03*
X129949410Y-71375000I-100600J-10D01*
G01*
X129248800Y-70675590D02*
G75*
G02*
X129749409Y-70175000I500600J-10D01*
G01*
X129749409Y-71374981D02*
G75*
G02*
X129248819Y-70874410I-9J500581D01*
G01*
X130675591Y-70174981D02*
G75*
G03*
X130701181Y-70149410I9J25581D01*
G01*
G04 #@! TO.N,/PIN_L22 P*
X143131251Y-75000000D02*
X142993751Y-75000000D01*
X137260052Y-76522795D02*
X137260051Y-76522793D01*
X128250000Y-100124999D02*
X128250000Y-100500000D01*
X136128681Y-77654166D02*
X136128680Y-77654164D01*
X133865939Y-79916908D02*
X133865938Y-79916906D01*
X128200000Y-85582844D02*
X128200000Y-100074999D01*
X143487502Y-75000000D02*
X143537502Y-74950000D01*
X136128679Y-77937008D02*
X136320052Y-78128381D01*
X138391422Y-75674264D02*
X138391421Y-75674266D01*
X135471524Y-78976909D02*
X135280152Y-78785537D01*
X134997308Y-79068379D02*
X135188681Y-79259752D01*
X137734266Y-76714167D02*
X137542894Y-76522795D01*
X134997310Y-78785537D02*
X134997309Y-78785535D01*
X133865938Y-79916909D02*
X133865939Y-79916908D01*
X142712502Y-75000000D02*
X142356251Y-75000000D01*
X136602895Y-77845538D02*
X136411523Y-77654166D01*
X136128680Y-77937006D02*
X136128679Y-77937008D01*
X142943751Y-74950000D02*
X142762502Y-74950000D01*
X138832844Y-74950000D02*
X138391422Y-75391422D01*
X142993751Y-75000000D02*
X142943751Y-74950000D01*
X141950000Y-74950000D02*
X138832844Y-74950000D01*
X134997309Y-79068377D02*
X134997308Y-79068379D01*
X137260051Y-76805635D02*
X137260050Y-76805637D01*
X136128680Y-77654167D02*
X136128681Y-77654166D01*
X142000000Y-75000000D02*
X141950000Y-74950000D01*
X142762502Y-74950000D02*
X142712502Y-75000000D01*
X142356251Y-75000000D02*
X142000000Y-75000000D01*
X133865938Y-79916906D02*
X128200000Y-85582844D01*
X134997309Y-78785538D02*
X134997310Y-78785537D01*
X134340153Y-80108280D02*
X134148781Y-79916908D01*
X138391421Y-75674266D02*
X138582794Y-75865639D01*
X143537502Y-74950000D02*
X144030000Y-74950000D01*
X144030000Y-74950000D02*
X147000000Y-77920000D01*
X143131251Y-75000000D02*
X143487502Y-75000000D01*
X128200000Y-100074999D02*
X128250000Y-100124999D01*
X137260051Y-76522796D02*
X137260052Y-76522795D01*
X137260050Y-76805637D02*
X137451423Y-76997010D01*
X134340154Y-80108279D02*
G75*
G03*
X135188680Y-80108279I424263J424263D01*
G01*
X138582790Y-76714163D02*
G75*
G03*
X138582793Y-75865640I-424290J424263D01*
G01*
X137260065Y-76805621D02*
G75*
G02*
X137260051Y-76522793I141435J141421D01*
G01*
X136128665Y-77937021D02*
G75*
G02*
X136128680Y-77654164I141435J141421D01*
G01*
X136128678Y-77654165D02*
G75*
G02*
X136411523Y-77654166I141422J-141435D01*
G01*
X135471525Y-78976908D02*
G75*
G03*
X136320051Y-78976908I424263J424263D01*
G01*
X133865979Y-79916949D02*
G75*
G02*
X134148781Y-79916908I141421J-141351D01*
G01*
X134997265Y-79068421D02*
G75*
G02*
X134997309Y-78785535I141435J141421D01*
G01*
X136602896Y-77845537D02*
G75*
G03*
X137451422Y-77845537I424263J424263D01*
G01*
X138391465Y-75674220D02*
G75*
G02*
X138391422Y-75391422I141335J141420D01*
G01*
X137451449Y-77845564D02*
G75*
G03*
X137451423Y-76997010I-424249J424264D01*
G01*
X135188665Y-80108264D02*
G75*
G03*
X135188681Y-79259752I-424265J424264D01*
G01*
X134997278Y-78785507D02*
G75*
G02*
X135280152Y-78785537I141422J-141493D01*
G01*
X137260078Y-76522823D02*
G75*
G02*
X137542894Y-76522795I141422J-141377D01*
G01*
X136320007Y-78976864D02*
G75*
G03*
X136320052Y-78128381I-424207J424264D01*
G01*
X137734267Y-76714166D02*
G75*
G03*
X138582793Y-76714166I424263J424263D01*
G01*
G04 #@! TO.N,/PIN_G25 N*
X109000000Y-66887500D02*
X109000000Y-67243751D01*
X109684274Y-70817137D02*
X109684274Y-71182863D01*
X109050000Y-66700000D02*
X109050000Y-66518751D01*
X109000000Y-67243751D02*
X109050000Y-67293751D01*
X109050000Y-71617137D02*
X109050000Y-72116003D01*
X108832863Y-70767137D02*
X109032863Y-70767137D01*
X109050000Y-80582844D02*
X119800000Y-91332844D01*
X119800000Y-100074999D02*
X119750000Y-100124999D01*
X119800000Y-91332844D02*
X119800000Y-100074999D01*
X109000000Y-66468751D02*
X109000000Y-66112500D01*
X109032863Y-69567137D02*
X108832863Y-69567137D01*
X109050000Y-72116003D02*
X109050000Y-80582844D01*
X109000000Y-65975000D02*
X109050000Y-65925000D01*
X119750000Y-100124999D02*
X119750000Y-100500000D01*
X109667137Y-71200000D02*
X109467137Y-71200000D01*
X109050000Y-66518751D02*
X109000000Y-66468751D01*
X109000000Y-66750000D02*
X109050000Y-66700000D01*
X109000000Y-66887500D02*
X109000000Y-66750000D01*
X109032863Y-70767137D02*
X109250000Y-70767137D01*
X109650000Y-64974314D02*
X109650000Y-63000000D01*
X109000000Y-66112500D02*
X109000000Y-65975000D01*
X108415726Y-69984274D02*
X108415726Y-70350000D01*
X109250000Y-70767137D02*
X109250000Y-70800000D01*
X109250000Y-70800000D02*
X109667137Y-70800000D01*
X109050000Y-65574314D02*
X109650000Y-64974314D01*
X109050000Y-67293751D02*
X109050000Y-69550000D01*
X109050000Y-65925000D02*
X109050000Y-65574314D01*
X108415737Y-69984274D02*
G75*
G02*
X108832863Y-69567137I417163J-26D01*
G01*
X109050000Y-71617137D02*
G75*
G02*
X109467137Y-71200000I417100J37D01*
G01*
X109667137Y-71200074D02*
G75*
G03*
X109684274Y-71182863I-37J17174D01*
G01*
X108832863Y-70767174D02*
G75*
G02*
X108415726Y-70350000I37J417174D01*
G01*
X109684200Y-70817137D02*
G75*
G03*
X109667137Y-70800000I-17100J37D01*
G01*
X109032863Y-69567100D02*
G75*
G03*
X109050000Y-69550000I37J17100D01*
G01*
G04 #@! TO.N,/PIN_J21 P*
X131950000Y-66100000D02*
X135050000Y-63000000D01*
X131950000Y-71250000D02*
X131950000Y-71859349D01*
X132000000Y-67000000D02*
X132000000Y-66862500D01*
X131950000Y-66812500D02*
X131950000Y-66631251D01*
X131950000Y-67406251D02*
X131950000Y-68050000D01*
X132000000Y-66581251D02*
X132000000Y-66225000D01*
X132000000Y-67000000D02*
X132000000Y-67356251D01*
X131950000Y-74832844D02*
X124200000Y-82582844D01*
X124200000Y-100074999D02*
X124250000Y-100124999D01*
X132000000Y-67356251D02*
X131950000Y-67406251D01*
X132505471Y-71050000D02*
X132150000Y-71050000D01*
X131950000Y-66631251D02*
X132000000Y-66581251D01*
X132150000Y-68250000D02*
X132505471Y-68250000D01*
X132000000Y-66862500D02*
X131950000Y-66812500D01*
X132505471Y-69450000D02*
X132150000Y-69450000D01*
X132150000Y-69850000D02*
X132505471Y-69850000D01*
X131950000Y-66175000D02*
X131950000Y-66100000D01*
X132000000Y-66225000D02*
X131950000Y-66175000D01*
X124250000Y-100124999D02*
X124250000Y-100500000D01*
X124200000Y-82582844D02*
X124200000Y-100074999D01*
X131950000Y-71859349D02*
X131950000Y-74832844D01*
X132150000Y-68250000D02*
G75*
G02*
X131950000Y-68050000I0J200000D01*
G01*
X133105500Y-68850000D02*
G75*
G03*
X132505471Y-68250000I-600000J0D01*
G01*
X131950000Y-69650000D02*
G75*
G02*
X132150000Y-69450000I200000J0D01*
G01*
X133105500Y-70450000D02*
G75*
G03*
X132505471Y-69850000I-600000J0D01*
G01*
X132150000Y-69850000D02*
G75*
G02*
X131950000Y-69650000I0J200000D01*
G01*
X132505471Y-71049971D02*
G75*
G03*
X133105471Y-70450000I29J599971D01*
G01*
X131950000Y-71250000D02*
G75*
G02*
X132150000Y-71050000I200000J0D01*
G01*
X132505471Y-69449971D02*
G75*
G03*
X133105471Y-68850000I29J599971D01*
G01*
G04 #@! TO.N,/PIN_D26 N*
X109618118Y-84058324D02*
X109476696Y-84199747D01*
X106436137Y-80490818D02*
X106436138Y-80490817D01*
X105304767Y-79359446D02*
X104989948Y-79674262D01*
X101062500Y-78950000D02*
X100689243Y-78950000D01*
X104707107Y-79391422D02*
X105021923Y-79076603D01*
X110710753Y-84906853D02*
X110749489Y-84945589D01*
X111739437Y-87272279D02*
X111778174Y-87311017D01*
X106436136Y-80207974D02*
X106436138Y-80207975D01*
X108486747Y-82926953D02*
X108345325Y-83068376D01*
X104989950Y-80522793D02*
X104989948Y-80522791D01*
X112870808Y-88403650D02*
X115800000Y-91332844D01*
X110608068Y-86140909D02*
X110608066Y-86140908D01*
X109579382Y-83775482D02*
X109618118Y-83814218D01*
X112973495Y-87169595D02*
X113012231Y-87208331D01*
X109476695Y-85009537D02*
X109515432Y-85048275D01*
X107355376Y-81795582D02*
X107213954Y-81937005D01*
X106436138Y-80490817D02*
X106121319Y-80805633D01*
X108345326Y-83878167D02*
X108345324Y-83878166D01*
X101112500Y-79000000D02*
X101062500Y-78950000D01*
X108448011Y-82644111D02*
X108486747Y-82682847D01*
X100009243Y-78270000D02*
X98150000Y-78270000D01*
X115800000Y-91332844D02*
X115800000Y-100074999D01*
X104989948Y-80522790D02*
X104989950Y-80522793D01*
X106121319Y-81654161D02*
X106121321Y-81654164D01*
X111880860Y-86321066D02*
X111739438Y-86462489D01*
X102243751Y-79000000D02*
X102293751Y-78950000D01*
X111739439Y-87272280D02*
X111739437Y-87272279D01*
X108345324Y-83878166D02*
X108384061Y-83916904D01*
X101468751Y-79000000D02*
X101112500Y-79000000D01*
X102293751Y-78950000D02*
X103417156Y-78950000D01*
X110325226Y-85048277D02*
X110466647Y-84906853D01*
X111842124Y-86038224D02*
X111880860Y-86076960D01*
X106931113Y-81654164D02*
X107072534Y-81512740D01*
X115800000Y-100074999D02*
X115750000Y-100124999D01*
X109476697Y-85009538D02*
X109476695Y-85009537D01*
X106121321Y-81654164D02*
X106121319Y-81654162D01*
X109193855Y-83916906D02*
X109335276Y-83775482D01*
X101518751Y-78950000D02*
X101468751Y-79000000D01*
X105304766Y-79359447D02*
X105304767Y-79359446D01*
X101887500Y-79000000D02*
X101750000Y-79000000D01*
X105838478Y-80522793D02*
X106153294Y-80207974D01*
X101700000Y-78950000D02*
X101518751Y-78950000D01*
X110608066Y-86140908D02*
X110646803Y-86179646D01*
X112587968Y-87311019D02*
X112729389Y-87169595D01*
X112870810Y-88403651D02*
X112870808Y-88403650D01*
X111456597Y-86179648D02*
X111598018Y-86038224D01*
X107213955Y-82746796D02*
X107213953Y-82746795D01*
X101750000Y-79000000D02*
X101700000Y-78950000D01*
X110749489Y-85189695D02*
X110608067Y-85331118D01*
X105304765Y-79076603D02*
X105304767Y-79076604D01*
X100689243Y-78950000D02*
X100009243Y-78270000D01*
X115750000Y-100124999D02*
X115750000Y-100500000D01*
X103417156Y-78950000D02*
X103858577Y-79391420D01*
X107316640Y-81512740D02*
X107355376Y-81551476D01*
X113012231Y-87452437D02*
X112870809Y-87593860D01*
X107213953Y-82746795D02*
X107252690Y-82785533D01*
X108062484Y-82785535D02*
X108203905Y-82644111D01*
X101887500Y-79000000D02*
X102243751Y-79000000D01*
X110608081Y-86140896D02*
G75*
G02*
X110608067Y-85331118I404919J404896D01*
G01*
X110710753Y-84906853D02*
G75*
G03*
X110466647Y-84906853I-122053J-122056D01*
G01*
X112973495Y-87169595D02*
G75*
G03*
X112729389Y-87169595I-122053J-122056D01*
G01*
X113012246Y-87452452D02*
G75*
G03*
X113012230Y-87208332I-122046J122052D01*
G01*
X108345297Y-83878196D02*
G75*
G02*
X108345325Y-83068376I404903J404896D01*
G01*
X107213955Y-82746796D02*
G75*
G02*
X107213954Y-81937005I404845J404896D01*
G01*
X106931095Y-81654146D02*
G75*
G02*
X106121320Y-81654161I-404895J404846D01*
G01*
X111842124Y-86038224D02*
G75*
G03*
X111598018Y-86038224I-122053J-122056D01*
G01*
X106121316Y-81654164D02*
G75*
G02*
X106121319Y-80805633I424284J424264D01*
G01*
X109618146Y-84058352D02*
G75*
G03*
X109618117Y-83814219I-122046J122052D01*
G01*
X111880846Y-86321052D02*
G75*
G03*
X111880859Y-86076961I-122046J122052D01*
G01*
X110749446Y-85189652D02*
G75*
G03*
X110749488Y-84945590I-122046J122052D01*
G01*
X105304765Y-79076603D02*
G75*
G03*
X105021923Y-79076603I-141421J-141426D01*
G01*
X109579382Y-83775482D02*
G75*
G03*
X109335276Y-83775482I-122053J-122056D01*
G01*
X104707063Y-79391378D02*
G75*
G02*
X103858578Y-79391419I-424263J424178D01*
G01*
X109193896Y-83916947D02*
G75*
G02*
X108384061Y-83916904I-404896J404947D01*
G01*
X108448011Y-82644111D02*
G75*
G03*
X108203905Y-82644111I-122053J-122056D01*
G01*
X111739424Y-87272295D02*
G75*
G02*
X111739439Y-86462490I404876J404895D01*
G01*
X106436141Y-80490822D02*
G75*
G03*
X106436138Y-80207975I-141441J141422D01*
G01*
X105838464Y-80522779D02*
G75*
G02*
X104989948Y-80522791I-424264J424279D01*
G01*
X108486746Y-82926952D02*
G75*
G03*
X108486746Y-82682848I-122046J122052D01*
G01*
X106436136Y-80207974D02*
G75*
G03*
X106153294Y-80207974I-141421J-141426D01*
G01*
X107316640Y-81512740D02*
G75*
G03*
X107072534Y-81512740I-122053J-122056D01*
G01*
X112587996Y-87311047D02*
G75*
G02*
X111778174Y-87311017I-404896J404947D01*
G01*
X105304741Y-79359422D02*
G75*
G03*
X105304767Y-79076604I-141441J141422D01*
G01*
X109476739Y-85009496D02*
G75*
G02*
X109476696Y-84199747I404861J404896D01*
G01*
X112870766Y-88403695D02*
G75*
G02*
X112870810Y-87593861I404934J404895D01*
G01*
X110325195Y-85048246D02*
G75*
G02*
X109515433Y-85048274I-404895J404846D01*
G01*
X111456596Y-86179647D02*
G75*
G02*
X110646803Y-86179646I-404896J404947D01*
G01*
X107355346Y-81795552D02*
G75*
G03*
X107355375Y-81551477I-122046J122052D01*
G01*
X104989974Y-80522764D02*
G75*
G02*
X104989948Y-79674262I424226J424264D01*
G01*
X108062496Y-82785547D02*
G75*
G02*
X107252690Y-82785533I-404896J404947D01*
G01*
G04 #@! TO.N,/PIN_J26 P*
X130500000Y-66225000D02*
X130500000Y-65868749D01*
X130450000Y-65818749D02*
X130450000Y-65454314D01*
X129949410Y-69350590D02*
X130250000Y-69350590D01*
X130500000Y-65868749D02*
X130450000Y-65818749D01*
X129970000Y-64974314D02*
X129970000Y-63000000D01*
X130450000Y-74582844D02*
X123200000Y-81832844D01*
X130450000Y-66812500D02*
X130450000Y-66631251D01*
X123200000Y-100074999D02*
X123250000Y-100124999D01*
X130450000Y-73798514D02*
X130450000Y-74582844D01*
X130450000Y-66631251D02*
X130500000Y-66581251D01*
X130450000Y-65454314D02*
X129970000Y-64974314D01*
X130450000Y-70575000D02*
X129749409Y-70575000D01*
X130250000Y-69375000D02*
X130675591Y-69375000D01*
X130500000Y-66581251D02*
X130500000Y-66225000D01*
X123250000Y-100124999D02*
X123250000Y-100500000D01*
X130500000Y-66862500D02*
X130450000Y-66812500D01*
X129648819Y-70675590D02*
X129648819Y-70874410D01*
X130450000Y-71475590D02*
X130450000Y-73798514D01*
X129749409Y-69350590D02*
X129949410Y-69350590D01*
X130500000Y-67000000D02*
X130500000Y-67356251D01*
X130250000Y-69350590D02*
X130250000Y-69375000D01*
X129648819Y-69051180D02*
X129648819Y-69250000D01*
X130500000Y-67000000D02*
X130500000Y-66862500D01*
X130675591Y-70575000D02*
X130450000Y-70575000D01*
X129949410Y-68950590D02*
X129749409Y-68950590D01*
X129749409Y-70975000D02*
X129949410Y-70975000D01*
X131101181Y-69800590D02*
X131101181Y-70149410D01*
X123200000Y-81832844D02*
X123200000Y-100074999D01*
X130450000Y-67406251D02*
X130450000Y-68450000D01*
X130500000Y-67356251D02*
X130450000Y-67406251D01*
X129749409Y-70974981D02*
G75*
G02*
X129648819Y-70874410I-9J100581D01*
G01*
X131101200Y-69800590D02*
G75*
G03*
X130675591Y-69375000I-425600J-10D01*
G01*
X129648790Y-69051180D02*
G75*
G02*
X129749409Y-68950590I100610J-20D01*
G01*
X130450000Y-71475590D02*
G75*
G03*
X129949410Y-70975000I-500600J-10D01*
G01*
X129648800Y-70675590D02*
G75*
G02*
X129749409Y-70575000I100600J-10D01*
G01*
X129749409Y-69350581D02*
G75*
G02*
X129648819Y-69250000I-9J100581D01*
G01*
X129949410Y-68950600D02*
G75*
G03*
X130450000Y-68450000I-10J500600D01*
G01*
X130675591Y-70574981D02*
G75*
G03*
X131101181Y-70149410I9J425581D01*
G01*
G04 #@! TO.N,/PIN_A23 N*
X108730897Y-86549960D02*
X108982585Y-86298271D01*
X108730898Y-86549959D02*
X108730897Y-86549960D01*
X106468158Y-84287219D02*
X106468157Y-84287220D01*
X111528168Y-88843854D02*
X111276479Y-89095542D01*
X103608578Y-80924263D02*
X103608578Y-80924264D01*
X110396798Y-87712483D02*
X110396798Y-87712484D01*
X111528168Y-88561012D02*
X111528168Y-88561011D01*
X114800000Y-91832844D02*
X114800000Y-100074999D01*
X106468157Y-84287220D02*
X106719845Y-84035531D01*
X101050000Y-80450000D02*
X98150000Y-83350000D01*
X108134058Y-85449744D02*
X107882369Y-85701432D01*
X109862267Y-87681330D02*
X110113955Y-87429641D01*
X110396798Y-87712484D02*
X110145109Y-87964172D01*
X105336788Y-83155849D02*
X105336787Y-83155850D01*
X103608578Y-80924264D02*
X103356889Y-81175952D01*
X103417156Y-80450000D02*
X103608578Y-80641421D01*
X110993638Y-88812699D02*
X110993637Y-88812700D01*
X101887500Y-80500000D02*
X102243751Y-80500000D01*
X104205418Y-82024479D02*
X104205417Y-82024480D01*
X110993637Y-88812700D02*
X111245325Y-88561011D01*
X107599528Y-85418589D02*
X107599527Y-85418590D01*
X107599527Y-85418590D02*
X107851215Y-85166901D01*
X107002688Y-84035532D02*
X107002688Y-84035531D01*
X101518751Y-80450000D02*
X101468751Y-80500000D01*
X109862268Y-87681329D02*
X109862267Y-87681330D01*
X102293751Y-80450000D02*
X103417156Y-80450000D01*
X112125007Y-89944070D02*
X112376695Y-89692381D01*
X105871318Y-82904162D02*
X105871318Y-82904161D01*
X110396798Y-87429642D02*
X110396798Y-87429641D01*
X108134058Y-85166902D02*
X108134058Y-85166901D01*
X104739948Y-81772792D02*
X104739948Y-81772791D01*
X101468751Y-80500000D02*
X101112500Y-80500000D01*
X107002688Y-84318373D02*
X107002688Y-84318374D01*
X114800000Y-100074999D02*
X114750000Y-100124999D01*
X109265428Y-86581114D02*
X109013739Y-86832802D01*
X114750000Y-100124999D02*
X114750000Y-100500000D01*
X101062500Y-80450000D02*
X101050000Y-80450000D01*
X111528168Y-88843853D02*
X111528168Y-88843854D01*
X104739948Y-82055634D02*
X104488259Y-82307322D01*
X112125008Y-89944069D02*
X112125007Y-89944070D01*
X101887500Y-80500000D02*
X101750000Y-80500000D01*
X107002688Y-84318374D02*
X106750999Y-84570062D01*
X109265428Y-86298272D02*
X109265428Y-86298271D01*
X104739948Y-82055633D02*
X104739948Y-82055634D01*
X108134058Y-85449743D02*
X108134058Y-85449744D01*
X102243751Y-80500000D02*
X102293751Y-80450000D01*
X109265428Y-86581113D02*
X109265428Y-86581114D01*
X112659538Y-89692382D02*
X112659538Y-89692381D01*
X105871318Y-83187004D02*
X105619629Y-83438692D01*
X105871318Y-83187003D02*
X105871318Y-83187004D01*
X101112500Y-80500000D02*
X101062500Y-80450000D01*
X104205417Y-82024480D02*
X104457105Y-81772791D01*
X112659538Y-89692381D02*
X114800000Y-91832844D01*
X105336787Y-83155850D02*
X105588475Y-82904161D01*
X101750000Y-80500000D02*
X101700000Y-80450000D01*
X101700000Y-80450000D02*
X101518751Y-80450000D01*
X110396836Y-87712521D02*
G75*
G03*
X110396798Y-87429641I-141436J141421D01*
G01*
X110145145Y-88812664D02*
G75*
G02*
X110145109Y-87964172I424255J424264D01*
G01*
X104739922Y-81772818D02*
G75*
G03*
X104457105Y-81772791I-141422J-141382D01*
G01*
X107882365Y-86549964D02*
G75*
G02*
X107882369Y-85701432I424235J424264D01*
G01*
X105336764Y-83155825D02*
G75*
G02*
X104488260Y-83155849I-424264J424225D01*
G01*
X108134022Y-85166938D02*
G75*
G03*
X107851215Y-85166901I-141422J-141362D01*
G01*
X109862264Y-87681325D02*
G75*
G02*
X109013740Y-87681329I-424264J424225D01*
G01*
X104739936Y-82055621D02*
G75*
G03*
X104739948Y-81772791I-141436J141421D01*
G01*
X105619586Y-84287263D02*
G75*
G02*
X105619630Y-83438693I424314J424263D01*
G01*
X108730864Y-86549925D02*
G75*
G02*
X107882370Y-86549959I-424264J424225D01*
G01*
X111528122Y-88561058D02*
G75*
G03*
X111245325Y-88561011I-141422J-141342D01*
G01*
X112659521Y-89692399D02*
G75*
G03*
X112376696Y-89692382I-141421J-141401D01*
G01*
X109265436Y-86581121D02*
G75*
G03*
X109265428Y-86298271I-141436J141421D01*
G01*
X108134036Y-85449721D02*
G75*
G03*
X108134058Y-85166901I-141436J141421D01*
G01*
X104488245Y-83155864D02*
G75*
G02*
X104488259Y-82307322I424255J424264D01*
G01*
X107002722Y-84035498D02*
G75*
G03*
X106719845Y-84035531I-141422J-141502D01*
G01*
X105871336Y-83187021D02*
G75*
G03*
X105871318Y-82904161I-141436J141421D01*
G01*
X111276485Y-89944064D02*
G75*
G02*
X111276479Y-89095542I424215J424264D01*
G01*
X104205465Y-82024526D02*
G75*
G02*
X103356889Y-82024480I-424265J424326D01*
G01*
X109265421Y-86298279D02*
G75*
G03*
X108982586Y-86298272I-141421J-141421D01*
G01*
X110396822Y-87429618D02*
G75*
G03*
X110113955Y-87429641I-141422J-141482D01*
G01*
X106751025Y-85418564D02*
G75*
G02*
X106750999Y-84570062I424275J424264D01*
G01*
X106468164Y-84287225D02*
G75*
G02*
X105619630Y-84287219I-424264J424225D01*
G01*
X112124964Y-89944025D02*
G75*
G02*
X111276480Y-89944069I-424264J424225D01*
G01*
X111528136Y-88843821D02*
G75*
G03*
X111528168Y-88561011I-141436J141421D01*
G01*
X103356906Y-82024463D02*
G75*
G02*
X103356890Y-81175953I424294J424263D01*
G01*
X107599565Y-85418626D02*
G75*
G02*
X106750999Y-85418590I-424265J424326D01*
G01*
X103608536Y-80924221D02*
G75*
G03*
X103608578Y-80641421I-141336J141421D01*
G01*
X107002736Y-84318421D02*
G75*
G03*
X107002688Y-84035531I-141436J141421D01*
G01*
X105871322Y-82904158D02*
G75*
G03*
X105588475Y-82904161I-141422J-141442D01*
G01*
X110993665Y-88812726D02*
G75*
G02*
X110145109Y-88812700I-424265J424326D01*
G01*
X109013706Y-87681363D02*
G75*
G02*
X109013740Y-86832803I424294J424263D01*
G01*
G04 #@! TO.N,/PIN_F25 P*
X119250000Y-100124999D02*
X119250000Y-100500000D01*
X107950000Y-66700000D02*
X107950000Y-66518751D01*
X107950000Y-65814314D02*
X107900000Y-65764314D01*
X107900000Y-65575000D02*
X107710686Y-65575000D01*
X108000000Y-66887500D02*
X108000000Y-66750000D01*
X107950000Y-80417156D02*
X119200000Y-91667156D01*
X107900000Y-65764314D02*
X107900000Y-65575000D01*
X119200000Y-100074999D02*
X119250000Y-100124999D01*
X107110000Y-64974314D02*
X107110000Y-63000000D01*
X108000000Y-66750000D02*
X107950000Y-66700000D01*
X108000000Y-67243751D02*
X107950000Y-67293751D01*
X107950000Y-70650000D02*
X107950000Y-72629312D01*
X107950000Y-66518751D02*
X108000000Y-66468751D01*
X107710686Y-65575000D02*
X107110000Y-64974314D01*
X119200000Y-91667156D02*
X119200000Y-100074999D01*
X107950000Y-66062500D02*
X107950000Y-65814314D01*
X108000000Y-66887500D02*
X108000000Y-67243751D01*
X108000000Y-66112500D02*
X107950000Y-66062500D01*
X107950000Y-67293751D02*
X107950000Y-69050000D01*
X108000000Y-66468751D02*
X108000000Y-66112500D01*
X107950000Y-72629312D02*
X107950000Y-80417156D01*
X107350000Y-69650000D02*
X106963547Y-69650000D01*
X106963547Y-70050000D02*
X107350000Y-70050000D01*
X107350000Y-69650000D02*
G75*
G03*
X107950000Y-69050000I0J600000D01*
G01*
X106963547Y-70049953D02*
G75*
G02*
X106763547Y-69850000I-47J199953D01*
G01*
X106763500Y-69850000D02*
G75*
G02*
X106963547Y-69650000I200000J0D01*
G01*
X107950000Y-70650000D02*
G75*
G03*
X107350000Y-70050000I-600000J0D01*
G01*
G04 #@! TO.N,/PIN_F25 N*
X107500000Y-66887500D02*
X107500000Y-67243751D01*
X118800000Y-100074999D02*
X118750000Y-100124999D01*
X107550000Y-66062500D02*
X107550000Y-65980000D01*
X107500000Y-67243751D02*
X107550000Y-67293751D01*
X118750000Y-100124999D02*
X118750000Y-100500000D01*
X107550000Y-65980000D02*
X104570000Y-63000000D01*
X107550000Y-72629312D02*
X107550000Y-80582844D01*
X107500000Y-66887500D02*
X107500000Y-66750000D01*
X107350000Y-69250000D02*
X106963547Y-69250000D01*
X107500000Y-66750000D02*
X107550000Y-66700000D01*
X107550000Y-80582844D02*
X118800000Y-91832844D01*
X118800000Y-91832844D02*
X118800000Y-100074999D01*
X107550000Y-70650000D02*
X107550000Y-72629312D01*
X106963547Y-70450000D02*
X107350000Y-70450000D01*
X107550000Y-67293751D02*
X107550000Y-69050000D01*
X107500000Y-66112500D02*
X107550000Y-66062500D01*
X107550000Y-66518751D02*
X107500000Y-66468751D01*
X107500000Y-66468751D02*
X107500000Y-66112500D01*
X107550000Y-66700000D02*
X107550000Y-66518751D01*
X106363500Y-69850000D02*
G75*
G02*
X106963547Y-69250000I600000J0D01*
G01*
X107550000Y-70650000D02*
G75*
G03*
X107350000Y-70450000I-200000J0D01*
G01*
X107350000Y-69250000D02*
G75*
G03*
X107550000Y-69050000I0J200000D01*
G01*
X106963547Y-70449953D02*
G75*
G02*
X106363547Y-69850000I-47J599953D01*
G01*
D21*
G04 #@! TO.N,Net-(J5-Pad61)*
X114000000Y-102250000D02*
X114750000Y-101500000D01*
X114000000Y-102500000D02*
X114000000Y-102250000D01*
G04 #@! TO.N,Net-(J5-Pad59)*
X115250000Y-102250000D02*
X115250000Y-101500000D01*
X115000000Y-102500000D02*
X115250000Y-102250000D01*
G04 #@! TO.N,Net-(J5-Pad57)*
X116000000Y-102500000D02*
X115750000Y-102250000D01*
X115750000Y-102250000D02*
X115750000Y-101500000D01*
G04 #@! TO.N,Net-(J5-Pad55)*
X117000000Y-102500000D02*
X117000000Y-102250000D01*
X117000000Y-102250000D02*
X116250000Y-101500000D01*
G04 #@! TO.N,Net-(J5-Pad51)*
X118000000Y-102250000D02*
X118750000Y-101500000D01*
X118000000Y-102500000D02*
X118000000Y-102250000D01*
G04 #@! TO.N,Net-(J5-Pad49)*
X119000000Y-102500000D02*
X119250000Y-102250000D01*
X119250000Y-102250000D02*
X119250000Y-101500000D01*
G04 #@! TO.N,Net-(J5-Pad47)*
X119750000Y-102250000D02*
X119750000Y-101500000D01*
X120000000Y-102500000D02*
X119750000Y-102250000D01*
G04 #@! TO.N,Net-(J5-Pad45)*
X121000000Y-102250000D02*
X120250000Y-101500000D01*
X121000000Y-102500000D02*
X121000000Y-102250000D01*
G04 #@! TO.N,Net-(J5-Pad41)*
X122000000Y-102500000D02*
X122000000Y-102250000D01*
X122000000Y-102250000D02*
X122750000Y-101500000D01*
G04 #@! TO.N,Net-(J5-Pad39)*
X123000000Y-102500000D02*
X123250000Y-102250000D01*
X123250000Y-102250000D02*
X123250000Y-101500000D01*
G04 #@! TO.N,Net-(J5-Pad37)*
X123750000Y-102269928D02*
X123999317Y-102519245D01*
X123750000Y-101500000D02*
X123750000Y-102269928D01*
G04 #@! TO.N,Net-(J5-Pad35)*
X124250000Y-101500000D02*
X124250000Y-101738402D01*
X124250000Y-101738402D02*
X124998289Y-102486691D01*
G04 #@! TO.N,Net-(J5-Pad31)*
X126000000Y-102250000D02*
X126750000Y-101500000D01*
X126000000Y-102500000D02*
X126000000Y-102250000D01*
G04 #@! TO.N,Net-(J5-Pad29)*
X127250000Y-102250000D02*
X127250000Y-101500000D01*
X127000000Y-102500000D02*
X127250000Y-102250000D01*
G04 #@! TO.N,Net-(J5-Pad27)*
X127750000Y-102250000D02*
X127750000Y-101500000D01*
X128000000Y-102500000D02*
X127750000Y-102250000D01*
G04 #@! TO.N,Net-(J5-Pad25)*
X129000000Y-102250000D02*
X128250000Y-101500000D01*
X129000000Y-102500000D02*
X129000000Y-102250000D01*
G04 #@! TD*
M02*
