G04 #@! TF.GenerationSoftware,KiCad,Pcbnew,6.0.7-1.fc35*
G04 #@! TF.CreationDate,2022-09-05T19:11:37-05:00*
G04 #@! TF.ProjectId,pmod-adapter,706d6f64-2d61-4646-9170-7465722e6b69,rev?*
G04 #@! TF.SameCoordinates,Original*
G04 #@! TF.FileFunction,Copper,L3,Inr*
G04 #@! TF.FilePolarity,Positive*
%FSLAX46Y46*%
G04 Gerber Fmt 4.6, Leading zero omitted, Abs format (unit mm)*
G04 Created by KiCad (PCBNEW 6.0.7-1.fc35) date 2022-09-05 19:11:37*
%MOMM*%
%LPD*%
G01*
G04 APERTURE LIST*
G04 #@! TA.AperFunction,ComponentPad*
%ADD10R,1.700000X1.700000*%
G04 #@! TD*
G04 #@! TA.AperFunction,ComponentPad*
%ADD11O,1.700000X1.700000*%
G04 #@! TD*
G04 #@! TA.AperFunction,ViaPad*
%ADD12C,0.800000*%
G04 #@! TD*
G04 APERTURE END LIST*
D10*
G04 #@! TO.N,/PIN_N19 N*
G04 #@! TO.C,J1*
X147000000Y-70300000D03*
D11*
G04 #@! TO.N,/PIN_N19 P*
X147000000Y-72840000D03*
G04 #@! TO.N,/PIN_L22 N*
X147000000Y-75380000D03*
G04 #@! TO.N,/PIN_L22 P*
X147000000Y-77920000D03*
G04 #@! TO.N,GND*
X147000000Y-80460000D03*
G04 #@! TO.N,+3.3V*
X147000000Y-83000000D03*
G04 #@! TO.N,/PIN_J24 N*
X149540000Y-70300000D03*
G04 #@! TO.N,/PIN_J24 P*
X149540000Y-72840000D03*
G04 #@! TO.N,/PIN_M24 N*
X149540000Y-75380000D03*
G04 #@! TO.N,/PIN_M24 P*
X149540000Y-77920000D03*
G04 #@! TO.N,GND*
X149540000Y-80460000D03*
G04 #@! TO.N,+3.3V*
X149540000Y-83000000D03*
G04 #@! TD*
D10*
G04 #@! TO.N,/PIN_J26 N*
G04 #@! TO.C,J2*
X127430000Y-63000000D03*
D11*
G04 #@! TO.N,/PIN_J26 P*
X129970000Y-63000000D03*
G04 #@! TO.N,/PIN_J21 N*
X132510000Y-63000000D03*
G04 #@! TO.N,/PIN_J21 P*
X135050000Y-63000000D03*
G04 #@! TO.N,GND*
X137590000Y-63000000D03*
G04 #@! TO.N,+3.3V*
X140130000Y-63000000D03*
G04 #@! TO.N,/PIN_E21 N*
X127430000Y-60460000D03*
G04 #@! TO.N,/PIN_E21 P*
X129970000Y-60460000D03*
G04 #@! TO.N,/PIN_H21 N*
X132510000Y-60460000D03*
G04 #@! TO.N,/PIN_H21 P*
X135050000Y-60460000D03*
G04 #@! TO.N,GND*
X137590000Y-60460000D03*
G04 #@! TO.N,+3.3V*
X140130000Y-60460000D03*
G04 #@! TD*
D10*
G04 #@! TO.N,/PIN_F25 N*
G04 #@! TO.C,J3*
X104570000Y-63000000D03*
D11*
G04 #@! TO.N,/PIN_F25 P*
X107110000Y-63000000D03*
G04 #@! TO.N,/PIN_G25 N*
X109650000Y-63000000D03*
G04 #@! TO.N,/PIN_G25 P*
X112190000Y-63000000D03*
G04 #@! TO.N,GND*
X114730000Y-63000000D03*
G04 #@! TO.N,+3.3V*
X117270000Y-63000000D03*
G04 #@! TO.N,/PIN_E25 N*
X104570000Y-60460000D03*
G04 #@! TO.N,/PIN_E25 P*
X107110000Y-60460000D03*
G04 #@! TO.N,/PIN_G22 N*
X109650000Y-60460000D03*
G04 #@! TO.N,/PIN_G22 P*
X112190000Y-60460000D03*
G04 #@! TO.N,GND*
X114730000Y-60460000D03*
G04 #@! TO.N,+3.3V*
X117270000Y-60460000D03*
G04 #@! TD*
D10*
G04 #@! TO.N,/PIN_A23 N*
G04 #@! TO.C,J4*
X98150000Y-83350000D03*
D11*
G04 #@! TO.N,/PIN_A23 P*
X98150000Y-80810000D03*
G04 #@! TO.N,/PIN_D26 N*
X98150000Y-78270000D03*
G04 #@! TO.N,/PIN_D26 P*
X98150000Y-75730000D03*
G04 #@! TO.N,GND*
X98150000Y-73190000D03*
G04 #@! TO.N,+3.3V*
X98150000Y-70650000D03*
G04 #@! TO.N,/PIN_F22 N*
X95610000Y-83350000D03*
G04 #@! TO.N,/PIN_F22 P*
X95610000Y-80810000D03*
G04 #@! TO.N,/PIN_D23 N*
X95610000Y-78270000D03*
G04 #@! TO.N,/PIN_D23 P*
X95610000Y-75730000D03*
G04 #@! TO.N,GND*
X95610000Y-73190000D03*
G04 #@! TO.N,+3.3V*
X95610000Y-70650000D03*
G04 #@! TD*
D12*
G04 #@! TO.N,GND*
X137500000Y-89000000D03*
X100126928Y-79472519D03*
X136500000Y-89000000D03*
X135500000Y-91000000D03*
X129300000Y-95700000D03*
X125300000Y-95800000D03*
X135500000Y-89000000D03*
X104500000Y-94000000D03*
X138500000Y-89000000D03*
X121300000Y-95800000D03*
X109300000Y-95800000D03*
X108500000Y-65000000D03*
X106900000Y-95900000D03*
X116924500Y-96276944D03*
X131000000Y-65000000D03*
X135500000Y-90000000D03*
X144750000Y-74000000D03*
X112960806Y-95664694D03*
X104500000Y-98000000D03*
G04 #@! TO.N,Net-(J5-Pad61)*
X114000000Y-102500000D03*
G04 #@! TO.N,Net-(J5-Pad59)*
X115000000Y-102500000D03*
G04 #@! TO.N,Net-(J5-Pad57)*
X116000000Y-102500000D03*
G04 #@! TO.N,Net-(J5-Pad55)*
X117000000Y-102500000D03*
G04 #@! TO.N,Net-(J5-Pad51)*
X118000000Y-102500000D03*
G04 #@! TO.N,Net-(J5-Pad49)*
X119000000Y-102500000D03*
G04 #@! TO.N,Net-(J5-Pad47)*
X120000000Y-102500000D03*
G04 #@! TO.N,Net-(J5-Pad45)*
X121000000Y-102500000D03*
G04 #@! TO.N,Net-(J5-Pad41)*
X122000000Y-102500000D03*
G04 #@! TO.N,Net-(J5-Pad39)*
X123000000Y-102500000D03*
G04 #@! TO.N,Net-(J5-Pad37)*
X123999317Y-102519245D03*
G04 #@! TO.N,Net-(J5-Pad35)*
X124998289Y-102486691D03*
G04 #@! TO.N,Net-(J5-Pad31)*
X126000000Y-102500000D03*
G04 #@! TO.N,Net-(J5-Pad29)*
X127000000Y-102500000D03*
G04 #@! TO.N,Net-(J5-Pad27)*
X128000000Y-102500000D03*
G04 #@! TO.N,Net-(J5-Pad25)*
X129000000Y-102500000D03*
G04 #@! TD*
G04 #@! TA.AperFunction,Conductor*
G04 #@! TO.N,GND*
G36*
X143942121Y-56520002D02*
G01*
X143988614Y-56573658D01*
X144000000Y-56626000D01*
X144000000Y-67500000D01*
X153374000Y-67500000D01*
X153442121Y-67520002D01*
X153488614Y-67573658D01*
X153500000Y-67626000D01*
X153500000Y-85874000D01*
X153479998Y-85942121D01*
X153426342Y-85988614D01*
X153374000Y-86000000D01*
X144000000Y-86000000D01*
X144000000Y-101874000D01*
X143979998Y-101942121D01*
X143926342Y-101988614D01*
X143874000Y-102000000D01*
X129828403Y-102000000D01*
X129760282Y-101979998D01*
X129734770Y-101958313D01*
X129611253Y-101821134D01*
X129503571Y-101742898D01*
X129462094Y-101712763D01*
X129462093Y-101712762D01*
X129456752Y-101708882D01*
X129450724Y-101706198D01*
X129450722Y-101706197D01*
X129288319Y-101633891D01*
X129288318Y-101633891D01*
X129282288Y-101631206D01*
X129186027Y-101610745D01*
X129101944Y-101592872D01*
X129101939Y-101592872D01*
X129095487Y-101591500D01*
X128904513Y-101591500D01*
X128898061Y-101592872D01*
X128898056Y-101592872D01*
X128813973Y-101610745D01*
X128717712Y-101631206D01*
X128551248Y-101705320D01*
X128480882Y-101714754D01*
X128448753Y-101705320D01*
X128282288Y-101631206D01*
X128186027Y-101610745D01*
X128101944Y-101592872D01*
X128101939Y-101592872D01*
X128095487Y-101591500D01*
X127904513Y-101591500D01*
X127898061Y-101592872D01*
X127898056Y-101592872D01*
X127813973Y-101610745D01*
X127717712Y-101631206D01*
X127551248Y-101705320D01*
X127480882Y-101714754D01*
X127448753Y-101705320D01*
X127282288Y-101631206D01*
X127186027Y-101610745D01*
X127101944Y-101592872D01*
X127101939Y-101592872D01*
X127095487Y-101591500D01*
X126904513Y-101591500D01*
X126898061Y-101592872D01*
X126898056Y-101592872D01*
X126813973Y-101610745D01*
X126717712Y-101631206D01*
X126551248Y-101705320D01*
X126480882Y-101714754D01*
X126448753Y-101705320D01*
X126282288Y-101631206D01*
X126186027Y-101610745D01*
X126101944Y-101592872D01*
X126101939Y-101592872D01*
X126095487Y-101591500D01*
X125904513Y-101591500D01*
X125898061Y-101592872D01*
X125898056Y-101592872D01*
X125813973Y-101610745D01*
X125717712Y-101631206D01*
X125579172Y-101692888D01*
X125564332Y-101699495D01*
X125493965Y-101708929D01*
X125455165Y-101695293D01*
X125455041Y-101695573D01*
X125409615Y-101675348D01*
X125286608Y-101620582D01*
X125286607Y-101620582D01*
X125280577Y-101617897D01*
X125187176Y-101598044D01*
X125100233Y-101579563D01*
X125100228Y-101579563D01*
X125093776Y-101578191D01*
X124902802Y-101578191D01*
X124896350Y-101579563D01*
X124896345Y-101579563D01*
X124809402Y-101598044D01*
X124716001Y-101617897D01*
X124709971Y-101620582D01*
X124709970Y-101620582D01*
X124547567Y-101692888D01*
X124547565Y-101692889D01*
X124541537Y-101695573D01*
X124536196Y-101699454D01*
X124530478Y-101702755D01*
X124529173Y-101700496D01*
X124473305Y-101720449D01*
X124414825Y-101709764D01*
X124281605Y-101650451D01*
X124184610Y-101629834D01*
X124101261Y-101612117D01*
X124101256Y-101612117D01*
X124094804Y-101610745D01*
X123903830Y-101610745D01*
X123897378Y-101612117D01*
X123897373Y-101612117D01*
X123814024Y-101629834D01*
X123717029Y-101650451D01*
X123572602Y-101714754D01*
X123570805Y-101715554D01*
X123500438Y-101724988D01*
X123458756Y-101710338D01*
X123456752Y-101708882D01*
X123450724Y-101706198D01*
X123450722Y-101706197D01*
X123288319Y-101633891D01*
X123288318Y-101633891D01*
X123282288Y-101631206D01*
X123186027Y-101610745D01*
X123101944Y-101592872D01*
X123101939Y-101592872D01*
X123095487Y-101591500D01*
X122904513Y-101591500D01*
X122898061Y-101592872D01*
X122898056Y-101592872D01*
X122813973Y-101610745D01*
X122717712Y-101631206D01*
X122551248Y-101705320D01*
X122480882Y-101714754D01*
X122448753Y-101705320D01*
X122282288Y-101631206D01*
X122186027Y-101610745D01*
X122101944Y-101592872D01*
X122101939Y-101592872D01*
X122095487Y-101591500D01*
X121904513Y-101591500D01*
X121898061Y-101592872D01*
X121898056Y-101592872D01*
X121813973Y-101610745D01*
X121717712Y-101631206D01*
X121551248Y-101705320D01*
X121480882Y-101714754D01*
X121448753Y-101705320D01*
X121282288Y-101631206D01*
X121186027Y-101610745D01*
X121101944Y-101592872D01*
X121101939Y-101592872D01*
X121095487Y-101591500D01*
X120904513Y-101591500D01*
X120898061Y-101592872D01*
X120898056Y-101592872D01*
X120813973Y-101610745D01*
X120717712Y-101631206D01*
X120551248Y-101705320D01*
X120480882Y-101714754D01*
X120448753Y-101705320D01*
X120282288Y-101631206D01*
X120186027Y-101610745D01*
X120101944Y-101592872D01*
X120101939Y-101592872D01*
X120095487Y-101591500D01*
X119904513Y-101591500D01*
X119898061Y-101592872D01*
X119898056Y-101592872D01*
X119813973Y-101610745D01*
X119717712Y-101631206D01*
X119551248Y-101705320D01*
X119480882Y-101714754D01*
X119448753Y-101705320D01*
X119282288Y-101631206D01*
X119186027Y-101610745D01*
X119101944Y-101592872D01*
X119101939Y-101592872D01*
X119095487Y-101591500D01*
X118904513Y-101591500D01*
X118898061Y-101592872D01*
X118898056Y-101592872D01*
X118813973Y-101610745D01*
X118717712Y-101631206D01*
X118551248Y-101705320D01*
X118480882Y-101714754D01*
X118448753Y-101705320D01*
X118282288Y-101631206D01*
X118186027Y-101610745D01*
X118101944Y-101592872D01*
X118101939Y-101592872D01*
X118095487Y-101591500D01*
X117904513Y-101591500D01*
X117898061Y-101592872D01*
X117898056Y-101592872D01*
X117813973Y-101610745D01*
X117717712Y-101631206D01*
X117551248Y-101705320D01*
X117480882Y-101714754D01*
X117448753Y-101705320D01*
X117282288Y-101631206D01*
X117186027Y-101610745D01*
X117101944Y-101592872D01*
X117101939Y-101592872D01*
X117095487Y-101591500D01*
X116904513Y-101591500D01*
X116898061Y-101592872D01*
X116898056Y-101592872D01*
X116813973Y-101610745D01*
X116717712Y-101631206D01*
X116551248Y-101705320D01*
X116480882Y-101714754D01*
X116448753Y-101705320D01*
X116282288Y-101631206D01*
X116186027Y-101610745D01*
X116101944Y-101592872D01*
X116101939Y-101592872D01*
X116095487Y-101591500D01*
X115904513Y-101591500D01*
X115898061Y-101592872D01*
X115898056Y-101592872D01*
X115813973Y-101610745D01*
X115717712Y-101631206D01*
X115551248Y-101705320D01*
X115480882Y-101714754D01*
X115448753Y-101705320D01*
X115282288Y-101631206D01*
X115186027Y-101610745D01*
X115101944Y-101592872D01*
X115101939Y-101592872D01*
X115095487Y-101591500D01*
X114904513Y-101591500D01*
X114898061Y-101592872D01*
X114898056Y-101592872D01*
X114813973Y-101610745D01*
X114717712Y-101631206D01*
X114551248Y-101705320D01*
X114480882Y-101714754D01*
X114448753Y-101705320D01*
X114282288Y-101631206D01*
X114186027Y-101610745D01*
X114101944Y-101592872D01*
X114101939Y-101592872D01*
X114095487Y-101591500D01*
X113904513Y-101591500D01*
X113898061Y-101592872D01*
X113898056Y-101592872D01*
X113813973Y-101610745D01*
X113717712Y-101631206D01*
X113711682Y-101633891D01*
X113711681Y-101633891D01*
X113549278Y-101706197D01*
X113549276Y-101706198D01*
X113543248Y-101708882D01*
X113537907Y-101712762D01*
X113537906Y-101712763D01*
X113496429Y-101742898D01*
X113388747Y-101821134D01*
X113265232Y-101958312D01*
X113204787Y-101995550D01*
X113171597Y-102000000D01*
X101126000Y-102000000D01*
X101057879Y-101979998D01*
X101011386Y-101926342D01*
X101000000Y-101874000D01*
X101000000Y-96095487D01*
X103491500Y-96095487D01*
X103492872Y-96101939D01*
X103492872Y-96101944D01*
X103505792Y-96162725D01*
X103531206Y-96282288D01*
X103533891Y-96288318D01*
X103533891Y-96288319D01*
X103566934Y-96362534D01*
X103608882Y-96456752D01*
X103721134Y-96611253D01*
X103863056Y-96739040D01*
X104028444Y-96834527D01*
X104210072Y-96893542D01*
X104216633Y-96894232D01*
X104216635Y-96894232D01*
X104269889Y-96899829D01*
X104352390Y-96908500D01*
X104447610Y-96908500D01*
X104530111Y-96899829D01*
X104583365Y-96894232D01*
X104583367Y-96894232D01*
X104589928Y-96893542D01*
X104771556Y-96834527D01*
X104936944Y-96739040D01*
X105078866Y-96611253D01*
X105191118Y-96456752D01*
X105233067Y-96362534D01*
X105266109Y-96288319D01*
X105266109Y-96288318D01*
X105268794Y-96282288D01*
X105294208Y-96162725D01*
X105307128Y-96101944D01*
X105307128Y-96101939D01*
X105308500Y-96095487D01*
X105308500Y-95945604D01*
X139487787Y-95945604D01*
X139497567Y-96156899D01*
X139498971Y-96162724D01*
X139498971Y-96162725D01*
X139526230Y-96275831D01*
X139547125Y-96362534D01*
X139549607Y-96367992D01*
X139549608Y-96367996D01*
X139592392Y-96462094D01*
X139634674Y-96555087D01*
X139757054Y-96727611D01*
X139909850Y-96873881D01*
X140087548Y-96988620D01*
X140093114Y-96990863D01*
X140278168Y-97065442D01*
X140278171Y-97065443D01*
X140283737Y-97067686D01*
X140491337Y-97108228D01*
X140496899Y-97108500D01*
X140652846Y-97108500D01*
X140810566Y-97093452D01*
X141013534Y-97033908D01*
X141097111Y-96990863D01*
X141196249Y-96939804D01*
X141196252Y-96939802D01*
X141201580Y-96937058D01*
X141367920Y-96806396D01*
X141371852Y-96801865D01*
X141371855Y-96801862D01*
X141502621Y-96651167D01*
X141506552Y-96646637D01*
X141509552Y-96641451D01*
X141509555Y-96641447D01*
X141609467Y-96468742D01*
X141612473Y-96463546D01*
X141681861Y-96263729D01*
X141706255Y-96095487D01*
X141711352Y-96060336D01*
X141711352Y-96060333D01*
X141712213Y-96054396D01*
X141702433Y-95843101D01*
X141652875Y-95637466D01*
X141610037Y-95543248D01*
X141567806Y-95450368D01*
X141565326Y-95444913D01*
X141442946Y-95272389D01*
X141290150Y-95126119D01*
X141112452Y-95011380D01*
X141052354Y-94987160D01*
X140921832Y-94934558D01*
X140921829Y-94934557D01*
X140916263Y-94932314D01*
X140708663Y-94891772D01*
X140703101Y-94891500D01*
X140547154Y-94891500D01*
X140389434Y-94906548D01*
X140186466Y-94966092D01*
X140181139Y-94968836D01*
X140181138Y-94968836D01*
X140003751Y-95060196D01*
X140003748Y-95060198D01*
X139998420Y-95062942D01*
X139832080Y-95193604D01*
X139828148Y-95198135D01*
X139828145Y-95198138D01*
X139759474Y-95277275D01*
X139693448Y-95353363D01*
X139690448Y-95358549D01*
X139690445Y-95358553D01*
X139643312Y-95440026D01*
X139587527Y-95536454D01*
X139518139Y-95736271D01*
X139517278Y-95742206D01*
X139517278Y-95742208D01*
X139492788Y-95911116D01*
X139487787Y-95945604D01*
X105308500Y-95945604D01*
X105308500Y-95904513D01*
X105295447Y-95843101D01*
X105288647Y-95811112D01*
X105268794Y-95717712D01*
X105266109Y-95711681D01*
X105193803Y-95549278D01*
X105193802Y-95549276D01*
X105191118Y-95543248D01*
X105078866Y-95388747D01*
X104936944Y-95260960D01*
X104771556Y-95165473D01*
X104589928Y-95106458D01*
X104583367Y-95105768D01*
X104583365Y-95105768D01*
X104530111Y-95100171D01*
X104447610Y-95091500D01*
X104352390Y-95091500D01*
X104269889Y-95100171D01*
X104216635Y-95105768D01*
X104216633Y-95105768D01*
X104210072Y-95106458D01*
X104028444Y-95165473D01*
X103863056Y-95260960D01*
X103721134Y-95388747D01*
X103608882Y-95543248D01*
X103606198Y-95549276D01*
X103606197Y-95549278D01*
X103533891Y-95711681D01*
X103531206Y-95717712D01*
X103511353Y-95811112D01*
X103504554Y-95843101D01*
X103491500Y-95904513D01*
X103491500Y-96095487D01*
X101000000Y-96095487D01*
X101000000Y-86000000D01*
X91626000Y-86000000D01*
X91557879Y-85979998D01*
X91511386Y-85926342D01*
X91500000Y-85874000D01*
X91500000Y-83316695D01*
X94247251Y-83316695D01*
X94247548Y-83321848D01*
X94247548Y-83321851D01*
X94258192Y-83506453D01*
X94260110Y-83539715D01*
X94261247Y-83544761D01*
X94261248Y-83544767D01*
X94275911Y-83609829D01*
X94309222Y-83757639D01*
X94393266Y-83964616D01*
X94398979Y-83973938D01*
X94488021Y-84119242D01*
X94509987Y-84155088D01*
X94656250Y-84323938D01*
X94828126Y-84466632D01*
X95021000Y-84579338D01*
X95229692Y-84659030D01*
X95234760Y-84660061D01*
X95234763Y-84660062D01*
X95342017Y-84681883D01*
X95448597Y-84703567D01*
X95453772Y-84703757D01*
X95453774Y-84703757D01*
X95666673Y-84711564D01*
X95666677Y-84711564D01*
X95671837Y-84711753D01*
X95676957Y-84711097D01*
X95676959Y-84711097D01*
X95888288Y-84684025D01*
X95888289Y-84684025D01*
X95893416Y-84683368D01*
X95898366Y-84681883D01*
X96102429Y-84620661D01*
X96102434Y-84620659D01*
X96107384Y-84619174D01*
X96307994Y-84520896D01*
X96489860Y-84391173D01*
X96598091Y-84283319D01*
X96660462Y-84249404D01*
X96731268Y-84254592D01*
X96788030Y-84297238D01*
X96805012Y-84328341D01*
X96849385Y-84446705D01*
X96936739Y-84563261D01*
X97053295Y-84650615D01*
X97189684Y-84701745D01*
X97251866Y-84708500D01*
X99048134Y-84708500D01*
X99110316Y-84701745D01*
X99246705Y-84650615D01*
X99363261Y-84563261D01*
X99450615Y-84446705D01*
X99501745Y-84310316D01*
X99508500Y-84248134D01*
X99508500Y-82966695D01*
X145637251Y-82966695D01*
X145637548Y-82971848D01*
X145637548Y-82971851D01*
X145643011Y-83066590D01*
X145650110Y-83189715D01*
X145651247Y-83194761D01*
X145651248Y-83194767D01*
X145671119Y-83282939D01*
X145699222Y-83407639D01*
X145783266Y-83614616D01*
X145834019Y-83697438D01*
X145897291Y-83800688D01*
X145899987Y-83805088D01*
X146046250Y-83973938D01*
X146218126Y-84116632D01*
X146411000Y-84229338D01*
X146415825Y-84231180D01*
X146415826Y-84231181D01*
X146477133Y-84254592D01*
X146619692Y-84309030D01*
X146624760Y-84310061D01*
X146624763Y-84310062D01*
X146709196Y-84327240D01*
X146838597Y-84353567D01*
X146843772Y-84353757D01*
X146843774Y-84353757D01*
X147056673Y-84361564D01*
X147056677Y-84361564D01*
X147061837Y-84361753D01*
X147066957Y-84361097D01*
X147066959Y-84361097D01*
X147278288Y-84334025D01*
X147278289Y-84334025D01*
X147283416Y-84333368D01*
X147314848Y-84323938D01*
X147492429Y-84270661D01*
X147492434Y-84270659D01*
X147497384Y-84269174D01*
X147697994Y-84170896D01*
X147879860Y-84041173D01*
X148038096Y-83883489D01*
X148097594Y-83800689D01*
X148168453Y-83702077D01*
X148169776Y-83703028D01*
X148216645Y-83659857D01*
X148286580Y-83647625D01*
X148352026Y-83675144D01*
X148379875Y-83706994D01*
X148439987Y-83805088D01*
X148586250Y-83973938D01*
X148758126Y-84116632D01*
X148951000Y-84229338D01*
X148955825Y-84231180D01*
X148955826Y-84231181D01*
X149017133Y-84254592D01*
X149159692Y-84309030D01*
X149164760Y-84310061D01*
X149164763Y-84310062D01*
X149249196Y-84327240D01*
X149378597Y-84353567D01*
X149383772Y-84353757D01*
X149383774Y-84353757D01*
X149596673Y-84361564D01*
X149596677Y-84361564D01*
X149601837Y-84361753D01*
X149606957Y-84361097D01*
X149606959Y-84361097D01*
X149818288Y-84334025D01*
X149818289Y-84334025D01*
X149823416Y-84333368D01*
X149854848Y-84323938D01*
X150032429Y-84270661D01*
X150032434Y-84270659D01*
X150037384Y-84269174D01*
X150237994Y-84170896D01*
X150419860Y-84041173D01*
X150578096Y-83883489D01*
X150637594Y-83800689D01*
X150705435Y-83706277D01*
X150708453Y-83702077D01*
X150729320Y-83659857D01*
X150805136Y-83506453D01*
X150805137Y-83506451D01*
X150807430Y-83501811D01*
X150872370Y-83288069D01*
X150901529Y-83066590D01*
X150903156Y-83000000D01*
X150884852Y-82777361D01*
X150830431Y-82560702D01*
X150741354Y-82355840D01*
X150652052Y-82217800D01*
X150622822Y-82172617D01*
X150622820Y-82172614D01*
X150620014Y-82168277D01*
X150469670Y-82003051D01*
X150465619Y-81999852D01*
X150465615Y-81999848D01*
X150298414Y-81867800D01*
X150298410Y-81867798D01*
X150294359Y-81864598D01*
X150252569Y-81841529D01*
X150202598Y-81791097D01*
X150187826Y-81721654D01*
X150212942Y-81655248D01*
X150240294Y-81628641D01*
X150415328Y-81503792D01*
X150423200Y-81497139D01*
X150574052Y-81346812D01*
X150580730Y-81338965D01*
X150705003Y-81166020D01*
X150710313Y-81157183D01*
X150804670Y-80966267D01*
X150808469Y-80956672D01*
X150870377Y-80752910D01*
X150872555Y-80742837D01*
X150873986Y-80731962D01*
X150871775Y-80717778D01*
X150858617Y-80714000D01*
X145683225Y-80714000D01*
X145669694Y-80717973D01*
X145668257Y-80727966D01*
X145698565Y-80862446D01*
X145701645Y-80872275D01*
X145781770Y-81069603D01*
X145786413Y-81078794D01*
X145897694Y-81260388D01*
X145903777Y-81268699D01*
X146043213Y-81429667D01*
X146050580Y-81436883D01*
X146214434Y-81572916D01*
X146222881Y-81578831D01*
X146291969Y-81619203D01*
X146340693Y-81670842D01*
X146353764Y-81740625D01*
X146327033Y-81806396D01*
X146286584Y-81839752D01*
X146273607Y-81846507D01*
X146269474Y-81849610D01*
X146269471Y-81849612D01*
X146171292Y-81923327D01*
X146094965Y-81980635D01*
X146071188Y-82005516D01*
X145950931Y-82131358D01*
X145940629Y-82142138D01*
X145937720Y-82146403D01*
X145937714Y-82146411D01*
X145925404Y-82164457D01*
X145814743Y-82326680D01*
X145788932Y-82382285D01*
X145762995Y-82438163D01*
X145720688Y-82529305D01*
X145660989Y-82744570D01*
X145637251Y-82966695D01*
X99508500Y-82966695D01*
X99508500Y-82451866D01*
X99501745Y-82389684D01*
X99450615Y-82253295D01*
X99363261Y-82136739D01*
X99246705Y-82049385D01*
X99219905Y-82039338D01*
X99128203Y-82004960D01*
X99071439Y-81962318D01*
X99046739Y-81895756D01*
X99061947Y-81826408D01*
X99083493Y-81797727D01*
X99184435Y-81697137D01*
X99188096Y-81693489D01*
X99204370Y-81670842D01*
X99315435Y-81516277D01*
X99318453Y-81512077D01*
X99339320Y-81469857D01*
X99415136Y-81316453D01*
X99415137Y-81316451D01*
X99417430Y-81311811D01*
X99464410Y-81157183D01*
X99480865Y-81103023D01*
X99480865Y-81103021D01*
X99482370Y-81098069D01*
X99511529Y-80876590D01*
X99511611Y-80873240D01*
X99513074Y-80813365D01*
X99513074Y-80813361D01*
X99513156Y-80810000D01*
X99494852Y-80587361D01*
X99440431Y-80370702D01*
X99351354Y-80165840D01*
X99260807Y-80025875D01*
X99232822Y-79982617D01*
X99232820Y-79982614D01*
X99230014Y-79978277D01*
X99079670Y-79813051D01*
X99075619Y-79809852D01*
X99075615Y-79809848D01*
X98908414Y-79677800D01*
X98908410Y-79677798D01*
X98904359Y-79674598D01*
X98863053Y-79651796D01*
X98813084Y-79601364D01*
X98798312Y-79531921D01*
X98823428Y-79465516D01*
X98850780Y-79438909D01*
X98894603Y-79407650D01*
X99029860Y-79311173D01*
X99188096Y-79153489D01*
X99247594Y-79070689D01*
X99315435Y-78976277D01*
X99318453Y-78972077D01*
X99322361Y-78964171D01*
X99415136Y-78776453D01*
X99415137Y-78776451D01*
X99417430Y-78771811D01*
X99482370Y-78558069D01*
X99511529Y-78336590D01*
X99513156Y-78270000D01*
X99494852Y-78047361D01*
X99454495Y-77886695D01*
X145637251Y-77886695D01*
X145637548Y-77891848D01*
X145637548Y-77891851D01*
X145643011Y-77986590D01*
X145650110Y-78109715D01*
X145651247Y-78114761D01*
X145651248Y-78114767D01*
X145671119Y-78202939D01*
X145699222Y-78327639D01*
X145783266Y-78534616D01*
X145834019Y-78617438D01*
X145897291Y-78720688D01*
X145899987Y-78725088D01*
X146046250Y-78893938D01*
X146218126Y-79036632D01*
X146276406Y-79070688D01*
X146291955Y-79079774D01*
X146340679Y-79131412D01*
X146353750Y-79201195D01*
X146327019Y-79266967D01*
X146286562Y-79300327D01*
X146278457Y-79304546D01*
X146269738Y-79310036D01*
X146099433Y-79437905D01*
X146091726Y-79444748D01*
X145944590Y-79598717D01*
X145938104Y-79606727D01*
X145818098Y-79782649D01*
X145813000Y-79791623D01*
X145723338Y-79984783D01*
X145719775Y-79994470D01*
X145664389Y-80194183D01*
X145665912Y-80202607D01*
X145678292Y-80206000D01*
X150858344Y-80206000D01*
X150871875Y-80202027D01*
X150873180Y-80192947D01*
X150831214Y-80025875D01*
X150827894Y-80016124D01*
X150742972Y-79820814D01*
X150738105Y-79811739D01*
X150622426Y-79632926D01*
X150616136Y-79624757D01*
X150472806Y-79467240D01*
X150465273Y-79460215D01*
X150298139Y-79328222D01*
X150289556Y-79322520D01*
X150252602Y-79302120D01*
X150202631Y-79251687D01*
X150187859Y-79182245D01*
X150212975Y-79115839D01*
X150240327Y-79089232D01*
X150266325Y-79070688D01*
X150419860Y-78961173D01*
X150463561Y-78917625D01*
X150574435Y-78807137D01*
X150578096Y-78803489D01*
X150637594Y-78720689D01*
X150705435Y-78626277D01*
X150708453Y-78622077D01*
X150729320Y-78579857D01*
X150805136Y-78426453D01*
X150805137Y-78426451D01*
X150807430Y-78421811D01*
X150839900Y-78314940D01*
X150870865Y-78213023D01*
X150870865Y-78213021D01*
X150872370Y-78208069D01*
X150901529Y-77986590D01*
X150903156Y-77920000D01*
X150884852Y-77697361D01*
X150830431Y-77480702D01*
X150741354Y-77275840D01*
X150652052Y-77137800D01*
X150622822Y-77092617D01*
X150622820Y-77092614D01*
X150620014Y-77088277D01*
X150469670Y-76923051D01*
X150465619Y-76919852D01*
X150465615Y-76919848D01*
X150298414Y-76787800D01*
X150298410Y-76787798D01*
X150294359Y-76784598D01*
X150253053Y-76761796D01*
X150203084Y-76711364D01*
X150188312Y-76641921D01*
X150213428Y-76575516D01*
X150240780Y-76548909D01*
X150284603Y-76517650D01*
X150419860Y-76421173D01*
X150463561Y-76377625D01*
X150574435Y-76267137D01*
X150578096Y-76263489D01*
X150637594Y-76180689D01*
X150705435Y-76086277D01*
X150708453Y-76082077D01*
X150729320Y-76039857D01*
X150805136Y-75886453D01*
X150805137Y-75886451D01*
X150807430Y-75881811D01*
X150839900Y-75774940D01*
X150870865Y-75673023D01*
X150870865Y-75673021D01*
X150872370Y-75668069D01*
X150901529Y-75446590D01*
X150903156Y-75380000D01*
X150884852Y-75157361D01*
X150830431Y-74940702D01*
X150741354Y-74735840D01*
X150652052Y-74597800D01*
X150622822Y-74552617D01*
X150622820Y-74552614D01*
X150620014Y-74548277D01*
X150469670Y-74383051D01*
X150465619Y-74379852D01*
X150465615Y-74379848D01*
X150298414Y-74247800D01*
X150298410Y-74247798D01*
X150294359Y-74244598D01*
X150253053Y-74221796D01*
X150203084Y-74171364D01*
X150188312Y-74101921D01*
X150213428Y-74035516D01*
X150240780Y-74008909D01*
X150284603Y-73977650D01*
X150419860Y-73881173D01*
X150436896Y-73864197D01*
X150574435Y-73727137D01*
X150578096Y-73723489D01*
X150637594Y-73640689D01*
X150705435Y-73546277D01*
X150708453Y-73542077D01*
X150729320Y-73499857D01*
X150805136Y-73346453D01*
X150805137Y-73346451D01*
X150807430Y-73341811D01*
X150872370Y-73128069D01*
X150901529Y-72906590D01*
X150903156Y-72840000D01*
X150884852Y-72617361D01*
X150830431Y-72400702D01*
X150741354Y-72195840D01*
X150620014Y-72008277D01*
X150469670Y-71843051D01*
X150465619Y-71839852D01*
X150465615Y-71839848D01*
X150298414Y-71707800D01*
X150298410Y-71707798D01*
X150294359Y-71704598D01*
X150253053Y-71681796D01*
X150203084Y-71631364D01*
X150188312Y-71561921D01*
X150213428Y-71495516D01*
X150240780Y-71468909D01*
X150284603Y-71437650D01*
X150419860Y-71341173D01*
X150463561Y-71297625D01*
X150563616Y-71197918D01*
X150578096Y-71183489D01*
X150708453Y-71002077D01*
X150807430Y-70801811D01*
X150839900Y-70694940D01*
X150870865Y-70593023D01*
X150870865Y-70593021D01*
X150872370Y-70588069D01*
X150901529Y-70366590D01*
X150903156Y-70300000D01*
X150884852Y-70077361D01*
X150830431Y-69860702D01*
X150741354Y-69655840D01*
X150652052Y-69517800D01*
X150622822Y-69472617D01*
X150622820Y-69472614D01*
X150620014Y-69468277D01*
X150469670Y-69303051D01*
X150465619Y-69299852D01*
X150465615Y-69299848D01*
X150298414Y-69167800D01*
X150298410Y-69167798D01*
X150294359Y-69164598D01*
X150098789Y-69056638D01*
X150093920Y-69054914D01*
X150093916Y-69054912D01*
X149893087Y-68983795D01*
X149893083Y-68983794D01*
X149888212Y-68982069D01*
X149883119Y-68981162D01*
X149883116Y-68981161D01*
X149673373Y-68943800D01*
X149673367Y-68943799D01*
X149668284Y-68942894D01*
X149594452Y-68941992D01*
X149450081Y-68940228D01*
X149450079Y-68940228D01*
X149444911Y-68940165D01*
X149224091Y-68973955D01*
X149011756Y-69043357D01*
X148813607Y-69146507D01*
X148809474Y-69149610D01*
X148809471Y-69149612D01*
X148639100Y-69277530D01*
X148634965Y-69280635D01*
X148578537Y-69339684D01*
X148554283Y-69365064D01*
X148492759Y-69400494D01*
X148421846Y-69397037D01*
X148364060Y-69355791D01*
X148345207Y-69322243D01*
X148303767Y-69211703D01*
X148300615Y-69203295D01*
X148213261Y-69086739D01*
X148096705Y-68999385D01*
X147960316Y-68948255D01*
X147898134Y-68941500D01*
X146101866Y-68941500D01*
X146039684Y-68948255D01*
X145903295Y-68999385D01*
X145786739Y-69086739D01*
X145699385Y-69203295D01*
X145648255Y-69339684D01*
X145641500Y-69401866D01*
X145641500Y-71198134D01*
X145648255Y-71260316D01*
X145699385Y-71396705D01*
X145786739Y-71513261D01*
X145903295Y-71600615D01*
X145911704Y-71603767D01*
X145911705Y-71603768D01*
X146020451Y-71644535D01*
X146077216Y-71687176D01*
X146101916Y-71753738D01*
X146086709Y-71823087D01*
X146067316Y-71849568D01*
X145962712Y-71959030D01*
X145940629Y-71982138D01*
X145937720Y-71986403D01*
X145937714Y-71986411D01*
X145904879Y-72034546D01*
X145814743Y-72166680D01*
X145720688Y-72369305D01*
X145660989Y-72584570D01*
X145637251Y-72806695D01*
X145637548Y-72811848D01*
X145637548Y-72811851D01*
X145649812Y-73024547D01*
X145650110Y-73029715D01*
X145651247Y-73034761D01*
X145651248Y-73034767D01*
X145671119Y-73122939D01*
X145699222Y-73247639D01*
X145737461Y-73341811D01*
X145780569Y-73447973D01*
X145783266Y-73454616D01*
X145834019Y-73537438D01*
X145897291Y-73640688D01*
X145899987Y-73645088D01*
X146046250Y-73813938D01*
X146218126Y-73956632D01*
X146275884Y-73990383D01*
X146291445Y-73999476D01*
X146340169Y-74051114D01*
X146353240Y-74120897D01*
X146326509Y-74186669D01*
X146286055Y-74220027D01*
X146273607Y-74226507D01*
X146269474Y-74229610D01*
X146269471Y-74229612D01*
X146110191Y-74349203D01*
X146094965Y-74360635D01*
X145940629Y-74522138D01*
X145937720Y-74526403D01*
X145937714Y-74526411D01*
X145903541Y-74576507D01*
X145814743Y-74706680D01*
X145799003Y-74740590D01*
X145735961Y-74876403D01*
X145720688Y-74909305D01*
X145660989Y-75124570D01*
X145637251Y-75346695D01*
X145637548Y-75351848D01*
X145637548Y-75351851D01*
X145643011Y-75446590D01*
X145650110Y-75569715D01*
X145651247Y-75574761D01*
X145651248Y-75574767D01*
X145671119Y-75662939D01*
X145699222Y-75787639D01*
X145783266Y-75994616D01*
X145834019Y-76077438D01*
X145897291Y-76180688D01*
X145899987Y-76185088D01*
X146046250Y-76353938D01*
X146218126Y-76496632D01*
X146276406Y-76530688D01*
X146291445Y-76539476D01*
X146340169Y-76591114D01*
X146353240Y-76660897D01*
X146326509Y-76726669D01*
X146286055Y-76760027D01*
X146273607Y-76766507D01*
X146269474Y-76769610D01*
X146269471Y-76769612D01*
X146245247Y-76787800D01*
X146094965Y-76900635D01*
X146091393Y-76904373D01*
X146000828Y-76999144D01*
X145940629Y-77062138D01*
X145937720Y-77066403D01*
X145937714Y-77066411D01*
X145925404Y-77084457D01*
X145814743Y-77246680D01*
X145799003Y-77280590D01*
X145735961Y-77416403D01*
X145720688Y-77449305D01*
X145660989Y-77664570D01*
X145637251Y-77886695D01*
X99454495Y-77886695D01*
X99440431Y-77830702D01*
X99351354Y-77625840D01*
X99257460Y-77480702D01*
X99232822Y-77442617D01*
X99232820Y-77442614D01*
X99230014Y-77438277D01*
X99079670Y-77273051D01*
X99075619Y-77269852D01*
X99075615Y-77269848D01*
X98908414Y-77137800D01*
X98908410Y-77137798D01*
X98904359Y-77134598D01*
X98863053Y-77111796D01*
X98813084Y-77061364D01*
X98798312Y-76991921D01*
X98823428Y-76925516D01*
X98850780Y-76898909D01*
X98894603Y-76867650D01*
X99029860Y-76771173D01*
X99034543Y-76766507D01*
X99184435Y-76617137D01*
X99188096Y-76613489D01*
X99241280Y-76539476D01*
X99315435Y-76436277D01*
X99318453Y-76432077D01*
X99322361Y-76424171D01*
X99415136Y-76236453D01*
X99415137Y-76236451D01*
X99417430Y-76231811D01*
X99482370Y-76018069D01*
X99511529Y-75796590D01*
X99513156Y-75730000D01*
X99494852Y-75507361D01*
X99440431Y-75290702D01*
X99351354Y-75085840D01*
X99257460Y-74940702D01*
X99232822Y-74902617D01*
X99232820Y-74902614D01*
X99230014Y-74898277D01*
X99079670Y-74733051D01*
X99075619Y-74729852D01*
X99075615Y-74729848D01*
X98908414Y-74597800D01*
X98908410Y-74597798D01*
X98904359Y-74594598D01*
X98862569Y-74571529D01*
X98812598Y-74521097D01*
X98797826Y-74451654D01*
X98822942Y-74385248D01*
X98850294Y-74358641D01*
X99025328Y-74233792D01*
X99033200Y-74227139D01*
X99184052Y-74076812D01*
X99190730Y-74068965D01*
X99315003Y-73896020D01*
X99320313Y-73887183D01*
X99414670Y-73696267D01*
X99418469Y-73686672D01*
X99480377Y-73482910D01*
X99482555Y-73472837D01*
X99483986Y-73461962D01*
X99481775Y-73447778D01*
X99468617Y-73444000D01*
X94293225Y-73444000D01*
X94279694Y-73447973D01*
X94278257Y-73457966D01*
X94308565Y-73592446D01*
X94311645Y-73602275D01*
X94391770Y-73799603D01*
X94396413Y-73808794D01*
X94507694Y-73990388D01*
X94513777Y-73998699D01*
X94653213Y-74159667D01*
X94660580Y-74166883D01*
X94824434Y-74302916D01*
X94832881Y-74308831D01*
X94901969Y-74349203D01*
X94950693Y-74400842D01*
X94963764Y-74470625D01*
X94937033Y-74536396D01*
X94896584Y-74569752D01*
X94883607Y-74576507D01*
X94879474Y-74579610D01*
X94879471Y-74579612D01*
X94709100Y-74707530D01*
X94704965Y-74710635D01*
X94550629Y-74872138D01*
X94424743Y-75056680D01*
X94330688Y-75259305D01*
X94270989Y-75474570D01*
X94247251Y-75696695D01*
X94247548Y-75701848D01*
X94247548Y-75701851D01*
X94258192Y-75886453D01*
X94260110Y-75919715D01*
X94261247Y-75924761D01*
X94261248Y-75924767D01*
X94275911Y-75989829D01*
X94309222Y-76137639D01*
X94393266Y-76344616D01*
X94437947Y-76417529D01*
X94507291Y-76530688D01*
X94509987Y-76535088D01*
X94656250Y-76703938D01*
X94828126Y-76846632D01*
X94898595Y-76887811D01*
X94901445Y-76889476D01*
X94950169Y-76941114D01*
X94963240Y-77010897D01*
X94936509Y-77076669D01*
X94896055Y-77110027D01*
X94883607Y-77116507D01*
X94879474Y-77119610D01*
X94879471Y-77119612D01*
X94709100Y-77247530D01*
X94704965Y-77250635D01*
X94550629Y-77412138D01*
X94424743Y-77596680D01*
X94330688Y-77799305D01*
X94270989Y-78014570D01*
X94247251Y-78236695D01*
X94247548Y-78241848D01*
X94247548Y-78241851D01*
X94258192Y-78426453D01*
X94260110Y-78459715D01*
X94261247Y-78464761D01*
X94261248Y-78464767D01*
X94275911Y-78529829D01*
X94309222Y-78677639D01*
X94393266Y-78884616D01*
X94437947Y-78957529D01*
X94507291Y-79070688D01*
X94509987Y-79075088D01*
X94656250Y-79243938D01*
X94828126Y-79386632D01*
X94898595Y-79427811D01*
X94901445Y-79429476D01*
X94950169Y-79481114D01*
X94963240Y-79550897D01*
X94936509Y-79616669D01*
X94896055Y-79650027D01*
X94883607Y-79656507D01*
X94879474Y-79659610D01*
X94879471Y-79659612D01*
X94855247Y-79677800D01*
X94704965Y-79790635D01*
X94550629Y-79952138D01*
X94424743Y-80136680D01*
X94330688Y-80339305D01*
X94270989Y-80554570D01*
X94247251Y-80776695D01*
X94247548Y-80781848D01*
X94247548Y-80781851D01*
X94253011Y-80876590D01*
X94260110Y-80999715D01*
X94261247Y-81004761D01*
X94261248Y-81004767D01*
X94275860Y-81069603D01*
X94309222Y-81217639D01*
X94393266Y-81424616D01*
X94437708Y-81497139D01*
X94507291Y-81610688D01*
X94509987Y-81615088D01*
X94656250Y-81783938D01*
X94828126Y-81926632D01*
X94889196Y-81962318D01*
X94901445Y-81969476D01*
X94950169Y-82021114D01*
X94963240Y-82090897D01*
X94936509Y-82156669D01*
X94896055Y-82190027D01*
X94883607Y-82196507D01*
X94879474Y-82199610D01*
X94879471Y-82199612D01*
X94709100Y-82327530D01*
X94704965Y-82330635D01*
X94676339Y-82360590D01*
X94611280Y-82428671D01*
X94550629Y-82492138D01*
X94424743Y-82676680D01*
X94330688Y-82879305D01*
X94270989Y-83094570D01*
X94247251Y-83316695D01*
X91500000Y-83316695D01*
X91500000Y-70616695D01*
X94247251Y-70616695D01*
X94247548Y-70621848D01*
X94247548Y-70621851D01*
X94258192Y-70806453D01*
X94260110Y-70839715D01*
X94261247Y-70844761D01*
X94261248Y-70844767D01*
X94281119Y-70932939D01*
X94309222Y-71057639D01*
X94347461Y-71151811D01*
X94376213Y-71222618D01*
X94393266Y-71264616D01*
X94437947Y-71337529D01*
X94507291Y-71450688D01*
X94509987Y-71455088D01*
X94656250Y-71623938D01*
X94828126Y-71766632D01*
X94855524Y-71782642D01*
X94901955Y-71809774D01*
X94950679Y-71861412D01*
X94963750Y-71931195D01*
X94937019Y-71996967D01*
X94896562Y-72030327D01*
X94888457Y-72034546D01*
X94879738Y-72040036D01*
X94709433Y-72167905D01*
X94701726Y-72174748D01*
X94554590Y-72328717D01*
X94548104Y-72336727D01*
X94428098Y-72512649D01*
X94423000Y-72521623D01*
X94333338Y-72714783D01*
X94329775Y-72724470D01*
X94274389Y-72924183D01*
X94275912Y-72932607D01*
X94288292Y-72936000D01*
X99468344Y-72936000D01*
X99481875Y-72932027D01*
X99483180Y-72922947D01*
X99441214Y-72755875D01*
X99437894Y-72746124D01*
X99352972Y-72550814D01*
X99348105Y-72541739D01*
X99232426Y-72362926D01*
X99226136Y-72354757D01*
X99082806Y-72197240D01*
X99075273Y-72190215D01*
X98908139Y-72058222D01*
X98899556Y-72052520D01*
X98862602Y-72032120D01*
X98812631Y-71981687D01*
X98797859Y-71912245D01*
X98822975Y-71845839D01*
X98850327Y-71819232D01*
X98901624Y-71782642D01*
X99029860Y-71691173D01*
X99034543Y-71686507D01*
X99184435Y-71537137D01*
X99188096Y-71533489D01*
X99241280Y-71459476D01*
X99315435Y-71356277D01*
X99318453Y-71352077D01*
X99322361Y-71344171D01*
X99415136Y-71156453D01*
X99415137Y-71156451D01*
X99417430Y-71151811D01*
X99482370Y-70938069D01*
X99511529Y-70716590D01*
X99513156Y-70650000D01*
X99494852Y-70427361D01*
X99440431Y-70210702D01*
X99351354Y-70005840D01*
X99257460Y-69860702D01*
X99232822Y-69822617D01*
X99232820Y-69822614D01*
X99230014Y-69818277D01*
X99079670Y-69653051D01*
X99075619Y-69649852D01*
X99075615Y-69649848D01*
X98908414Y-69517800D01*
X98908410Y-69517798D01*
X98904359Y-69514598D01*
X98708789Y-69406638D01*
X98703920Y-69404914D01*
X98703916Y-69404912D01*
X98503087Y-69333795D01*
X98503083Y-69333794D01*
X98498212Y-69332069D01*
X98493119Y-69331162D01*
X98493116Y-69331161D01*
X98283373Y-69293800D01*
X98283367Y-69293799D01*
X98278284Y-69292894D01*
X98204452Y-69291992D01*
X98060081Y-69290228D01*
X98060079Y-69290228D01*
X98054911Y-69290165D01*
X97834091Y-69323955D01*
X97621756Y-69393357D01*
X97423607Y-69496507D01*
X97419474Y-69499610D01*
X97419471Y-69499612D01*
X97249100Y-69627530D01*
X97244965Y-69630635D01*
X97090629Y-69792138D01*
X96983201Y-69949621D01*
X96928293Y-69994621D01*
X96857768Y-70002792D01*
X96794021Y-69971538D01*
X96773324Y-69947054D01*
X96692822Y-69822617D01*
X96692820Y-69822614D01*
X96690014Y-69818277D01*
X96539670Y-69653051D01*
X96535619Y-69649852D01*
X96535615Y-69649848D01*
X96368414Y-69517800D01*
X96368410Y-69517798D01*
X96364359Y-69514598D01*
X96168789Y-69406638D01*
X96163920Y-69404914D01*
X96163916Y-69404912D01*
X95963087Y-69333795D01*
X95963083Y-69333794D01*
X95958212Y-69332069D01*
X95953119Y-69331162D01*
X95953116Y-69331161D01*
X95743373Y-69293800D01*
X95743367Y-69293799D01*
X95738284Y-69292894D01*
X95664452Y-69291992D01*
X95520081Y-69290228D01*
X95520079Y-69290228D01*
X95514911Y-69290165D01*
X95294091Y-69323955D01*
X95081756Y-69393357D01*
X94883607Y-69496507D01*
X94879474Y-69499610D01*
X94879471Y-69499612D01*
X94709100Y-69627530D01*
X94704965Y-69630635D01*
X94550629Y-69792138D01*
X94424743Y-69976680D01*
X94330688Y-70179305D01*
X94270989Y-70394570D01*
X94247251Y-70616695D01*
X91500000Y-70616695D01*
X91500000Y-67626000D01*
X91520002Y-67557879D01*
X91573658Y-67511386D01*
X91626000Y-67500000D01*
X101000000Y-67500000D01*
X101000000Y-60426695D01*
X103207251Y-60426695D01*
X103207548Y-60431848D01*
X103207548Y-60431851D01*
X103213011Y-60526590D01*
X103220110Y-60649715D01*
X103221247Y-60654761D01*
X103221248Y-60654767D01*
X103241119Y-60742939D01*
X103269222Y-60867639D01*
X103353266Y-61074616D01*
X103404019Y-61157438D01*
X103467291Y-61260688D01*
X103469987Y-61265088D01*
X103616250Y-61433938D01*
X103620230Y-61437242D01*
X103624981Y-61441187D01*
X103664616Y-61500090D01*
X103666113Y-61571071D01*
X103628997Y-61631593D01*
X103588725Y-61656112D01*
X103548638Y-61671140D01*
X103473295Y-61699385D01*
X103356739Y-61786739D01*
X103269385Y-61903295D01*
X103218255Y-62039684D01*
X103211500Y-62101866D01*
X103211500Y-63898134D01*
X103218255Y-63960316D01*
X103269385Y-64096705D01*
X103356739Y-64213261D01*
X103473295Y-64300615D01*
X103609684Y-64351745D01*
X103671866Y-64358500D01*
X105468134Y-64358500D01*
X105530316Y-64351745D01*
X105666705Y-64300615D01*
X105783261Y-64213261D01*
X105870615Y-64096705D01*
X105892799Y-64037529D01*
X105914598Y-63979382D01*
X105957240Y-63922618D01*
X106023802Y-63897918D01*
X106093150Y-63913126D01*
X106127817Y-63941114D01*
X106156250Y-63973938D01*
X106328126Y-64116632D01*
X106521000Y-64229338D01*
X106729692Y-64309030D01*
X106734760Y-64310061D01*
X106734763Y-64310062D01*
X106829862Y-64329410D01*
X106948597Y-64353567D01*
X106953772Y-64353757D01*
X106953774Y-64353757D01*
X107166673Y-64361564D01*
X107166677Y-64361564D01*
X107171837Y-64361753D01*
X107176957Y-64361097D01*
X107176959Y-64361097D01*
X107388288Y-64334025D01*
X107388289Y-64334025D01*
X107393416Y-64333368D01*
X107398366Y-64331883D01*
X107602429Y-64270661D01*
X107602434Y-64270659D01*
X107607384Y-64269174D01*
X107807994Y-64170896D01*
X107989860Y-64041173D01*
X108148096Y-63883489D01*
X108278453Y-63702077D01*
X108279776Y-63703028D01*
X108326645Y-63659857D01*
X108396580Y-63647625D01*
X108462026Y-63675144D01*
X108489875Y-63706994D01*
X108549987Y-63805088D01*
X108696250Y-63973938D01*
X108868126Y-64116632D01*
X109061000Y-64229338D01*
X109269692Y-64309030D01*
X109274760Y-64310061D01*
X109274763Y-64310062D01*
X109369862Y-64329410D01*
X109488597Y-64353567D01*
X109493772Y-64353757D01*
X109493774Y-64353757D01*
X109706673Y-64361564D01*
X109706677Y-64361564D01*
X109711837Y-64361753D01*
X109716957Y-64361097D01*
X109716959Y-64361097D01*
X109928288Y-64334025D01*
X109928289Y-64334025D01*
X109933416Y-64333368D01*
X109938366Y-64331883D01*
X110142429Y-64270661D01*
X110142434Y-64270659D01*
X110147384Y-64269174D01*
X110347994Y-64170896D01*
X110529860Y-64041173D01*
X110688096Y-63883489D01*
X110818453Y-63702077D01*
X110819776Y-63703028D01*
X110866645Y-63659857D01*
X110936580Y-63647625D01*
X111002026Y-63675144D01*
X111029875Y-63706994D01*
X111089987Y-63805088D01*
X111236250Y-63973938D01*
X111408126Y-64116632D01*
X111601000Y-64229338D01*
X111809692Y-64309030D01*
X111814760Y-64310061D01*
X111814763Y-64310062D01*
X111909862Y-64329410D01*
X112028597Y-64353567D01*
X112033772Y-64353757D01*
X112033774Y-64353757D01*
X112246673Y-64361564D01*
X112246677Y-64361564D01*
X112251837Y-64361753D01*
X112256957Y-64361097D01*
X112256959Y-64361097D01*
X112468288Y-64334025D01*
X112468289Y-64334025D01*
X112473416Y-64333368D01*
X112478366Y-64331883D01*
X112682429Y-64270661D01*
X112682434Y-64270659D01*
X112687384Y-64269174D01*
X112887994Y-64170896D01*
X113069860Y-64041173D01*
X113228096Y-63883489D01*
X113358453Y-63702077D01*
X113359640Y-63702930D01*
X113406960Y-63659362D01*
X113476897Y-63647145D01*
X113542338Y-63674678D01*
X113570166Y-63706511D01*
X113627694Y-63800388D01*
X113633777Y-63808699D01*
X113773213Y-63969667D01*
X113780580Y-63976883D01*
X113944434Y-64112916D01*
X113952881Y-64118831D01*
X114136756Y-64226279D01*
X114146042Y-64230729D01*
X114345001Y-64306703D01*
X114354899Y-64309579D01*
X114458250Y-64330606D01*
X114472299Y-64329410D01*
X114476000Y-64319065D01*
X114476000Y-64318517D01*
X114984000Y-64318517D01*
X114988064Y-64332359D01*
X115001478Y-64334393D01*
X115008184Y-64333534D01*
X115018262Y-64331392D01*
X115222255Y-64270191D01*
X115231842Y-64266433D01*
X115423095Y-64172739D01*
X115431945Y-64167464D01*
X115605328Y-64043792D01*
X115613200Y-64037139D01*
X115764052Y-63886812D01*
X115770730Y-63878965D01*
X115898022Y-63701819D01*
X115899279Y-63702722D01*
X115946373Y-63659362D01*
X116016311Y-63647145D01*
X116081751Y-63674678D01*
X116109579Y-63706511D01*
X116169987Y-63805088D01*
X116316250Y-63973938D01*
X116488126Y-64116632D01*
X116681000Y-64229338D01*
X116889692Y-64309030D01*
X116894760Y-64310061D01*
X116894763Y-64310062D01*
X116989862Y-64329410D01*
X117108597Y-64353567D01*
X117113772Y-64353757D01*
X117113774Y-64353757D01*
X117326673Y-64361564D01*
X117326677Y-64361564D01*
X117331837Y-64361753D01*
X117336957Y-64361097D01*
X117336959Y-64361097D01*
X117548288Y-64334025D01*
X117548289Y-64334025D01*
X117553416Y-64333368D01*
X117558366Y-64331883D01*
X117762429Y-64270661D01*
X117762434Y-64270659D01*
X117767384Y-64269174D01*
X117967994Y-64170896D01*
X118149860Y-64041173D01*
X118308096Y-63883489D01*
X118438453Y-63702077D01*
X118451995Y-63674678D01*
X118535136Y-63506453D01*
X118535137Y-63506451D01*
X118537430Y-63501811D01*
X118602370Y-63288069D01*
X118631529Y-63066590D01*
X118633156Y-63000000D01*
X118614852Y-62777361D01*
X118560431Y-62560702D01*
X118471354Y-62355840D01*
X118350014Y-62168277D01*
X118199670Y-62003051D01*
X118195619Y-61999852D01*
X118195615Y-61999848D01*
X118028414Y-61867800D01*
X118028410Y-61867798D01*
X118024359Y-61864598D01*
X117983053Y-61841796D01*
X117933084Y-61791364D01*
X117918312Y-61721921D01*
X117943428Y-61655516D01*
X117970780Y-61628909D01*
X118014603Y-61597650D01*
X118149860Y-61501173D01*
X118308096Y-61343489D01*
X118367594Y-61260689D01*
X118435435Y-61166277D01*
X118438453Y-61162077D01*
X118451995Y-61134678D01*
X118535136Y-60966453D01*
X118535137Y-60966451D01*
X118537430Y-60961811D01*
X118602370Y-60748069D01*
X118631529Y-60526590D01*
X118633156Y-60460000D01*
X118630418Y-60426695D01*
X126067251Y-60426695D01*
X126067548Y-60431848D01*
X126067548Y-60431851D01*
X126073011Y-60526590D01*
X126080110Y-60649715D01*
X126081247Y-60654761D01*
X126081248Y-60654767D01*
X126101119Y-60742939D01*
X126129222Y-60867639D01*
X126213266Y-61074616D01*
X126264019Y-61157438D01*
X126327291Y-61260688D01*
X126329987Y-61265088D01*
X126476250Y-61433938D01*
X126480230Y-61437242D01*
X126484981Y-61441187D01*
X126524616Y-61500090D01*
X126526113Y-61571071D01*
X126488997Y-61631593D01*
X126448725Y-61656112D01*
X126408638Y-61671140D01*
X126333295Y-61699385D01*
X126216739Y-61786739D01*
X126129385Y-61903295D01*
X126078255Y-62039684D01*
X126071500Y-62101866D01*
X126071500Y-63898134D01*
X126078255Y-63960316D01*
X126129385Y-64096705D01*
X126216739Y-64213261D01*
X126333295Y-64300615D01*
X126469684Y-64351745D01*
X126531866Y-64358500D01*
X128328134Y-64358500D01*
X128390316Y-64351745D01*
X128526705Y-64300615D01*
X128643261Y-64213261D01*
X128730615Y-64096705D01*
X128752799Y-64037529D01*
X128774598Y-63979382D01*
X128817240Y-63922618D01*
X128883802Y-63897918D01*
X128953150Y-63913126D01*
X128987817Y-63941114D01*
X129016250Y-63973938D01*
X129188126Y-64116632D01*
X129381000Y-64229338D01*
X129589692Y-64309030D01*
X129594760Y-64310061D01*
X129594763Y-64310062D01*
X129689862Y-64329410D01*
X129808597Y-64353567D01*
X129813772Y-64353757D01*
X129813774Y-64353757D01*
X130026673Y-64361564D01*
X130026677Y-64361564D01*
X130031837Y-64361753D01*
X130036957Y-64361097D01*
X130036959Y-64361097D01*
X130248288Y-64334025D01*
X130248289Y-64334025D01*
X130253416Y-64333368D01*
X130258366Y-64331883D01*
X130462429Y-64270661D01*
X130462434Y-64270659D01*
X130467384Y-64269174D01*
X130667994Y-64170896D01*
X130849860Y-64041173D01*
X131008096Y-63883489D01*
X131138453Y-63702077D01*
X131139776Y-63703028D01*
X131186645Y-63659857D01*
X131256580Y-63647625D01*
X131322026Y-63675144D01*
X131349875Y-63706994D01*
X131409987Y-63805088D01*
X131556250Y-63973938D01*
X131728126Y-64116632D01*
X131921000Y-64229338D01*
X132129692Y-64309030D01*
X132134760Y-64310061D01*
X132134763Y-64310062D01*
X132229862Y-64329410D01*
X132348597Y-64353567D01*
X132353772Y-64353757D01*
X132353774Y-64353757D01*
X132566673Y-64361564D01*
X132566677Y-64361564D01*
X132571837Y-64361753D01*
X132576957Y-64361097D01*
X132576959Y-64361097D01*
X132788288Y-64334025D01*
X132788289Y-64334025D01*
X132793416Y-64333368D01*
X132798366Y-64331883D01*
X133002429Y-64270661D01*
X133002434Y-64270659D01*
X133007384Y-64269174D01*
X133207994Y-64170896D01*
X133389860Y-64041173D01*
X133548096Y-63883489D01*
X133678453Y-63702077D01*
X133679776Y-63703028D01*
X133726645Y-63659857D01*
X133796580Y-63647625D01*
X133862026Y-63675144D01*
X133889875Y-63706994D01*
X133949987Y-63805088D01*
X134096250Y-63973938D01*
X134268126Y-64116632D01*
X134461000Y-64229338D01*
X134669692Y-64309030D01*
X134674760Y-64310061D01*
X134674763Y-64310062D01*
X134769862Y-64329410D01*
X134888597Y-64353567D01*
X134893772Y-64353757D01*
X134893774Y-64353757D01*
X135106673Y-64361564D01*
X135106677Y-64361564D01*
X135111837Y-64361753D01*
X135116957Y-64361097D01*
X135116959Y-64361097D01*
X135328288Y-64334025D01*
X135328289Y-64334025D01*
X135333416Y-64333368D01*
X135338366Y-64331883D01*
X135542429Y-64270661D01*
X135542434Y-64270659D01*
X135547384Y-64269174D01*
X135747994Y-64170896D01*
X135929860Y-64041173D01*
X136088096Y-63883489D01*
X136218453Y-63702077D01*
X136219640Y-63702930D01*
X136266960Y-63659362D01*
X136336897Y-63647145D01*
X136402338Y-63674678D01*
X136430166Y-63706511D01*
X136487694Y-63800388D01*
X136493777Y-63808699D01*
X136633213Y-63969667D01*
X136640580Y-63976883D01*
X136804434Y-64112916D01*
X136812881Y-64118831D01*
X136996756Y-64226279D01*
X137006042Y-64230729D01*
X137205001Y-64306703D01*
X137214899Y-64309579D01*
X137318250Y-64330606D01*
X137332299Y-64329410D01*
X137336000Y-64319065D01*
X137336000Y-64318517D01*
X137844000Y-64318517D01*
X137848064Y-64332359D01*
X137861478Y-64334393D01*
X137868184Y-64333534D01*
X137878262Y-64331392D01*
X138082255Y-64270191D01*
X138091842Y-64266433D01*
X138283095Y-64172739D01*
X138291945Y-64167464D01*
X138465328Y-64043792D01*
X138473200Y-64037139D01*
X138624052Y-63886812D01*
X138630730Y-63878965D01*
X138758022Y-63701819D01*
X138759279Y-63702722D01*
X138806373Y-63659362D01*
X138876311Y-63647145D01*
X138941751Y-63674678D01*
X138969579Y-63706511D01*
X139029987Y-63805088D01*
X139176250Y-63973938D01*
X139348126Y-64116632D01*
X139541000Y-64229338D01*
X139749692Y-64309030D01*
X139754760Y-64310061D01*
X139754763Y-64310062D01*
X139849862Y-64329410D01*
X139968597Y-64353567D01*
X139973772Y-64353757D01*
X139973774Y-64353757D01*
X140186673Y-64361564D01*
X140186677Y-64361564D01*
X140191837Y-64361753D01*
X140196957Y-64361097D01*
X140196959Y-64361097D01*
X140408288Y-64334025D01*
X140408289Y-64334025D01*
X140413416Y-64333368D01*
X140418366Y-64331883D01*
X140622429Y-64270661D01*
X140622434Y-64270659D01*
X140627384Y-64269174D01*
X140827994Y-64170896D01*
X141009860Y-64041173D01*
X141168096Y-63883489D01*
X141298453Y-63702077D01*
X141311995Y-63674678D01*
X141395136Y-63506453D01*
X141395137Y-63506451D01*
X141397430Y-63501811D01*
X141462370Y-63288069D01*
X141491529Y-63066590D01*
X141493156Y-63000000D01*
X141474852Y-62777361D01*
X141420431Y-62560702D01*
X141331354Y-62355840D01*
X141210014Y-62168277D01*
X141059670Y-62003051D01*
X141055619Y-61999852D01*
X141055615Y-61999848D01*
X140888414Y-61867800D01*
X140888410Y-61867798D01*
X140884359Y-61864598D01*
X140843053Y-61841796D01*
X140793084Y-61791364D01*
X140778312Y-61721921D01*
X140803428Y-61655516D01*
X140830780Y-61628909D01*
X140874603Y-61597650D01*
X141009860Y-61501173D01*
X141168096Y-61343489D01*
X141227594Y-61260689D01*
X141295435Y-61166277D01*
X141298453Y-61162077D01*
X141311995Y-61134678D01*
X141395136Y-60966453D01*
X141395137Y-60966451D01*
X141397430Y-60961811D01*
X141462370Y-60748069D01*
X141491529Y-60526590D01*
X141493156Y-60460000D01*
X141474852Y-60237361D01*
X141420431Y-60020702D01*
X141331354Y-59815840D01*
X141210014Y-59628277D01*
X141059670Y-59463051D01*
X141055619Y-59459852D01*
X141055615Y-59459848D01*
X140888414Y-59327800D01*
X140888410Y-59327798D01*
X140884359Y-59324598D01*
X140848028Y-59304542D01*
X140832136Y-59295769D01*
X140688789Y-59216638D01*
X140683920Y-59214914D01*
X140683916Y-59214912D01*
X140483087Y-59143795D01*
X140483083Y-59143794D01*
X140478212Y-59142069D01*
X140473119Y-59141162D01*
X140473116Y-59141161D01*
X140263373Y-59103800D01*
X140263367Y-59103799D01*
X140258284Y-59102894D01*
X140184452Y-59101992D01*
X140040081Y-59100228D01*
X140040079Y-59100228D01*
X140034911Y-59100165D01*
X139814091Y-59133955D01*
X139601756Y-59203357D01*
X139403607Y-59306507D01*
X139399474Y-59309610D01*
X139399471Y-59309612D01*
X139375247Y-59327800D01*
X139224965Y-59440635D01*
X139070629Y-59602138D01*
X138963204Y-59759618D01*
X138962898Y-59760066D01*
X138907987Y-59805069D01*
X138837462Y-59813240D01*
X138773715Y-59781986D01*
X138753018Y-59757502D01*
X138672426Y-59632926D01*
X138666136Y-59624757D01*
X138522806Y-59467240D01*
X138515273Y-59460215D01*
X138348139Y-59328222D01*
X138339552Y-59322517D01*
X138153117Y-59219599D01*
X138143705Y-59215369D01*
X137942959Y-59144280D01*
X137932988Y-59141646D01*
X137861837Y-59128972D01*
X137848540Y-59130432D01*
X137844000Y-59144989D01*
X137844000Y-64318517D01*
X137336000Y-64318517D01*
X137336000Y-59143102D01*
X137332082Y-59129758D01*
X137317806Y-59127771D01*
X137279324Y-59133660D01*
X137269288Y-59136051D01*
X137066868Y-59202212D01*
X137057359Y-59206209D01*
X136868463Y-59304542D01*
X136859738Y-59310036D01*
X136689433Y-59437905D01*
X136681726Y-59444748D01*
X136534590Y-59598717D01*
X136528109Y-59606722D01*
X136423498Y-59760074D01*
X136368587Y-59805076D01*
X136298062Y-59813247D01*
X136234315Y-59781993D01*
X136213618Y-59757509D01*
X136132822Y-59632617D01*
X136132820Y-59632614D01*
X136130014Y-59628277D01*
X135979670Y-59463051D01*
X135975619Y-59459852D01*
X135975615Y-59459848D01*
X135808414Y-59327800D01*
X135808410Y-59327798D01*
X135804359Y-59324598D01*
X135768028Y-59304542D01*
X135752136Y-59295769D01*
X135608789Y-59216638D01*
X135603920Y-59214914D01*
X135603916Y-59214912D01*
X135403087Y-59143795D01*
X135403083Y-59143794D01*
X135398212Y-59142069D01*
X135393119Y-59141162D01*
X135393116Y-59141161D01*
X135183373Y-59103800D01*
X135183367Y-59103799D01*
X135178284Y-59102894D01*
X135104452Y-59101992D01*
X134960081Y-59100228D01*
X134960079Y-59100228D01*
X134954911Y-59100165D01*
X134734091Y-59133955D01*
X134521756Y-59203357D01*
X134323607Y-59306507D01*
X134319474Y-59309610D01*
X134319471Y-59309612D01*
X134295247Y-59327800D01*
X134144965Y-59440635D01*
X133990629Y-59602138D01*
X133883201Y-59759621D01*
X133828293Y-59804621D01*
X133757768Y-59812792D01*
X133694021Y-59781538D01*
X133673324Y-59757054D01*
X133592822Y-59632617D01*
X133592820Y-59632614D01*
X133590014Y-59628277D01*
X133439670Y-59463051D01*
X133435619Y-59459852D01*
X133435615Y-59459848D01*
X133268414Y-59327800D01*
X133268410Y-59327798D01*
X133264359Y-59324598D01*
X133228028Y-59304542D01*
X133212136Y-59295769D01*
X133068789Y-59216638D01*
X133063920Y-59214914D01*
X133063916Y-59214912D01*
X132863087Y-59143795D01*
X132863083Y-59143794D01*
X132858212Y-59142069D01*
X132853119Y-59141162D01*
X132853116Y-59141161D01*
X132643373Y-59103800D01*
X132643367Y-59103799D01*
X132638284Y-59102894D01*
X132564452Y-59101992D01*
X132420081Y-59100228D01*
X132420079Y-59100228D01*
X132414911Y-59100165D01*
X132194091Y-59133955D01*
X131981756Y-59203357D01*
X131783607Y-59306507D01*
X131779474Y-59309610D01*
X131779471Y-59309612D01*
X131755247Y-59327800D01*
X131604965Y-59440635D01*
X131450629Y-59602138D01*
X131343201Y-59759621D01*
X131288293Y-59804621D01*
X131217768Y-59812792D01*
X131154021Y-59781538D01*
X131133324Y-59757054D01*
X131052822Y-59632617D01*
X131052820Y-59632614D01*
X131050014Y-59628277D01*
X130899670Y-59463051D01*
X130895619Y-59459852D01*
X130895615Y-59459848D01*
X130728414Y-59327800D01*
X130728410Y-59327798D01*
X130724359Y-59324598D01*
X130688028Y-59304542D01*
X130672136Y-59295769D01*
X130528789Y-59216638D01*
X130523920Y-59214914D01*
X130523916Y-59214912D01*
X130323087Y-59143795D01*
X130323083Y-59143794D01*
X130318212Y-59142069D01*
X130313119Y-59141162D01*
X130313116Y-59141161D01*
X130103373Y-59103800D01*
X130103367Y-59103799D01*
X130098284Y-59102894D01*
X130024452Y-59101992D01*
X129880081Y-59100228D01*
X129880079Y-59100228D01*
X129874911Y-59100165D01*
X129654091Y-59133955D01*
X129441756Y-59203357D01*
X129243607Y-59306507D01*
X129239474Y-59309610D01*
X129239471Y-59309612D01*
X129215247Y-59327800D01*
X129064965Y-59440635D01*
X128910629Y-59602138D01*
X128803201Y-59759621D01*
X128748293Y-59804621D01*
X128677768Y-59812792D01*
X128614021Y-59781538D01*
X128593324Y-59757054D01*
X128512822Y-59632617D01*
X128512820Y-59632614D01*
X128510014Y-59628277D01*
X128359670Y-59463051D01*
X128355619Y-59459852D01*
X128355615Y-59459848D01*
X128188414Y-59327800D01*
X128188410Y-59327798D01*
X128184359Y-59324598D01*
X128148028Y-59304542D01*
X128132136Y-59295769D01*
X127988789Y-59216638D01*
X127983920Y-59214914D01*
X127983916Y-59214912D01*
X127783087Y-59143795D01*
X127783083Y-59143794D01*
X127778212Y-59142069D01*
X127773119Y-59141162D01*
X127773116Y-59141161D01*
X127563373Y-59103800D01*
X127563367Y-59103799D01*
X127558284Y-59102894D01*
X127484452Y-59101992D01*
X127340081Y-59100228D01*
X127340079Y-59100228D01*
X127334911Y-59100165D01*
X127114091Y-59133955D01*
X126901756Y-59203357D01*
X126703607Y-59306507D01*
X126699474Y-59309610D01*
X126699471Y-59309612D01*
X126675247Y-59327800D01*
X126524965Y-59440635D01*
X126370629Y-59602138D01*
X126244743Y-59786680D01*
X126150688Y-59989305D01*
X126090989Y-60204570D01*
X126067251Y-60426695D01*
X118630418Y-60426695D01*
X118614852Y-60237361D01*
X118560431Y-60020702D01*
X118471354Y-59815840D01*
X118350014Y-59628277D01*
X118199670Y-59463051D01*
X118195619Y-59459852D01*
X118195615Y-59459848D01*
X118028414Y-59327800D01*
X118028410Y-59327798D01*
X118024359Y-59324598D01*
X117988028Y-59304542D01*
X117972136Y-59295769D01*
X117828789Y-59216638D01*
X117823920Y-59214914D01*
X117823916Y-59214912D01*
X117623087Y-59143795D01*
X117623083Y-59143794D01*
X117618212Y-59142069D01*
X117613119Y-59141162D01*
X117613116Y-59141161D01*
X117403373Y-59103800D01*
X117403367Y-59103799D01*
X117398284Y-59102894D01*
X117324452Y-59101992D01*
X117180081Y-59100228D01*
X117180079Y-59100228D01*
X117174911Y-59100165D01*
X116954091Y-59133955D01*
X116741756Y-59203357D01*
X116543607Y-59306507D01*
X116539474Y-59309610D01*
X116539471Y-59309612D01*
X116515247Y-59327800D01*
X116364965Y-59440635D01*
X116210629Y-59602138D01*
X116103204Y-59759618D01*
X116102898Y-59760066D01*
X116047987Y-59805069D01*
X115977462Y-59813240D01*
X115913715Y-59781986D01*
X115893018Y-59757502D01*
X115812426Y-59632926D01*
X115806136Y-59624757D01*
X115662806Y-59467240D01*
X115655273Y-59460215D01*
X115488139Y-59328222D01*
X115479552Y-59322517D01*
X115293117Y-59219599D01*
X115283705Y-59215369D01*
X115082959Y-59144280D01*
X115072988Y-59141646D01*
X115001837Y-59128972D01*
X114988540Y-59130432D01*
X114984000Y-59144989D01*
X114984000Y-64318517D01*
X114476000Y-64318517D01*
X114476000Y-59143102D01*
X114472082Y-59129758D01*
X114457806Y-59127771D01*
X114419324Y-59133660D01*
X114409288Y-59136051D01*
X114206868Y-59202212D01*
X114197359Y-59206209D01*
X114008463Y-59304542D01*
X113999738Y-59310036D01*
X113829433Y-59437905D01*
X113821726Y-59444748D01*
X113674590Y-59598717D01*
X113668109Y-59606722D01*
X113563498Y-59760074D01*
X113508587Y-59805076D01*
X113438062Y-59813247D01*
X113374315Y-59781993D01*
X113353618Y-59757509D01*
X113272822Y-59632617D01*
X113272820Y-59632614D01*
X113270014Y-59628277D01*
X113119670Y-59463051D01*
X113115619Y-59459852D01*
X113115615Y-59459848D01*
X112948414Y-59327800D01*
X112948410Y-59327798D01*
X112944359Y-59324598D01*
X112908028Y-59304542D01*
X112892136Y-59295769D01*
X112748789Y-59216638D01*
X112743920Y-59214914D01*
X112743916Y-59214912D01*
X112543087Y-59143795D01*
X112543083Y-59143794D01*
X112538212Y-59142069D01*
X112533119Y-59141162D01*
X112533116Y-59141161D01*
X112323373Y-59103800D01*
X112323367Y-59103799D01*
X112318284Y-59102894D01*
X112244452Y-59101992D01*
X112100081Y-59100228D01*
X112100079Y-59100228D01*
X112094911Y-59100165D01*
X111874091Y-59133955D01*
X111661756Y-59203357D01*
X111463607Y-59306507D01*
X111459474Y-59309610D01*
X111459471Y-59309612D01*
X111435247Y-59327800D01*
X111284965Y-59440635D01*
X111130629Y-59602138D01*
X111023201Y-59759621D01*
X110968293Y-59804621D01*
X110897768Y-59812792D01*
X110834021Y-59781538D01*
X110813324Y-59757054D01*
X110732822Y-59632617D01*
X110732820Y-59632614D01*
X110730014Y-59628277D01*
X110579670Y-59463051D01*
X110575619Y-59459852D01*
X110575615Y-59459848D01*
X110408414Y-59327800D01*
X110408410Y-59327798D01*
X110404359Y-59324598D01*
X110368028Y-59304542D01*
X110352136Y-59295769D01*
X110208789Y-59216638D01*
X110203920Y-59214914D01*
X110203916Y-59214912D01*
X110003087Y-59143795D01*
X110003083Y-59143794D01*
X109998212Y-59142069D01*
X109993119Y-59141162D01*
X109993116Y-59141161D01*
X109783373Y-59103800D01*
X109783367Y-59103799D01*
X109778284Y-59102894D01*
X109704452Y-59101992D01*
X109560081Y-59100228D01*
X109560079Y-59100228D01*
X109554911Y-59100165D01*
X109334091Y-59133955D01*
X109121756Y-59203357D01*
X108923607Y-59306507D01*
X108919474Y-59309610D01*
X108919471Y-59309612D01*
X108895247Y-59327800D01*
X108744965Y-59440635D01*
X108590629Y-59602138D01*
X108483201Y-59759621D01*
X108428293Y-59804621D01*
X108357768Y-59812792D01*
X108294021Y-59781538D01*
X108273324Y-59757054D01*
X108192822Y-59632617D01*
X108192820Y-59632614D01*
X108190014Y-59628277D01*
X108039670Y-59463051D01*
X108035619Y-59459852D01*
X108035615Y-59459848D01*
X107868414Y-59327800D01*
X107868410Y-59327798D01*
X107864359Y-59324598D01*
X107828028Y-59304542D01*
X107812136Y-59295769D01*
X107668789Y-59216638D01*
X107663920Y-59214914D01*
X107663916Y-59214912D01*
X107463087Y-59143795D01*
X107463083Y-59143794D01*
X107458212Y-59142069D01*
X107453119Y-59141162D01*
X107453116Y-59141161D01*
X107243373Y-59103800D01*
X107243367Y-59103799D01*
X107238284Y-59102894D01*
X107164452Y-59101992D01*
X107020081Y-59100228D01*
X107020079Y-59100228D01*
X107014911Y-59100165D01*
X106794091Y-59133955D01*
X106581756Y-59203357D01*
X106383607Y-59306507D01*
X106379474Y-59309610D01*
X106379471Y-59309612D01*
X106355247Y-59327800D01*
X106204965Y-59440635D01*
X106050629Y-59602138D01*
X105943201Y-59759621D01*
X105888293Y-59804621D01*
X105817768Y-59812792D01*
X105754021Y-59781538D01*
X105733324Y-59757054D01*
X105652822Y-59632617D01*
X105652820Y-59632614D01*
X105650014Y-59628277D01*
X105499670Y-59463051D01*
X105495619Y-59459852D01*
X105495615Y-59459848D01*
X105328414Y-59327800D01*
X105328410Y-59327798D01*
X105324359Y-59324598D01*
X105288028Y-59304542D01*
X105272136Y-59295769D01*
X105128789Y-59216638D01*
X105123920Y-59214914D01*
X105123916Y-59214912D01*
X104923087Y-59143795D01*
X104923083Y-59143794D01*
X104918212Y-59142069D01*
X104913119Y-59141162D01*
X104913116Y-59141161D01*
X104703373Y-59103800D01*
X104703367Y-59103799D01*
X104698284Y-59102894D01*
X104624452Y-59101992D01*
X104480081Y-59100228D01*
X104480079Y-59100228D01*
X104474911Y-59100165D01*
X104254091Y-59133955D01*
X104041756Y-59203357D01*
X103843607Y-59306507D01*
X103839474Y-59309610D01*
X103839471Y-59309612D01*
X103815247Y-59327800D01*
X103664965Y-59440635D01*
X103510629Y-59602138D01*
X103384743Y-59786680D01*
X103290688Y-59989305D01*
X103230989Y-60204570D01*
X103207251Y-60426695D01*
X101000000Y-60426695D01*
X101000000Y-56626000D01*
X101020002Y-56557879D01*
X101073658Y-56511386D01*
X101126000Y-56500000D01*
X143874000Y-56500000D01*
X143942121Y-56520002D01*
G37*
G04 #@! TD.AperFunction*
G04 #@! TD*
M02*
