M48
; DRILL file {KiCad 6.0.7-1.fc35} date Mon 05 Sep 2022 05:54:10 PM CDT
; FORMAT={-:-/ absolute / inch / decimal}
; #@! TF.CreationDate,2022-09-05T17:54:10-05:00
; #@! TF.GenerationSoftware,Kicad,Pcbnew,6.0.7-1.fc35
; #@! TF.FileFunction,MixedPlating,1,4
FMAT,2
INCH
; #@! TA.AperFunction,Plated,PTH,ViaDrill
T1C0.0157
; #@! TA.AperFunction,Plated,PTH,ComponentDrill
T2C0.0394
; #@! TA.AperFunction,NonPlated,NPTH,ComponentDrill
T3C0.0315
; #@! TA.AperFunction,NonPlated,NPTH,ComponentDrill
T4C0.0472
%
G90
G05
T1
X3.942Y-3.1288
X4.1142Y-3.7008
X4.1142Y-3.8583
X4.2087Y-3.7756
X4.2717Y-2.5591
X4.3031Y-3.7717
X4.4473Y-3.7663
X4.4882Y-4.0354
X4.5276Y-4.0354
X4.5669Y-4.0354
X4.6033Y-3.7904
X4.6063Y-4.0354
X4.6457Y-4.0354
X4.685Y-4.0354
X4.7244Y-4.0354
X4.7638Y-4.0354
X4.7756Y-3.7717
X4.8031Y-4.0354
X4.8425Y-4.0354
X4.8819Y-4.0362
X4.9212Y-4.0349
X4.9331Y-3.7717
X4.9606Y-4.0354
X5.0Y-4.0354
X5.0394Y-4.0354
X5.0787Y-4.0354
X5.0906Y-3.7677
X5.1575Y-2.5591
X5.3346Y-3.5039
X5.3346Y-3.5433
X5.3346Y-3.5827
X5.374Y-3.5039
X5.4134Y-3.5039
X5.4528Y-3.5039
X5.6988Y-2.9134
T2
X3.7642Y-2.7815
X3.7642Y-2.8815
X3.7642Y-2.9815
X3.7642Y-3.0815
X3.7642Y-3.1815
X3.7642Y-3.2815
X3.8642Y-2.7815
X3.8642Y-2.8815
X3.8642Y-2.9815
X3.8642Y-3.0815
X3.8642Y-3.1815
X3.8642Y-3.2815
X4.1169Y-2.3803
X4.1169Y-2.4803
X4.2169Y-2.3803
X4.2169Y-2.4803
X4.3169Y-2.3803
X4.3169Y-2.4803
X4.4169Y-2.3803
X4.4169Y-2.4803
X4.5169Y-2.3803
X4.5169Y-2.4803
X4.6169Y-2.3803
X4.6169Y-2.4803
X5.0169Y-2.3803
X5.0169Y-2.4803
X5.1169Y-2.3803
X5.1169Y-2.4803
X5.2169Y-2.3803
X5.2169Y-2.4803
X5.3169Y-2.3803
X5.3169Y-2.4803
X5.4169Y-2.3803
X5.4169Y-2.4803
X5.5169Y-2.3803
X5.5169Y-2.4803
X5.7874Y-2.7677
X5.7874Y-2.8677
X5.7874Y-2.9677
X5.7874Y-3.0677
X5.7874Y-3.1677
X5.7874Y-3.2677
X5.8874Y-2.7677
X5.8874Y-2.8677
X5.8874Y-2.9677
X5.8874Y-3.0677
X5.8874Y-3.1677
X5.8874Y-3.2677
T3
X4.1102Y-3.7795
T4
X5.5354Y-3.7795
T0
M30
