G04 #@! TF.GenerationSoftware,KiCad,Pcbnew,6.0.7-1.fc35*
G04 #@! TF.CreationDate,2022-09-05T19:11:37-05:00*
G04 #@! TF.ProjectId,pmod-adapter,706d6f64-2d61-4646-9170-7465722e6b69,rev?*
G04 #@! TF.SameCoordinates,Original*
G04 #@! TF.FileFunction,AssemblyDrawing,Bot*
%FSLAX46Y46*%
G04 Gerber Fmt 4.6, Leading zero omitted, Abs format (unit mm)*
G04 Created by KiCad (PCBNEW 6.0.7-1.fc35) date 2022-09-05 19:11:37*
%MOMM*%
%LPD*%
G01*
G04 APERTURE LIST*
%ADD10C,0.300000*%
%ADD11C,0.150000*%
%ADD12C,0.075000*%
%ADD13C,0.127000*%
%ADD14C,0.010000*%
%ADD15C,0.100000*%
G04 APERTURE END LIST*
D10*
X136750000Y-52471071D02*
X136750000Y-50971071D01*
X136178571Y-50971071D01*
X136035714Y-51042500D01*
X135964285Y-51113928D01*
X135892857Y-51256785D01*
X135892857Y-51471071D01*
X135964285Y-51613928D01*
X136035714Y-51685357D01*
X136178571Y-51756785D01*
X136750000Y-51756785D01*
X135035714Y-52471071D02*
X135178571Y-52399642D01*
X135250000Y-52256785D01*
X135250000Y-50971071D01*
X133821428Y-52471071D02*
X133821428Y-51685357D01*
X133892857Y-51542500D01*
X134035714Y-51471071D01*
X134321428Y-51471071D01*
X134464285Y-51542500D01*
X133821428Y-52399642D02*
X133964285Y-52471071D01*
X134321428Y-52471071D01*
X134464285Y-52399642D01*
X134535714Y-52256785D01*
X134535714Y-52113928D01*
X134464285Y-51971071D01*
X134321428Y-51899642D01*
X133964285Y-51899642D01*
X133821428Y-51828214D01*
X132464285Y-52399642D02*
X132607142Y-52471071D01*
X132892857Y-52471071D01*
X133035714Y-52399642D01*
X133107142Y-52328214D01*
X133178571Y-52185357D01*
X133178571Y-51756785D01*
X133107142Y-51613928D01*
X133035714Y-51542500D01*
X132892857Y-51471071D01*
X132607142Y-51471071D01*
X132464285Y-51542500D01*
X131250000Y-52399642D02*
X131392857Y-52471071D01*
X131678571Y-52471071D01*
X131821428Y-52399642D01*
X131892857Y-52256785D01*
X131892857Y-51685357D01*
X131821428Y-51542500D01*
X131678571Y-51471071D01*
X131392857Y-51471071D01*
X131250000Y-51542500D01*
X131178571Y-51685357D01*
X131178571Y-51828214D01*
X131892857Y-51971071D01*
X129392857Y-51471071D02*
X129392857Y-52971071D01*
X129392857Y-51542500D02*
X129250000Y-51471071D01*
X128964285Y-51471071D01*
X128821428Y-51542500D01*
X128750000Y-51613928D01*
X128678571Y-51756785D01*
X128678571Y-52185357D01*
X128750000Y-52328214D01*
X128821428Y-52399642D01*
X128964285Y-52471071D01*
X129250000Y-52471071D01*
X129392857Y-52399642D01*
X128035714Y-52471071D02*
X128035714Y-51471071D01*
X128035714Y-51756785D02*
X127964285Y-51613928D01*
X127892857Y-51542500D01*
X127750000Y-51471071D01*
X127607142Y-51471071D01*
X126892857Y-52471071D02*
X127035714Y-52399642D01*
X127107142Y-52328214D01*
X127178571Y-52185357D01*
X127178571Y-51756785D01*
X127107142Y-51613928D01*
X127035714Y-51542500D01*
X126892857Y-51471071D01*
X126678571Y-51471071D01*
X126535714Y-51542500D01*
X126464285Y-51613928D01*
X126392857Y-51756785D01*
X126392857Y-52185357D01*
X126464285Y-52328214D01*
X126535714Y-52399642D01*
X126678571Y-52471071D01*
X126892857Y-52471071D01*
X125107142Y-52471071D02*
X125107142Y-50971071D01*
X125107142Y-52399642D02*
X125250000Y-52471071D01*
X125535714Y-52471071D01*
X125678571Y-52399642D01*
X125750000Y-52328214D01*
X125821428Y-52185357D01*
X125821428Y-51756785D01*
X125750000Y-51613928D01*
X125678571Y-51542500D01*
X125535714Y-51471071D01*
X125250000Y-51471071D01*
X125107142Y-51542500D01*
X123750000Y-51471071D02*
X123750000Y-52471071D01*
X124392857Y-51471071D02*
X124392857Y-52256785D01*
X124321428Y-52399642D01*
X124178571Y-52471071D01*
X123964285Y-52471071D01*
X123821428Y-52399642D01*
X123750000Y-52328214D01*
X122392857Y-52399642D02*
X122535714Y-52471071D01*
X122821428Y-52471071D01*
X122964285Y-52399642D01*
X123035714Y-52328214D01*
X123107142Y-52185357D01*
X123107142Y-51756785D01*
X123035714Y-51613928D01*
X122964285Y-51542500D01*
X122821428Y-51471071D01*
X122535714Y-51471071D01*
X122392857Y-51542500D01*
X121964285Y-51471071D02*
X121392857Y-51471071D01*
X121750000Y-50971071D02*
X121750000Y-52256785D01*
X121678571Y-52399642D01*
X121535714Y-52471071D01*
X121392857Y-52471071D01*
X120892857Y-52471071D02*
X120892857Y-51471071D01*
X120892857Y-50971071D02*
X120964285Y-51042500D01*
X120892857Y-51113928D01*
X120821428Y-51042500D01*
X120892857Y-50971071D01*
X120892857Y-51113928D01*
X119964285Y-52471071D02*
X120107142Y-52399642D01*
X120178571Y-52328214D01*
X120250000Y-52185357D01*
X120250000Y-51756785D01*
X120178571Y-51613928D01*
X120107142Y-51542500D01*
X119964285Y-51471071D01*
X119750000Y-51471071D01*
X119607142Y-51542500D01*
X119535714Y-51613928D01*
X119464285Y-51756785D01*
X119464285Y-52185357D01*
X119535714Y-52328214D01*
X119607142Y-52399642D01*
X119750000Y-52471071D01*
X119964285Y-52471071D01*
X118821428Y-51471071D02*
X118821428Y-52471071D01*
X118821428Y-51613928D02*
X118750000Y-51542500D01*
X118607142Y-51471071D01*
X118392857Y-51471071D01*
X118250000Y-51542500D01*
X118178571Y-51685357D01*
X118178571Y-52471071D01*
X115678571Y-52399642D02*
X115821428Y-52471071D01*
X116107142Y-52471071D01*
X116250000Y-52399642D01*
X116321428Y-52328214D01*
X116392857Y-52185357D01*
X116392857Y-51756785D01*
X116321428Y-51613928D01*
X116250000Y-51542500D01*
X116107142Y-51471071D01*
X115821428Y-51471071D01*
X115678571Y-51542500D01*
X114821428Y-52471071D02*
X114964285Y-52399642D01*
X115035714Y-52328214D01*
X115107142Y-52185357D01*
X115107142Y-51756785D01*
X115035714Y-51613928D01*
X114964285Y-51542500D01*
X114821428Y-51471071D01*
X114607142Y-51471071D01*
X114464285Y-51542500D01*
X114392857Y-51613928D01*
X114321428Y-51756785D01*
X114321428Y-52185357D01*
X114392857Y-52328214D01*
X114464285Y-52399642D01*
X114607142Y-52471071D01*
X114821428Y-52471071D01*
X113035714Y-52471071D02*
X113035714Y-50971071D01*
X113035714Y-52399642D02*
X113178571Y-52471071D01*
X113464285Y-52471071D01*
X113607142Y-52399642D01*
X113678571Y-52328214D01*
X113750000Y-52185357D01*
X113750000Y-51756785D01*
X113678571Y-51613928D01*
X113607142Y-51542500D01*
X113464285Y-51471071D01*
X113178571Y-51471071D01*
X113035714Y-51542500D01*
X111750000Y-52399642D02*
X111892857Y-52471071D01*
X112178571Y-52471071D01*
X112321428Y-52399642D01*
X112392857Y-52256785D01*
X112392857Y-51685357D01*
X112321428Y-51542500D01*
X112178571Y-51471071D01*
X111892857Y-51471071D01*
X111750000Y-51542500D01*
X111678571Y-51685357D01*
X111678571Y-51828214D01*
X112392857Y-51971071D01*
X109892857Y-52471071D02*
X109892857Y-50971071D01*
X109250000Y-52471071D02*
X109250000Y-51685357D01*
X109321428Y-51542500D01*
X109464285Y-51471071D01*
X109678571Y-51471071D01*
X109821428Y-51542500D01*
X109892857Y-51613928D01*
X107964285Y-52399642D02*
X108107142Y-52471071D01*
X108392857Y-52471071D01*
X108535714Y-52399642D01*
X108607142Y-52256785D01*
X108607142Y-51685357D01*
X108535714Y-51542500D01*
X108392857Y-51471071D01*
X108107142Y-51471071D01*
X107964285Y-51542500D01*
X107892857Y-51685357D01*
X107892857Y-51828214D01*
X108607142Y-51971071D01*
X107250000Y-52471071D02*
X107250000Y-51471071D01*
X107250000Y-51756785D02*
X107178571Y-51613928D01*
X107107142Y-51542500D01*
X106964285Y-51471071D01*
X106821428Y-51471071D01*
X105750000Y-52399642D02*
X105892857Y-52471071D01*
X106178571Y-52471071D01*
X106321428Y-52399642D01*
X106392857Y-52256785D01*
X106392857Y-51685357D01*
X106321428Y-51542500D01*
X106178571Y-51471071D01*
X105892857Y-51471071D01*
X105750000Y-51542500D01*
X105678571Y-51685357D01*
X105678571Y-51828214D01*
X106392857Y-51971071D01*
X131428571Y-54886071D02*
X131571428Y-54814642D01*
X131642857Y-54743214D01*
X131714285Y-54600357D01*
X131714285Y-54171785D01*
X131642857Y-54028928D01*
X131571428Y-53957500D01*
X131428571Y-53886071D01*
X131214285Y-53886071D01*
X131071428Y-53957500D01*
X131000000Y-54028928D01*
X130928571Y-54171785D01*
X130928571Y-54600357D01*
X131000000Y-54743214D01*
X131071428Y-54814642D01*
X131214285Y-54886071D01*
X131428571Y-54886071D01*
X130285714Y-53886071D02*
X130285714Y-54886071D01*
X130285714Y-54028928D02*
X130214285Y-53957500D01*
X130071428Y-53886071D01*
X129857142Y-53886071D01*
X129714285Y-53957500D01*
X129642857Y-54100357D01*
X129642857Y-54886071D01*
X127785714Y-54886071D02*
X127785714Y-53386071D01*
X127785714Y-53957500D02*
X127642857Y-53886071D01*
X127357142Y-53886071D01*
X127214285Y-53957500D01*
X127142857Y-54028928D01*
X127071428Y-54171785D01*
X127071428Y-54600357D01*
X127142857Y-54743214D01*
X127214285Y-54814642D01*
X127357142Y-54886071D01*
X127642857Y-54886071D01*
X127785714Y-54814642D01*
X125785714Y-54886071D02*
X125785714Y-54100357D01*
X125857142Y-53957500D01*
X126000000Y-53886071D01*
X126285714Y-53886071D01*
X126428571Y-53957500D01*
X125785714Y-54814642D02*
X125928571Y-54886071D01*
X126285714Y-54886071D01*
X126428571Y-54814642D01*
X126500000Y-54671785D01*
X126500000Y-54528928D01*
X126428571Y-54386071D01*
X126285714Y-54314642D01*
X125928571Y-54314642D01*
X125785714Y-54243214D01*
X124428571Y-54814642D02*
X124571428Y-54886071D01*
X124857142Y-54886071D01*
X125000000Y-54814642D01*
X125071428Y-54743214D01*
X125142857Y-54600357D01*
X125142857Y-54171785D01*
X125071428Y-54028928D01*
X125000000Y-53957500D01*
X124857142Y-53886071D01*
X124571428Y-53886071D01*
X124428571Y-53957500D01*
X123785714Y-54886071D02*
X123785714Y-53386071D01*
X123642857Y-54314642D02*
X123214285Y-54886071D01*
X123214285Y-53886071D02*
X123785714Y-54457500D01*
X121500000Y-54814642D02*
X121357142Y-54886071D01*
X121071428Y-54886071D01*
X120928571Y-54814642D01*
X120857142Y-54671785D01*
X120857142Y-54600357D01*
X120928571Y-54457500D01*
X121071428Y-54386071D01*
X121285714Y-54386071D01*
X121428571Y-54314642D01*
X121500000Y-54171785D01*
X121500000Y-54100357D01*
X121428571Y-53957500D01*
X121285714Y-53886071D01*
X121071428Y-53886071D01*
X120928571Y-53957500D01*
X120214285Y-54886071D02*
X120214285Y-53886071D01*
X120214285Y-53386071D02*
X120285714Y-53457500D01*
X120214285Y-53528928D01*
X120142857Y-53457500D01*
X120214285Y-53386071D01*
X120214285Y-53528928D01*
X119285714Y-54886071D02*
X119428571Y-54814642D01*
X119500000Y-54671785D01*
X119500000Y-53386071D01*
X118714285Y-54886071D02*
X118714285Y-53386071D01*
X118571428Y-54314642D02*
X118142857Y-54886071D01*
X118142857Y-53886071D02*
X118714285Y-54457500D01*
X117571428Y-54814642D02*
X117428571Y-54886071D01*
X117142857Y-54886071D01*
X117000000Y-54814642D01*
X116928571Y-54671785D01*
X116928571Y-54600357D01*
X117000000Y-54457500D01*
X117142857Y-54386071D01*
X117357142Y-54386071D01*
X117500000Y-54314642D01*
X117571428Y-54171785D01*
X117571428Y-54100357D01*
X117500000Y-53957500D01*
X117357142Y-53886071D01*
X117142857Y-53886071D01*
X117000000Y-53957500D01*
X115642857Y-54814642D02*
X115785714Y-54886071D01*
X116071428Y-54886071D01*
X116214285Y-54814642D01*
X116285714Y-54743214D01*
X116357142Y-54600357D01*
X116357142Y-54171785D01*
X116285714Y-54028928D01*
X116214285Y-53957500D01*
X116071428Y-53886071D01*
X115785714Y-53886071D01*
X115642857Y-53957500D01*
X115000000Y-54886071D02*
X115000000Y-53886071D01*
X115000000Y-54171785D02*
X114928571Y-54028928D01*
X114857142Y-53957500D01*
X114714285Y-53886071D01*
X114571428Y-53886071D01*
X113500000Y-54814642D02*
X113642857Y-54886071D01*
X113928571Y-54886071D01*
X114071428Y-54814642D01*
X114142857Y-54671785D01*
X114142857Y-54100357D01*
X114071428Y-53957500D01*
X113928571Y-53886071D01*
X113642857Y-53886071D01*
X113500000Y-53957500D01*
X113428571Y-54100357D01*
X113428571Y-54243214D01*
X114142857Y-54386071D01*
X112214285Y-54814642D02*
X112357142Y-54886071D01*
X112642857Y-54886071D01*
X112785714Y-54814642D01*
X112857142Y-54671785D01*
X112857142Y-54100357D01*
X112785714Y-53957500D01*
X112642857Y-53886071D01*
X112357142Y-53886071D01*
X112214285Y-53957500D01*
X112142857Y-54100357D01*
X112142857Y-54243214D01*
X112857142Y-54386071D01*
X111500000Y-53886071D02*
X111500000Y-54886071D01*
X111500000Y-54028928D02*
X111428571Y-53957500D01*
X111285714Y-53886071D01*
X111071428Y-53886071D01*
X110928571Y-53957500D01*
X110857142Y-54100357D01*
X110857142Y-54886071D01*
D11*
G04 #@! TO.C,RN3*
X117147619Y-89261904D02*
X117100000Y-89309523D01*
X117052380Y-89404761D01*
X117052380Y-89642857D01*
X117100000Y-89738095D01*
X117147619Y-89785714D01*
X117242857Y-89833333D01*
X117338095Y-89833333D01*
X117480952Y-89785714D01*
X118052380Y-89214285D01*
X118052380Y-89833333D01*
X117052380Y-90452380D02*
X117052380Y-90547619D01*
X117100000Y-90642857D01*
X117147619Y-90690476D01*
X117242857Y-90738095D01*
X117433333Y-90785714D01*
X117671428Y-90785714D01*
X117861904Y-90738095D01*
X117957142Y-90690476D01*
X118004761Y-90642857D01*
X118052380Y-90547619D01*
X118052380Y-90452380D01*
X118004761Y-90357142D01*
X117957142Y-90309523D01*
X117861904Y-90261904D01*
X117671428Y-90214285D01*
X117433333Y-90214285D01*
X117242857Y-90261904D01*
X117147619Y-90309523D01*
X117100000Y-90357142D01*
X117052380Y-90452380D01*
X117052380Y-91404761D02*
X117052380Y-91500000D01*
X117100000Y-91595238D01*
X117147619Y-91642857D01*
X117242857Y-91690476D01*
X117433333Y-91738095D01*
X117671428Y-91738095D01*
X117861904Y-91690476D01*
X117957142Y-91642857D01*
X118004761Y-91595238D01*
X118052380Y-91500000D01*
X118052380Y-91404761D01*
X118004761Y-91309523D01*
X117957142Y-91261904D01*
X117861904Y-91214285D01*
X117671428Y-91166666D01*
X117433333Y-91166666D01*
X117242857Y-91214285D01*
X117147619Y-91261904D01*
X117100000Y-91309523D01*
X117052380Y-91404761D01*
X118052380Y-92738095D02*
X117576190Y-92404761D01*
X118052380Y-92166666D02*
X117052380Y-92166666D01*
X117052380Y-92547619D01*
X117100000Y-92642857D01*
X117147619Y-92690476D01*
X117242857Y-92738095D01*
X117385714Y-92738095D01*
X117480952Y-92690476D01*
X117528571Y-92642857D01*
X117576190Y-92547619D01*
X117576190Y-92166666D01*
D12*
X115845238Y-91226190D02*
X116011904Y-90988095D01*
X116130952Y-91226190D02*
X116130952Y-90726190D01*
X115940476Y-90726190D01*
X115892857Y-90750000D01*
X115869047Y-90773809D01*
X115845238Y-90821428D01*
X115845238Y-90892857D01*
X115869047Y-90940476D01*
X115892857Y-90964285D01*
X115940476Y-90988095D01*
X116130952Y-90988095D01*
X115630952Y-91226190D02*
X115630952Y-90726190D01*
X115345238Y-91226190D01*
X115345238Y-90726190D01*
X115154761Y-90726190D02*
X114845238Y-90726190D01*
X115011904Y-90916666D01*
X114940476Y-90916666D01*
X114892857Y-90940476D01*
X114869047Y-90964285D01*
X114845238Y-91011904D01*
X114845238Y-91130952D01*
X114869047Y-91178571D01*
X114892857Y-91202380D01*
X114940476Y-91226190D01*
X115083333Y-91226190D01*
X115130952Y-91202380D01*
X115154761Y-91178571D01*
D11*
G04 #@! TO.C,RN4*
X113147619Y-89261904D02*
X113100000Y-89309523D01*
X113052380Y-89404761D01*
X113052380Y-89642857D01*
X113100000Y-89738095D01*
X113147619Y-89785714D01*
X113242857Y-89833333D01*
X113338095Y-89833333D01*
X113480952Y-89785714D01*
X114052380Y-89214285D01*
X114052380Y-89833333D01*
X113052380Y-90452380D02*
X113052380Y-90547619D01*
X113100000Y-90642857D01*
X113147619Y-90690476D01*
X113242857Y-90738095D01*
X113433333Y-90785714D01*
X113671428Y-90785714D01*
X113861904Y-90738095D01*
X113957142Y-90690476D01*
X114004761Y-90642857D01*
X114052380Y-90547619D01*
X114052380Y-90452380D01*
X114004761Y-90357142D01*
X113957142Y-90309523D01*
X113861904Y-90261904D01*
X113671428Y-90214285D01*
X113433333Y-90214285D01*
X113242857Y-90261904D01*
X113147619Y-90309523D01*
X113100000Y-90357142D01*
X113052380Y-90452380D01*
X113052380Y-91404761D02*
X113052380Y-91500000D01*
X113100000Y-91595238D01*
X113147619Y-91642857D01*
X113242857Y-91690476D01*
X113433333Y-91738095D01*
X113671428Y-91738095D01*
X113861904Y-91690476D01*
X113957142Y-91642857D01*
X114004761Y-91595238D01*
X114052380Y-91500000D01*
X114052380Y-91404761D01*
X114004761Y-91309523D01*
X113957142Y-91261904D01*
X113861904Y-91214285D01*
X113671428Y-91166666D01*
X113433333Y-91166666D01*
X113242857Y-91214285D01*
X113147619Y-91261904D01*
X113100000Y-91309523D01*
X113052380Y-91404761D01*
X114052380Y-92738095D02*
X113576190Y-92404761D01*
X114052380Y-92166666D02*
X113052380Y-92166666D01*
X113052380Y-92547619D01*
X113100000Y-92642857D01*
X113147619Y-92690476D01*
X113242857Y-92738095D01*
X113385714Y-92738095D01*
X113480952Y-92690476D01*
X113528571Y-92642857D01*
X113576190Y-92547619D01*
X113576190Y-92166666D01*
D12*
X111845238Y-91226190D02*
X112011904Y-90988095D01*
X112130952Y-91226190D02*
X112130952Y-90726190D01*
X111940476Y-90726190D01*
X111892857Y-90750000D01*
X111869047Y-90773809D01*
X111845238Y-90821428D01*
X111845238Y-90892857D01*
X111869047Y-90940476D01*
X111892857Y-90964285D01*
X111940476Y-90988095D01*
X112130952Y-90988095D01*
X111630952Y-91226190D02*
X111630952Y-90726190D01*
X111345238Y-91226190D01*
X111345238Y-90726190D01*
X110892857Y-90892857D02*
X110892857Y-91226190D01*
X111011904Y-90702380D02*
X111130952Y-91059523D01*
X110821428Y-91059523D01*
D11*
G04 #@! TO.C,C5*
X140666666Y-90485714D02*
X140666666Y-91152380D01*
X140904761Y-90104761D02*
X141142857Y-90819047D01*
X140523809Y-90819047D01*
X140238095Y-90152380D02*
X139571428Y-90152380D01*
X140000000Y-91152380D01*
X138761904Y-90485714D02*
X138761904Y-91152380D01*
X139190476Y-90485714D02*
X139190476Y-91009523D01*
X139142857Y-91104761D01*
X139047619Y-91152380D01*
X138904761Y-91152380D01*
X138809523Y-91104761D01*
X138761904Y-91057142D01*
X137952380Y-90628571D02*
X138285714Y-90628571D01*
X138285714Y-91152380D02*
X138285714Y-90152380D01*
X137809523Y-90152380D01*
X139666666Y-87357142D02*
X139714285Y-87404761D01*
X139857142Y-87452380D01*
X139952380Y-87452380D01*
X140095238Y-87404761D01*
X140190476Y-87309523D01*
X140238095Y-87214285D01*
X140285714Y-87023809D01*
X140285714Y-86880952D01*
X140238095Y-86690476D01*
X140190476Y-86595238D01*
X140095238Y-86500000D01*
X139952380Y-86452380D01*
X139857142Y-86452380D01*
X139714285Y-86500000D01*
X139666666Y-86547619D01*
X138761904Y-86452380D02*
X139238095Y-86452380D01*
X139285714Y-86928571D01*
X139238095Y-86880952D01*
X139142857Y-86833333D01*
X138904761Y-86833333D01*
X138809523Y-86880952D01*
X138761904Y-86928571D01*
X138714285Y-87023809D01*
X138714285Y-87261904D01*
X138761904Y-87357142D01*
X138809523Y-87404761D01*
X138904761Y-87452380D01*
X139142857Y-87452380D01*
X139238095Y-87404761D01*
X139285714Y-87357142D01*
G04 #@! TO.C,RN1*
X125147619Y-89261904D02*
X125100000Y-89309523D01*
X125052380Y-89404761D01*
X125052380Y-89642857D01*
X125100000Y-89738095D01*
X125147619Y-89785714D01*
X125242857Y-89833333D01*
X125338095Y-89833333D01*
X125480952Y-89785714D01*
X126052380Y-89214285D01*
X126052380Y-89833333D01*
X125052380Y-90452380D02*
X125052380Y-90547619D01*
X125100000Y-90642857D01*
X125147619Y-90690476D01*
X125242857Y-90738095D01*
X125433333Y-90785714D01*
X125671428Y-90785714D01*
X125861904Y-90738095D01*
X125957142Y-90690476D01*
X126004761Y-90642857D01*
X126052380Y-90547619D01*
X126052380Y-90452380D01*
X126004761Y-90357142D01*
X125957142Y-90309523D01*
X125861904Y-90261904D01*
X125671428Y-90214285D01*
X125433333Y-90214285D01*
X125242857Y-90261904D01*
X125147619Y-90309523D01*
X125100000Y-90357142D01*
X125052380Y-90452380D01*
X125052380Y-91404761D02*
X125052380Y-91500000D01*
X125100000Y-91595238D01*
X125147619Y-91642857D01*
X125242857Y-91690476D01*
X125433333Y-91738095D01*
X125671428Y-91738095D01*
X125861904Y-91690476D01*
X125957142Y-91642857D01*
X126004761Y-91595238D01*
X126052380Y-91500000D01*
X126052380Y-91404761D01*
X126004761Y-91309523D01*
X125957142Y-91261904D01*
X125861904Y-91214285D01*
X125671428Y-91166666D01*
X125433333Y-91166666D01*
X125242857Y-91214285D01*
X125147619Y-91261904D01*
X125100000Y-91309523D01*
X125052380Y-91404761D01*
X126052380Y-92738095D02*
X125576190Y-92404761D01*
X126052380Y-92166666D02*
X125052380Y-92166666D01*
X125052380Y-92547619D01*
X125100000Y-92642857D01*
X125147619Y-92690476D01*
X125242857Y-92738095D01*
X125385714Y-92738095D01*
X125480952Y-92690476D01*
X125528571Y-92642857D01*
X125576190Y-92547619D01*
X125576190Y-92166666D01*
D12*
X123845238Y-91226190D02*
X124011904Y-90988095D01*
X124130952Y-91226190D02*
X124130952Y-90726190D01*
X123940476Y-90726190D01*
X123892857Y-90750000D01*
X123869047Y-90773809D01*
X123845238Y-90821428D01*
X123845238Y-90892857D01*
X123869047Y-90940476D01*
X123892857Y-90964285D01*
X123940476Y-90988095D01*
X124130952Y-90988095D01*
X123630952Y-91226190D02*
X123630952Y-90726190D01*
X123345238Y-91226190D01*
X123345238Y-90726190D01*
X122845238Y-91226190D02*
X123130952Y-91226190D01*
X122988095Y-91226190D02*
X122988095Y-90726190D01*
X123035714Y-90797619D01*
X123083333Y-90845238D01*
X123130952Y-90869047D01*
D11*
G04 #@! TO.C,RN2*
X121147619Y-89261904D02*
X121100000Y-89309523D01*
X121052380Y-89404761D01*
X121052380Y-89642857D01*
X121100000Y-89738095D01*
X121147619Y-89785714D01*
X121242857Y-89833333D01*
X121338095Y-89833333D01*
X121480952Y-89785714D01*
X122052380Y-89214285D01*
X122052380Y-89833333D01*
X121052380Y-90452380D02*
X121052380Y-90547619D01*
X121100000Y-90642857D01*
X121147619Y-90690476D01*
X121242857Y-90738095D01*
X121433333Y-90785714D01*
X121671428Y-90785714D01*
X121861904Y-90738095D01*
X121957142Y-90690476D01*
X122004761Y-90642857D01*
X122052380Y-90547619D01*
X122052380Y-90452380D01*
X122004761Y-90357142D01*
X121957142Y-90309523D01*
X121861904Y-90261904D01*
X121671428Y-90214285D01*
X121433333Y-90214285D01*
X121242857Y-90261904D01*
X121147619Y-90309523D01*
X121100000Y-90357142D01*
X121052380Y-90452380D01*
X121052380Y-91404761D02*
X121052380Y-91500000D01*
X121100000Y-91595238D01*
X121147619Y-91642857D01*
X121242857Y-91690476D01*
X121433333Y-91738095D01*
X121671428Y-91738095D01*
X121861904Y-91690476D01*
X121957142Y-91642857D01*
X122004761Y-91595238D01*
X122052380Y-91500000D01*
X122052380Y-91404761D01*
X122004761Y-91309523D01*
X121957142Y-91261904D01*
X121861904Y-91214285D01*
X121671428Y-91166666D01*
X121433333Y-91166666D01*
X121242857Y-91214285D01*
X121147619Y-91261904D01*
X121100000Y-91309523D01*
X121052380Y-91404761D01*
X122052380Y-92738095D02*
X121576190Y-92404761D01*
X122052380Y-92166666D02*
X121052380Y-92166666D01*
X121052380Y-92547619D01*
X121100000Y-92642857D01*
X121147619Y-92690476D01*
X121242857Y-92738095D01*
X121385714Y-92738095D01*
X121480952Y-92690476D01*
X121528571Y-92642857D01*
X121576190Y-92547619D01*
X121576190Y-92166666D01*
D12*
X119845238Y-91226190D02*
X120011904Y-90988095D01*
X120130952Y-91226190D02*
X120130952Y-90726190D01*
X119940476Y-90726190D01*
X119892857Y-90750000D01*
X119869047Y-90773809D01*
X119845238Y-90821428D01*
X119845238Y-90892857D01*
X119869047Y-90940476D01*
X119892857Y-90964285D01*
X119940476Y-90988095D01*
X120130952Y-90988095D01*
X119630952Y-91226190D02*
X119630952Y-90726190D01*
X119345238Y-91226190D01*
X119345238Y-90726190D01*
X119130952Y-90773809D02*
X119107142Y-90750000D01*
X119059523Y-90726190D01*
X118940476Y-90726190D01*
X118892857Y-90750000D01*
X118869047Y-90773809D01*
X118845238Y-90821428D01*
X118845238Y-90869047D01*
X118869047Y-90940476D01*
X119154761Y-91226190D01*
X118845238Y-91226190D01*
D13*
G04 #@! TO.C,D3*
X129750000Y-67112500D02*
X132250000Y-67112500D01*
X132250000Y-66112500D02*
X129750000Y-66112500D01*
G36*
X132250000Y-67112500D02*
G01*
X131000000Y-67112500D01*
X131000000Y-66612500D01*
X132250000Y-66612500D01*
X132250000Y-67112500D01*
G37*
D14*
X132250000Y-67112500D02*
X131000000Y-67112500D01*
X131000000Y-66612500D01*
X132250000Y-66612500D01*
X132250000Y-67112500D01*
D15*
G04 #@! TO.C,RN3*
X116500000Y-91500000D02*
X116500000Y-90500000D01*
X114500000Y-91500000D02*
X116500000Y-91500000D01*
X114500000Y-90500000D02*
X114500000Y-91500000D01*
X116500000Y-90500000D02*
X114500000Y-90500000D01*
D13*
G04 #@! TO.C,D7*
X101000000Y-78250000D02*
X101000000Y-80750000D01*
X102000000Y-80750000D02*
X102000000Y-78250000D01*
G36*
X102000000Y-79500000D02*
G01*
X101500000Y-79500000D01*
X101500000Y-78250000D01*
X102000000Y-78250000D01*
X102000000Y-79500000D01*
G37*
D14*
X102000000Y-79500000D02*
X101500000Y-79500000D01*
X101500000Y-78250000D01*
X102000000Y-78250000D01*
X102000000Y-79500000D01*
D15*
G04 #@! TO.C,RN4*
X110500000Y-90500000D02*
X110500000Y-91500000D01*
X112500000Y-90500000D02*
X110500000Y-90500000D01*
X110500000Y-91500000D02*
X112500000Y-91500000D01*
X112500000Y-91500000D02*
X112500000Y-90500000D01*
D13*
G04 #@! TO.C,D1*
X143243751Y-75250000D02*
X143243751Y-72750000D01*
X142243751Y-72750000D02*
X142243751Y-75250000D01*
G36*
X142743751Y-75250000D02*
G01*
X142243751Y-75250000D01*
X142243751Y-74000000D01*
X142743751Y-74000000D01*
X142743751Y-75250000D01*
G37*
D14*
X142743751Y-75250000D02*
X142243751Y-75250000D01*
X142243751Y-74000000D01*
X142743751Y-74000000D01*
X142743751Y-75250000D01*
D13*
G04 #@! TO.C,J5*
X141400000Y-92600000D02*
X103600000Y-92600000D01*
X103600000Y-92600000D02*
X103600000Y-99400000D01*
X141400000Y-99400000D02*
X141400000Y-92600000D01*
X103600000Y-99400000D02*
X141400000Y-99400000D01*
G04 #@! TO.C,D5*
X109750000Y-66000000D02*
X107250000Y-66000000D01*
X107250000Y-67000000D02*
X109750000Y-67000000D01*
G36*
X109750000Y-67000000D02*
G01*
X108500000Y-67000000D01*
X108500000Y-66500000D01*
X109750000Y-66500000D01*
X109750000Y-67000000D01*
G37*
D14*
X109750000Y-67000000D02*
X108500000Y-67000000D01*
X108500000Y-66500000D01*
X109750000Y-66500000D01*
X109750000Y-67000000D01*
D15*
G04 #@! TO.C,C5*
X141150000Y-84350000D02*
X136850000Y-84350000D01*
X141150000Y-89650000D02*
X136850000Y-89650000D01*
X141283956Y-85550000D02*
X141283956Y-86050000D01*
X136850000Y-84350000D02*
X136850000Y-89650000D01*
X142150000Y-85350000D02*
X141150000Y-84350000D01*
X142150000Y-85350000D02*
X142150000Y-88650000D01*
X142150000Y-88650000D02*
X141150000Y-89650000D01*
X141533956Y-85800000D02*
X141033956Y-85800000D01*
X142000000Y-87000000D02*
G75*
G03*
X142000000Y-87000000I-2500000J0D01*
G01*
G04 #@! TO.C,RN1*
X122500000Y-90500000D02*
X122500000Y-91500000D01*
X124500000Y-90500000D02*
X122500000Y-90500000D01*
X122500000Y-91500000D02*
X124500000Y-91500000D01*
X124500000Y-91500000D02*
X124500000Y-90500000D01*
G04 #@! TO.C,RN2*
X118500000Y-91500000D02*
X120500000Y-91500000D01*
X118500000Y-90500000D02*
X118500000Y-91500000D01*
X120500000Y-91500000D02*
X120500000Y-90500000D01*
X120500000Y-90500000D02*
X118500000Y-90500000D01*
G04 #@! TD*
M02*
