G04 #@! TF.GenerationSoftware,KiCad,Pcbnew,6.0.7-1.fc35*
G04 #@! TF.CreationDate,2022-09-05T19:11:37-05:00*
G04 #@! TF.ProjectId,pmod-adapter,706d6f64-2d61-4646-9170-7465722e6b69,rev?*
G04 #@! TF.SameCoordinates,Original*
G04 #@! TF.FileFunction,Profile,NP*
%FSLAX46Y46*%
G04 Gerber Fmt 4.6, Leading zero omitted, Abs format (unit mm)*
G04 Created by KiCad (PCBNEW 6.0.7-1.fc35) date 2022-09-05 19:11:37*
%MOMM*%
%LPD*%
G01*
G04 APERTURE LIST*
G04 #@! TA.AperFunction,Profile*
%ADD10C,0.100000*%
G04 #@! TD*
G04 APERTURE END LIST*
D10*
X145000000Y-102000000D02*
X145000000Y-100000000D01*
X144999986Y-51914214D02*
G75*
G03*
X143000000Y-49914214I-1999986J14D01*
G01*
X100000000Y-102000000D02*
G75*
G03*
X102000000Y-104000000I2000000J0D01*
G01*
X145000000Y-62914214D02*
X145000000Y-51914214D01*
X102000000Y-50000000D02*
G75*
G03*
X100000000Y-52000000I0J-2000000D01*
G01*
X143000000Y-104000000D02*
G75*
G03*
X145000000Y-102000000I0J2000000D01*
G01*
X145000000Y-100000000D02*
X145000000Y-89000000D01*
X160000000Y-68500000D02*
X160000000Y-85000000D01*
X147000000Y-87000000D02*
X158000000Y-87000000D01*
X102000000Y-50000000D02*
X143000000Y-49914214D01*
X98000000Y-66500000D02*
G75*
G03*
X100000000Y-64500000I0J2000000D01*
G01*
X158000000Y-87000000D02*
X158000000Y-87000000D01*
X100000000Y-100000000D02*
X100000000Y-89000000D01*
X100000000Y-64500000D02*
X100000000Y-63000000D01*
X100000000Y-102000000D02*
X100000000Y-100000000D01*
X160000000Y-68500000D02*
G75*
G03*
X158000000Y-66500000I-2000000J0D01*
G01*
X87000000Y-66500000D02*
G75*
G03*
X85000000Y-68500000I0J-2000000D01*
G01*
X85000000Y-68500000D02*
X85000000Y-85000000D01*
X158000000Y-87000000D02*
G75*
G03*
X160000000Y-85000000I0J2000000D01*
G01*
X100000000Y-89000000D02*
G75*
G03*
X98000000Y-87000000I-2000000J0D01*
G01*
X147000000Y-66500000D02*
X158000000Y-66500000D01*
X147000000Y-87000000D02*
G75*
G03*
X145000000Y-89000000I0J-2000000D01*
G01*
X85000000Y-85000000D02*
G75*
G03*
X87000000Y-87000000I2000000J0D01*
G01*
X145000000Y-64500000D02*
X145000000Y-62914214D01*
X100000000Y-63000000D02*
X100000000Y-52000000D01*
X87000000Y-66500000D02*
X98000000Y-66500000D01*
X87000000Y-87000000D02*
X98000000Y-87000000D01*
X145000000Y-64500000D02*
G75*
G03*
X147000000Y-66500000I2000000J0D01*
G01*
X102000000Y-104000000D02*
X143000000Y-104000000D01*
M02*
