G04 #@! TF.GenerationSoftware,KiCad,Pcbnew,6.0.7-1.fc35*
G04 #@! TF.CreationDate,2022-09-05T19:13:25-05:00*
G04 #@! TF.ProjectId,lcd-adapter,6c63642d-6164-4617-9074-65722e6b6963,rev?*
G04 #@! TF.SameCoordinates,Original*
G04 #@! TF.FileFunction,Copper,L4,Bot*
G04 #@! TF.FilePolarity,Positive*
%FSLAX46Y46*%
G04 Gerber Fmt 4.6, Leading zero omitted, Abs format (unit mm)*
G04 Created by KiCad (PCBNEW 6.0.7-1.fc35) date 2022-09-05 19:13:25*
%MOMM*%
%LPD*%
G01*
G04 APERTURE LIST*
G04 #@! TA.AperFunction,SMDPad,CuDef*
%ADD10R,0.500000X2.400000*%
G04 #@! TD*
G04 #@! TA.AperFunction,ViaPad*
%ADD11C,0.800000*%
G04 #@! TD*
G04 #@! TA.AperFunction,Conductor*
%ADD12C,0.500000*%
G04 #@! TD*
G04 #@! TA.AperFunction,Conductor*
%ADD13C,0.220000*%
G04 #@! TD*
G04 APERTURE END LIST*
D10*
G04 #@! TO.P,J2,1,Pin_1*
G04 #@! TO.N,+3.3V*
X138100000Y-95900000D03*
G04 #@! TO.P,J2,2,Pin_2*
G04 #@! TO.N,unconnected-(J2-Pad2)*
X138100000Y-91100000D03*
G04 #@! TO.P,J2,3,Pin_3*
G04 #@! TO.N,+3.3V*
X137300000Y-95900000D03*
G04 #@! TO.P,J2,4,Pin_4*
G04 #@! TO.N,unconnected-(J2-Pad4)*
X137300000Y-91100000D03*
G04 #@! TO.P,J2,5,Pin_5*
G04 #@! TO.N,unconnected-(J2-Pad5)*
X136500000Y-95900000D03*
G04 #@! TO.P,J2,6,Pin_6*
G04 #@! TO.N,unconnected-(J2-Pad6)*
X136500000Y-91100000D03*
G04 #@! TO.P,J2,7,Pin_7*
G04 #@! TO.N,unconnected-(J2-Pad7)*
X135700000Y-95900000D03*
G04 #@! TO.P,J2,8,Pin_8*
G04 #@! TO.N,unconnected-(J2-Pad8)*
X135700000Y-91100000D03*
G04 #@! TO.P,J2,9,Pin_9*
G04 #@! TO.N,unconnected-(J2-Pad9)*
X134900000Y-95900000D03*
G04 #@! TO.P,J2,10,Pin_10*
G04 #@! TO.N,unconnected-(J2-Pad10)*
X134900000Y-91100000D03*
G04 #@! TO.P,J2,11,Pin_11*
G04 #@! TO.N,unconnected-(J2-Pad11)*
X134100000Y-95900000D03*
G04 #@! TO.P,J2,12,Pin_12*
G04 #@! TO.N,unconnected-(J2-Pad12)*
X134100000Y-91100000D03*
G04 #@! TO.P,J2,13,Pin_13*
G04 #@! TO.N,unconnected-(J2-Pad13)*
X133300000Y-95900000D03*
G04 #@! TO.P,J2,14,Pin_14*
G04 #@! TO.N,unconnected-(J2-Pad14)*
X133300000Y-91100000D03*
G04 #@! TO.P,J2,15,Pin_15*
G04 #@! TO.N,unconnected-(J2-Pad15)*
X132500000Y-95900000D03*
G04 #@! TO.P,J2,16,Pin_16*
G04 #@! TO.N,unconnected-(J2-Pad16)*
X132500000Y-91100000D03*
G04 #@! TO.P,J2,17,Pin_17*
G04 #@! TO.N,unconnected-(J2-Pad17)*
X131700000Y-95900000D03*
G04 #@! TO.P,J2,18,Pin_18*
G04 #@! TO.N,unconnected-(J2-Pad18)*
X131700000Y-91100000D03*
G04 #@! TO.P,J2,19,Pin_19*
G04 #@! TO.N,unconnected-(J2-Pad19)*
X130900000Y-95900000D03*
G04 #@! TO.P,J2,20,Pin_20*
G04 #@! TO.N,unconnected-(J2-Pad20)*
X130900000Y-91100000D03*
G04 #@! TO.P,J2,21,Pin_21*
G04 #@! TO.N,unconnected-(J2-Pad21)*
X130100000Y-95900000D03*
G04 #@! TO.P,J2,22,Pin_22*
G04 #@! TO.N,unconnected-(J2-Pad22)*
X130100000Y-91100000D03*
G04 #@! TO.P,J2,23,Pin_23*
G04 #@! TO.N,GND*
X129300000Y-95900000D03*
G04 #@! TO.P,J2,24,Pin_24*
X129300000Y-91100000D03*
G04 #@! TO.P,J2,25,Pin_25*
G04 #@! TO.N,/PIN_L22 P*
X128500000Y-95900000D03*
G04 #@! TO.P,J2,26,Pin_26*
G04 #@! TO.N,unconnected-(J2-Pad26)*
X128500000Y-91100000D03*
G04 #@! TO.P,J2,27,Pin_27*
G04 #@! TO.N,/PIN_K22_N*
X127700000Y-95900000D03*
G04 #@! TO.P,J2,28,Pin_28*
G04 #@! TO.N,unconnected-(J2-Pad28)*
X127700000Y-91100000D03*
G04 #@! TO.P,J2,29,Pin_29*
G04 #@! TO.N,/PIN_N19 P*
X126900000Y-95900000D03*
G04 #@! TO.P,J2,30,Pin_30*
G04 #@! TO.N,unconnected-(J2-Pad30)*
X126900000Y-91100000D03*
G04 #@! TO.P,J2,31,Pin_31*
G04 #@! TO.N,/PIN_M20_N*
X126100000Y-95900000D03*
G04 #@! TO.P,J2,32,Pin_32*
G04 #@! TO.N,/PIN_J32 N*
X126100000Y-91100000D03*
G04 #@! TO.P,J2,33,Pin_33*
G04 #@! TO.N,GND*
X125300000Y-95900000D03*
G04 #@! TO.P,J2,34,Pin_34*
X125300000Y-91100000D03*
G04 #@! TO.P,J2,35,Pin_35*
G04 #@! TO.N,/PIN_J21 P*
X124500000Y-95900000D03*
G04 #@! TO.P,J2,36,Pin_36*
G04 #@! TO.N,/PIN_M24 P*
X124500000Y-91100000D03*
G04 #@! TO.P,J2,37,Pin_37*
G04 #@! TO.N,/PIN_H22_N*
X123700000Y-95900000D03*
G04 #@! TO.P,J2,38,Pin_38*
G04 #@! TO.N,/PIN_L24_N*
X123700000Y-91100000D03*
G04 #@! TO.P,J2,39,Pin_39*
G04 #@! TO.N,/PIN_J26 P*
X122900000Y-95900000D03*
G04 #@! TO.P,J2,40,Pin_40*
G04 #@! TO.N,/PIN_J24 P*
X122900000Y-91100000D03*
G04 #@! TO.P,J2,41,Pin_41*
G04 #@! TO.N,/PIN_H26_N*
X122100000Y-95900000D03*
G04 #@! TO.P,J2,42,Pin_42*
G04 #@! TO.N,/PIN_J25_N*
X122100000Y-91100000D03*
G04 #@! TO.P,J2,43,Pin_43*
G04 #@! TO.N,GND*
X121300000Y-95900000D03*
G04 #@! TO.P,J2,44,Pin_44*
X121300000Y-91100000D03*
G04 #@! TO.P,J2,45,Pin_45*
G04 #@! TO.N,/PIN_G25 P*
X120500000Y-95900000D03*
G04 #@! TO.P,J2,46,Pin_46*
G04 #@! TO.N,/PIN_H21 P*
X120500000Y-91100000D03*
G04 #@! TO.P,J2,47,Pin_47*
G04 #@! TO.N,/PIN_G26_N*
X119700000Y-95900000D03*
G04 #@! TO.P,J2,48,Pin_48*
G04 #@! TO.N,/PIN_G21_N*
X119700000Y-91100000D03*
G04 #@! TO.P,J2,49,Pin_49*
G04 #@! TO.N,/PIN_F25 P*
X118900000Y-95900000D03*
G04 #@! TO.P,J2,50,Pin_50*
G04 #@! TO.N,/PIN_E21 P*
X118900000Y-91100000D03*
G04 #@! TO.P,J2,51,Pin_51*
G04 #@! TO.N,/PIN_E26_N*
X118100000Y-95900000D03*
G04 #@! TO.P,J2,52,Pin_52*
G04 #@! TO.N,/PIN_E22_N*
X118100000Y-91100000D03*
G04 #@! TO.P,J2,53,Pin_53*
G04 #@! TO.N,GND*
X117300000Y-95900000D03*
G04 #@! TO.P,J2,54,Pin_54*
X117300000Y-91100000D03*
G04 #@! TO.P,J2,55,Pin_55*
G04 #@! TO.N,/PIN_D26 P*
X116500000Y-95900000D03*
G04 #@! TO.P,J2,56,Pin_56*
G04 #@! TO.N,/PIN_G22_P*
X116500000Y-91100000D03*
G04 #@! TO.P,J2,57,Pin_57*
G04 #@! TO.N,/PIN_C26_N*
X115700000Y-95900000D03*
G04 #@! TO.P,J2,58,Pin_58*
G04 #@! TO.N,/PIN_F23_N*
X115700000Y-91100000D03*
G04 #@! TO.P,J2,59,Pin_59*
G04 #@! TO.N,/PIN_A23 P*
X114900000Y-95900000D03*
G04 #@! TO.P,J2,60,Pin_60*
G04 #@! TO.N,/PIN_E25 P*
X114900000Y-91100000D03*
G04 #@! TO.P,J2,61,Pin_61*
G04 #@! TO.N,/PIN_A24_N*
X114100000Y-95900000D03*
G04 #@! TO.P,J2,62,Pin_62*
G04 #@! TO.N,/PIN_D25_N*
X114100000Y-91100000D03*
G04 #@! TO.P,J2,63,Pin_63*
G04 #@! TO.N,GND*
X113300000Y-95900000D03*
G04 #@! TO.P,J2,64,Pin_64*
X113300000Y-91100000D03*
G04 #@! TO.P,J2,65,Pin_65*
G04 #@! TO.N,/PIN_B20 P*
X112500000Y-95900000D03*
G04 #@! TO.P,J2,66,Pin_66*
G04 #@! TO.N,/PIN_D23 P*
X112500000Y-91100000D03*
G04 #@! TO.P,J2,67,Pin_67*
G04 #@! TO.N,unconnected-(J2-Pad67)*
X111700000Y-95900000D03*
G04 #@! TO.P,J2,68,Pin_68*
G04 #@! TO.N,/PIN_D24_N*
X111700000Y-91100000D03*
G04 #@! TO.P,J2,69,Pin_69*
G04 #@! TO.N,unconnected-(J2-Pad69)*
X110900000Y-95900000D03*
G04 #@! TO.P,J2,70,Pin_70*
G04 #@! TO.N,/PIN_F22 P*
X110900000Y-91100000D03*
G04 #@! TO.P,J2,71,Pin_71*
G04 #@! TO.N,unconnected-(J2-Pad71)*
X110100000Y-95900000D03*
G04 #@! TO.P,J2,72,Pin_72*
G04 #@! TO.N,/PIN_E23_N*
X110100000Y-91100000D03*
G04 #@! TO.P,J2,73,Pin_73*
G04 #@! TO.N,GND*
X109300000Y-95900000D03*
G04 #@! TO.P,J2,74,Pin_74*
X109300000Y-91100000D03*
G04 #@! TO.P,J2,75,Pin_75*
G04 #@! TO.N,unconnected-(J2-Pad75)*
X108500000Y-95900000D03*
G04 #@! TO.P,J2,76,Pin_76*
G04 #@! TO.N,unconnected-(J2-Pad76)*
X108500000Y-91100000D03*
G04 #@! TO.P,J2,77,Pin_77*
G04 #@! TO.N,unconnected-(J2-Pad77)*
X107700000Y-95900000D03*
G04 #@! TO.P,J2,78,Pin_78*
G04 #@! TO.N,unconnected-(J2-Pad78)*
X107700000Y-91100000D03*
G04 #@! TO.P,J2,79,Pin_79*
G04 #@! TO.N,GND*
X106900000Y-95900000D03*
G04 #@! TO.P,J2,80,Pin_80*
X106900000Y-91100000D03*
G04 #@! TD*
D11*
G04 #@! TO.N,+3.3V*
X138250000Y-93750000D03*
X137300000Y-93800000D03*
G04 #@! TO.N,GND*
X134000000Y-93500000D03*
X132500000Y-84250000D03*
X132525000Y-87225000D03*
X130250000Y-93500000D03*
X106750000Y-93500000D03*
X142000000Y-82250000D03*
X129250000Y-80250000D03*
X132250000Y-93500000D03*
X135750000Y-93500000D03*
X102750000Y-76750000D03*
X111250000Y-83000000D03*
X120500000Y-93500000D03*
X140775000Y-82000000D03*
X111500000Y-76750000D03*
X102250000Y-93500000D03*
X115500000Y-76750000D03*
X109500000Y-93500000D03*
X125109500Y-93290069D03*
X107609500Y-83000000D03*
X123750000Y-76750000D03*
X136750000Y-79750000D03*
X131250000Y-85750000D03*
X125685966Y-88104499D03*
X107250000Y-76750000D03*
X105500000Y-79500000D03*
X119500000Y-76750000D03*
G04 #@! TO.N,/PIN_J24 P*
X121500000Y-79000000D03*
G04 #@! TO.N,/PIN_N19 P*
X126500000Y-97750000D03*
G04 #@! TO.N,/PIN_E21 P*
X117399503Y-79000000D03*
G04 #@! TO.N,/PIN_G25 P*
X120500000Y-97750000D03*
G04 #@! TO.N,/PIN_A23 P*
X114500000Y-97750000D03*
G04 #@! TO.N,/PIN_D26 P*
X116500000Y-97750000D03*
G04 #@! TO.N,/PIN_L22 P*
X128500000Y-97750000D03*
G04 #@! TO.N,/PIN_E25 P*
X113399503Y-79000000D03*
G04 #@! TO.N,/PIN_J21 P*
X124500000Y-97750000D03*
G04 #@! TO.N,/PIN_D23 P*
X111149503Y-79000000D03*
G04 #@! TO.N,/PIN_J26 P*
X122500000Y-97750000D03*
G04 #@! TO.N,/PIN_F22 P*
X109250000Y-79000000D03*
G04 #@! TO.N,/PIN_F25 P*
X118500000Y-97750000D03*
G04 #@! TO.N,/PIN_H21 P*
X119198509Y-79000000D03*
G04 #@! TO.N,/PIN_M24 P*
X123500000Y-79000000D03*
G04 #@! TO.N,/PIN_G22_P*
X115250000Y-79000000D03*
G04 #@! TO.N,/VLED-*
X140750000Y-77000000D03*
X140750000Y-79250000D03*
G04 #@! TO.N,/PIN_L24_N*
X122500000Y-79000000D03*
G04 #@! TO.N,/PIN_J25_N*
X120500000Y-79000000D03*
G04 #@! TO.N,/PIN_G21_N*
X118299006Y-79000000D03*
G04 #@! TO.N,/PIN_E22_N*
X116500000Y-79000000D03*
G04 #@! TO.N,/PIN_F23_N*
X114299006Y-79000000D03*
G04 #@! TO.N,/PIN_D25_N*
X112500000Y-79000000D03*
G04 #@! TO.N,/PIN_D24_N*
X110250000Y-79000000D03*
G04 #@! TO.N,/PIN_E23_N*
X108250000Y-79000000D03*
G04 #@! TO.N,/PIN_K22_N*
X127500000Y-97750000D03*
G04 #@! TO.N,/PIN_M20_N*
X125500000Y-97750000D03*
G04 #@! TO.N,/PIN_H22_N*
X123500000Y-97750000D03*
G04 #@! TO.N,/PIN_H26_N*
X121500000Y-97750000D03*
G04 #@! TO.N,/PIN_G26_N*
X119500000Y-97750000D03*
G04 #@! TO.N,/PIN_E26_N*
X117500000Y-97750000D03*
G04 #@! TO.N,/PIN_C26_N*
X115500000Y-97750000D03*
G04 #@! TO.N,/PIN_A24_N*
X113500000Y-97750000D03*
G04 #@! TO.N,/PIN_B20 P*
X112500000Y-97750000D03*
G04 #@! TO.N,/PIN_J32 N*
X136250000Y-81000000D03*
G04 #@! TD*
D12*
G04 #@! TO.N,+3.3V*
X138100000Y-93900000D02*
X138250000Y-93750000D01*
X138100000Y-95900000D02*
X138100000Y-93900000D01*
X137300000Y-95900000D02*
X137300000Y-93800000D01*
D13*
G04 #@! TO.N,/PIN_J24 P*
X122900000Y-82325140D02*
X122900000Y-82600000D01*
X121500000Y-79000000D02*
X122900000Y-80400000D01*
X122900000Y-82600000D02*
X122900000Y-91100000D01*
X122900000Y-80400000D02*
X122900000Y-81600000D01*
X122674860Y-81825140D02*
X122674860Y-82100000D01*
X122787430Y-81712600D02*
G75*
G03*
X122900000Y-81600000I-30J112600D01*
G01*
X122674870Y-81825140D02*
G75*
G02*
X122787430Y-81712570I112530J40D01*
G01*
X122899930Y-82325140D02*
G75*
G03*
X122787430Y-82212570I-112530J40D01*
G01*
X122787430Y-82212540D02*
G75*
G02*
X122674860Y-82100000I-30J112540D01*
G01*
G04 #@! TO.N,/PIN_N19 P*
X126900000Y-97350000D02*
X126500000Y-97750000D01*
X126900000Y-95900000D02*
X126900000Y-97350000D01*
G04 #@! TO.N,/PIN_E21 P*
X118900000Y-80500497D02*
X118900000Y-81100000D01*
X117399503Y-79000000D02*
X118900000Y-80500497D01*
X118674860Y-81325140D02*
X118674860Y-81600000D01*
X118900000Y-82100000D02*
X118900000Y-91100000D01*
X118900000Y-81825140D02*
X118900000Y-82100000D01*
X118899930Y-81825140D02*
G75*
G03*
X118787430Y-81712570I-112530J40D01*
G01*
X118787430Y-81712540D02*
G75*
G02*
X118674860Y-81600000I-30J112540D01*
G01*
X118674870Y-81325140D02*
G75*
G02*
X118787430Y-81212570I112530J40D01*
G01*
X118787430Y-81212600D02*
G75*
G03*
X118900000Y-81100000I-30J112600D01*
G01*
G04 #@! TO.N,/PIN_G25 P*
X120500000Y-95900000D02*
X120500000Y-97750000D01*
G04 #@! TO.N,/PIN_A23 P*
X114900000Y-97350000D02*
X114500000Y-97750000D01*
X114900000Y-95900000D02*
X114900000Y-97350000D01*
G04 #@! TO.N,/PIN_D26 P*
X116500000Y-95900000D02*
X116500000Y-97750000D01*
G04 #@! TO.N,/PIN_L22 P*
X128500000Y-95900000D02*
X128500000Y-97750000D01*
G04 #@! TO.N,/PIN_E25 P*
X113399503Y-79000000D02*
X114900000Y-80500497D01*
X114900000Y-80500497D02*
X114900000Y-81850000D01*
X114674860Y-82075140D02*
X114674860Y-82350000D01*
X114900000Y-82850000D02*
X114900000Y-91100000D01*
X114900000Y-82575140D02*
X114900000Y-82850000D01*
X114899930Y-82575140D02*
G75*
G03*
X114787430Y-82462570I-112530J40D01*
G01*
X114787430Y-82462540D02*
G75*
G02*
X114674860Y-82350000I-30J112540D01*
G01*
X114787430Y-81962600D02*
G75*
G03*
X114900000Y-81850000I-30J112600D01*
G01*
X114674870Y-82075140D02*
G75*
G02*
X114787430Y-81962570I112530J40D01*
G01*
G04 #@! TO.N,/PIN_J21 P*
X124500000Y-95900000D02*
X124500000Y-97750000D01*
G04 #@! TO.N,/PIN_D23 P*
X112359951Y-81640048D02*
X112359951Y-82000000D01*
X112500000Y-80350497D02*
X112500000Y-81500000D01*
X112500000Y-82500000D02*
X112500000Y-91100000D01*
X112429976Y-81570024D02*
X112429975Y-81570024D01*
X112429975Y-82070024D02*
X112429976Y-82070024D01*
X111149503Y-79000000D02*
X112500000Y-80350497D01*
X112500000Y-82140048D02*
X112500000Y-82500000D01*
X112360024Y-81640048D02*
G75*
G02*
X112429975Y-81570024I69976J48D01*
G01*
X112429975Y-82070049D02*
G75*
G02*
X112359951Y-82000000I25J70049D01*
G01*
X112429976Y-81570000D02*
G75*
G03*
X112500000Y-81500000I24J70000D01*
G01*
X112499976Y-82140048D02*
G75*
G03*
X112429976Y-82070024I-69976J48D01*
G01*
G04 #@! TO.N,/PIN_J26 P*
X122900000Y-97350000D02*
X122500000Y-97750000D01*
X122900000Y-95900000D02*
X122900000Y-97350000D01*
G04 #@! TO.N,/PIN_F22 P*
X110900000Y-91100000D02*
X110640500Y-90840500D01*
X110640500Y-80390500D02*
X109250000Y-79000000D01*
X110640500Y-90840500D02*
X110640500Y-80390500D01*
G04 #@! TO.N,/PIN_F25 P*
X118900000Y-95900000D02*
X118900000Y-97350000D01*
X118900000Y-97350000D02*
X118500000Y-97750000D01*
G04 #@! TO.N,/PIN_H21 P*
X120500000Y-80301491D02*
X120500000Y-81000000D01*
X120500000Y-82000000D02*
X120500000Y-91100000D01*
X120500000Y-81807982D02*
X120500000Y-82000000D01*
X119198509Y-79000000D02*
X120500000Y-80301491D01*
X120192018Y-81307982D02*
X120192018Y-81500000D01*
X120191991Y-81307982D02*
G75*
G02*
X120346009Y-81153991I154009J-18D01*
G01*
X120500009Y-81807982D02*
G75*
G03*
X120346009Y-81653991I-154009J-18D01*
G01*
X120346009Y-81653982D02*
G75*
G02*
X120192018Y-81500000I-9J153982D01*
G01*
X120346009Y-81154000D02*
G75*
G03*
X120500000Y-81000000I-9J154000D01*
G01*
G04 #@! TO.N,/PIN_M24 P*
X124500000Y-80807982D02*
X124500000Y-81000000D01*
X123500000Y-79000000D02*
X124500000Y-80000000D01*
X124346009Y-80153991D02*
X124346008Y-80153991D01*
X124192017Y-80307982D02*
X124192017Y-80500000D01*
X124346008Y-80653991D02*
X124346009Y-80653991D01*
X124500000Y-81000000D02*
X124500000Y-91100000D01*
X124346008Y-80653983D02*
G75*
G02*
X124192017Y-80500000I-8J153983D01*
G01*
X124191991Y-80307982D02*
G75*
G02*
X124346008Y-80153991I154009J-18D01*
G01*
X124346009Y-80154000D02*
G75*
G03*
X124500000Y-80000000I-9J154000D01*
G01*
X124500009Y-80807982D02*
G75*
G03*
X124346009Y-80653991I-154009J-18D01*
G01*
G04 #@! TO.N,/PIN_G22_P*
X116192017Y-81807982D02*
X116192017Y-82000000D01*
X116500000Y-82307982D02*
X116500000Y-82500000D01*
X116500000Y-82500000D02*
X116500000Y-91100000D01*
X116346009Y-81653991D02*
X116346008Y-81653991D01*
X115250000Y-79000000D02*
X116500000Y-80250000D01*
X116346008Y-82153991D02*
X116346009Y-82153991D01*
X116500000Y-80250000D02*
X116500000Y-81500000D01*
X116346008Y-82153983D02*
G75*
G02*
X116192017Y-82000000I-8J153983D01*
G01*
X116500009Y-82307982D02*
G75*
G03*
X116346009Y-82153991I-154009J-18D01*
G01*
X116191991Y-81807982D02*
G75*
G02*
X116346008Y-81653991I154009J-18D01*
G01*
X116346009Y-81654000D02*
G75*
G03*
X116500000Y-81500000I-9J154000D01*
G01*
D12*
G04 #@! TO.N,/VLED-*
X140750000Y-79250000D02*
X140750000Y-77000000D01*
D13*
G04 #@! TO.N,/PIN_L24_N*
X123700000Y-81800000D02*
X123700000Y-91100000D01*
X123700000Y-80556927D02*
X123700000Y-80800000D01*
X123329886Y-81170114D02*
X123329886Y-81300000D01*
X122500000Y-79000000D02*
X122500000Y-79356927D01*
X123700000Y-81670114D02*
X123700000Y-81800000D01*
X122500000Y-79356927D02*
X123700000Y-80556927D01*
X123514943Y-80985100D02*
G75*
G03*
X123700000Y-80800000I-43J185100D01*
G01*
X123514943Y-81485014D02*
G75*
G02*
X123329886Y-81300000I-43J185014D01*
G01*
X123699943Y-81670114D02*
G75*
G03*
X123514943Y-81485057I-185043J14D01*
G01*
X123329857Y-81170114D02*
G75*
G02*
X123514943Y-80985057I185043J14D01*
G01*
G04 #@! TO.N,/PIN_J25_N*
X122100000Y-80600000D02*
X122100000Y-81400000D01*
X122100000Y-82208732D02*
X122100000Y-82400000D01*
X122100000Y-82400000D02*
X122100000Y-91100000D01*
X120500000Y-79000000D02*
X122100000Y-80600000D01*
X121791268Y-81708732D02*
X121791268Y-81900000D01*
X121791266Y-81708732D02*
G75*
G02*
X121945634Y-81554366I154334J32D01*
G01*
X121945634Y-82054332D02*
G75*
G02*
X121791268Y-81900000I-34J154332D01*
G01*
X122099934Y-82208732D02*
G75*
G03*
X121945634Y-82054366I-154334J32D01*
G01*
X121945634Y-81554400D02*
G75*
G03*
X122100000Y-81400000I-34J154400D01*
G01*
G04 #@! TO.N,/PIN_G21_N*
X119700000Y-81986860D02*
X119700000Y-82200000D01*
X119413140Y-81486860D02*
X119413140Y-81700000D01*
X118299006Y-79000000D02*
X119700000Y-80400994D01*
X119700000Y-80400994D02*
X119700000Y-81200000D01*
X119700000Y-82200000D02*
X119700000Y-91100000D01*
X119700070Y-81986860D02*
G75*
G03*
X119556570Y-81843430I-143470J-40D01*
G01*
X119413130Y-81486860D02*
G75*
G02*
X119556570Y-81343430I143470J-40D01*
G01*
X119556570Y-81843460D02*
G75*
G02*
X119413140Y-81700000I30J143460D01*
G01*
X119556570Y-81343400D02*
G75*
G03*
X119700000Y-81200000I30J143400D01*
G01*
G04 #@! TO.N,/PIN_E22_N*
X116500000Y-79000000D02*
X118100000Y-80600000D01*
X118100000Y-82158732D02*
X118100000Y-82350000D01*
X118100000Y-82350000D02*
X118100000Y-91100000D01*
X118100000Y-80600000D02*
X118100000Y-81350000D01*
X117791268Y-81658732D02*
X117791268Y-81850000D01*
X118099934Y-82158732D02*
G75*
G03*
X117945634Y-82004366I-154334J32D01*
G01*
X117791266Y-81658732D02*
G75*
G02*
X117945634Y-81504366I154334J32D01*
G01*
X117945634Y-82004332D02*
G75*
G02*
X117791268Y-81850000I-34J154332D01*
G01*
X117945634Y-81504400D02*
G75*
G03*
X118100000Y-81350000I-34J154400D01*
G01*
G04 #@! TO.N,/PIN_F23_N*
X115700000Y-82800000D02*
X115700000Y-91100000D01*
X115700000Y-80400994D02*
X115700000Y-81800000D01*
X115413140Y-82086860D02*
X115413140Y-82300000D01*
X114299006Y-79000000D02*
X115700000Y-80400994D01*
X115700000Y-82586860D02*
X115700000Y-82800000D01*
X115556570Y-82443460D02*
G75*
G02*
X115413140Y-82300000I30J143460D01*
G01*
X115413130Y-82086860D02*
G75*
G02*
X115556570Y-81943430I143470J-40D01*
G01*
X115700070Y-82586860D02*
G75*
G03*
X115556570Y-82443430I-143470J-40D01*
G01*
X115556570Y-81943400D02*
G75*
G03*
X115700000Y-81800000I30J143400D01*
G01*
G04 #@! TO.N,/PIN_D25_N*
X114100000Y-82400000D02*
X114100000Y-91100000D01*
X114100000Y-82208732D02*
X114100000Y-82400000D01*
X112500000Y-79000000D02*
X114100000Y-80600000D01*
X114100000Y-80600000D02*
X114100000Y-81400000D01*
X113791268Y-81708732D02*
X113791268Y-81900000D01*
X113945634Y-82054332D02*
G75*
G02*
X113791268Y-81900000I-34J154332D01*
G01*
X113945634Y-81554400D02*
G75*
G03*
X114100000Y-81400000I-34J154400D01*
G01*
X114099934Y-82208732D02*
G75*
G03*
X113945634Y-82054366I-154334J32D01*
G01*
X113791266Y-81708732D02*
G75*
G02*
X113945634Y-81554366I154334J32D01*
G01*
G04 #@! TO.N,/PIN_D24_N*
X111734644Y-81515355D02*
X111734645Y-81515355D01*
X111859500Y-80609500D02*
X111859500Y-80890500D01*
X111859500Y-81640210D02*
X111859500Y-81890500D01*
X111859500Y-81890500D02*
X111859500Y-90940500D01*
X110250000Y-79000000D02*
X111859500Y-80609500D01*
X111859500Y-90940500D02*
X111700000Y-91100000D01*
X111609789Y-81140210D02*
X111609789Y-81390500D01*
X111734645Y-81015355D02*
X111734644Y-81015355D01*
X111609755Y-81140210D02*
G75*
G02*
X111734644Y-81015355I124845J10D01*
G01*
X111734645Y-81015400D02*
G75*
G03*
X111859500Y-80890500I-45J124900D01*
G01*
X111734644Y-81515311D02*
G75*
G02*
X111609789Y-81390500I-44J124811D01*
G01*
X111859445Y-81640210D02*
G75*
G03*
X111734645Y-81515355I-124845J10D01*
G01*
G04 #@! TO.N,/PIN_E23_N*
X110100000Y-80850000D02*
X108250000Y-79000000D01*
X110100000Y-91100000D02*
X110100000Y-80850000D01*
G04 #@! TO.N,/PIN_K22_N*
X127700000Y-97550000D02*
X127500000Y-97750000D01*
X127700000Y-95900000D02*
X127700000Y-97550000D01*
G04 #@! TO.N,/PIN_M20_N*
X126100000Y-95900000D02*
X126100000Y-97150000D01*
X126100000Y-97150000D02*
X125500000Y-97750000D01*
G04 #@! TO.N,/PIN_H22_N*
X123700000Y-97550000D02*
X123500000Y-97750000D01*
X123700000Y-95900000D02*
X123700000Y-97550000D01*
G04 #@! TO.N,/PIN_H26_N*
X122100000Y-95900000D02*
X122100000Y-97150000D01*
X122100000Y-97150000D02*
X121500000Y-97750000D01*
G04 #@! TO.N,/PIN_G26_N*
X119700000Y-97550000D02*
X119500000Y-97750000D01*
X119700000Y-95900000D02*
X119700000Y-97550000D01*
G04 #@! TO.N,/PIN_E26_N*
X118100000Y-97150000D02*
X117500000Y-97750000D01*
X118100000Y-95900000D02*
X118100000Y-97150000D01*
G04 #@! TO.N,/PIN_C26_N*
X115700000Y-97550000D02*
X115500000Y-97750000D01*
X115700000Y-95900000D02*
X115700000Y-97550000D01*
G04 #@! TO.N,/PIN_A24_N*
X114100000Y-95900000D02*
X114100000Y-97150000D01*
X114100000Y-97150000D02*
X113500000Y-97750000D01*
G04 #@! TO.N,/PIN_B20 P*
X112500000Y-95900000D02*
X112500000Y-97750000D01*
G04 #@! TO.N,/PIN_J32 N*
X126100000Y-91100000D02*
X126100000Y-89680000D01*
X134780000Y-81000000D02*
X136250000Y-81000000D01*
X126100000Y-89680000D02*
X134780000Y-81000000D01*
G04 #@! TD*
G04 #@! TA.AperFunction,Conductor*
G04 #@! TO.N,GND*
G36*
X143925500Y-75269962D02*
G01*
X143980038Y-75324500D01*
X144000000Y-75399000D01*
X144000000Y-97851000D01*
X143980038Y-97925500D01*
X143925500Y-97980038D01*
X143851000Y-98000000D01*
X129343721Y-98000000D01*
X129269221Y-97980038D01*
X129214683Y-97925500D01*
X129194721Y-97851000D01*
X129196207Y-97830006D01*
X129204803Y-97769604D01*
X129205490Y-97764778D01*
X129205645Y-97750000D01*
X129185276Y-97581680D01*
X129150038Y-97488425D01*
X129142378Y-97411678D01*
X129145496Y-97397193D01*
X129150000Y-97380384D01*
X129450000Y-97380384D01*
X129454145Y-97395855D01*
X129469616Y-97400000D01*
X129590154Y-97400000D01*
X129598966Y-97399477D01*
X129609621Y-97398210D01*
X129630950Y-97392348D01*
X129638978Y-97388782D01*
X129715167Y-97376785D01*
X129759704Y-97388678D01*
X129768006Y-97392348D01*
X129779673Y-97397506D01*
X129790799Y-97398803D01*
X129790802Y-97398804D01*
X129801070Y-97400001D01*
X129801078Y-97400001D01*
X129805354Y-97400500D01*
X130394646Y-97400500D01*
X130420846Y-97397382D01*
X130439591Y-97389056D01*
X130515778Y-97377057D01*
X130560324Y-97388952D01*
X130560560Y-97389056D01*
X130569422Y-97392974D01*
X130579673Y-97397506D01*
X130594318Y-97399213D01*
X130601070Y-97400001D01*
X130601078Y-97400001D01*
X130605354Y-97400500D01*
X131194646Y-97400500D01*
X131220846Y-97397382D01*
X131239591Y-97389056D01*
X131315778Y-97377057D01*
X131360324Y-97388952D01*
X131360560Y-97389056D01*
X131369422Y-97392974D01*
X131379673Y-97397506D01*
X131394318Y-97399213D01*
X131401070Y-97400001D01*
X131401078Y-97400001D01*
X131405354Y-97400500D01*
X131994646Y-97400500D01*
X132020846Y-97397382D01*
X132039591Y-97389056D01*
X132115778Y-97377057D01*
X132160324Y-97388952D01*
X132160560Y-97389056D01*
X132169422Y-97392974D01*
X132179673Y-97397506D01*
X132194318Y-97399213D01*
X132201070Y-97400001D01*
X132201078Y-97400001D01*
X132205354Y-97400500D01*
X132794646Y-97400500D01*
X132820846Y-97397382D01*
X132839591Y-97389056D01*
X132915778Y-97377057D01*
X132960324Y-97388952D01*
X132960560Y-97389056D01*
X132969422Y-97392974D01*
X132979673Y-97397506D01*
X132994318Y-97399213D01*
X133001070Y-97400001D01*
X133001078Y-97400001D01*
X133005354Y-97400500D01*
X133594646Y-97400500D01*
X133620846Y-97397382D01*
X133639591Y-97389056D01*
X133715778Y-97377057D01*
X133760324Y-97388952D01*
X133760560Y-97389056D01*
X133769422Y-97392974D01*
X133779673Y-97397506D01*
X133794318Y-97399213D01*
X133801070Y-97400001D01*
X133801078Y-97400001D01*
X133805354Y-97400500D01*
X134394646Y-97400500D01*
X134420846Y-97397382D01*
X134439591Y-97389056D01*
X134515778Y-97377057D01*
X134560324Y-97388952D01*
X134560560Y-97389056D01*
X134569422Y-97392974D01*
X134579673Y-97397506D01*
X134594318Y-97399213D01*
X134601070Y-97400001D01*
X134601078Y-97400001D01*
X134605354Y-97400500D01*
X135194646Y-97400500D01*
X135220846Y-97397382D01*
X135239591Y-97389056D01*
X135315778Y-97377057D01*
X135360324Y-97388952D01*
X135360560Y-97389056D01*
X135369422Y-97392974D01*
X135379673Y-97397506D01*
X135394318Y-97399213D01*
X135401070Y-97400001D01*
X135401078Y-97400001D01*
X135405354Y-97400500D01*
X135994646Y-97400500D01*
X136020846Y-97397382D01*
X136039591Y-97389056D01*
X136115778Y-97377057D01*
X136160324Y-97388952D01*
X136160560Y-97389056D01*
X136169422Y-97392974D01*
X136179673Y-97397506D01*
X136194318Y-97399213D01*
X136201070Y-97400001D01*
X136201078Y-97400001D01*
X136205354Y-97400500D01*
X136794646Y-97400500D01*
X136820846Y-97397382D01*
X136839591Y-97389056D01*
X136915778Y-97377057D01*
X136960324Y-97388952D01*
X136960560Y-97389056D01*
X136969422Y-97392974D01*
X136979673Y-97397506D01*
X136994318Y-97399213D01*
X137001070Y-97400001D01*
X137001078Y-97400001D01*
X137005354Y-97400500D01*
X137594646Y-97400500D01*
X137620846Y-97397382D01*
X137639591Y-97389056D01*
X137715778Y-97377057D01*
X137760324Y-97388952D01*
X137760560Y-97389056D01*
X137769422Y-97392974D01*
X137779673Y-97397506D01*
X137794318Y-97399213D01*
X137801070Y-97400001D01*
X137801078Y-97400001D01*
X137805354Y-97400500D01*
X138394646Y-97400500D01*
X138420846Y-97397382D01*
X138523153Y-97351939D01*
X138602241Y-97272713D01*
X138615281Y-97243219D01*
X138642976Y-97180574D01*
X138642976Y-97180573D01*
X138647506Y-97170327D01*
X138649213Y-97155682D01*
X138650001Y-97148930D01*
X138650001Y-97148922D01*
X138650500Y-97144646D01*
X138650500Y-94397894D01*
X138670462Y-94323394D01*
X138702732Y-94284594D01*
X138733920Y-94257956D01*
X138769423Y-94227634D01*
X138801154Y-94183476D01*
X138863124Y-94097236D01*
X138863126Y-94097232D01*
X138868361Y-94089947D01*
X138892636Y-94029561D01*
X138928251Y-93940969D01*
X138928252Y-93940964D01*
X138931601Y-93932634D01*
X138955490Y-93764778D01*
X138955645Y-93750000D01*
X138936845Y-93594646D01*
X139699500Y-93594646D01*
X139701124Y-93602286D01*
X139701124Y-93602287D01*
X139734822Y-93760823D01*
X139738856Y-93779803D01*
X139815849Y-93952730D01*
X139820438Y-93959046D01*
X139915543Y-94089947D01*
X139927112Y-94105871D01*
X139989002Y-94161597D01*
X140061979Y-94227307D01*
X140061984Y-94227311D01*
X140067784Y-94232533D01*
X140074544Y-94236436D01*
X140074547Y-94236438D01*
X140137244Y-94272635D01*
X140231716Y-94327179D01*
X140411744Y-94385674D01*
X140419511Y-94386490D01*
X140419514Y-94386491D01*
X140489116Y-94393806D01*
X140552808Y-94400500D01*
X140647192Y-94400500D01*
X140710884Y-94393806D01*
X140780486Y-94386491D01*
X140780489Y-94386490D01*
X140788256Y-94385674D01*
X140968284Y-94327179D01*
X141062756Y-94272635D01*
X141125453Y-94236438D01*
X141125456Y-94236436D01*
X141132216Y-94232533D01*
X141138016Y-94227311D01*
X141138021Y-94227307D01*
X141210998Y-94161597D01*
X141272888Y-94105871D01*
X141284458Y-94089947D01*
X141379562Y-93959046D01*
X141384151Y-93952730D01*
X141461144Y-93779803D01*
X141465179Y-93760823D01*
X141498876Y-93602287D01*
X141498876Y-93602286D01*
X141500500Y-93594646D01*
X141500500Y-93405354D01*
X141468336Y-93254032D01*
X141462768Y-93227836D01*
X141462767Y-93227833D01*
X141461144Y-93220197D01*
X141384151Y-93047270D01*
X141272888Y-92894129D01*
X141190322Y-92819786D01*
X141138021Y-92772693D01*
X141138016Y-92772689D01*
X141132216Y-92767467D01*
X141125456Y-92763564D01*
X141125453Y-92763562D01*
X141062756Y-92727365D01*
X140968284Y-92672821D01*
X140788256Y-92614326D01*
X140780489Y-92613510D01*
X140780486Y-92613509D01*
X140710884Y-92606194D01*
X140647192Y-92599500D01*
X140552808Y-92599500D01*
X140489116Y-92606194D01*
X140419514Y-92613509D01*
X140419511Y-92613510D01*
X140411744Y-92614326D01*
X140231716Y-92672821D01*
X140137244Y-92727365D01*
X140074547Y-92763562D01*
X140074544Y-92763564D01*
X140067784Y-92767467D01*
X140061984Y-92772689D01*
X140061979Y-92772693D01*
X140009678Y-92819786D01*
X139927112Y-92894129D01*
X139815849Y-93047270D01*
X139738856Y-93220197D01*
X139737233Y-93227833D01*
X139737232Y-93227836D01*
X139731664Y-93254032D01*
X139699500Y-93405354D01*
X139699500Y-93594646D01*
X138936845Y-93594646D01*
X138935276Y-93581680D01*
X138875345Y-93423077D01*
X138779312Y-93283349D01*
X138772604Y-93277372D01*
X138659428Y-93176535D01*
X138659424Y-93176532D01*
X138652721Y-93170560D01*
X138644783Y-93166357D01*
X138644780Y-93166355D01*
X138510823Y-93095429D01*
X138502881Y-93091224D01*
X138494168Y-93089035D01*
X138494167Y-93089035D01*
X138356296Y-93054404D01*
X138338441Y-93049919D01*
X138234002Y-93049372D01*
X138177873Y-93049078D01*
X138168895Y-93049031D01*
X138160164Y-93051127D01*
X138160165Y-93051127D01*
X138012765Y-93086515D01*
X138012762Y-93086516D01*
X138004032Y-93088612D01*
X137996053Y-93092730D01*
X137996051Y-93092731D01*
X137906339Y-93139035D01*
X137853369Y-93166375D01*
X137846599Y-93172281D01*
X137834983Y-93182414D01*
X137765720Y-93216345D01*
X137688770Y-93211098D01*
X137667314Y-93201813D01*
X137560823Y-93145429D01*
X137552881Y-93141224D01*
X137544168Y-93139035D01*
X137544167Y-93139035D01*
X137433961Y-93111353D01*
X137388441Y-93099919D01*
X137284002Y-93099372D01*
X137227873Y-93099078D01*
X137218895Y-93099031D01*
X137193117Y-93105220D01*
X137062765Y-93136515D01*
X137062762Y-93136516D01*
X137054032Y-93138612D01*
X137046053Y-93142730D01*
X137046051Y-93142731D01*
X136969167Y-93182414D01*
X136903369Y-93216375D01*
X136896602Y-93222279D01*
X136896598Y-93222281D01*
X136826595Y-93283349D01*
X136775604Y-93327831D01*
X136678113Y-93466547D01*
X136616524Y-93624513D01*
X136594394Y-93792611D01*
X136612999Y-93961135D01*
X136616087Y-93969572D01*
X136616087Y-93969574D01*
X136639811Y-94034401D01*
X136671266Y-94120356D01*
X136676273Y-94127808D01*
X136676275Y-94127811D01*
X136702876Y-94167397D01*
X136727858Y-94240367D01*
X136713009Y-94316052D01*
X136662306Y-94374173D01*
X136589336Y-94399155D01*
X136579203Y-94399500D01*
X136205354Y-94399500D01*
X136179154Y-94402618D01*
X136160409Y-94410944D01*
X136084222Y-94422943D01*
X136039676Y-94411048D01*
X136031994Y-94407652D01*
X136030574Y-94407024D01*
X136030573Y-94407024D01*
X136020327Y-94402494D01*
X136005682Y-94400787D01*
X135998930Y-94399999D01*
X135998922Y-94399999D01*
X135994646Y-94399500D01*
X135405354Y-94399500D01*
X135379154Y-94402618D01*
X135360409Y-94410944D01*
X135284222Y-94422943D01*
X135239676Y-94411048D01*
X135231994Y-94407652D01*
X135230574Y-94407024D01*
X135230573Y-94407024D01*
X135220327Y-94402494D01*
X135205682Y-94400787D01*
X135198930Y-94399999D01*
X135198922Y-94399999D01*
X135194646Y-94399500D01*
X134605354Y-94399500D01*
X134579154Y-94402618D01*
X134560409Y-94410944D01*
X134484222Y-94422943D01*
X134439676Y-94411048D01*
X134431994Y-94407652D01*
X134430574Y-94407024D01*
X134430573Y-94407024D01*
X134420327Y-94402494D01*
X134405682Y-94400787D01*
X134398930Y-94399999D01*
X134398922Y-94399999D01*
X134394646Y-94399500D01*
X133805354Y-94399500D01*
X133779154Y-94402618D01*
X133760409Y-94410944D01*
X133684222Y-94422943D01*
X133639676Y-94411048D01*
X133631994Y-94407652D01*
X133630574Y-94407024D01*
X133630573Y-94407024D01*
X133620327Y-94402494D01*
X133605682Y-94400787D01*
X133598930Y-94399999D01*
X133598922Y-94399999D01*
X133594646Y-94399500D01*
X133005354Y-94399500D01*
X132979154Y-94402618D01*
X132960409Y-94410944D01*
X132884222Y-94422943D01*
X132839676Y-94411048D01*
X132831994Y-94407652D01*
X132830574Y-94407024D01*
X132830573Y-94407024D01*
X132820327Y-94402494D01*
X132805682Y-94400787D01*
X132798930Y-94399999D01*
X132798922Y-94399999D01*
X132794646Y-94399500D01*
X132205354Y-94399500D01*
X132179154Y-94402618D01*
X132160409Y-94410944D01*
X132084222Y-94422943D01*
X132039676Y-94411048D01*
X132031994Y-94407652D01*
X132030574Y-94407024D01*
X132030573Y-94407024D01*
X132020327Y-94402494D01*
X132005682Y-94400787D01*
X131998930Y-94399999D01*
X131998922Y-94399999D01*
X131994646Y-94399500D01*
X131405354Y-94399500D01*
X131379154Y-94402618D01*
X131360409Y-94410944D01*
X131284222Y-94422943D01*
X131239676Y-94411048D01*
X131231994Y-94407652D01*
X131230574Y-94407024D01*
X131230573Y-94407024D01*
X131220327Y-94402494D01*
X131205682Y-94400787D01*
X131198930Y-94399999D01*
X131198922Y-94399999D01*
X131194646Y-94399500D01*
X130605354Y-94399500D01*
X130579154Y-94402618D01*
X130560409Y-94410944D01*
X130484222Y-94422943D01*
X130439676Y-94411048D01*
X130431994Y-94407652D01*
X130430574Y-94407024D01*
X130430573Y-94407024D01*
X130420327Y-94402494D01*
X130405682Y-94400787D01*
X130398930Y-94399999D01*
X130398922Y-94399999D01*
X130394646Y-94399500D01*
X129805354Y-94399500D01*
X129779154Y-94402618D01*
X129767821Y-94407652D01*
X129759792Y-94411218D01*
X129683602Y-94423216D01*
X129639064Y-94411323D01*
X129630461Y-94407520D01*
X129609082Y-94401691D01*
X129598876Y-94400502D01*
X129590246Y-94400000D01*
X129469616Y-94400000D01*
X129454145Y-94404145D01*
X129450000Y-94419616D01*
X129450000Y-97380384D01*
X129150000Y-97380384D01*
X129150000Y-94419616D01*
X129145855Y-94404145D01*
X129130384Y-94400000D01*
X129009846Y-94400000D01*
X129001034Y-94400523D01*
X128990379Y-94401790D01*
X128969050Y-94407652D01*
X128961022Y-94411218D01*
X128884833Y-94423215D01*
X128840296Y-94411322D01*
X128830578Y-94407026D01*
X128820327Y-94402494D01*
X128809201Y-94401197D01*
X128809198Y-94401196D01*
X128798930Y-94399999D01*
X128798922Y-94399999D01*
X128794646Y-94399500D01*
X128205354Y-94399500D01*
X128179154Y-94402618D01*
X128160409Y-94410944D01*
X128084222Y-94422943D01*
X128039676Y-94411048D01*
X128031994Y-94407652D01*
X128030574Y-94407024D01*
X128030573Y-94407024D01*
X128020327Y-94402494D01*
X128005682Y-94400787D01*
X127998930Y-94399999D01*
X127998922Y-94399999D01*
X127994646Y-94399500D01*
X127405354Y-94399500D01*
X127379154Y-94402618D01*
X127360409Y-94410944D01*
X127284222Y-94422943D01*
X127239676Y-94411048D01*
X127231994Y-94407652D01*
X127230574Y-94407024D01*
X127230573Y-94407024D01*
X127220327Y-94402494D01*
X127205682Y-94400787D01*
X127198930Y-94399999D01*
X127198922Y-94399999D01*
X127194646Y-94399500D01*
X126605354Y-94399500D01*
X126579154Y-94402618D01*
X126560409Y-94410944D01*
X126484222Y-94422943D01*
X126439676Y-94411048D01*
X126431994Y-94407652D01*
X126430574Y-94407024D01*
X126430573Y-94407024D01*
X126420327Y-94402494D01*
X126405682Y-94400787D01*
X126398930Y-94399999D01*
X126398922Y-94399999D01*
X126394646Y-94399500D01*
X125805354Y-94399500D01*
X125779154Y-94402618D01*
X125767821Y-94407652D01*
X125759792Y-94411218D01*
X125683602Y-94423216D01*
X125639064Y-94411323D01*
X125630461Y-94407520D01*
X125609082Y-94401691D01*
X125598876Y-94400502D01*
X125590246Y-94400000D01*
X125469616Y-94400000D01*
X125454145Y-94404145D01*
X125450000Y-94419616D01*
X125450000Y-95901000D01*
X125430038Y-95975500D01*
X125375500Y-96030038D01*
X125301000Y-96050000D01*
X125299000Y-96050000D01*
X125224500Y-96030038D01*
X125169962Y-95975500D01*
X125150000Y-95901000D01*
X125150000Y-94419616D01*
X125145855Y-94404145D01*
X125130384Y-94400000D01*
X125009846Y-94400000D01*
X125001034Y-94400523D01*
X124990379Y-94401790D01*
X124969050Y-94407652D01*
X124961022Y-94411218D01*
X124884833Y-94423215D01*
X124840296Y-94411322D01*
X124830578Y-94407026D01*
X124820327Y-94402494D01*
X124809201Y-94401197D01*
X124809198Y-94401196D01*
X124798930Y-94399999D01*
X124798922Y-94399999D01*
X124794646Y-94399500D01*
X124205354Y-94399500D01*
X124179154Y-94402618D01*
X124160409Y-94410944D01*
X124084222Y-94422943D01*
X124039676Y-94411048D01*
X124031994Y-94407652D01*
X124030574Y-94407024D01*
X124030573Y-94407024D01*
X124020327Y-94402494D01*
X124005682Y-94400787D01*
X123998930Y-94399999D01*
X123998922Y-94399999D01*
X123994646Y-94399500D01*
X123405354Y-94399500D01*
X123379154Y-94402618D01*
X123360409Y-94410944D01*
X123284222Y-94422943D01*
X123239676Y-94411048D01*
X123231994Y-94407652D01*
X123230574Y-94407024D01*
X123230573Y-94407024D01*
X123220327Y-94402494D01*
X123205682Y-94400787D01*
X123198930Y-94399999D01*
X123198922Y-94399999D01*
X123194646Y-94399500D01*
X122605354Y-94399500D01*
X122579154Y-94402618D01*
X122560409Y-94410944D01*
X122484222Y-94422943D01*
X122439676Y-94411048D01*
X122431994Y-94407652D01*
X122430574Y-94407024D01*
X122430573Y-94407024D01*
X122420327Y-94402494D01*
X122405682Y-94400787D01*
X122398930Y-94399999D01*
X122398922Y-94399999D01*
X122394646Y-94399500D01*
X121805354Y-94399500D01*
X121779154Y-94402618D01*
X121767821Y-94407652D01*
X121759792Y-94411218D01*
X121683602Y-94423216D01*
X121639064Y-94411323D01*
X121630461Y-94407520D01*
X121609082Y-94401691D01*
X121598876Y-94400502D01*
X121590246Y-94400000D01*
X121469616Y-94400000D01*
X121454145Y-94404145D01*
X121450000Y-94419616D01*
X121450000Y-95901000D01*
X121430038Y-95975500D01*
X121375500Y-96030038D01*
X121301000Y-96050000D01*
X121299000Y-96050000D01*
X121224500Y-96030038D01*
X121169962Y-95975500D01*
X121150000Y-95901000D01*
X121150000Y-94419616D01*
X121145855Y-94404145D01*
X121130384Y-94400000D01*
X121009846Y-94400000D01*
X121001034Y-94400523D01*
X120990379Y-94401790D01*
X120969050Y-94407652D01*
X120961022Y-94411218D01*
X120884833Y-94423215D01*
X120840296Y-94411322D01*
X120830578Y-94407026D01*
X120820327Y-94402494D01*
X120809201Y-94401197D01*
X120809198Y-94401196D01*
X120798930Y-94399999D01*
X120798922Y-94399999D01*
X120794646Y-94399500D01*
X120205354Y-94399500D01*
X120179154Y-94402618D01*
X120160409Y-94410944D01*
X120084222Y-94422943D01*
X120039676Y-94411048D01*
X120031994Y-94407652D01*
X120030574Y-94407024D01*
X120030573Y-94407024D01*
X120020327Y-94402494D01*
X120005682Y-94400787D01*
X119998930Y-94399999D01*
X119998922Y-94399999D01*
X119994646Y-94399500D01*
X119405354Y-94399500D01*
X119379154Y-94402618D01*
X119360409Y-94410944D01*
X119284222Y-94422943D01*
X119239676Y-94411048D01*
X119231994Y-94407652D01*
X119230574Y-94407024D01*
X119230573Y-94407024D01*
X119220327Y-94402494D01*
X119205682Y-94400787D01*
X119198930Y-94399999D01*
X119198922Y-94399999D01*
X119194646Y-94399500D01*
X118605354Y-94399500D01*
X118579154Y-94402618D01*
X118560409Y-94410944D01*
X118484222Y-94422943D01*
X118439676Y-94411048D01*
X118431994Y-94407652D01*
X118430574Y-94407024D01*
X118430573Y-94407024D01*
X118420327Y-94402494D01*
X118405682Y-94400787D01*
X118398930Y-94399999D01*
X118398922Y-94399999D01*
X118394646Y-94399500D01*
X117805354Y-94399500D01*
X117779154Y-94402618D01*
X117767821Y-94407652D01*
X117759792Y-94411218D01*
X117683602Y-94423216D01*
X117639064Y-94411323D01*
X117630461Y-94407520D01*
X117609082Y-94401691D01*
X117598876Y-94400502D01*
X117590246Y-94400000D01*
X117469616Y-94400000D01*
X117454145Y-94404145D01*
X117450000Y-94419616D01*
X117450000Y-95901000D01*
X117430038Y-95975500D01*
X117375500Y-96030038D01*
X117301000Y-96050000D01*
X117299000Y-96050000D01*
X117224500Y-96030038D01*
X117169962Y-95975500D01*
X117150000Y-95901000D01*
X117150000Y-94419616D01*
X117145855Y-94404145D01*
X117130384Y-94400000D01*
X117009846Y-94400000D01*
X117001034Y-94400523D01*
X116990379Y-94401790D01*
X116969050Y-94407652D01*
X116961022Y-94411218D01*
X116884833Y-94423215D01*
X116840296Y-94411322D01*
X116830578Y-94407026D01*
X116820327Y-94402494D01*
X116809201Y-94401197D01*
X116809198Y-94401196D01*
X116798930Y-94399999D01*
X116798922Y-94399999D01*
X116794646Y-94399500D01*
X116205354Y-94399500D01*
X116179154Y-94402618D01*
X116160409Y-94410944D01*
X116084222Y-94422943D01*
X116039676Y-94411048D01*
X116031994Y-94407652D01*
X116030574Y-94407024D01*
X116030573Y-94407024D01*
X116020327Y-94402494D01*
X116005682Y-94400787D01*
X115998930Y-94399999D01*
X115998922Y-94399999D01*
X115994646Y-94399500D01*
X115405354Y-94399500D01*
X115379154Y-94402618D01*
X115360409Y-94410944D01*
X115284222Y-94422943D01*
X115239676Y-94411048D01*
X115231994Y-94407652D01*
X115230574Y-94407024D01*
X115230573Y-94407024D01*
X115220327Y-94402494D01*
X115205682Y-94400787D01*
X115198930Y-94399999D01*
X115198922Y-94399999D01*
X115194646Y-94399500D01*
X114605354Y-94399500D01*
X114579154Y-94402618D01*
X114560409Y-94410944D01*
X114484222Y-94422943D01*
X114439676Y-94411048D01*
X114431994Y-94407652D01*
X114430574Y-94407024D01*
X114430573Y-94407024D01*
X114420327Y-94402494D01*
X114405682Y-94400787D01*
X114398930Y-94399999D01*
X114398922Y-94399999D01*
X114394646Y-94399500D01*
X113805354Y-94399500D01*
X113779154Y-94402618D01*
X113767821Y-94407652D01*
X113759792Y-94411218D01*
X113683602Y-94423216D01*
X113639064Y-94411323D01*
X113630461Y-94407520D01*
X113609082Y-94401691D01*
X113598876Y-94400502D01*
X113590246Y-94400000D01*
X113469616Y-94400000D01*
X113454145Y-94404145D01*
X113450000Y-94419616D01*
X113450000Y-95901000D01*
X113430038Y-95975500D01*
X113375500Y-96030038D01*
X113301000Y-96050000D01*
X113299000Y-96050000D01*
X113224500Y-96030038D01*
X113169962Y-95975500D01*
X113150000Y-95901000D01*
X113150000Y-94419616D01*
X113145855Y-94404145D01*
X113130384Y-94400000D01*
X113009846Y-94400000D01*
X113001034Y-94400523D01*
X112990379Y-94401790D01*
X112969050Y-94407652D01*
X112961022Y-94411218D01*
X112884833Y-94423215D01*
X112840296Y-94411322D01*
X112830578Y-94407026D01*
X112820327Y-94402494D01*
X112809201Y-94401197D01*
X112809198Y-94401196D01*
X112798930Y-94399999D01*
X112798922Y-94399999D01*
X112794646Y-94399500D01*
X112205354Y-94399500D01*
X112179154Y-94402618D01*
X112160409Y-94410944D01*
X112084222Y-94422943D01*
X112039676Y-94411048D01*
X112031994Y-94407652D01*
X112030574Y-94407024D01*
X112030573Y-94407024D01*
X112020327Y-94402494D01*
X112005682Y-94400787D01*
X111998930Y-94399999D01*
X111998922Y-94399999D01*
X111994646Y-94399500D01*
X111405354Y-94399500D01*
X111379154Y-94402618D01*
X111360409Y-94410944D01*
X111284222Y-94422943D01*
X111239676Y-94411048D01*
X111231994Y-94407652D01*
X111230574Y-94407024D01*
X111230573Y-94407024D01*
X111220327Y-94402494D01*
X111205682Y-94400787D01*
X111198930Y-94399999D01*
X111198922Y-94399999D01*
X111194646Y-94399500D01*
X110605354Y-94399500D01*
X110579154Y-94402618D01*
X110560409Y-94410944D01*
X110484222Y-94422943D01*
X110439676Y-94411048D01*
X110431994Y-94407652D01*
X110430574Y-94407024D01*
X110430573Y-94407024D01*
X110420327Y-94402494D01*
X110405682Y-94400787D01*
X110398930Y-94399999D01*
X110398922Y-94399999D01*
X110394646Y-94399500D01*
X109805354Y-94399500D01*
X109779154Y-94402618D01*
X109767821Y-94407652D01*
X109759792Y-94411218D01*
X109683602Y-94423216D01*
X109639064Y-94411323D01*
X109630461Y-94407520D01*
X109609082Y-94401691D01*
X109598876Y-94400502D01*
X109590246Y-94400000D01*
X109469616Y-94400000D01*
X109454145Y-94404145D01*
X109450000Y-94419616D01*
X109450000Y-97380384D01*
X109454145Y-97395855D01*
X109469616Y-97400000D01*
X109590154Y-97400000D01*
X109598966Y-97399477D01*
X109609621Y-97398210D01*
X109630950Y-97392348D01*
X109638978Y-97388782D01*
X109715167Y-97376785D01*
X109759704Y-97388678D01*
X109768006Y-97392348D01*
X109779673Y-97397506D01*
X109790799Y-97398803D01*
X109790802Y-97398804D01*
X109801070Y-97400001D01*
X109801078Y-97400001D01*
X109805354Y-97400500D01*
X110394646Y-97400500D01*
X110420846Y-97397382D01*
X110439591Y-97389056D01*
X110515778Y-97377057D01*
X110560324Y-97388952D01*
X110560560Y-97389056D01*
X110569422Y-97392974D01*
X110579673Y-97397506D01*
X110594318Y-97399213D01*
X110601070Y-97400001D01*
X110601078Y-97400001D01*
X110605354Y-97400500D01*
X111194646Y-97400500D01*
X111220846Y-97397382D01*
X111239591Y-97389056D01*
X111315778Y-97377057D01*
X111360324Y-97388952D01*
X111360560Y-97389056D01*
X111369422Y-97392974D01*
X111379673Y-97397506D01*
X111394318Y-97399213D01*
X111401070Y-97400001D01*
X111401078Y-97400001D01*
X111405354Y-97400500D01*
X111670228Y-97400500D01*
X111744728Y-97420462D01*
X111799266Y-97475000D01*
X111819228Y-97549500D01*
X111816075Y-97574454D01*
X111816524Y-97574513D01*
X111794394Y-97742611D01*
X111795380Y-97751542D01*
X111795380Y-97751543D01*
X111804555Y-97834650D01*
X111792889Y-97910891D01*
X111744665Y-97971084D01*
X111672805Y-97999100D01*
X111656455Y-98000000D01*
X101149000Y-98000000D01*
X101074500Y-97980038D01*
X101019962Y-97925500D01*
X101000000Y-97851000D01*
X101000000Y-97140154D01*
X106350000Y-97140154D01*
X106350523Y-97148966D01*
X106351791Y-97159623D01*
X106357652Y-97180949D01*
X106392895Y-97260293D01*
X106408214Y-97282583D01*
X106467839Y-97342104D01*
X106490155Y-97357384D01*
X106569545Y-97392482D01*
X106590918Y-97398309D01*
X106601124Y-97399498D01*
X106609754Y-97400000D01*
X106730384Y-97400000D01*
X106745855Y-97395855D01*
X106750000Y-97380384D01*
X107050000Y-97380384D01*
X107054145Y-97395855D01*
X107069616Y-97400000D01*
X107190154Y-97400000D01*
X107198966Y-97399477D01*
X107209621Y-97398210D01*
X107230950Y-97392348D01*
X107238978Y-97388782D01*
X107315167Y-97376785D01*
X107359704Y-97388678D01*
X107368006Y-97392348D01*
X107379673Y-97397506D01*
X107390799Y-97398803D01*
X107390802Y-97398804D01*
X107401070Y-97400001D01*
X107401078Y-97400001D01*
X107405354Y-97400500D01*
X107994646Y-97400500D01*
X108020846Y-97397382D01*
X108039591Y-97389056D01*
X108115778Y-97377057D01*
X108160324Y-97388952D01*
X108160560Y-97389056D01*
X108169422Y-97392974D01*
X108179673Y-97397506D01*
X108194318Y-97399213D01*
X108201070Y-97400001D01*
X108201078Y-97400001D01*
X108205354Y-97400500D01*
X108794646Y-97400500D01*
X108820846Y-97397382D01*
X108839825Y-97388952D01*
X108840208Y-97388782D01*
X108916398Y-97376784D01*
X108960936Y-97388677D01*
X108969539Y-97392480D01*
X108990918Y-97398309D01*
X109001124Y-97399498D01*
X109009754Y-97400000D01*
X109130384Y-97400000D01*
X109145855Y-97395855D01*
X109150000Y-97380384D01*
X109150000Y-94419616D01*
X109145855Y-94404145D01*
X109130384Y-94400000D01*
X109009846Y-94400000D01*
X109001034Y-94400523D01*
X108990379Y-94401790D01*
X108969050Y-94407652D01*
X108961022Y-94411218D01*
X108884833Y-94423215D01*
X108840296Y-94411322D01*
X108830578Y-94407026D01*
X108820327Y-94402494D01*
X108809201Y-94401197D01*
X108809198Y-94401196D01*
X108798930Y-94399999D01*
X108798922Y-94399999D01*
X108794646Y-94399500D01*
X108205354Y-94399500D01*
X108179154Y-94402618D01*
X108160409Y-94410944D01*
X108084222Y-94422943D01*
X108039676Y-94411048D01*
X108031994Y-94407652D01*
X108030574Y-94407024D01*
X108030573Y-94407024D01*
X108020327Y-94402494D01*
X108005682Y-94400787D01*
X107998930Y-94399999D01*
X107998922Y-94399999D01*
X107994646Y-94399500D01*
X107405354Y-94399500D01*
X107379154Y-94402618D01*
X107367821Y-94407652D01*
X107359792Y-94411218D01*
X107283602Y-94423216D01*
X107239064Y-94411323D01*
X107230461Y-94407520D01*
X107209082Y-94401691D01*
X107198876Y-94400502D01*
X107190246Y-94400000D01*
X107069616Y-94400000D01*
X107054145Y-94404145D01*
X107050000Y-94419616D01*
X107050000Y-97380384D01*
X106750000Y-97380384D01*
X106750000Y-96069616D01*
X106745855Y-96054145D01*
X106730384Y-96050000D01*
X106369616Y-96050000D01*
X106354145Y-96054145D01*
X106350000Y-96069616D01*
X106350000Y-97140154D01*
X101000000Y-97140154D01*
X101000000Y-95730384D01*
X106350000Y-95730384D01*
X106354145Y-95745855D01*
X106369616Y-95750000D01*
X106730384Y-95750000D01*
X106745855Y-95745855D01*
X106750000Y-95730384D01*
X106750000Y-94419616D01*
X106745855Y-94404145D01*
X106730384Y-94400000D01*
X106609846Y-94400000D01*
X106601034Y-94400523D01*
X106590377Y-94401791D01*
X106569051Y-94407652D01*
X106489707Y-94442895D01*
X106467417Y-94458214D01*
X106407896Y-94517839D01*
X106392616Y-94540155D01*
X106357518Y-94619545D01*
X106351691Y-94640918D01*
X106350502Y-94651124D01*
X106350000Y-94659754D01*
X106350000Y-95730384D01*
X101000000Y-95730384D01*
X101000000Y-93581105D01*
X103699031Y-93581105D01*
X103701127Y-93589835D01*
X103711591Y-93633418D01*
X103738612Y-93745968D01*
X103742730Y-93753947D01*
X103742731Y-93753949D01*
X103758087Y-93783701D01*
X103816375Y-93896631D01*
X103822279Y-93903398D01*
X103822281Y-93903402D01*
X103872645Y-93961135D01*
X103927831Y-94024396D01*
X104066547Y-94121887D01*
X104224513Y-94183476D01*
X104283280Y-94191213D01*
X104348984Y-94199863D01*
X104348991Y-94199863D01*
X104353826Y-94200500D01*
X104442516Y-94200500D01*
X104568320Y-94185276D01*
X104726923Y-94125345D01*
X104866651Y-94029312D01*
X104927395Y-93961135D01*
X104973465Y-93909428D01*
X104973468Y-93909424D01*
X104979440Y-93902721D01*
X105058776Y-93752881D01*
X105100081Y-93588441D01*
X105100969Y-93418895D01*
X105077688Y-93321926D01*
X105063485Y-93262765D01*
X105063484Y-93262762D01*
X105061388Y-93254032D01*
X105047868Y-93227836D01*
X104987746Y-93111353D01*
X104987745Y-93111352D01*
X104983625Y-93103369D01*
X104977721Y-93096602D01*
X104977719Y-93096598D01*
X104878074Y-92982373D01*
X104872169Y-92975604D01*
X104733453Y-92878113D01*
X104575487Y-92816524D01*
X104516720Y-92808787D01*
X104451016Y-92800137D01*
X104451009Y-92800137D01*
X104446174Y-92799500D01*
X104357484Y-92799500D01*
X104231680Y-92814724D01*
X104073077Y-92874655D01*
X103933349Y-92970688D01*
X103927374Y-92977395D01*
X103927372Y-92977396D01*
X103826535Y-93090572D01*
X103826532Y-93090576D01*
X103820560Y-93097279D01*
X103816357Y-93105217D01*
X103816355Y-93105220D01*
X103778596Y-93176535D01*
X103741224Y-93247119D01*
X103739035Y-93255832D01*
X103739035Y-93255833D01*
X103722434Y-93321926D01*
X103699919Y-93411559D01*
X103699031Y-93581105D01*
X101000000Y-93581105D01*
X101000000Y-92340154D01*
X106350000Y-92340154D01*
X106350523Y-92348966D01*
X106351791Y-92359623D01*
X106357652Y-92380949D01*
X106392895Y-92460293D01*
X106408214Y-92482583D01*
X106467839Y-92542104D01*
X106490155Y-92557384D01*
X106569545Y-92592482D01*
X106590918Y-92598309D01*
X106601124Y-92599498D01*
X106609754Y-92600000D01*
X106730384Y-92600000D01*
X106745855Y-92595855D01*
X106750000Y-92580384D01*
X107050000Y-92580384D01*
X107054145Y-92595855D01*
X107069616Y-92600000D01*
X107190154Y-92600000D01*
X107198966Y-92599477D01*
X107209621Y-92598210D01*
X107230950Y-92592348D01*
X107238978Y-92588782D01*
X107315167Y-92576785D01*
X107359704Y-92588678D01*
X107368006Y-92592348D01*
X107379673Y-92597506D01*
X107390799Y-92598803D01*
X107390802Y-92598804D01*
X107401070Y-92600001D01*
X107401078Y-92600001D01*
X107405354Y-92600500D01*
X107994646Y-92600500D01*
X108020846Y-92597382D01*
X108039591Y-92589056D01*
X108115778Y-92577057D01*
X108160324Y-92588952D01*
X108160560Y-92589056D01*
X108169422Y-92592974D01*
X108179673Y-92597506D01*
X108194318Y-92599213D01*
X108201070Y-92600001D01*
X108201078Y-92600001D01*
X108205354Y-92600500D01*
X108794646Y-92600500D01*
X108820846Y-92597382D01*
X108839825Y-92588952D01*
X108840208Y-92588782D01*
X108916398Y-92576784D01*
X108960936Y-92588677D01*
X108969539Y-92592480D01*
X108990918Y-92598309D01*
X109001124Y-92599498D01*
X109009754Y-92600000D01*
X109130384Y-92600000D01*
X109145855Y-92595855D01*
X109150000Y-92580384D01*
X109150000Y-89619616D01*
X109145855Y-89604145D01*
X109130384Y-89600000D01*
X109009846Y-89600000D01*
X109001034Y-89600523D01*
X108990379Y-89601790D01*
X108969050Y-89607652D01*
X108961022Y-89611218D01*
X108884833Y-89623215D01*
X108840296Y-89611322D01*
X108830578Y-89607026D01*
X108820327Y-89602494D01*
X108809201Y-89601197D01*
X108809198Y-89601196D01*
X108798930Y-89599999D01*
X108798922Y-89599999D01*
X108794646Y-89599500D01*
X108205354Y-89599500D01*
X108179154Y-89602618D01*
X108160409Y-89610944D01*
X108084222Y-89622943D01*
X108039676Y-89611048D01*
X108031994Y-89607652D01*
X108030574Y-89607024D01*
X108030573Y-89607024D01*
X108020327Y-89602494D01*
X108005682Y-89600787D01*
X107998930Y-89599999D01*
X107998922Y-89599999D01*
X107994646Y-89599500D01*
X107405354Y-89599500D01*
X107379154Y-89602618D01*
X107367821Y-89607652D01*
X107359792Y-89611218D01*
X107283602Y-89623216D01*
X107239064Y-89611323D01*
X107230461Y-89607520D01*
X107209082Y-89601691D01*
X107198876Y-89600502D01*
X107190246Y-89600000D01*
X107069616Y-89600000D01*
X107054145Y-89604145D01*
X107050000Y-89619616D01*
X107050000Y-92580384D01*
X106750000Y-92580384D01*
X106750000Y-91269616D01*
X106745855Y-91254145D01*
X106730384Y-91250000D01*
X106369616Y-91250000D01*
X106354145Y-91254145D01*
X106350000Y-91269616D01*
X106350000Y-92340154D01*
X101000000Y-92340154D01*
X101000000Y-90930384D01*
X106350000Y-90930384D01*
X106354145Y-90945855D01*
X106369616Y-90950000D01*
X106730384Y-90950000D01*
X106745855Y-90945855D01*
X106750000Y-90930384D01*
X106750000Y-89619616D01*
X106745855Y-89604145D01*
X106730384Y-89600000D01*
X106609846Y-89600000D01*
X106601034Y-89600523D01*
X106590377Y-89601791D01*
X106569051Y-89607652D01*
X106489707Y-89642895D01*
X106467417Y-89658214D01*
X106407896Y-89717839D01*
X106392616Y-89740155D01*
X106357518Y-89819545D01*
X106351691Y-89840918D01*
X106350502Y-89851124D01*
X106350000Y-89859754D01*
X106350000Y-90930384D01*
X101000000Y-90930384D01*
X101000000Y-78992611D01*
X107544394Y-78992611D01*
X107562999Y-79161135D01*
X107566087Y-79169572D01*
X107566087Y-79169574D01*
X107592815Y-79242611D01*
X107621266Y-79320356D01*
X107626275Y-79327811D01*
X107626276Y-79327812D01*
X107682267Y-79411135D01*
X107715830Y-79461083D01*
X107841233Y-79575191D01*
X107849128Y-79579478D01*
X107849130Y-79579479D01*
X107982344Y-79651808D01*
X107982347Y-79651809D01*
X107990235Y-79656092D01*
X108072234Y-79677604D01*
X108145549Y-79696838D01*
X108145551Y-79696838D01*
X108154233Y-79699116D01*
X108163209Y-79699257D01*
X108311658Y-79701589D01*
X108385836Y-79722719D01*
X108414677Y-79745212D01*
X109645859Y-80976394D01*
X109684423Y-81043189D01*
X109689500Y-81081753D01*
X109689500Y-89451000D01*
X109669538Y-89525500D01*
X109615000Y-89580038D01*
X109540500Y-89600000D01*
X109469616Y-89600000D01*
X109454145Y-89604145D01*
X109450000Y-89619616D01*
X109450000Y-92580384D01*
X109454145Y-92595855D01*
X109469616Y-92600000D01*
X109590154Y-92600000D01*
X109598966Y-92599477D01*
X109609621Y-92598210D01*
X109630950Y-92592348D01*
X109638978Y-92588782D01*
X109715167Y-92576785D01*
X109759704Y-92588678D01*
X109768006Y-92592348D01*
X109779673Y-92597506D01*
X109790799Y-92598803D01*
X109790802Y-92598804D01*
X109801070Y-92600001D01*
X109801078Y-92600001D01*
X109805354Y-92600500D01*
X110394646Y-92600500D01*
X110420846Y-92597382D01*
X110439591Y-92589056D01*
X110515778Y-92577057D01*
X110560324Y-92588952D01*
X110560560Y-92589056D01*
X110569422Y-92592974D01*
X110579673Y-92597506D01*
X110594318Y-92599213D01*
X110601070Y-92600001D01*
X110601078Y-92600001D01*
X110605354Y-92600500D01*
X111194646Y-92600500D01*
X111220846Y-92597382D01*
X111239591Y-92589056D01*
X111315778Y-92577057D01*
X111360324Y-92588952D01*
X111360560Y-92589056D01*
X111369422Y-92592974D01*
X111379673Y-92597506D01*
X111394318Y-92599213D01*
X111401070Y-92600001D01*
X111401078Y-92600001D01*
X111405354Y-92600500D01*
X111994646Y-92600500D01*
X112020846Y-92597382D01*
X112039591Y-92589056D01*
X112115778Y-92577057D01*
X112160324Y-92588952D01*
X112160560Y-92589056D01*
X112169422Y-92592974D01*
X112179673Y-92597506D01*
X112194318Y-92599213D01*
X112201070Y-92600001D01*
X112201078Y-92600001D01*
X112205354Y-92600500D01*
X112794646Y-92600500D01*
X112820846Y-92597382D01*
X112839825Y-92588952D01*
X112840208Y-92588782D01*
X112916398Y-92576784D01*
X112960936Y-92588677D01*
X112969539Y-92592480D01*
X112990918Y-92598309D01*
X113001124Y-92599498D01*
X113009754Y-92600000D01*
X113130384Y-92600000D01*
X113145855Y-92595855D01*
X113150000Y-92580384D01*
X113150000Y-89619616D01*
X113145855Y-89604145D01*
X113130384Y-89600000D01*
X113059500Y-89600000D01*
X112985000Y-89580038D01*
X112930462Y-89525500D01*
X112910500Y-89451000D01*
X112910500Y-82184272D01*
X112912351Y-82160862D01*
X112913774Y-82151916D01*
X112915617Y-82140333D01*
X112910505Y-82107910D01*
X112910500Y-82107867D01*
X112910500Y-82107741D01*
X112910443Y-82107379D01*
X112910441Y-82107365D01*
X112909948Y-82104255D01*
X112909377Y-82100307D01*
X112900740Y-82034403D01*
X112898173Y-82014811D01*
X112849778Y-81897833D01*
X112845923Y-81892807D01*
X112826433Y-81819974D01*
X112845932Y-81747264D01*
X112849688Y-81742371D01*
X112898125Y-81625462D01*
X112903092Y-81587747D01*
X112909603Y-81538298D01*
X112910162Y-81534443D01*
X112913783Y-81511581D01*
X112913783Y-81511579D01*
X112915617Y-81500000D01*
X112912334Y-81479272D01*
X112910500Y-81455963D01*
X112910500Y-80350753D01*
X112930462Y-80276253D01*
X112985000Y-80221715D01*
X113059500Y-80201753D01*
X113134000Y-80221715D01*
X113164859Y-80245394D01*
X113645859Y-80726394D01*
X113684423Y-80793189D01*
X113689500Y-80831753D01*
X113689500Y-81120187D01*
X113669538Y-81194687D01*
X113619766Y-81246353D01*
X113598308Y-81259834D01*
X113598303Y-81259838D01*
X113591220Y-81264288D01*
X113585303Y-81270205D01*
X113523891Y-81331616D01*
X113501192Y-81354314D01*
X113433461Y-81462121D01*
X113391425Y-81582298D01*
X113382017Y-81665932D01*
X113381363Y-81671743D01*
X113380467Y-81678365D01*
X113377483Y-81697233D01*
X113375651Y-81708818D01*
X113377487Y-81720394D01*
X113377487Y-81720397D01*
X113378929Y-81729486D01*
X113380768Y-81752826D01*
X113380768Y-81855963D01*
X113378934Y-81879272D01*
X113375651Y-81900000D01*
X113380112Y-81928164D01*
X113380474Y-81930448D01*
X113381371Y-81937069D01*
X113391449Y-82026500D01*
X113403693Y-82061485D01*
X113417977Y-82102300D01*
X113433499Y-82146654D01*
X113501236Y-82254437D01*
X113507154Y-82260353D01*
X113507155Y-82260355D01*
X113541250Y-82294442D01*
X113591261Y-82344442D01*
X113598347Y-82348893D01*
X113598352Y-82348897D01*
X113619755Y-82362341D01*
X113672223Y-82418872D01*
X113689500Y-82488514D01*
X113689500Y-89451000D01*
X113669538Y-89525500D01*
X113615000Y-89580038D01*
X113540500Y-89600000D01*
X113469616Y-89600000D01*
X113454145Y-89604145D01*
X113450000Y-89619616D01*
X113450000Y-92580384D01*
X113454145Y-92595855D01*
X113469616Y-92600000D01*
X113590154Y-92600000D01*
X113598966Y-92599477D01*
X113609621Y-92598210D01*
X113630950Y-92592348D01*
X113638978Y-92588782D01*
X113715167Y-92576785D01*
X113759704Y-92588678D01*
X113768006Y-92592348D01*
X113779673Y-92597506D01*
X113790799Y-92598803D01*
X113790802Y-92598804D01*
X113801070Y-92600001D01*
X113801078Y-92600001D01*
X113805354Y-92600500D01*
X114394646Y-92600500D01*
X114420846Y-92597382D01*
X114439591Y-92589056D01*
X114515778Y-92577057D01*
X114560324Y-92588952D01*
X114560560Y-92589056D01*
X114569422Y-92592974D01*
X114579673Y-92597506D01*
X114594318Y-92599213D01*
X114601070Y-92600001D01*
X114601078Y-92600001D01*
X114605354Y-92600500D01*
X115194646Y-92600500D01*
X115220846Y-92597382D01*
X115239591Y-92589056D01*
X115315778Y-92577057D01*
X115360324Y-92588952D01*
X115360560Y-92589056D01*
X115369422Y-92592974D01*
X115379673Y-92597506D01*
X115394318Y-92599213D01*
X115401070Y-92600001D01*
X115401078Y-92600001D01*
X115405354Y-92600500D01*
X115994646Y-92600500D01*
X116020846Y-92597382D01*
X116039591Y-92589056D01*
X116115778Y-92577057D01*
X116160324Y-92588952D01*
X116160560Y-92589056D01*
X116169422Y-92592974D01*
X116179673Y-92597506D01*
X116194318Y-92599213D01*
X116201070Y-92600001D01*
X116201078Y-92600001D01*
X116205354Y-92600500D01*
X116794646Y-92600500D01*
X116820846Y-92597382D01*
X116839825Y-92588952D01*
X116840208Y-92588782D01*
X116916398Y-92576784D01*
X116960936Y-92588677D01*
X116969539Y-92592480D01*
X116990918Y-92598309D01*
X117001124Y-92599498D01*
X117009754Y-92600000D01*
X117130384Y-92600000D01*
X117145855Y-92595855D01*
X117150000Y-92580384D01*
X117150000Y-89619616D01*
X117145855Y-89604145D01*
X117130384Y-89600000D01*
X117059500Y-89600000D01*
X116985000Y-89580038D01*
X116930462Y-89525500D01*
X116910500Y-89451000D01*
X116910500Y-82351980D01*
X116912332Y-82328688D01*
X116913784Y-82319515D01*
X116915617Y-82307933D01*
X116910811Y-82277613D01*
X116909915Y-82270998D01*
X116900764Y-82189858D01*
X116899826Y-82181539D01*
X116857807Y-82061485D01*
X116853358Y-82054406D01*
X116853356Y-82054401D01*
X116808657Y-81983271D01*
X116785919Y-81909571D01*
X116803078Y-81834376D01*
X116808651Y-81824722D01*
X116857819Y-81746469D01*
X116874158Y-81699774D01*
X116897065Y-81634306D01*
X116897065Y-81634304D01*
X116899830Y-81626403D01*
X116909888Y-81537135D01*
X116910785Y-81530510D01*
X116913783Y-81511581D01*
X116913783Y-81511579D01*
X116915617Y-81500000D01*
X116912334Y-81479272D01*
X116910500Y-81455963D01*
X116910500Y-80350753D01*
X116930462Y-80276253D01*
X116985000Y-80221715D01*
X117059500Y-80201753D01*
X117134000Y-80221715D01*
X117164859Y-80245394D01*
X117645859Y-80726394D01*
X117684423Y-80793189D01*
X117689500Y-80831753D01*
X117689500Y-81070187D01*
X117669538Y-81144687D01*
X117619766Y-81196353D01*
X117598308Y-81209834D01*
X117598303Y-81209838D01*
X117591220Y-81214288D01*
X117501192Y-81304314D01*
X117496738Y-81311404D01*
X117496736Y-81311406D01*
X117469779Y-81354314D01*
X117433461Y-81412121D01*
X117391425Y-81532298D01*
X117381775Y-81618084D01*
X117381363Y-81621743D01*
X117380467Y-81628365D01*
X117377904Y-81644574D01*
X117375651Y-81658818D01*
X117377487Y-81670394D01*
X117377487Y-81670397D01*
X117378929Y-81679486D01*
X117380768Y-81702826D01*
X117380768Y-81805963D01*
X117378934Y-81829272D01*
X117378126Y-81834376D01*
X117375651Y-81850000D01*
X117380474Y-81880448D01*
X117381371Y-81887069D01*
X117391449Y-81976500D01*
X117433499Y-82096654D01*
X117440573Y-82107910D01*
X117492074Y-82189858D01*
X117501236Y-82204437D01*
X117591261Y-82294442D01*
X117598347Y-82298893D01*
X117598352Y-82298897D01*
X117619755Y-82312341D01*
X117672223Y-82368872D01*
X117689500Y-82438514D01*
X117689500Y-89451000D01*
X117669538Y-89525500D01*
X117615000Y-89580038D01*
X117540500Y-89600000D01*
X117469616Y-89600000D01*
X117454145Y-89604145D01*
X117450000Y-89619616D01*
X117450000Y-92580384D01*
X117454145Y-92595855D01*
X117469616Y-92600000D01*
X117590154Y-92600000D01*
X117598966Y-92599477D01*
X117609621Y-92598210D01*
X117630950Y-92592348D01*
X117638978Y-92588782D01*
X117715167Y-92576785D01*
X117759704Y-92588678D01*
X117768006Y-92592348D01*
X117779673Y-92597506D01*
X117790799Y-92598803D01*
X117790802Y-92598804D01*
X117801070Y-92600001D01*
X117801078Y-92600001D01*
X117805354Y-92600500D01*
X118394646Y-92600500D01*
X118420846Y-92597382D01*
X118439591Y-92589056D01*
X118515778Y-92577057D01*
X118560324Y-92588952D01*
X118560560Y-92589056D01*
X118569422Y-92592974D01*
X118579673Y-92597506D01*
X118594318Y-92599213D01*
X118601070Y-92600001D01*
X118601078Y-92600001D01*
X118605354Y-92600500D01*
X119194646Y-92600500D01*
X119220846Y-92597382D01*
X119239591Y-92589056D01*
X119315778Y-92577057D01*
X119360324Y-92588952D01*
X119360560Y-92589056D01*
X119369422Y-92592974D01*
X119379673Y-92597506D01*
X119394318Y-92599213D01*
X119401070Y-92600001D01*
X119401078Y-92600001D01*
X119405354Y-92600500D01*
X119994646Y-92600500D01*
X120020846Y-92597382D01*
X120039591Y-92589056D01*
X120115778Y-92577057D01*
X120160324Y-92588952D01*
X120160560Y-92589056D01*
X120169422Y-92592974D01*
X120179673Y-92597506D01*
X120194318Y-92599213D01*
X120201070Y-92600001D01*
X120201078Y-92600001D01*
X120205354Y-92600500D01*
X120794646Y-92600500D01*
X120820846Y-92597382D01*
X120839825Y-92588952D01*
X120840208Y-92588782D01*
X120916398Y-92576784D01*
X120960936Y-92588677D01*
X120969539Y-92592480D01*
X120990918Y-92598309D01*
X121001124Y-92599498D01*
X121009754Y-92600000D01*
X121130384Y-92600000D01*
X121145855Y-92595855D01*
X121150000Y-92580384D01*
X121150000Y-89619616D01*
X121145855Y-89604145D01*
X121130384Y-89600000D01*
X121059500Y-89600000D01*
X120985000Y-89580038D01*
X120930462Y-89525500D01*
X120910500Y-89451000D01*
X120910500Y-81851980D01*
X120912332Y-81828688D01*
X120913784Y-81819515D01*
X120915617Y-81807933D01*
X120910811Y-81777613D01*
X120909915Y-81770998D01*
X120907149Y-81746469D01*
X120899826Y-81681539D01*
X120857807Y-81561485D01*
X120853358Y-81554406D01*
X120853356Y-81554401D01*
X120808657Y-81483271D01*
X120785919Y-81409571D01*
X120803078Y-81334376D01*
X120808651Y-81324722D01*
X120817018Y-81311406D01*
X120857819Y-81246469D01*
X120875355Y-81196353D01*
X120897065Y-81134306D01*
X120897065Y-81134304D01*
X120899830Y-81126403D01*
X120909888Y-81037135D01*
X120910785Y-81030510D01*
X120913783Y-81011581D01*
X120913783Y-81011579D01*
X120915617Y-81000000D01*
X120912334Y-80979272D01*
X120910500Y-80955963D01*
X120910500Y-80350753D01*
X120930462Y-80276253D01*
X120985000Y-80221715D01*
X121059500Y-80201753D01*
X121134000Y-80221715D01*
X121164859Y-80245394D01*
X121645859Y-80726394D01*
X121684423Y-80793189D01*
X121689500Y-80831753D01*
X121689500Y-81120187D01*
X121669538Y-81194687D01*
X121619766Y-81246353D01*
X121598308Y-81259834D01*
X121598303Y-81259838D01*
X121591220Y-81264288D01*
X121585303Y-81270205D01*
X121523891Y-81331616D01*
X121501192Y-81354314D01*
X121433461Y-81462121D01*
X121391425Y-81582298D01*
X121382017Y-81665932D01*
X121381363Y-81671743D01*
X121380467Y-81678365D01*
X121377483Y-81697233D01*
X121375651Y-81708818D01*
X121377487Y-81720394D01*
X121377487Y-81720397D01*
X121378929Y-81729486D01*
X121380768Y-81752826D01*
X121380768Y-81855963D01*
X121378934Y-81879272D01*
X121375651Y-81900000D01*
X121380112Y-81928164D01*
X121380474Y-81930448D01*
X121381371Y-81937069D01*
X121391449Y-82026500D01*
X121403693Y-82061485D01*
X121417977Y-82102300D01*
X121433499Y-82146654D01*
X121501236Y-82254437D01*
X121507154Y-82260353D01*
X121507155Y-82260355D01*
X121541250Y-82294442D01*
X121591261Y-82344442D01*
X121598347Y-82348893D01*
X121598352Y-82348897D01*
X121619755Y-82362341D01*
X121672223Y-82418872D01*
X121689500Y-82488514D01*
X121689500Y-89451000D01*
X121669538Y-89525500D01*
X121615000Y-89580038D01*
X121540500Y-89600000D01*
X121469616Y-89600000D01*
X121454145Y-89604145D01*
X121450000Y-89619616D01*
X121450000Y-92580384D01*
X121454145Y-92595855D01*
X121469616Y-92600000D01*
X121590154Y-92600000D01*
X121598966Y-92599477D01*
X121609621Y-92598210D01*
X121630950Y-92592348D01*
X121638978Y-92588782D01*
X121715167Y-92576785D01*
X121759704Y-92588678D01*
X121768006Y-92592348D01*
X121779673Y-92597506D01*
X121790799Y-92598803D01*
X121790802Y-92598804D01*
X121801070Y-92600001D01*
X121801078Y-92600001D01*
X121805354Y-92600500D01*
X122394646Y-92600500D01*
X122420846Y-92597382D01*
X122439591Y-92589056D01*
X122515778Y-92577057D01*
X122560324Y-92588952D01*
X122560560Y-92589056D01*
X122569422Y-92592974D01*
X122579673Y-92597506D01*
X122594318Y-92599213D01*
X122601070Y-92600001D01*
X122601078Y-92600001D01*
X122605354Y-92600500D01*
X123194646Y-92600500D01*
X123220846Y-92597382D01*
X123239591Y-92589056D01*
X123315778Y-92577057D01*
X123360324Y-92588952D01*
X123360560Y-92589056D01*
X123369422Y-92592974D01*
X123379673Y-92597506D01*
X123394318Y-92599213D01*
X123401070Y-92600001D01*
X123401078Y-92600001D01*
X123405354Y-92600500D01*
X123994646Y-92600500D01*
X124020846Y-92597382D01*
X124039591Y-92589056D01*
X124115778Y-92577057D01*
X124160324Y-92588952D01*
X124160560Y-92589056D01*
X124169422Y-92592974D01*
X124179673Y-92597506D01*
X124194318Y-92599213D01*
X124201070Y-92600001D01*
X124201078Y-92600001D01*
X124205354Y-92600500D01*
X124794646Y-92600500D01*
X124820846Y-92597382D01*
X124839825Y-92588952D01*
X124840208Y-92588782D01*
X124916398Y-92576784D01*
X124960936Y-92588677D01*
X124969539Y-92592480D01*
X124990918Y-92598309D01*
X125001124Y-92599498D01*
X125009754Y-92600000D01*
X125130384Y-92600000D01*
X125145855Y-92595855D01*
X125150000Y-92580384D01*
X125450000Y-92580384D01*
X125454145Y-92595855D01*
X125469616Y-92600000D01*
X125590154Y-92600000D01*
X125598966Y-92599477D01*
X125609621Y-92598210D01*
X125630950Y-92592348D01*
X125638978Y-92588782D01*
X125715167Y-92576785D01*
X125759704Y-92588678D01*
X125768006Y-92592348D01*
X125779673Y-92597506D01*
X125790799Y-92598803D01*
X125790802Y-92598804D01*
X125801070Y-92600001D01*
X125801078Y-92600001D01*
X125805354Y-92600500D01*
X126394646Y-92600500D01*
X126420846Y-92597382D01*
X126439591Y-92589056D01*
X126515778Y-92577057D01*
X126560324Y-92588952D01*
X126560560Y-92589056D01*
X126569422Y-92592974D01*
X126579673Y-92597506D01*
X126594318Y-92599213D01*
X126601070Y-92600001D01*
X126601078Y-92600001D01*
X126605354Y-92600500D01*
X127194646Y-92600500D01*
X127220846Y-92597382D01*
X127239591Y-92589056D01*
X127315778Y-92577057D01*
X127360324Y-92588952D01*
X127360560Y-92589056D01*
X127369422Y-92592974D01*
X127379673Y-92597506D01*
X127394318Y-92599213D01*
X127401070Y-92600001D01*
X127401078Y-92600001D01*
X127405354Y-92600500D01*
X127994646Y-92600500D01*
X128020846Y-92597382D01*
X128039591Y-92589056D01*
X128115778Y-92577057D01*
X128160324Y-92588952D01*
X128160560Y-92589056D01*
X128169422Y-92592974D01*
X128179673Y-92597506D01*
X128194318Y-92599213D01*
X128201070Y-92600001D01*
X128201078Y-92600001D01*
X128205354Y-92600500D01*
X128794646Y-92600500D01*
X128820846Y-92597382D01*
X128839825Y-92588952D01*
X128840208Y-92588782D01*
X128916398Y-92576784D01*
X128960936Y-92588677D01*
X128969539Y-92592480D01*
X128990918Y-92598309D01*
X129001124Y-92599498D01*
X129009754Y-92600000D01*
X129130384Y-92600000D01*
X129145855Y-92595855D01*
X129150000Y-92580384D01*
X129450000Y-92580384D01*
X129454145Y-92595855D01*
X129469616Y-92600000D01*
X129590154Y-92600000D01*
X129598966Y-92599477D01*
X129609621Y-92598210D01*
X129630950Y-92592348D01*
X129638978Y-92588782D01*
X129715167Y-92576785D01*
X129759704Y-92588678D01*
X129768006Y-92592348D01*
X129779673Y-92597506D01*
X129790799Y-92598803D01*
X129790802Y-92598804D01*
X129801070Y-92600001D01*
X129801078Y-92600001D01*
X129805354Y-92600500D01*
X130394646Y-92600500D01*
X130420846Y-92597382D01*
X130439591Y-92589056D01*
X130515778Y-92577057D01*
X130560324Y-92588952D01*
X130560560Y-92589056D01*
X130569422Y-92592974D01*
X130579673Y-92597506D01*
X130594318Y-92599213D01*
X130601070Y-92600001D01*
X130601078Y-92600001D01*
X130605354Y-92600500D01*
X131194646Y-92600500D01*
X131220846Y-92597382D01*
X131239591Y-92589056D01*
X131315778Y-92577057D01*
X131360324Y-92588952D01*
X131360560Y-92589056D01*
X131369422Y-92592974D01*
X131379673Y-92597506D01*
X131394318Y-92599213D01*
X131401070Y-92600001D01*
X131401078Y-92600001D01*
X131405354Y-92600500D01*
X131994646Y-92600500D01*
X132020846Y-92597382D01*
X132039591Y-92589056D01*
X132115778Y-92577057D01*
X132160324Y-92588952D01*
X132160560Y-92589056D01*
X132169422Y-92592974D01*
X132179673Y-92597506D01*
X132194318Y-92599213D01*
X132201070Y-92600001D01*
X132201078Y-92600001D01*
X132205354Y-92600500D01*
X132794646Y-92600500D01*
X132820846Y-92597382D01*
X132839591Y-92589056D01*
X132915778Y-92577057D01*
X132960324Y-92588952D01*
X132960560Y-92589056D01*
X132969422Y-92592974D01*
X132979673Y-92597506D01*
X132994318Y-92599213D01*
X133001070Y-92600001D01*
X133001078Y-92600001D01*
X133005354Y-92600500D01*
X133594646Y-92600500D01*
X133620846Y-92597382D01*
X133639591Y-92589056D01*
X133715778Y-92577057D01*
X133760324Y-92588952D01*
X133760560Y-92589056D01*
X133769422Y-92592974D01*
X133779673Y-92597506D01*
X133794318Y-92599213D01*
X133801070Y-92600001D01*
X133801078Y-92600001D01*
X133805354Y-92600500D01*
X134394646Y-92600500D01*
X134420846Y-92597382D01*
X134439591Y-92589056D01*
X134515778Y-92577057D01*
X134560324Y-92588952D01*
X134560560Y-92589056D01*
X134569422Y-92592974D01*
X134579673Y-92597506D01*
X134594318Y-92599213D01*
X134601070Y-92600001D01*
X134601078Y-92600001D01*
X134605354Y-92600500D01*
X135194646Y-92600500D01*
X135220846Y-92597382D01*
X135239591Y-92589056D01*
X135315778Y-92577057D01*
X135360324Y-92588952D01*
X135360560Y-92589056D01*
X135369422Y-92592974D01*
X135379673Y-92597506D01*
X135394318Y-92599213D01*
X135401070Y-92600001D01*
X135401078Y-92600001D01*
X135405354Y-92600500D01*
X135994646Y-92600500D01*
X136020846Y-92597382D01*
X136039591Y-92589056D01*
X136115778Y-92577057D01*
X136160324Y-92588952D01*
X136160560Y-92589056D01*
X136169422Y-92592974D01*
X136179673Y-92597506D01*
X136194318Y-92599213D01*
X136201070Y-92600001D01*
X136201078Y-92600001D01*
X136205354Y-92600500D01*
X136794646Y-92600500D01*
X136820846Y-92597382D01*
X136839591Y-92589056D01*
X136915778Y-92577057D01*
X136960324Y-92588952D01*
X136960560Y-92589056D01*
X136969422Y-92592974D01*
X136979673Y-92597506D01*
X136994318Y-92599213D01*
X137001070Y-92600001D01*
X137001078Y-92600001D01*
X137005354Y-92600500D01*
X137594646Y-92600500D01*
X137620846Y-92597382D01*
X137639591Y-92589056D01*
X137715778Y-92577057D01*
X137760324Y-92588952D01*
X137760560Y-92589056D01*
X137769422Y-92592974D01*
X137779673Y-92597506D01*
X137794318Y-92599213D01*
X137801070Y-92600001D01*
X137801078Y-92600001D01*
X137805354Y-92600500D01*
X138394646Y-92600500D01*
X138420846Y-92597382D01*
X138523153Y-92551939D01*
X138602241Y-92472713D01*
X138647506Y-92370327D01*
X138649213Y-92355682D01*
X138650001Y-92348930D01*
X138650001Y-92348922D01*
X138650500Y-92344646D01*
X138650500Y-89855354D01*
X138647382Y-89829154D01*
X138601939Y-89726847D01*
X138522713Y-89647759D01*
X138510133Y-89642197D01*
X138510131Y-89642196D01*
X138430574Y-89607024D01*
X138430573Y-89607024D01*
X138420327Y-89602494D01*
X138405682Y-89600787D01*
X138398930Y-89599999D01*
X138398922Y-89599999D01*
X138394646Y-89599500D01*
X137805354Y-89599500D01*
X137779154Y-89602618D01*
X137760409Y-89610944D01*
X137684222Y-89622943D01*
X137639676Y-89611048D01*
X137631994Y-89607652D01*
X137630574Y-89607024D01*
X137630573Y-89607024D01*
X137620327Y-89602494D01*
X137605682Y-89600787D01*
X137598930Y-89599999D01*
X137598922Y-89599999D01*
X137594646Y-89599500D01*
X137005354Y-89599500D01*
X136979154Y-89602618D01*
X136960409Y-89610944D01*
X136884222Y-89622943D01*
X136839676Y-89611048D01*
X136831994Y-89607652D01*
X136830574Y-89607024D01*
X136830573Y-89607024D01*
X136820327Y-89602494D01*
X136805682Y-89600787D01*
X136798930Y-89599999D01*
X136798922Y-89599999D01*
X136794646Y-89599500D01*
X136205354Y-89599500D01*
X136179154Y-89602618D01*
X136160409Y-89610944D01*
X136084222Y-89622943D01*
X136039676Y-89611048D01*
X136031994Y-89607652D01*
X136030574Y-89607024D01*
X136030573Y-89607024D01*
X136020327Y-89602494D01*
X136005682Y-89600787D01*
X135998930Y-89599999D01*
X135998922Y-89599999D01*
X135994646Y-89599500D01*
X135405354Y-89599500D01*
X135379154Y-89602618D01*
X135360409Y-89610944D01*
X135284222Y-89622943D01*
X135239676Y-89611048D01*
X135231994Y-89607652D01*
X135230574Y-89607024D01*
X135230573Y-89607024D01*
X135220327Y-89602494D01*
X135205682Y-89600787D01*
X135198930Y-89599999D01*
X135198922Y-89599999D01*
X135194646Y-89599500D01*
X134605354Y-89599500D01*
X134579154Y-89602618D01*
X134560409Y-89610944D01*
X134484222Y-89622943D01*
X134439676Y-89611048D01*
X134431994Y-89607652D01*
X134430574Y-89607024D01*
X134430573Y-89607024D01*
X134420327Y-89602494D01*
X134405682Y-89600787D01*
X134398930Y-89599999D01*
X134398922Y-89599999D01*
X134394646Y-89599500D01*
X133805354Y-89599500D01*
X133779154Y-89602618D01*
X133760409Y-89610944D01*
X133684222Y-89622943D01*
X133639676Y-89611048D01*
X133631994Y-89607652D01*
X133630574Y-89607024D01*
X133630573Y-89607024D01*
X133620327Y-89602494D01*
X133605682Y-89600787D01*
X133598930Y-89599999D01*
X133598922Y-89599999D01*
X133594646Y-89599500D01*
X133005354Y-89599500D01*
X132979154Y-89602618D01*
X132960409Y-89610944D01*
X132884222Y-89622943D01*
X132839676Y-89611048D01*
X132831994Y-89607652D01*
X132830574Y-89607024D01*
X132830573Y-89607024D01*
X132820327Y-89602494D01*
X132805682Y-89600787D01*
X132798930Y-89599999D01*
X132798922Y-89599999D01*
X132794646Y-89599500D01*
X132205354Y-89599500D01*
X132179154Y-89602618D01*
X132160409Y-89610944D01*
X132084222Y-89622943D01*
X132039676Y-89611048D01*
X132031994Y-89607652D01*
X132030574Y-89607024D01*
X132030573Y-89607024D01*
X132020327Y-89602494D01*
X132005682Y-89600787D01*
X131998930Y-89599999D01*
X131998922Y-89599999D01*
X131994646Y-89599500D01*
X131405354Y-89599500D01*
X131379154Y-89602618D01*
X131360409Y-89610944D01*
X131284222Y-89622943D01*
X131239676Y-89611048D01*
X131231994Y-89607652D01*
X131230574Y-89607024D01*
X131230573Y-89607024D01*
X131220327Y-89602494D01*
X131205682Y-89600787D01*
X131198930Y-89599999D01*
X131198922Y-89599999D01*
X131194646Y-89599500D01*
X130605354Y-89599500D01*
X130579154Y-89602618D01*
X130560409Y-89610944D01*
X130484222Y-89622943D01*
X130439676Y-89611048D01*
X130431994Y-89607652D01*
X130430574Y-89607024D01*
X130430573Y-89607024D01*
X130420327Y-89602494D01*
X130405682Y-89600787D01*
X130398930Y-89599999D01*
X130398922Y-89599999D01*
X130394646Y-89599500D01*
X129805354Y-89599500D01*
X129779154Y-89602618D01*
X129767821Y-89607652D01*
X129759792Y-89611218D01*
X129683602Y-89623216D01*
X129639064Y-89611323D01*
X129630461Y-89607520D01*
X129609082Y-89601691D01*
X129598876Y-89600502D01*
X129590246Y-89600000D01*
X129469616Y-89600000D01*
X129454145Y-89604145D01*
X129450000Y-89619616D01*
X129450000Y-92580384D01*
X129150000Y-92580384D01*
X129150000Y-89619616D01*
X129145855Y-89604145D01*
X129130384Y-89600000D01*
X129009846Y-89600000D01*
X129001034Y-89600523D01*
X128990379Y-89601790D01*
X128969050Y-89607652D01*
X128961022Y-89611218D01*
X128884833Y-89623215D01*
X128840296Y-89611322D01*
X128830578Y-89607026D01*
X128820327Y-89602494D01*
X128809201Y-89601197D01*
X128809198Y-89601196D01*
X128798930Y-89599999D01*
X128798922Y-89599999D01*
X128794646Y-89599500D01*
X128205354Y-89599500D01*
X128179154Y-89602618D01*
X128160409Y-89610944D01*
X128084222Y-89622943D01*
X128039676Y-89611048D01*
X128031994Y-89607652D01*
X128030574Y-89607024D01*
X128030573Y-89607024D01*
X128020327Y-89602494D01*
X128005682Y-89600787D01*
X127998930Y-89599999D01*
X127998922Y-89599999D01*
X127994646Y-89599500D01*
X127405354Y-89599500D01*
X127379154Y-89602618D01*
X127360409Y-89610944D01*
X127284222Y-89622943D01*
X127239676Y-89611048D01*
X127231994Y-89607652D01*
X127230574Y-89607024D01*
X127230573Y-89607024D01*
X127220327Y-89602494D01*
X127205682Y-89600787D01*
X127198930Y-89599999D01*
X127198922Y-89599999D01*
X127194646Y-89599500D01*
X127120753Y-89599500D01*
X127046253Y-89579538D01*
X126991715Y-89525000D01*
X126971753Y-89450500D01*
X126991715Y-89376000D01*
X127015394Y-89345141D01*
X134906394Y-81454141D01*
X134973189Y-81415577D01*
X135011753Y-81410500D01*
X135605376Y-81410500D01*
X135679876Y-81430462D01*
X135714503Y-81459108D01*
X135715830Y-81461083D01*
X135722472Y-81467127D01*
X135722474Y-81467129D01*
X135826170Y-81561485D01*
X135841233Y-81575191D01*
X135849128Y-81579478D01*
X135849130Y-81579479D01*
X135982344Y-81651808D01*
X135982347Y-81651809D01*
X135990235Y-81656092D01*
X136027743Y-81665932D01*
X136145549Y-81696838D01*
X136145551Y-81696838D01*
X136154233Y-81699116D01*
X136163209Y-81699257D01*
X136314781Y-81701638D01*
X136323760Y-81701779D01*
X136489029Y-81663928D01*
X136640498Y-81587747D01*
X136679541Y-81554401D01*
X136762594Y-81483467D01*
X136762596Y-81483465D01*
X136769423Y-81477634D01*
X136786866Y-81453360D01*
X136863124Y-81347236D01*
X136863126Y-81347232D01*
X136868361Y-81339947D01*
X136885826Y-81296503D01*
X136928251Y-81190969D01*
X136928252Y-81190964D01*
X136931601Y-81182634D01*
X136955490Y-81014778D01*
X136955645Y-81000000D01*
X136935276Y-80831680D01*
X136875345Y-80673077D01*
X136779312Y-80533349D01*
X136772604Y-80527372D01*
X136659428Y-80426535D01*
X136659424Y-80426532D01*
X136652721Y-80420560D01*
X136644783Y-80416357D01*
X136644780Y-80416355D01*
X136510823Y-80345429D01*
X136502881Y-80341224D01*
X136494168Y-80339035D01*
X136494167Y-80339035D01*
X136421691Y-80320830D01*
X136338441Y-80299919D01*
X136234002Y-80299372D01*
X136177873Y-80299078D01*
X136168895Y-80299031D01*
X136160164Y-80301127D01*
X136160165Y-80301127D01*
X136012765Y-80336515D01*
X136012762Y-80336516D01*
X136004032Y-80338612D01*
X135996053Y-80342730D01*
X135996051Y-80342731D01*
X135861353Y-80412254D01*
X135853369Y-80416375D01*
X135846602Y-80422279D01*
X135846598Y-80422281D01*
X135841722Y-80426535D01*
X135725604Y-80527831D01*
X135720439Y-80535180D01*
X135715919Y-80540200D01*
X135651234Y-80582207D01*
X135605190Y-80589500D01*
X134714984Y-80589500D01*
X134695024Y-80595985D01*
X134672295Y-80601442D01*
X134651567Y-80604725D01*
X134636996Y-80612150D01*
X134632873Y-80614250D01*
X134611276Y-80623196D01*
X134591314Y-80629682D01*
X134581827Y-80636575D01*
X134574335Y-80642018D01*
X134554404Y-80654232D01*
X134535706Y-80663759D01*
X125763759Y-89435706D01*
X125758434Y-89446157D01*
X125758433Y-89446158D01*
X125754229Y-89454408D01*
X125742020Y-89474332D01*
X125737384Y-89480714D01*
X125729683Y-89491314D01*
X125726059Y-89502468D01*
X125720736Y-89512915D01*
X125718314Y-89511681D01*
X125685817Y-89561726D01*
X125617096Y-89596743D01*
X125586114Y-89600000D01*
X125469616Y-89600000D01*
X125454145Y-89604145D01*
X125450000Y-89619616D01*
X125450000Y-92580384D01*
X125150000Y-92580384D01*
X125150000Y-89619616D01*
X125145855Y-89604145D01*
X125130384Y-89600000D01*
X125059500Y-89600000D01*
X124985000Y-89580038D01*
X124930462Y-89525500D01*
X124910500Y-89451000D01*
X124910500Y-80851980D01*
X124912332Y-80828688D01*
X124913784Y-80819515D01*
X124915617Y-80807933D01*
X124910811Y-80777613D01*
X124909915Y-80770998D01*
X124899826Y-80681539D01*
X124857807Y-80561485D01*
X124853358Y-80554406D01*
X124853356Y-80554401D01*
X124808657Y-80483271D01*
X124785919Y-80409571D01*
X124803078Y-80334376D01*
X124808651Y-80324722D01*
X124857819Y-80246469D01*
X124899830Y-80126403D01*
X124903064Y-80097701D01*
X124905212Y-80087780D01*
X124905042Y-80087753D01*
X124906877Y-80076171D01*
X124910501Y-80065017D01*
X124910501Y-80044031D01*
X124912335Y-80020723D01*
X124913783Y-80011581D01*
X124913783Y-80011579D01*
X124915617Y-80000000D01*
X124912335Y-79979277D01*
X124910501Y-79955969D01*
X124910501Y-79934984D01*
X124904016Y-79915026D01*
X124898556Y-79892284D01*
X124897110Y-79883151D01*
X124897109Y-79883149D01*
X124895275Y-79871567D01*
X124885748Y-79852870D01*
X124876802Y-79831271D01*
X124873943Y-79822471D01*
X124873942Y-79822469D01*
X124870318Y-79811315D01*
X124857982Y-79794337D01*
X124845767Y-79774402D01*
X124841566Y-79766157D01*
X124841565Y-79766156D01*
X124836241Y-79755706D01*
X124323146Y-79242611D01*
X140044394Y-79242611D01*
X140062999Y-79411135D01*
X140066087Y-79419572D01*
X140066087Y-79419574D01*
X140073917Y-79440969D01*
X140121266Y-79570356D01*
X140126275Y-79577811D01*
X140126276Y-79577812D01*
X140209134Y-79701118D01*
X140215830Y-79711083D01*
X140222472Y-79717126D01*
X140222473Y-79717128D01*
X140285417Y-79774402D01*
X140341233Y-79825191D01*
X140349128Y-79829478D01*
X140349130Y-79829479D01*
X140482344Y-79901808D01*
X140482347Y-79901809D01*
X140490235Y-79906092D01*
X140527743Y-79915932D01*
X140645549Y-79946838D01*
X140645551Y-79946838D01*
X140654233Y-79949116D01*
X140663209Y-79949257D01*
X140814781Y-79951638D01*
X140823760Y-79951779D01*
X140989029Y-79913928D01*
X141140498Y-79837747D01*
X141224319Y-79766157D01*
X141262594Y-79733467D01*
X141262596Y-79733465D01*
X141269423Y-79727634D01*
X141320831Y-79656092D01*
X141363124Y-79597236D01*
X141363126Y-79597232D01*
X141368361Y-79589947D01*
X141379628Y-79561920D01*
X141428251Y-79440969D01*
X141428252Y-79440964D01*
X141431601Y-79432634D01*
X141455490Y-79264778D01*
X141455645Y-79250000D01*
X141435276Y-79081680D01*
X141375345Y-78923077D01*
X141326706Y-78852307D01*
X141300959Y-78779605D01*
X141300500Y-78767913D01*
X141300500Y-77482368D01*
X141320462Y-77407868D01*
X141328499Y-77395421D01*
X141363121Y-77347239D01*
X141368361Y-77339947D01*
X141371709Y-77331619D01*
X141371711Y-77331615D01*
X141428251Y-77190969D01*
X141428252Y-77190964D01*
X141431601Y-77182634D01*
X141455490Y-77014778D01*
X141455645Y-77000000D01*
X141435276Y-76831680D01*
X141375345Y-76673077D01*
X141279312Y-76533349D01*
X141272604Y-76527372D01*
X141159428Y-76426535D01*
X141159424Y-76426532D01*
X141152721Y-76420560D01*
X141144783Y-76416357D01*
X141144780Y-76416355D01*
X141010823Y-76345429D01*
X141002881Y-76341224D01*
X140994168Y-76339035D01*
X140994167Y-76339035D01*
X140921691Y-76320830D01*
X140838441Y-76299919D01*
X140734002Y-76299372D01*
X140677873Y-76299078D01*
X140668895Y-76299031D01*
X140660164Y-76301127D01*
X140660165Y-76301127D01*
X140512765Y-76336515D01*
X140512762Y-76336516D01*
X140504032Y-76338612D01*
X140496053Y-76342730D01*
X140496051Y-76342731D01*
X140490824Y-76345429D01*
X140353369Y-76416375D01*
X140346602Y-76422279D01*
X140346598Y-76422281D01*
X140341722Y-76426535D01*
X140225604Y-76527831D01*
X140128113Y-76666547D01*
X140066524Y-76824513D01*
X140044394Y-76992611D01*
X140062999Y-77161135D01*
X140066087Y-77169572D01*
X140066087Y-77169574D01*
X140073917Y-77190969D01*
X140121266Y-77320356D01*
X140126275Y-77327811D01*
X140126276Y-77327812D01*
X140174172Y-77399089D01*
X140199155Y-77472059D01*
X140199500Y-77482193D01*
X140199500Y-78767851D01*
X140179538Y-78842351D01*
X140172405Y-78853526D01*
X140128113Y-78916547D01*
X140066524Y-79074513D01*
X140044394Y-79242611D01*
X124323146Y-79242611D01*
X124244407Y-79163872D01*
X124205843Y-79097077D01*
X124202253Y-79037520D01*
X124205490Y-79014778D01*
X124205645Y-79000000D01*
X124185276Y-78831680D01*
X124125345Y-78673077D01*
X124029312Y-78533349D01*
X124021020Y-78525961D01*
X123909428Y-78426535D01*
X123909424Y-78426532D01*
X123902721Y-78420560D01*
X123894781Y-78416356D01*
X123894780Y-78416355D01*
X123760823Y-78345429D01*
X123752881Y-78341224D01*
X123744168Y-78339035D01*
X123744167Y-78339035D01*
X123671691Y-78320830D01*
X123588441Y-78299919D01*
X123484002Y-78299372D01*
X123427873Y-78299078D01*
X123418895Y-78299031D01*
X123410164Y-78301127D01*
X123410165Y-78301127D01*
X123262765Y-78336515D01*
X123262762Y-78336516D01*
X123254032Y-78338612D01*
X123246053Y-78342730D01*
X123246051Y-78342731D01*
X123240826Y-78345428D01*
X123103369Y-78416375D01*
X123096593Y-78422286D01*
X123089174Y-78427328D01*
X123088093Y-78425738D01*
X123029199Y-78454594D01*
X122952249Y-78449353D01*
X122915470Y-78430735D01*
X122909427Y-78426535D01*
X122902721Y-78420560D01*
X122752881Y-78341224D01*
X122744168Y-78339035D01*
X122744167Y-78339035D01*
X122671691Y-78320830D01*
X122588441Y-78299919D01*
X122484002Y-78299372D01*
X122427873Y-78299078D01*
X122418895Y-78299031D01*
X122410164Y-78301127D01*
X122410165Y-78301127D01*
X122262765Y-78336515D01*
X122262762Y-78336516D01*
X122254032Y-78338612D01*
X122246053Y-78342730D01*
X122246051Y-78342731D01*
X122240826Y-78345428D01*
X122103369Y-78416375D01*
X122096593Y-78422286D01*
X122089174Y-78427328D01*
X122088093Y-78425738D01*
X122029199Y-78454594D01*
X121952249Y-78449353D01*
X121915470Y-78430735D01*
X121909427Y-78426535D01*
X121902721Y-78420560D01*
X121752881Y-78341224D01*
X121744168Y-78339035D01*
X121744167Y-78339035D01*
X121671691Y-78320830D01*
X121588441Y-78299919D01*
X121484002Y-78299372D01*
X121427873Y-78299078D01*
X121418895Y-78299031D01*
X121410164Y-78301127D01*
X121410165Y-78301127D01*
X121262765Y-78336515D01*
X121262762Y-78336516D01*
X121254032Y-78338612D01*
X121246053Y-78342730D01*
X121246051Y-78342731D01*
X121240826Y-78345428D01*
X121103369Y-78416375D01*
X121096593Y-78422286D01*
X121089174Y-78427328D01*
X121088093Y-78425738D01*
X121029199Y-78454594D01*
X120952249Y-78449353D01*
X120915470Y-78430735D01*
X120909427Y-78426535D01*
X120902721Y-78420560D01*
X120752881Y-78341224D01*
X120744168Y-78339035D01*
X120744167Y-78339035D01*
X120671691Y-78320830D01*
X120588441Y-78299919D01*
X120484002Y-78299372D01*
X120427873Y-78299078D01*
X120418895Y-78299031D01*
X120410164Y-78301127D01*
X120410165Y-78301127D01*
X120262765Y-78336515D01*
X120262762Y-78336516D01*
X120254032Y-78338612D01*
X120246053Y-78342730D01*
X120246051Y-78342731D01*
X120117871Y-78408890D01*
X120103369Y-78416375D01*
X120096602Y-78422279D01*
X120096598Y-78422281D01*
X119982373Y-78521926D01*
X119975604Y-78527831D01*
X119970439Y-78535180D01*
X119964429Y-78541855D01*
X119963094Y-78540653D01*
X119912409Y-78583034D01*
X119836430Y-78596295D01*
X119763999Y-78569790D01*
X119737905Y-78546419D01*
X119732910Y-78540753D01*
X119727821Y-78533349D01*
X119639429Y-78454594D01*
X119607937Y-78426535D01*
X119607933Y-78426532D01*
X119601230Y-78420560D01*
X119593290Y-78416356D01*
X119593289Y-78416355D01*
X119459332Y-78345429D01*
X119451390Y-78341224D01*
X119442677Y-78339035D01*
X119442676Y-78339035D01*
X119370200Y-78320830D01*
X119286950Y-78299919D01*
X119182511Y-78299372D01*
X119126382Y-78299078D01*
X119117404Y-78299031D01*
X119108673Y-78301127D01*
X119108674Y-78301127D01*
X118961274Y-78336515D01*
X118961271Y-78336516D01*
X118952541Y-78338612D01*
X118944562Y-78342730D01*
X118944560Y-78342731D01*
X118816380Y-78408890D01*
X118741022Y-78425321D01*
X118678322Y-78408168D01*
X118551887Y-78341224D01*
X118543174Y-78339035D01*
X118543173Y-78339035D01*
X118470697Y-78320830D01*
X118387447Y-78299919D01*
X118283008Y-78299372D01*
X118226879Y-78299078D01*
X118217901Y-78299031D01*
X118209170Y-78301127D01*
X118209171Y-78301127D01*
X118061771Y-78336515D01*
X118061768Y-78336516D01*
X118053038Y-78338612D01*
X118045059Y-78342730D01*
X118045057Y-78342731D01*
X117916877Y-78408890D01*
X117841519Y-78425321D01*
X117778819Y-78408168D01*
X117652384Y-78341224D01*
X117643671Y-78339035D01*
X117643670Y-78339035D01*
X117571194Y-78320830D01*
X117487944Y-78299919D01*
X117383505Y-78299372D01*
X117327376Y-78299078D01*
X117318398Y-78299031D01*
X117309667Y-78301127D01*
X117309668Y-78301127D01*
X117162268Y-78336515D01*
X117162265Y-78336516D01*
X117153535Y-78338612D01*
X117145556Y-78342730D01*
X117145554Y-78342731D01*
X117017374Y-78408890D01*
X116942016Y-78425321D01*
X116879316Y-78408168D01*
X116752881Y-78341224D01*
X116744168Y-78339035D01*
X116744167Y-78339035D01*
X116671691Y-78320830D01*
X116588441Y-78299919D01*
X116484002Y-78299372D01*
X116427873Y-78299078D01*
X116418895Y-78299031D01*
X116410164Y-78301127D01*
X116410165Y-78301127D01*
X116262765Y-78336515D01*
X116262762Y-78336516D01*
X116254032Y-78338612D01*
X116246053Y-78342730D01*
X116246051Y-78342731D01*
X116117871Y-78408890D01*
X116103369Y-78416375D01*
X116096602Y-78422279D01*
X116096598Y-78422281D01*
X115975604Y-78527831D01*
X115973973Y-78525961D01*
X115920755Y-78560513D01*
X115843732Y-78564540D01*
X115775608Y-78530049D01*
X115772604Y-78527372D01*
X115725368Y-78485286D01*
X115659428Y-78426535D01*
X115659424Y-78426532D01*
X115652721Y-78420560D01*
X115644781Y-78416356D01*
X115644780Y-78416355D01*
X115510823Y-78345429D01*
X115502881Y-78341224D01*
X115494168Y-78339035D01*
X115494167Y-78339035D01*
X115421691Y-78320830D01*
X115338441Y-78299919D01*
X115234002Y-78299372D01*
X115177873Y-78299078D01*
X115168895Y-78299031D01*
X115160164Y-78301127D01*
X115160165Y-78301127D01*
X115012765Y-78336515D01*
X115012762Y-78336516D01*
X115004032Y-78338612D01*
X114996053Y-78342730D01*
X114996051Y-78342731D01*
X114867871Y-78408890D01*
X114853369Y-78416375D01*
X114853218Y-78416082D01*
X114785515Y-78439664D01*
X114709753Y-78425217D01*
X114701740Y-78420535D01*
X114701727Y-78420560D01*
X114559829Y-78345429D01*
X114551887Y-78341224D01*
X114543174Y-78339035D01*
X114543173Y-78339035D01*
X114470697Y-78320830D01*
X114387447Y-78299919D01*
X114283008Y-78299372D01*
X114226879Y-78299078D01*
X114217901Y-78299031D01*
X114209170Y-78301127D01*
X114209171Y-78301127D01*
X114061771Y-78336515D01*
X114061768Y-78336516D01*
X114053038Y-78338612D01*
X114045059Y-78342730D01*
X114045057Y-78342731D01*
X113916877Y-78408890D01*
X113841519Y-78425321D01*
X113778819Y-78408168D01*
X113652384Y-78341224D01*
X113643671Y-78339035D01*
X113643670Y-78339035D01*
X113571194Y-78320830D01*
X113487944Y-78299919D01*
X113383505Y-78299372D01*
X113327376Y-78299078D01*
X113318398Y-78299031D01*
X113309667Y-78301127D01*
X113309668Y-78301127D01*
X113162268Y-78336515D01*
X113162265Y-78336516D01*
X113153535Y-78338612D01*
X113145556Y-78342730D01*
X113145554Y-78342731D01*
X113017374Y-78408890D01*
X112942016Y-78425321D01*
X112879316Y-78408168D01*
X112752881Y-78341224D01*
X112744168Y-78339035D01*
X112744167Y-78339035D01*
X112671691Y-78320830D01*
X112588441Y-78299919D01*
X112484002Y-78299372D01*
X112427873Y-78299078D01*
X112418895Y-78299031D01*
X112410164Y-78301127D01*
X112410165Y-78301127D01*
X112262765Y-78336515D01*
X112262762Y-78336516D01*
X112254032Y-78338612D01*
X112246053Y-78342730D01*
X112246051Y-78342731D01*
X112117871Y-78408890D01*
X112103369Y-78416375D01*
X112096602Y-78422279D01*
X112096598Y-78422281D01*
X111982373Y-78521926D01*
X111975604Y-78527831D01*
X111946905Y-78568666D01*
X111887738Y-78618138D01*
X111811758Y-78631399D01*
X111739327Y-78604894D01*
X111702208Y-78567384D01*
X111683909Y-78540759D01*
X111683903Y-78540753D01*
X111678815Y-78533349D01*
X111670523Y-78525961D01*
X111558931Y-78426535D01*
X111558927Y-78426532D01*
X111552224Y-78420560D01*
X111544284Y-78416356D01*
X111544283Y-78416355D01*
X111410326Y-78345429D01*
X111402384Y-78341224D01*
X111393671Y-78339035D01*
X111393670Y-78339035D01*
X111321194Y-78320830D01*
X111237944Y-78299919D01*
X111133505Y-78299372D01*
X111077376Y-78299078D01*
X111068398Y-78299031D01*
X111059667Y-78301127D01*
X111059668Y-78301127D01*
X110912268Y-78336515D01*
X110912265Y-78336516D01*
X110903535Y-78338612D01*
X110895556Y-78342730D01*
X110895554Y-78342731D01*
X110767374Y-78408890D01*
X110692016Y-78425321D01*
X110629316Y-78408168D01*
X110502881Y-78341224D01*
X110494168Y-78339035D01*
X110494167Y-78339035D01*
X110421691Y-78320830D01*
X110338441Y-78299919D01*
X110234002Y-78299372D01*
X110177873Y-78299078D01*
X110168895Y-78299031D01*
X110160164Y-78301127D01*
X110160165Y-78301127D01*
X110012765Y-78336515D01*
X110012762Y-78336516D01*
X110004032Y-78338612D01*
X109996053Y-78342730D01*
X109996051Y-78342731D01*
X109990826Y-78345428D01*
X109853369Y-78416375D01*
X109846593Y-78422286D01*
X109839174Y-78427328D01*
X109838093Y-78425738D01*
X109779199Y-78454594D01*
X109702249Y-78449353D01*
X109665470Y-78430735D01*
X109659427Y-78426535D01*
X109652721Y-78420560D01*
X109502881Y-78341224D01*
X109494168Y-78339035D01*
X109494167Y-78339035D01*
X109421691Y-78320830D01*
X109338441Y-78299919D01*
X109234002Y-78299372D01*
X109177873Y-78299078D01*
X109168895Y-78299031D01*
X109160164Y-78301127D01*
X109160165Y-78301127D01*
X109012765Y-78336515D01*
X109012762Y-78336516D01*
X109004032Y-78338612D01*
X108996053Y-78342730D01*
X108996051Y-78342731D01*
X108990826Y-78345428D01*
X108853369Y-78416375D01*
X108846593Y-78422286D01*
X108839174Y-78427328D01*
X108838093Y-78425738D01*
X108779199Y-78454594D01*
X108702249Y-78449353D01*
X108665470Y-78430735D01*
X108659427Y-78426535D01*
X108652721Y-78420560D01*
X108502881Y-78341224D01*
X108494168Y-78339035D01*
X108494167Y-78339035D01*
X108421691Y-78320830D01*
X108338441Y-78299919D01*
X108234002Y-78299372D01*
X108177873Y-78299078D01*
X108168895Y-78299031D01*
X108160164Y-78301127D01*
X108160165Y-78301127D01*
X108012765Y-78336515D01*
X108012762Y-78336516D01*
X108004032Y-78338612D01*
X107996053Y-78342730D01*
X107996051Y-78342731D01*
X107867871Y-78408890D01*
X107853369Y-78416375D01*
X107846602Y-78422279D01*
X107846598Y-78422281D01*
X107732373Y-78521926D01*
X107725604Y-78527831D01*
X107628113Y-78666547D01*
X107566524Y-78824513D01*
X107544394Y-78992611D01*
X101000000Y-78992611D01*
X101000000Y-75399000D01*
X101019962Y-75324500D01*
X101074500Y-75269962D01*
X101149000Y-75250000D01*
X143851000Y-75250000D01*
X143925500Y-75269962D01*
G37*
G04 #@! TD.AperFunction*
G04 #@! TA.AperFunction,Conductor*
G36*
X111274500Y-81692572D02*
G01*
X111313036Y-81725730D01*
X111313480Y-81726436D01*
X111319402Y-81732356D01*
X111398812Y-81811739D01*
X111397917Y-81812634D01*
X111438692Y-81867863D01*
X111449000Y-81922321D01*
X111449000Y-89474739D01*
X111429038Y-89549239D01*
X111374500Y-89603777D01*
X111361520Y-89610446D01*
X111361445Y-89610480D01*
X111285350Y-89623058D01*
X111239676Y-89611048D01*
X111231994Y-89607652D01*
X111230574Y-89607024D01*
X111230573Y-89607024D01*
X111220327Y-89602494D01*
X111203241Y-89600502D01*
X111198929Y-89599999D01*
X111198923Y-89599999D01*
X111194646Y-89599500D01*
X111191182Y-89599500D01*
X111118145Y-89575313D01*
X111066860Y-89517705D01*
X111051000Y-89450811D01*
X111051000Y-81821610D01*
X111070962Y-81747110D01*
X111125500Y-81692572D01*
X111200000Y-81672610D01*
X111274500Y-81692572D01*
G37*
G04 #@! TD.AperFunction*
G04 #@! TD*
M02*
