M48
; DRILL file {KiCad 6.0.7-1.fc35} date Mon 05 Sep 2022 07:13:16 PM CDT
; FORMAT={-:-/ absolute / inch / decimal}
; #@! TF.CreationDate,2022-09-05T19:13:16-05:00
; #@! TF.GenerationSoftware,Kicad,Pcbnew,6.0.7-1.fc35
; #@! TF.FileFunction,MixedPlating,1,4
FMAT,2
INCH
; #@! TA.AperFunction,Plated,PTH,ViaDrill
T1C0.0157
; #@! TA.AperFunction,NonPlated,NPTH,ComponentDrill
T2C0.0315
; #@! TA.AperFunction,NonPlated,NPTH,ComponentDrill
T3C0.0472
%
G90
G05
T1
X4.0256Y-3.6811
X4.0453Y-3.0217
X4.1535Y-3.1299
X4.2028Y-3.6811
X4.2224Y-3.0217
X4.2366Y-3.2677
X4.2618Y-3.1102
X4.3012Y-3.1102
X4.311Y-3.6811
X4.3406Y-3.1102
X4.376Y-3.1102
X4.3799Y-3.2677
X4.3898Y-3.0217
X4.4291Y-3.1102
X4.4291Y-3.8484
X4.4645Y-3.1102
X4.4685Y-3.8484
X4.5Y-3.1102
X4.5079Y-3.8484
X4.5374Y-3.1102
X4.5472Y-3.0217
X4.5472Y-3.8484
X4.5866Y-3.1102
X4.5866Y-3.8484
X4.622Y-3.1102
X4.626Y-3.8484
X4.6574Y-3.1102
X4.6654Y-3.8484
X4.6929Y-3.1102
X4.7047Y-3.0217
X4.7047Y-3.8484
X4.7441Y-3.1102
X4.7441Y-3.6811
X4.7441Y-3.8484
X4.7835Y-3.1102
X4.7835Y-3.8484
X4.8228Y-3.1102
X4.8228Y-3.8484
X4.8622Y-3.1102
X4.8622Y-3.8484
X4.872Y-3.0217
X4.9016Y-3.8484
X4.9256Y-3.6728
X4.9409Y-3.8484
X4.9483Y-3.4687
X4.9803Y-3.8484
X5.0197Y-3.8484
X5.0591Y-3.8484
X5.0886Y-3.1594
X5.128Y-3.6811
X5.1673Y-3.376
X5.2067Y-3.6811
X5.2165Y-3.3169
X5.2175Y-3.4341
X5.2756Y-3.6811
X5.3445Y-3.6811
X5.3642Y-3.189
X5.3839Y-3.1398
X5.4055Y-3.6929
X5.4429Y-3.6909
X5.5413Y-3.0315
X5.5413Y-3.1201
X5.5423Y-3.2283
X5.5906Y-3.2382
T2
X4.1102Y-3.6811
T3
X5.5354Y-3.6811
T0
M30
