G04 #@! TF.GenerationSoftware,KiCad,Pcbnew,6.0.7-1.fc35*
G04 #@! TF.CreationDate,2022-09-05T19:13:26-05:00*
G04 #@! TF.ProjectId,lcd-adapter,6c63642d-6164-4617-9074-65722e6b6963,rev?*
G04 #@! TF.SameCoordinates,Original*
G04 #@! TF.FileFunction,Soldermask,Bot*
G04 #@! TF.FilePolarity,Negative*
%FSLAX46Y46*%
G04 Gerber Fmt 4.6, Leading zero omitted, Abs format (unit mm)*
G04 Created by KiCad (PCBNEW 6.0.7-1.fc35) date 2022-09-05 19:13:26*
%MOMM*%
%LPD*%
G01*
G04 APERTURE LIST*
%ADD10C,0.800000*%
%ADD11C,1.200000*%
%ADD12R,0.500000X2.400000*%
G04 APERTURE END LIST*
D10*
G04 #@! TO.C,J2*
X104400000Y-93500000D03*
D11*
X140600000Y-93500000D03*
D12*
X138100000Y-95900000D03*
X138100000Y-91100000D03*
X137300000Y-95900000D03*
X137300000Y-91100000D03*
X136500000Y-95900000D03*
X136500000Y-91100000D03*
X135700000Y-95900000D03*
X135700000Y-91100000D03*
X134900000Y-95900000D03*
X134900000Y-91100000D03*
X134100000Y-95900000D03*
X134100000Y-91100000D03*
X133300000Y-95900000D03*
X133300000Y-91100000D03*
X132500000Y-95900000D03*
X132500000Y-91100000D03*
X131700000Y-95900000D03*
X131700000Y-91100000D03*
X130900000Y-95900000D03*
X130900000Y-91100000D03*
X130100000Y-95900000D03*
X130100000Y-91100000D03*
X129300000Y-95900000D03*
X129300000Y-91100000D03*
X128500000Y-95900000D03*
X128500000Y-91100000D03*
X127700000Y-95900000D03*
X127700000Y-91100000D03*
X126900000Y-95900000D03*
X126900000Y-91100000D03*
X126100000Y-95900000D03*
X126100000Y-91100000D03*
X125300000Y-95900000D03*
X125300000Y-91100000D03*
X124500000Y-95900000D03*
X124500000Y-91100000D03*
X123700000Y-95900000D03*
X123700000Y-91100000D03*
X122900000Y-95900000D03*
X122900000Y-91100000D03*
X122100000Y-95900000D03*
X122100000Y-91100000D03*
X121300000Y-95900000D03*
X121300000Y-91100000D03*
X120500000Y-95900000D03*
X120500000Y-91100000D03*
X119700000Y-95900000D03*
X119700000Y-91100000D03*
X118900000Y-95900000D03*
X118900000Y-91100000D03*
X118100000Y-95900000D03*
X118100000Y-91100000D03*
X117300000Y-95900000D03*
X117300000Y-91100000D03*
X116500000Y-95900000D03*
X116500000Y-91100000D03*
X115700000Y-95900000D03*
X115700000Y-91100000D03*
X114900000Y-95900000D03*
X114900000Y-91100000D03*
X114100000Y-95900000D03*
X114100000Y-91100000D03*
X113300000Y-95900000D03*
X113300000Y-91100000D03*
X112500000Y-95900000D03*
X112500000Y-91100000D03*
X111700000Y-95900000D03*
X111700000Y-91100000D03*
X110900000Y-95900000D03*
X110900000Y-91100000D03*
X110100000Y-95900000D03*
X110100000Y-91100000D03*
X109300000Y-95900000D03*
X109300000Y-91100000D03*
X108500000Y-95900000D03*
X108500000Y-91100000D03*
X107700000Y-95900000D03*
X107700000Y-91100000D03*
X106900000Y-95900000D03*
X106900000Y-91100000D03*
G04 #@! TD*
M02*
