G04 #@! TF.GenerationSoftware,KiCad,Pcbnew,6.0.7-1.fc35*
G04 #@! TF.CreationDate,2022-09-05T19:13:26-05:00*
G04 #@! TF.ProjectId,lcd-adapter,6c63642d-6164-4617-9074-65722e6b6963,rev?*
G04 #@! TF.SameCoordinates,Original*
G04 #@! TF.FileFunction,AssemblyDrawing,Bot*
%FSLAX46Y46*%
G04 Gerber Fmt 4.6, Leading zero omitted, Abs format (unit mm)*
G04 Created by KiCad (PCBNEW 6.0.7-1.fc35) date 2022-09-05 19:13:26*
%MOMM*%
%LPD*%
G01*
G04 APERTURE LIST*
%ADD10C,0.150000*%
%ADD11C,0.127000*%
G04 APERTURE END LIST*
D10*
X133333333Y-72897380D02*
X133333333Y-71897380D01*
X132952380Y-71897380D01*
X132857142Y-71945000D01*
X132809523Y-71992619D01*
X132761904Y-72087857D01*
X132761904Y-72230714D01*
X132809523Y-72325952D01*
X132857142Y-72373571D01*
X132952380Y-72421190D01*
X133333333Y-72421190D01*
X132190476Y-72897380D02*
X132285714Y-72849761D01*
X132333333Y-72754523D01*
X132333333Y-71897380D01*
X131380952Y-72897380D02*
X131380952Y-72373571D01*
X131428571Y-72278333D01*
X131523809Y-72230714D01*
X131714285Y-72230714D01*
X131809523Y-72278333D01*
X131380952Y-72849761D02*
X131476190Y-72897380D01*
X131714285Y-72897380D01*
X131809523Y-72849761D01*
X131857142Y-72754523D01*
X131857142Y-72659285D01*
X131809523Y-72564047D01*
X131714285Y-72516428D01*
X131476190Y-72516428D01*
X131380952Y-72468809D01*
X130476190Y-72849761D02*
X130571428Y-72897380D01*
X130761904Y-72897380D01*
X130857142Y-72849761D01*
X130904761Y-72802142D01*
X130952380Y-72706904D01*
X130952380Y-72421190D01*
X130904761Y-72325952D01*
X130857142Y-72278333D01*
X130761904Y-72230714D01*
X130571428Y-72230714D01*
X130476190Y-72278333D01*
X129666666Y-72849761D02*
X129761904Y-72897380D01*
X129952380Y-72897380D01*
X130047619Y-72849761D01*
X130095238Y-72754523D01*
X130095238Y-72373571D01*
X130047619Y-72278333D01*
X129952380Y-72230714D01*
X129761904Y-72230714D01*
X129666666Y-72278333D01*
X129619047Y-72373571D01*
X129619047Y-72468809D01*
X130095238Y-72564047D01*
X128428571Y-72230714D02*
X128428571Y-73230714D01*
X128428571Y-72278333D02*
X128333333Y-72230714D01*
X128142857Y-72230714D01*
X128047619Y-72278333D01*
X128000000Y-72325952D01*
X127952380Y-72421190D01*
X127952380Y-72706904D01*
X128000000Y-72802142D01*
X128047619Y-72849761D01*
X128142857Y-72897380D01*
X128333333Y-72897380D01*
X128428571Y-72849761D01*
X127523809Y-72897380D02*
X127523809Y-72230714D01*
X127523809Y-72421190D02*
X127476190Y-72325952D01*
X127428571Y-72278333D01*
X127333333Y-72230714D01*
X127238095Y-72230714D01*
X126761904Y-72897380D02*
X126857142Y-72849761D01*
X126904761Y-72802142D01*
X126952380Y-72706904D01*
X126952380Y-72421190D01*
X126904761Y-72325952D01*
X126857142Y-72278333D01*
X126761904Y-72230714D01*
X126619047Y-72230714D01*
X126523809Y-72278333D01*
X126476190Y-72325952D01*
X126428571Y-72421190D01*
X126428571Y-72706904D01*
X126476190Y-72802142D01*
X126523809Y-72849761D01*
X126619047Y-72897380D01*
X126761904Y-72897380D01*
X125571428Y-72897380D02*
X125571428Y-71897380D01*
X125571428Y-72849761D02*
X125666666Y-72897380D01*
X125857142Y-72897380D01*
X125952380Y-72849761D01*
X126000000Y-72802142D01*
X126047619Y-72706904D01*
X126047619Y-72421190D01*
X126000000Y-72325952D01*
X125952380Y-72278333D01*
X125857142Y-72230714D01*
X125666666Y-72230714D01*
X125571428Y-72278333D01*
X124666666Y-72230714D02*
X124666666Y-72897380D01*
X125095238Y-72230714D02*
X125095238Y-72754523D01*
X125047619Y-72849761D01*
X124952380Y-72897380D01*
X124809523Y-72897380D01*
X124714285Y-72849761D01*
X124666666Y-72802142D01*
X123761904Y-72849761D02*
X123857142Y-72897380D01*
X124047619Y-72897380D01*
X124142857Y-72849761D01*
X124190476Y-72802142D01*
X124238095Y-72706904D01*
X124238095Y-72421190D01*
X124190476Y-72325952D01*
X124142857Y-72278333D01*
X124047619Y-72230714D01*
X123857142Y-72230714D01*
X123761904Y-72278333D01*
X123476190Y-72230714D02*
X123095238Y-72230714D01*
X123333333Y-71897380D02*
X123333333Y-72754523D01*
X123285714Y-72849761D01*
X123190476Y-72897380D01*
X123095238Y-72897380D01*
X122761904Y-72897380D02*
X122761904Y-72230714D01*
X122761904Y-71897380D02*
X122809523Y-71945000D01*
X122761904Y-71992619D01*
X122714285Y-71945000D01*
X122761904Y-71897380D01*
X122761904Y-71992619D01*
X122142857Y-72897380D02*
X122238095Y-72849761D01*
X122285714Y-72802142D01*
X122333333Y-72706904D01*
X122333333Y-72421190D01*
X122285714Y-72325952D01*
X122238095Y-72278333D01*
X122142857Y-72230714D01*
X122000000Y-72230714D01*
X121904761Y-72278333D01*
X121857142Y-72325952D01*
X121809523Y-72421190D01*
X121809523Y-72706904D01*
X121857142Y-72802142D01*
X121904761Y-72849761D01*
X122000000Y-72897380D01*
X122142857Y-72897380D01*
X121380952Y-72230714D02*
X121380952Y-72897380D01*
X121380952Y-72325952D02*
X121333333Y-72278333D01*
X121238095Y-72230714D01*
X121095238Y-72230714D01*
X121000000Y-72278333D01*
X120952380Y-72373571D01*
X120952380Y-72897380D01*
X119285714Y-72849761D02*
X119380952Y-72897380D01*
X119571428Y-72897380D01*
X119666666Y-72849761D01*
X119714285Y-72802142D01*
X119761904Y-72706904D01*
X119761904Y-72421190D01*
X119714285Y-72325952D01*
X119666666Y-72278333D01*
X119571428Y-72230714D01*
X119380952Y-72230714D01*
X119285714Y-72278333D01*
X118714285Y-72897380D02*
X118809523Y-72849761D01*
X118857142Y-72802142D01*
X118904761Y-72706904D01*
X118904761Y-72421190D01*
X118857142Y-72325952D01*
X118809523Y-72278333D01*
X118714285Y-72230714D01*
X118571428Y-72230714D01*
X118476190Y-72278333D01*
X118428571Y-72325952D01*
X118380952Y-72421190D01*
X118380952Y-72706904D01*
X118428571Y-72802142D01*
X118476190Y-72849761D01*
X118571428Y-72897380D01*
X118714285Y-72897380D01*
X117523809Y-72897380D02*
X117523809Y-71897380D01*
X117523809Y-72849761D02*
X117619047Y-72897380D01*
X117809523Y-72897380D01*
X117904761Y-72849761D01*
X117952380Y-72802142D01*
X118000000Y-72706904D01*
X118000000Y-72421190D01*
X117952380Y-72325952D01*
X117904761Y-72278333D01*
X117809523Y-72230714D01*
X117619047Y-72230714D01*
X117523809Y-72278333D01*
X116666666Y-72849761D02*
X116761904Y-72897380D01*
X116952380Y-72897380D01*
X117047619Y-72849761D01*
X117095238Y-72754523D01*
X117095238Y-72373571D01*
X117047619Y-72278333D01*
X116952380Y-72230714D01*
X116761904Y-72230714D01*
X116666666Y-72278333D01*
X116619047Y-72373571D01*
X116619047Y-72468809D01*
X117095238Y-72564047D01*
X115428571Y-72897380D02*
X115428571Y-71897380D01*
X115000000Y-72897380D02*
X115000000Y-72373571D01*
X115047619Y-72278333D01*
X115142857Y-72230714D01*
X115285714Y-72230714D01*
X115380952Y-72278333D01*
X115428571Y-72325952D01*
X114142857Y-72849761D02*
X114238095Y-72897380D01*
X114428571Y-72897380D01*
X114523809Y-72849761D01*
X114571428Y-72754523D01*
X114571428Y-72373571D01*
X114523809Y-72278333D01*
X114428571Y-72230714D01*
X114238095Y-72230714D01*
X114142857Y-72278333D01*
X114095238Y-72373571D01*
X114095238Y-72468809D01*
X114571428Y-72564047D01*
X113666666Y-72897380D02*
X113666666Y-72230714D01*
X113666666Y-72421190D02*
X113619047Y-72325952D01*
X113571428Y-72278333D01*
X113476190Y-72230714D01*
X113380952Y-72230714D01*
X112666666Y-72849761D02*
X112761904Y-72897380D01*
X112952380Y-72897380D01*
X113047619Y-72849761D01*
X113095238Y-72754523D01*
X113095238Y-72373571D01*
X113047619Y-72278333D01*
X112952380Y-72230714D01*
X112761904Y-72230714D01*
X112666666Y-72278333D01*
X112619047Y-72373571D01*
X112619047Y-72468809D01*
X113095238Y-72564047D01*
X129785714Y-74507380D02*
X129880952Y-74459761D01*
X129928571Y-74412142D01*
X129976190Y-74316904D01*
X129976190Y-74031190D01*
X129928571Y-73935952D01*
X129880952Y-73888333D01*
X129785714Y-73840714D01*
X129642857Y-73840714D01*
X129547619Y-73888333D01*
X129500000Y-73935952D01*
X129452380Y-74031190D01*
X129452380Y-74316904D01*
X129500000Y-74412142D01*
X129547619Y-74459761D01*
X129642857Y-74507380D01*
X129785714Y-74507380D01*
X129023809Y-73840714D02*
X129023809Y-74507380D01*
X129023809Y-73935952D02*
X128976190Y-73888333D01*
X128880952Y-73840714D01*
X128738095Y-73840714D01*
X128642857Y-73888333D01*
X128595238Y-73983571D01*
X128595238Y-74507380D01*
X127357142Y-74507380D02*
X127357142Y-73507380D01*
X127357142Y-73888333D02*
X127261904Y-73840714D01*
X127071428Y-73840714D01*
X126976190Y-73888333D01*
X126928571Y-73935952D01*
X126880952Y-74031190D01*
X126880952Y-74316904D01*
X126928571Y-74412142D01*
X126976190Y-74459761D01*
X127071428Y-74507380D01*
X127261904Y-74507380D01*
X127357142Y-74459761D01*
X126023809Y-74507380D02*
X126023809Y-73983571D01*
X126071428Y-73888333D01*
X126166666Y-73840714D01*
X126357142Y-73840714D01*
X126452380Y-73888333D01*
X126023809Y-74459761D02*
X126119047Y-74507380D01*
X126357142Y-74507380D01*
X126452380Y-74459761D01*
X126500000Y-74364523D01*
X126500000Y-74269285D01*
X126452380Y-74174047D01*
X126357142Y-74126428D01*
X126119047Y-74126428D01*
X126023809Y-74078809D01*
X125119047Y-74459761D02*
X125214285Y-74507380D01*
X125404761Y-74507380D01*
X125500000Y-74459761D01*
X125547619Y-74412142D01*
X125595238Y-74316904D01*
X125595238Y-74031190D01*
X125547619Y-73935952D01*
X125500000Y-73888333D01*
X125404761Y-73840714D01*
X125214285Y-73840714D01*
X125119047Y-73888333D01*
X124690476Y-74507380D02*
X124690476Y-73507380D01*
X124595238Y-74126428D02*
X124309523Y-74507380D01*
X124309523Y-73840714D02*
X124690476Y-74221666D01*
X123166666Y-74459761D02*
X123071428Y-74507380D01*
X122880952Y-74507380D01*
X122785714Y-74459761D01*
X122738095Y-74364523D01*
X122738095Y-74316904D01*
X122785714Y-74221666D01*
X122880952Y-74174047D01*
X123023809Y-74174047D01*
X123119047Y-74126428D01*
X123166666Y-74031190D01*
X123166666Y-73983571D01*
X123119047Y-73888333D01*
X123023809Y-73840714D01*
X122880952Y-73840714D01*
X122785714Y-73888333D01*
X122309523Y-74507380D02*
X122309523Y-73840714D01*
X122309523Y-73507380D02*
X122357142Y-73555000D01*
X122309523Y-73602619D01*
X122261904Y-73555000D01*
X122309523Y-73507380D01*
X122309523Y-73602619D01*
X121690476Y-74507380D02*
X121785714Y-74459761D01*
X121833333Y-74364523D01*
X121833333Y-73507380D01*
X121309523Y-74507380D02*
X121309523Y-73507380D01*
X121214285Y-74126428D02*
X120928571Y-74507380D01*
X120928571Y-73840714D02*
X121309523Y-74221666D01*
X120547619Y-74459761D02*
X120452380Y-74507380D01*
X120261904Y-74507380D01*
X120166666Y-74459761D01*
X120119047Y-74364523D01*
X120119047Y-74316904D01*
X120166666Y-74221666D01*
X120261904Y-74174047D01*
X120404761Y-74174047D01*
X120500000Y-74126428D01*
X120547619Y-74031190D01*
X120547619Y-73983571D01*
X120500000Y-73888333D01*
X120404761Y-73840714D01*
X120261904Y-73840714D01*
X120166666Y-73888333D01*
X119261904Y-74459761D02*
X119357142Y-74507380D01*
X119547619Y-74507380D01*
X119642857Y-74459761D01*
X119690476Y-74412142D01*
X119738095Y-74316904D01*
X119738095Y-74031190D01*
X119690476Y-73935952D01*
X119642857Y-73888333D01*
X119547619Y-73840714D01*
X119357142Y-73840714D01*
X119261904Y-73888333D01*
X118833333Y-74507380D02*
X118833333Y-73840714D01*
X118833333Y-74031190D02*
X118785714Y-73935952D01*
X118738095Y-73888333D01*
X118642857Y-73840714D01*
X118547619Y-73840714D01*
X117833333Y-74459761D02*
X117928571Y-74507380D01*
X118119047Y-74507380D01*
X118214285Y-74459761D01*
X118261904Y-74364523D01*
X118261904Y-73983571D01*
X118214285Y-73888333D01*
X118119047Y-73840714D01*
X117928571Y-73840714D01*
X117833333Y-73888333D01*
X117785714Y-73983571D01*
X117785714Y-74078809D01*
X118261904Y-74174047D01*
X116976190Y-74459761D02*
X117071428Y-74507380D01*
X117261904Y-74507380D01*
X117357142Y-74459761D01*
X117404761Y-74364523D01*
X117404761Y-73983571D01*
X117357142Y-73888333D01*
X117261904Y-73840714D01*
X117071428Y-73840714D01*
X116976190Y-73888333D01*
X116928571Y-73983571D01*
X116928571Y-74078809D01*
X117404761Y-74174047D01*
X116500000Y-73840714D02*
X116500000Y-74507380D01*
X116500000Y-73935952D02*
X116452380Y-73888333D01*
X116357142Y-73840714D01*
X116214285Y-73840714D01*
X116119047Y-73888333D01*
X116071428Y-73983571D01*
X116071428Y-74507380D01*
D11*
G04 #@! TO.C,J2*
X141400000Y-90100000D02*
X103600000Y-90100000D01*
X103600000Y-90100000D02*
X103600000Y-96900000D01*
X103600000Y-96900000D02*
X141400000Y-96900000D01*
X141400000Y-96900000D02*
X141400000Y-90100000D01*
G04 #@! TD*
M02*
