G04 #@! TF.GenerationSoftware,KiCad,Pcbnew,6.0.7-1.fc35*
G04 #@! TF.CreationDate,2022-09-05T19:13:25-05:00*
G04 #@! TF.ProjectId,lcd-adapter,6c63642d-6164-4617-9074-65722e6b6963,rev?*
G04 #@! TF.SameCoordinates,Original*
G04 #@! TF.FileFunction,Paste,Top*
G04 #@! TF.FilePolarity,Positive*
%FSLAX46Y46*%
G04 Gerber Fmt 4.6, Leading zero omitted, Abs format (unit mm)*
G04 Created by KiCad (PCBNEW 6.0.7-1.fc35) date 2022-09-05 19:13:25*
%MOMM*%
%LPD*%
G01*
G04 APERTURE LIST*
G04 Aperture macros list*
%AMRoundRect*
0 Rectangle with rounded corners*
0 $1 Rounding radius*
0 $2 $3 $4 $5 $6 $7 $8 $9 X,Y pos of 4 corners*
0 Add a 4 corners polygon primitive as box body*
4,1,4,$2,$3,$4,$5,$6,$7,$8,$9,$2,$3,0*
0 Add four circle primitives for the rounded corners*
1,1,$1+$1,$2,$3*
1,1,$1+$1,$4,$5*
1,1,$1+$1,$6,$7*
1,1,$1+$1,$8,$9*
0 Add four rect primitives between the rounded corners*
20,1,$1+$1,$2,$3,$4,$5,0*
20,1,$1+$1,$4,$5,$6,$7,0*
20,1,$1+$1,$6,$7,$8,$9,0*
20,1,$1+$1,$8,$9,$2,$3,0*%
G04 Aperture macros list end*
%ADD10R,0.300000X1.300000*%
%ADD11R,1.800000X2.200000*%
%ADD12R,1.000000X1.000000*%
%ADD13RoundRect,0.250000X0.650000X-0.325000X0.650000X0.325000X-0.650000X0.325000X-0.650000X-0.325000X0*%
%ADD14RoundRect,0.237500X-0.237500X0.250000X-0.237500X-0.250000X0.237500X-0.250000X0.237500X0.250000X0*%
%ADD15RoundRect,0.237500X0.250000X0.237500X-0.250000X0.237500X-0.250000X-0.237500X0.250000X-0.237500X0*%
%ADD16RoundRect,0.250000X0.325000X0.650000X-0.325000X0.650000X-0.325000X-0.650000X0.325000X-0.650000X0*%
%ADD17RoundRect,0.150000X0.512500X0.150000X-0.512500X0.150000X-0.512500X-0.150000X0.512500X-0.150000X0*%
%ADD18R,0.800000X2.700000*%
%ADD19RoundRect,0.237500X0.237500X-0.250000X0.237500X0.250000X-0.237500X0.250000X-0.237500X-0.250000X0*%
G04 APERTURE END LIST*
D10*
G04 #@! TO.C,J1*
X125000000Y-84550000D03*
X124500000Y-84550000D03*
X124000000Y-84550000D03*
X123500000Y-84550000D03*
X123000000Y-84550000D03*
X122500000Y-84550000D03*
X122000000Y-84550000D03*
X121500000Y-84550000D03*
X121000000Y-84550000D03*
X120500000Y-84550000D03*
X120000000Y-84550000D03*
X119500000Y-84550000D03*
X119000000Y-84550000D03*
X118500000Y-84550000D03*
X118000000Y-84550000D03*
X117500000Y-84550000D03*
X117000000Y-84550000D03*
X116500000Y-84550000D03*
X116000000Y-84550000D03*
X115500000Y-84550000D03*
X115000000Y-84550000D03*
X114500000Y-84550000D03*
X114000000Y-84550000D03*
X113500000Y-84550000D03*
X113000000Y-84550000D03*
X112500000Y-84550000D03*
X112000000Y-84550000D03*
X111500000Y-84550000D03*
X111000000Y-84550000D03*
X110500000Y-84550000D03*
X110000000Y-84550000D03*
X109500000Y-84550000D03*
X109000000Y-84550000D03*
X108500000Y-84550000D03*
X108000000Y-84550000D03*
X107500000Y-84550000D03*
X107000000Y-84550000D03*
X106500000Y-84550000D03*
X106000000Y-84550000D03*
X105500000Y-84550000D03*
D11*
X126900000Y-81300000D03*
X103600000Y-81300000D03*
G04 #@! TD*
D12*
G04 #@! TO.C,D1*
X142000000Y-85500000D03*
X142000000Y-88000000D03*
G04 #@! TD*
D13*
G04 #@! TO.C,C2*
X142000000Y-83725000D03*
X142000000Y-80775000D03*
G04 #@! TD*
D14*
G04 #@! TO.C,R1*
X132250000Y-80087500D03*
X132250000Y-81912500D03*
G04 #@! TD*
D15*
G04 #@! TO.C,R3*
X139662500Y-79250000D03*
X137837500Y-79250000D03*
G04 #@! TD*
D16*
G04 #@! TO.C,C1*
X135475000Y-85750000D03*
X132525000Y-85750000D03*
G04 #@! TD*
D17*
G04 #@! TO.C,U1*
X139637500Y-82950000D03*
X139637500Y-82000000D03*
X139637500Y-81050000D03*
X137362500Y-81050000D03*
X137362500Y-82000000D03*
X137362500Y-82950000D03*
G04 #@! TD*
D18*
G04 #@! TO.C,L1*
X137400000Y-85750000D03*
X139600000Y-85750000D03*
G04 #@! TD*
D19*
G04 #@! TO.C,R2*
X130500000Y-81912500D03*
X130500000Y-80087500D03*
G04 #@! TD*
M02*
